<?xml version="1.0" encoding="utf-8"?>
<!-- Generator: Adobe Illustrator 25.3.1, SVG Export Plug-In . SVG Version: 6.00 Build 0)  -->
<svg version="1.1" id="me-vector" xmlns="http://www.w3.org/2000/svg" xmlns:xlink="http://www.w3.org/1999/xlink" x="0px" y="0px"
	 viewBox="0 0 110 200" style="enable-background:new 0 0 110 200;" xml:space="preserve">
<style type="text/css">
	.st0{fill:#FEC11E;}
</style>
<path id="right-arm" d="M64.2,112.7c8.5-7.8,20.1-14.2,30.2-18.1c1.2-0.5,2.1-1.4,2.8-2.6c1.2-2.1,2.8-2.7,5-1.7c0,0.1,0,0.3,0,0.4
	c0.1,1.6,1.5,3,0.3,5c-1,1.6-2.4,1.8-3.6,2.6c-2.9,1.8-6.4,2.4-9.5,3.9c-5.3,2.5-10.1,5.9-15.2,8.8c-0.2,0.1-0.4,0.4-0.6,0.6
	c-1.1,1.2-1.9,2.6-3.2,3.5c-1.3,0.9-4.4,3.5-5.5,4.5L64.2,112.7z"/>
<path d="M60.2,119.9c-0.4-2,1.7-12.4,1.5-14.5c-0.2-1.8,0-3.5,0.7-5.3c0.6-1.5,0.1-3.4,0.1-5.1c0-4.9-0.1-9.7,0.1-14.6
	c0.1-1.3-1.4-2.4-0.2-3.7c0.1-0.1-0.6-0.8-0.7-1.3c-0.3-1-0.9-1.6-2-1.8c-6.6-0.7-12.6-3.1-18.4-6.3c-1-0.5-1.9-0.4-2.8-0.5
	c-0.1-2.4-2.3-3.6-3.1-5.5c-0.8-1.7-1.8-1.2-2.9-1.4c-0.6-0.6-1.6-0.7-1.7-1.7c0-1.9,0.7-4.1-0.2-5.4c-1-1.5,0.1-3.4-1.5-4.6
	c-0.3-0.2-0.7-2.1,1.2-2c0.5,0,0.6-0.9,1.4-0.8c1.1,0.6,1.4,1.7,1.7,2.8C36.7,60.5,51,69.6,63.7,67.8c8.9-1.3,16-5.4,22-11.9
	c2.1-2.3,3.5-5.1,3.3-8.1c-0.3-4.5,0.5-8.8,0.4-13.2c0.1-0.4,0.3-0.8,0.6-1.1c2.5,0.6,3.1,3.1,3.2,4.8c0.3,3,0.9,6.2-0.4,9.1
	c-0.2,0.4-0.3,0.8-0.2,1.2c0.5,3.1-1.4,6-0.9,9.1c0.2,1-0.4,1.6-1,2.2c-1.3,1.2-2.4,2.6-2.4,4.6c-0.3,0.3-0.6,0.6-0.9,0.9
	s-0.6,0.6-0.9,0.9c-0.2,0.2-0.4,0.4-0.6,0.6s-0.5,0.3-0.8,0.5c-0.1,0-0.3,0.1-0.4,0.1c-0.3,0-0.6-0.1-0.7-0.4
	c-3.2,1.4-6.4,2.9-9.6,4.3c-0.4,0.2-0.8,0.3-0.7,0.9c-0.2,0.6-0.4,1.2-1,1.3c-5.5,1.3-5.7,5.5-5.6,10c0.1,4.6-0.1,9.1,0.1,13.7
	c0.2,4.4-2.2,17.2-2.3,22.3l-3.2,0.6L60.2,119.9z"/>
<path d="M61,120.9c-0.7-1.2-2.9-3.6-4.4-4.4c-2-1.1-3.9-2.3-5.9-3.2c-1.2-0.6-3-0.7-3.4-1.9c-0.5-1.6-2.1-1.5-2.8-2.6
	c-1.1-1.8-6.5-5.9-8.9-7.2c-3.4-1.9-3.5-1.8-9.8-2.1c-0.5-0.8-0.3-1.7-0.2-2.5c0.1-0.9,0.8-1.5,1.6-1.6c2.3-0.5,6.1,0.7,8.3,1.7
	c2.8,1.3,4.9,3.3,7.4,4.9c2.6,1.7,4.6,4.1,6.9,6.1c2.9,2.4,6.6,3.4,9.8,5.3c0.9,0.6,2.9-0.1,2.7-1.2"/>
<path d="M66.6,117.9c-0.5,0.5-1.9,4.2-1.6,4.8c0.7,1.7,0.2,3.2,0,4.9c-0.2,1.7-0.2,3.4,0,5.1c0.1,1.6-1.2,2.7-1,4.4
	c0.2,1.3,0.6,2.7-0.7,4c-0.4,0.4-0.1,1.6-0.1,2.5c0,5,0.1,10,0,15c-0.1,3.6,1.7,6.4,3.7,9.2c1.6,2.2,4.3,3.6,5.4,6.3
	c2.7,1,4,3.8,6.4,5.1c1.2,0.7,1.9,1.8,2.7,2.9c1.9,2.6,3.7,5.3,5,8.2c0.5,1.2,1.4,1.5,2.4,2c1.2,0.5,2.4,1.2,2,2.9
	c-0.1,0.5,0,1.1,0,1.9c-1.5,0-2.9,0-4.3,0c-1.9-2.3-4.2-4.4-4.7-7.7c-2.5-2.8-3.6-6.8-7.5-8.4c-1.3-2.7-4.4-3.5-6-5.9
	c-1.7-2.4-4.1-4.3-6.3-6.7c-3.6,2.4-5.6,6.8-8.7,9.6c-1.7,1.6-2.4,3.3-4.8,4c-0.8,0.2-1.6,2.5-2.2,3.2c-1.9,2.3-3.9,4.4-6.6,5.7
	c-0.4,2.2-2.8,2.4-3.9,3.9c-1.6,2-3.5,2.7-5.8,2c-0.7-2.5,0.2-4.2,2.5-4.9c1.9-0.6,3.1-2.2,4.6-3.5c1.1-1,1.9-2.3,3.5-2.8
	c1.1-0.4,2.3-1.6,2.7-2.7c0.6-2.2,2.7-4.1,4.3-4.7c2.3-0.9,1.6-3.8,3.6-5c2.7-1.6,4.3-5.4,6.4-7.8c1.4-1.6,2.2-3.3,2.2-5.5
	c-0.1-5.6,0.2-11.1-0.1-16.7c-0.2-3.8,0.9-7.4,1.1-11.2c0.1-2.2,1.4-4.4-0.2-6.6c-0.2-0.3,0-0.8,0.3-1.1c0.9-1,0.7-2-0.2-2.9
	c-0.3-0.4-0.3-1-0.6-1.5"/>
<path d="M47,31c-0.9,0.1-2.3,0.2-2.7,1.6c-0.1,1.1,0.9,0.7,1.4,1c2.7,1.2,3.5,0.7,3.7-2.3c0-0.4,0-0.8,0-1.3
	C48.6,30.1,48,30.9,47,31z"/>
<path d="M68.6,30.1c-0.7,0.5-0.5,1.5-0.3,1.9c0.5,1.1,1.7,1.6,2.1,2.9c0.1,0.3,1.8,0.1,2.8,0.2c1,0.1,1.6-0.7,1.9-1.4
	s0.3-1.6-0.5-2.3c-1.2-1-2.2-2.2-3.3-3.3C69.8,28.6,69.4,29.5,68.6,30.1z"/>
<path d="M64.9,40c0.2-1.3-1.4-2.3-3.6-2.2c-1.3,0-3.3,1.7-3.2,2.7c0.1,0.8,0.9,1.2,1,2.1c0.1,0.6,1,0.2,1.5,0.3
	C63,42.9,64.6,41.8,64.9,40z"/>
<g id="hair">
	<path class="st0" d="M106.4,68.6c-1.6-3.5-3.1-7.2-0.2-10.8c0.4-0.5,0.5-1.4,0.4-2.1c-0.6-4.4-0.7-8.7-1.9-13.1
		c-2.4-9.1-8.1-17-9.6-26.4c-0.2-1.1-0.8-2.2-1.7-2.9c-2.7-2-6.7-2.5-7.4-6.7c0-0.2-0.5-0.4-0.7-0.4C81.4,6.6,78.4,3.6,74.8,3
		c-2,0-4.1,0-6.1,0c-0.5,0-0.9,0-1.4,0c-3.3-0.3-6.6,1.3-9.7,0.5c-6.2-1.4-11.4,0.9-15.9,4.4c-4.3,3.3-8.6,6.6-13.2,9.4
		c-4.5,2.8-7.7,6.9-8.6,11.8c-1.4,7.4-4.4,14.1-7.4,20.9c-3.4,7.6-3.2,16.1-5.8,24c-1.1,3.2-3.3,6.3-2.7,9.8
		c0.5,3.4-0.7,6.1-2.5,8.8c0,0.6,0,1.1,0,1.7C2.8,94.2,2,95.9,2.9,96c0.8,0.1,1.9,0.3,2.5,0c1.6-0.9,3.9-0.6,4.8-2.9
		c0.5-1.3,2.2-2.2,3.2-3.4c0.6-0.7,0.9,0.2,1.2,0.2c2.4,0,4.6,1.8,6.8,0.9c1.1-0.4,2-0.8,3.1-0.7c2.2,0.2,4-0.1,4.9-2.6
		c0.5-1.4,1.8-1.1,3.2-0.9c3.1,0.5,4.6-0.9,4.8-4.1c0.1-0.7,0-1.4,0-2.1s-0.1-1.5,0.2-2c1.2-1.7,1-3.8,0.5-5.3
		C37.4,71,37.5,69,37.4,67c0.3-3.8-1.2-6-5.3-7.7c-1.1,0.1-2.5,0.6-1.6-1.5c0.5-2.3,0.2-4.5-0.5-6.7c-0.6-2.1-0.3-3.9,1-5.5
		c0.4-1,0.4-2,0.1-3c-0.1-0.1-0.1-0.2-0.2-0.4c-0.6,0-1.2,0-1.2-1.1c0-0.6,0-1.2,0-1.8c0-0.2,0-0.4,0-0.6c0-0.7,0-1.5,0-2.2
		c0.1-2.8,1.3,0.6,1.7-0.3c0,0.1,0,0.3,0,0.4c4.1-0.8,7.9-2.6,12-3.4c1.9-0.7,3.8-1.4,5.7-2.3c2.6-0.8,4.4-3.7,7.1-3.7
		c5.1,0.1,8.5-2.9,11.9-5.9c2.1-1.9,4.3-3.1,7.2-3.2c0.6-0.1,1.1-0.3,1.7-0.4s1.1-0.1,1.7-0.1c0.4-1.4,1.5-0.6,2.5-0.3
		c3.3,0,3.3,0,5.1,3.4c1.9,0.7,2.2,2.4,2.5,4c0.2,0.9,0,1.9,0,2.9c0,1.1,0,2.3,0,3.4c-0.7,0.1,0.4-0.3,0.4-0.9
		c0-0.8-1.3-1.8-1.3-2.6c0-0.7,1.9-5.9,1.3-6.4c-0.3-0.3-1.7-2.2-2-2.5c0.2,0.9-0.4,8.1-0.5,9c0,1,0,2.1,0.2,3.1
		c0.1,0.4,0.2,0.8,0.3,1.2c0.3,0.8,2.6,3.7,3.1,4.4c1.9,2.1,0.8,2.6,0.6,5.3c-0.6,7.2-0.6,14.5-4.6,20.9c-0.2,0.5-0.4,1.1-0.6,1.6
		c-0.1,0.2-0.2,0.3-0.2,0.5c-0.2,0.3-0.4,0.6-0.6,0.9s-0.3,0.6-0.4,1c-0.1,0.5-0.2,1.1-0.2,1.6s0,1.1-0.1,1.6
		c-0.2,0.6-0.4,1.3-0.3,2c0,0.2,0.2,0.3,0.2,0.3c0.6-0.1-0.3,0.5-0.3,0c0.1-0.9,0.1-1.7,0.4-2.5c0-0.4-0.1-0.8-0.2-1.2
		c-0.4-0.8-0.8-1.5-1.7-1.9c-3.9,1.3-8.3,1.6-10.6,5.7c-0.7,4.1-1.1,8.1,0.3,12.1c0.8,2.4,2,4.5,5.2,3.5c1.8-1,1.5-2.6,1.5-4.2
		c0.1-0.5-0.3-1.2,0.4-1.5c-0.6,0.4-0.2,1-0.3,1.6c0.1,1.3-0.3,2.6,0,4c0.9,2.1,3.2,0.9,4.7,2.2c2.9,2.6,4.8,1.9,6.1-1.8
		c1.1-3.2,2.2-6.4,2.5-9.8c0.1-0.5,0.1-0.6,0-0.2c0,0.3,0,0.6,0,0.8c-0.4,2.3-0.7,4.7-0.7,7.1c0,1.5,0.6,2.8,2,3.5
		c1.6,0.7,3,0.5,3.9-1.3c0-0.3-0.1-0.6,0-0.8c0.7-1.7,2.8-2.1,3.5-3.9c0.2-0.6,0.6,0,0.9,0.1c2.3,0.9,3.9,0.4,5.3-1.8
		c0.4-0.7,0.1-2.1,1.5-2.1c0-1.1,0-2.3,0-3.4C107.8,73.7,107.5,71.1,106.4,68.6z M16.2,67.7c-0.1,0.6,0.4,1.6-0.9,1.7
		c0,0.3,0,0.6,0,0.9s0,0.6,0,0.9c-0.3,0.6-0.6,1.1-0.9,1.7c0,0.3,0,0.6,0,0.9s0,0.6,0,0.9c-0.2,0.3-0.3,0.7-0.6,0.9
		c-0.3,0.2-0.6,1.2-1.1,0.4c-0.3-0.5-0.2-1.3,0.8-1.3c0-0.3,0-0.6,0-0.9s0-0.6,0-0.9c0.1-0.6-0.4-1.6,0.9-1.7c0-0.3,0-0.6,0-0.9
		c0-0.6,0.3-0.9,0.9-0.9c0-0.6,0-1.1,0-1.7c0.4-0.8,0.9-1.7,1.4-2.8C16.9,66.1,17.8,67.2,16.2,67.7z M17.5,59.2
		c-1.2-1.5-0.2-2.5,1-3.5C19.2,57.4,18.5,58.3,17.5,59.2z M19.3,75.3c-0.1-0.1-0.5-0.2-0.5-0.3c0-0.4-0.2-0.9,0.3-1.1
		c0.1-0.1,0.5,0.2,0.5,0.3C19.6,74.6,19.9,75,19.3,75.3z M20,72c-0.1-0.2-0.3-0.4-0.5-0.8c0.1-0.3,0.3-0.6,0.5-1
		c0.1,0.2,0.4,0.4,0.4,0.6C20.4,71.3,20.2,71.6,20,72z M20.9,50.6c-0.2,0.1-0.3,0.1-0.4,0c0,0.1,0,0.2,0,0.4
		c-0.2,0.1-0.4,0.4-0.5,0.4c-0.3-0.1-0.4-0.4-0.2-0.5s0.4-0.2,0.7-0.2c-0.1-0.1-0.1-0.2,0-0.4s0.3-0.3,0.5-0.4
		c0.1,0.1,0.3,0.2,0.3,0.3C21.1,50.3,21,50.5,20.9,50.6z M24.8,44.6c0,0.6-0.3,0.9-0.9,0.9c0,0.3,0,0.6,0,0.9c0,0.6-0.3,0.9-0.9,0.9
		c-0.2,0.3-0.3,0.7-0.6,0.9c-0.3,0.2-0.6,1.2-1.1,0.4c-0.3-0.5-0.2-1.3,0.8-1.3c0-0.6,0.3-0.9,0.9-0.9c0-0.3,0-0.6,0-0.9
		c0-0.6,0.3-0.9,0.9-0.9c0-0.3,0-0.6,0-0.9c0-0.4,0.1-0.8,0.6-0.7c0.1,0,0.2,0.4,0.3,0.7C24.8,44,24.8,44.3,24.8,44.6z M30.3,66.9
		c0.1-0.1,0.5-0.1,0.8-0.1c0.9,0.3,0.5,1.1,0.6,1.7c0,0.3,0,0.6,0,0.9c0,0.4-0.1,0.8-0.6,0.7c-0.1,0-0.2-0.4-0.3-0.7
		C29.2,68.9,29.8,67.9,30.3,66.9z M35.9,23.2c-0.1,0.1-0.3,0.2-0.4,0.4c-0.1-0.1-0.3-0.2-0.4-0.4c0-0.7,0.4-0.9,1-0.8
		c0.2,0,0.6,0.2,0.6,0.3C36.6,23.1,36.3,23.2,35.9,23.2z M40.6,26.6c-0.2,0.1-0.3,0.1-0.4,0c-0.1,1.3-1.1,0.7-1.7,0.8
		c0,1-0.8,1.1-1.3,0.8c-0.8-0.5,0.1-0.8,0.4-1.1c0.2-0.3,0.6-0.4,0.9-0.6c0.6,0,1.1,0,1.7,0c-0.1-0.1-0.1-0.2,0-0.4
		c0.1-0.2,0.3-0.3,0.5-0.4c0.1,0.1,0.3,0.2,0.3,0.3C40.8,26.3,40.7,26.5,40.6,26.6z M52,14.3c-0.1,0.5-0.7,0.2-1.1,0.3
		c-0.4-0.1-1.2,0.3-1.1-0.6c0.1-0.5,0.7-0.3,1.1-0.3C51.3,13.8,52.1,13.4,52,14.3z M58.6,13.7c-0.7,0-1.4,0-2.1,0
		c-0.3,0-0.6,0-0.8,0c-0.4,0-0.8,0-0.7-0.6c0-0.1,0.4-0.2,0.7-0.3c0.3,0,0.6,0,0.8,0c0.7,0,1.4,0,2.1,0c0.1,0,0.2,0.4,0.3,0.6
		C58.9,13.5,58.7,13.7,58.6,13.7z M89.7,33.4c0,0.3,0,0.6,0,0.9c-1.7-0.4-0.5-1.7-0.9-2.6C90.2,31.8,89.6,32.8,89.7,33.4z
		 M81.3,83.1c0,1.4,0,2.9,0,4.3c-0.6,0-1.1,0-1.7,0c1.1-1.3,0.8-2.8,0.9-4.3c0-0.3,0-0.6,0-0.8c0-0.4,0-0.8,0.6-0.7
		c0.1,0,0.2,0.4,0.3,0.7C81.3,82.6,81.3,82.9,81.3,83.1z M86.1,74.5c-0.8-1.6-0.4-3.4-0.5-5.1c0.2-0.3,0.5-0.4,0.9-0.5
		c0.3,0.1,0.6,0.2,0.9,0.5C86,70.9,86.6,72.8,86.1,74.5z M88.2,65.1c0,0.6-0.3,0.9-0.9,0.9C87.3,65.4,87.6,65.1,88.2,65.1
		c0-0.6,0.3-0.9,0.9-0.9C89,64.9,88.8,65.2,88.2,65.1z M95,77.2c0.1,0.3,0,0.6,0,0.8c-0.6-0.3-1.1-0.6-1.7-0.9
		c0.3-1.1-0.7-3.2,0.7-3.3C95.9,73.9,94.7,76,95,77.2z M101,48.5c0-0.1,0.3-0.2,0.5-0.3c0.5,0.3,0.3,0.7,0.3,1.1
		c0,0.1-0.4,0.4-0.5,0.3C100.8,49.3,101,48.9,101,48.5z M101.4,52.4c0.2-0.3,1.1-0.2,1.3,0.4c0.2,0.6,0,1.4,0,2
		c-0.3,0.3-0.3,0.8-0.9,0.9C100.5,54.8,100.8,53.5,101.4,52.4z M102.6,69.1c-0.1,0.1-0.2,0.2-0.3,0.3c-0.1-0.2-0.2-0.4-0.3-0.6
		c0-0.1,0.2-0.2,0.3-0.3C102.4,68.8,102.5,68.9,102.6,69.1z M101,78.9c0.3-0.3,0.3-0.8,0.9-0.9c1.3,0.1,0.7,1.1,0.9,1.7
		c0,0.3,0,0.6,0,0.9c-0.3,0.3-0.6,0.3-0.9,0C100.6,80.5,101.1,79.5,101,78.9z M102.8,82.3c-0.6,0.1-1-0.1-1-0.8
		c0.3-0.4,0.6-0.4,0.9,0c0.4-0.1,0.7,0.1,0.7,0.5C103.5,82.1,103.1,82.2,102.8,82.3z"/>
</g>
<path d="M68.1,54.1c0.4-2.5-2.7-4.5-7-4.3c-2.5,0-6.4,3.3-6.2,5.2c0.2,1.5,1.7,2.3,1.9,4.1c0.2,1.2,1.9,0.4,2.9,0.6
	C64.4,59.7,67.5,57.6,68.1,54.1z"/>
<path d="M68.6,30.1c-0.7,0.5-0.5,1.5-0.3,1.9c0.5,1.1,1.7,1.6,2.1,2.9c0.1,0.3,1.8,0.1,2.8,0.2c1,0.1,1.6-0.7,1.9-1.4
	s0.3-1.6-0.5-2.3c-1.2-1-2.2-2.2-3.3-3.3C69.8,28.6,69.4,29.5,68.6,30.1z"/>
<path d="M60.7,119.6"/>
</svg>
