<?xml version="1.0" encoding="utf-8"?>
<!-- Generator: Adobe Illustrator 25.3.1, SVG Export Plug-In . SVG Version: 6.00 Build 0)  -->
<svg version="1.1" id="Layer_1" xmlns="http://www.w3.org/2000/svg" xmlns:xlink="http://www.w3.org/1999/xlink" x="0px" y="0px"
	 viewBox="0 0 32.1 31.8" style="enable-background:new 0 0 32.1 31.8;" xml:space="preserve">
<g>
	<path d="M29.9,0H17.1C16,0,15,0.9,15,2.1v9.6c0,1.1,0.9,2.1,2.1,2.1h1v3c0,0.9,1.1,1.3,1.7,0.7l3.7-3.7H30c1.1,0,2.1-0.9,2.1-2.1V2
		C32,0.9,31.1,0,29.9,0z"/>
	<path d="M26.1,24.9l-4-3.2c-0.8-0.6-2-0.5-2.7,0.3c-0.7,0.8-1.2,1.4-1.3,1.5c-1.2,1.2-3.8-0.6-6.4-3.2s-4.5-5.2-3.2-6.4
		c0.1-0.1,0.7-0.6,1.5-1.3c0.8-0.7,0.9-1.9,0.3-2.7L7,5.8C6.5,5.1,5.5,4.9,4.7,5.2c-1.1,0.5-3,2.1-3.6,2.6
		c-2.9,2.9,0.7,9.5,7.1,15.9s13,9.9,15.9,7.1c0.5-0.5,2.1-2.5,2.6-3.6C27,26.4,26.8,25.5,26.1,24.9z"/>
</g>
</svg>
