<svg xmlns="http://www.w3.org/2000/svg" width="24.312" height="23.71" viewBox="0 0 24.312 23.71">
  <defs>
    <style>
      .cls-1 {
        fill: #1e1e1e;
        fill-rule: evenodd;
      }
    </style>
  </defs>
  <path id="github-logo" class="cls-1" d="M353,3054.38a12.159,12.159,0,0,0-3.837,23.69,0.613,0.613,0,0,0,.828-0.59c0-.29-0.01-1.05-0.016-2.06-3.377.73-4.09-1.63-4.09-1.63a3.2,3.2,0,0,0-1.348-1.78c-1.1-.76.083-0.74,0.083-0.74a2.534,2.534,0,0,1,1.86,1.25,2.583,2.583,0,0,0,3.534,1.01,2.586,2.586,0,0,1,.771-1.62c-2.7-.31-5.531-1.35-5.531-6.01a4.691,4.691,0,0,1,1.25-3.26,4.385,4.385,0,0,1,.119-3.22s1.019-.33,3.339,1.25a11.472,11.472,0,0,1,6.079,0c2.318-1.58,3.336-1.25,3.336-1.25a4.381,4.381,0,0,1,.12,3.22,4.681,4.681,0,0,1,1.249,3.26c0,4.67-2.839,5.7-5.544,6a2.882,2.882,0,0,1,.824,2.25c0,1.62-.015,2.93-0.015,3.33a0.609,0.609,0,0,0,.835.59A12.16,12.16,0,0,0,353,3054.38Z" transform="translate(-340.844 -3054.38)"/>
</svg>
