<svg xmlns="http://www.w3.org/2000/svg" width="24.797" height="20.457" viewBox="0 0 26.781 22.094">
  <defs>
    <style>
      .cls-1 {
        fill: #1e1e1e;
        fill-rule: evenodd;
      }
    </style>
  </defs>
  <path id="logo" class="cls-1" d="M20.885,20.954V43.066H37.058c8.244,0,10.613-1.3,10.613-5.781,0-3.222-1.232-4.612-4.707-5.243V31.884c2.843-.7,3.917-2.085,3.917-5.117,0-4.485-2.337-5.812-10.266-5.812H20.885ZM33.2,26.1c1.579,0,2.148.474,2.148,1.8s-0.569,1.8-2.148,1.8H32.7V26.1H33.2Zm0,8.244c1.579,0,2.148.474,2.148,1.8s-0.569,1.8-2.148,1.8H32.7v-3.6H33.2Z" transform="translate(-20.875 -20.969)"/>
</svg>
