<?xml version="1.0" encoding="utf-8"?>
<!-- Generator: Adobe Illustrator 25.3.1, SVG Export Plug-In . SVG Version: 6.00 Build 0)  -->
<svg version="1.1" id="name-lg" xmlns="http://www.w3.org/2000/svg" xmlns:xlink="http://www.w3.org/1999/xlink" x="0px" y="0px"
	 viewBox="0 0 480 124.8" style="enable-background:new 0 0 480 124.8;" xml:space="preserve">
<style type="text/css">
	.st0{fill-rule:evenodd;clip-rule:evenodd;fill:#1E1E1E;}
</style>
<path id="Brandi" class="st0" d="M0,2.4v82.3h60.2c30.7,0,39.5-4.8,39.5-21.5c0-12-4.6-17.2-17.5-19.5v-0.6
	c10.6-2.6,14.6-7.8,14.6-19.1c0-16.7-8.7-21.6-38.2-21.6H0z M45.9,21.5c5.9,0,8,1.8,8,6.7s-2.1,6.7-8,6.7H44V21.5H45.9z M45.9,52.2
	c5.9,0,8,1.8,8,6.7s-2.1,6.7-8,6.7H44V52.2L45.9,52.2L45.9,52.2z M156.2,9.4c-8.1,0-16,4.7-17.9,15.4h-0.2l-0.4-13.1h-33.9v72.9
	h39.5V58.3c0-8.7,3.2-13.1,11.4-13.1c2.3,0,4.5,0.2,6.7,0.7V10C159.8,9.6,158,9.4,156.2,9.4L156.2,9.4z M199.6,9.4
	c-11.4,0-22.7,1-33.9,2.9l1.2,32.8c4.9-2.9,13.9-4.7,23.3-4.7c11.8,0,17.1,2.7,17.1,8.7v0.2H207c-4.6-2.4-11.8-3.8-19.2-3.8
	c-16.2,0-24.1,6.8-24.1,20.9c0,13.8,7.4,20.5,22.6,20.5c10.2,0,18-3.1,22.7-8.9h0.2l1.5,6.6h37c-0.9-5.3-1.3-10.7-1.2-16.1V46
	C246.7,18.7,234.7,9.4,199.6,9.4L199.6,9.4z M203.8,58.7c1.2-0.1,2.4,0.2,3.4,0.9v10.1c-1,0.7-2.2,1-3.4,0.9c-3.3,0-4.5-1.4-4.5-6
	S200.5,58.7,203.8,58.7L203.8,58.7z M316,9.4c-11.5,0-18.9,3.6-24.1,12h-0.2l-0.8-9.6h-37.5v72.9h39.3V39.5c1.1-0.7,2.4-1.1,3.6-1.1
	c3.1,0,4.1,1.6,4.1,6.4v39.9h39.3V38.8C339.7,17.5,333.2,9.4,316,9.4L316,9.4z M433.2,2.4h-39.3v12.5h-0.2
	c-4.7-3.6-10.7-5.4-18.3-5.4c-20.7,0-30.9,13.1-30.9,39.4c0,25.2,9.3,38.2,27.9,38.2c10.1,0,17.5-3.9,22.3-12h0.2l0.8,9.6h38.7
	c-0.9-5.3-1.3-10.7-1.2-16.1L433.2,2.4L433.2,2.4z M390.4,38.5c1.3,0,2.5,0.3,3.5,1.1v17.4c-1,0.7-2.3,1.1-3.5,1.1
	c-3.6,0-4.9-2.6-4.9-9.8S386.7,38.5,390.4,38.5L390.4,38.5z M479.4,30c-5.4,2.4-11.9,3.5-19.6,3.5c-7.6,0-14.1-1.2-19.6-3.5v54.7
	h39.3V30L479.4,30z"/>
<path id="is_a_Front-end_Developer" class="st0" d="M6.7,99c-3.8,0-5.6,1.3-5.6,4s1.8,4,5.6,4s5.6-1.3,5.6-4S10.5,99,6.7,99z
	 M12.1,107.4c-1.7,0.7-3.6,1-5.5,1c-1.9,0-3.7-0.3-5.5-1v15.2h10.9L12.1,107.4L12.1,107.4z M25,101.7c-8.5,0-11.5,1.8-11.5,7.2
	c0,3.9,3.1,5.8,9.5,5.8c0,0.8-0.9,1.1-2.9,1.1c-2.1,0.1-4.2-0.4-6.1-1.4l-0.3,8c3,0.5,6.1,0.8,9.2,0.8c8.5,0,11.5-1.8,11.5-7.2
	c0-4.1-3-6.1-9.2-6.1c0-0.8,0.8-1,2.8-1c1.9-0.1,3.7,0.3,5.4,1.3l0.3-7.7C30.8,101.9,27.9,101.7,25,101.7L25,101.7z M50.8,101.7
	c-3.2,0-6.3,0.3-9.4,0.8l0.3,9.1c2-0.9,4.2-1.4,6.5-1.3c3.3,0,4.7,0.8,4.7,2.4v0.1h-0.1c-1.7-0.7-3.5-1.1-5.3-1
	c-4.5,0-6.7,1.9-6.7,5.8c0,3.8,2.1,5.7,6.3,5.7c2.8,0,5-0.8,6.3-2.5h0.1l0.4,1.8h10.3c-0.2-1.5-0.4-3-0.3-4.5v-6.3
	C63.8,104.2,60.5,101.7,50.8,101.7L50.8,101.7z M51.9,115.3c0.3,0,0.7,0.1,0.9,0.3v2.8c-0.3,0.2-0.6,0.3-0.9,0.3
	c-0.9,0-1.2-0.4-1.2-1.7S51,115.3,51.9,115.3L51.9,115.3z M92.7,99.7h-21v22.8h12.2v-4.9H92v-7.8h-8.1v-1.7h8.8L92.7,99.7L92.7,99.7
	z M108.8,101.7c-2.5-0.1-4.7,1.8-5,4.3h-0.1l-0.1-3.6h-9.4v20.2h11v-7.3c0-2.4,0.9-3.6,3.2-3.6c0.6,0,1.2,0.1,1.9,0.2v-10
	C109.7,101.7,109.2,101.6,108.8,101.7z M123.6,101.7c-8.7,0-12.7,3.3-12.7,10.8s3.9,10.8,12.7,10.8s12.7-3.3,12.7-10.8
	S132.3,101.7,123.6,101.7z M123.6,109.7c1,0,1.3,0.6,1.3,2.7s-0.3,2.7-1.3,2.7s-1.3-0.6-1.3-2.7S122.6,109.7,123.6,109.7
	L123.6,109.7z M155.1,101.7c-3.2,0-5.3,1-6.7,3.3h-0.1l-0.2-2.7h-10.4v20.2h10.9V110c0.3-0.2,0.7-0.3,1-0.3c0.8,0,1.1,0.5,1.1,1.8
	v11.1h10.9v-12.7C161.6,103.9,159.8,101.7,155.1,101.7L155.1,101.7z M174.3,99.7h-10.9v15c0,6.1,2.6,8.5,9.8,8.5
	c1.7,0,3.5-0.2,5.2-0.7v-9.5c-0.8,0.3-1.6,0.5-2.4,0.5c-1.2,0-1.6-0.4-1.6-1.3v-2h4v-7.9h-4L174.3,99.7L174.3,99.7z M190.2,108.1
	h-10.5v7.2h10.5L190.2,108.1L190.2,108.1z M203.4,101.7c-8.5,0-12.2,3.3-12.2,10.6c0,7.7,4.1,10.9,14.1,10.9c2.7,0,5.5-0.3,8.2-0.8
	l-0.3-8.9c-2,0.5-4.1,0.8-6.2,0.8c-3,0-4.1-0.4-4.3-1.7H214c0.2-1,0.3-2,0.3-3C214.3,104.2,210.9,101.7,203.4,101.7L203.4,101.7z
	 M204,107.4c1,0,1.3,0.6,1.4,2.7h-2.7C202.6,108,202.9,107.4,204,107.4L204,107.4z M233,101.7c-3.2,0-5.3,1-6.7,3.3h-0.1l-0.2-2.7
	h-10.4v20.2h10.9V110c0.3-0.2,0.7-0.3,1-0.3c0.8,0,1.1,0.5,1.1,1.8v11.1h10.9v-12.7C239.6,103.9,237.8,101.7,233,101.7z M265.6,99.7
	h-10.9v3.5h-0.1c-1.5-1.1-3.3-1.6-5.1-1.5c-5.7,0-8.6,3.6-8.6,10.9c0,7,2.6,10.6,7.7,10.6c2.5,0.2,4.9-1.1,6.2-3.3h0.1l0.2,2.7h10.7
	c-0.2-1.5-0.4-3-0.3-4.5V99.7L265.6,99.7z M253.7,109.7c0.3,0,0.7,0.1,1,0.3v4.8c-0.3,0.2-0.6,0.3-1,0.3c-1,0-1.4-0.7-1.4-2.7
	S252.7,109.7,253.7,109.7L253.7,109.7z M273.6,99.7v22.8h13.1c10.8,0,14.6-2.9,14.6-11.4s-3.8-11.4-14.6-11.4H273.6L273.6,99.7z
	 M286.3,107.6c1.7,0,2.2,0.8,2.2,3.6s-0.5,3.6-2.2,3.6h-0.5v-7.1L286.3,107.6L286.3,107.6z M314.2,101.7c-8.5,0-12.2,3.3-12.2,10.6
	c0,7.7,4.1,10.9,14.1,10.9c2.7,0,5.5-0.3,8.2-0.8l-0.3-8.9c-2,0.5-4.1,0.8-6.2,0.8c-3,0-4.1-0.4-4.3-1.7h11.3c0.2-1,0.3-2,0.3-3
	C325.1,104.2,321.7,101.7,314.2,101.7L314.2,101.7z M314.7,107.4c1,0,1.3,0.6,1.4,2.7h-2.7C313.4,108,313.7,107.4,314.7,107.4
	L314.7,107.4z M350,102.3h-11.3l-0.8,12.3h-0.8l-0.8-12.3h-11.4l3.9,20.2h17.3L350,102.3z M362,101.7c-8.5,0-12.2,3.3-12.2,10.6
	c0,7.7,4.1,10.9,14.1,10.9c2.7,0,5.5-0.3,8.2-0.8l-0.3-8.9c-2,0.5-4.1,0.8-6.2,0.8c-3,0-4.1-0.4-4.3-1.7h11.3c0.2-1,0.3-2,0.3-3
	C372.8,104.2,369.4,101.7,362,101.7L362,101.7z M362.5,107.4c1,0,1.3,0.6,1.4,2.7h-2.7C361.2,108,361.5,107.4,362.5,107.4
	L362.5,107.4z M385.1,99.7h-10.9v22.8h10.9V99.7L385.1,99.7z M399.2,101.7c-8.7,0-12.7,3.3-12.7,10.8s3.9,10.8,12.7,10.8
	s12.7-3.3,12.7-10.8S407.9,101.7,399.2,101.7L399.2,101.7z M399.2,109.7c1,0,1.3,0.6,1.3,2.7s-0.3,2.7-1.3,2.7s-1.3-0.6-1.3-2.7
	S398.2,109.7,399.2,109.7L399.2,109.7z M430.2,101.7c-2.5-0.2-4.9,1.1-6.2,3.3H424l-0.2-2.7h-10.4v22.5h10.9v-3.1h0.1
	c1.5,1.1,3.3,1.6,5.1,1.5c5.7,0,8.6-3.6,8.6-10.9C438,105.3,435.4,101.7,430.2,101.7L430.2,101.7z M425.2,109.7c1,0,1.4,0.7,1.4,2.7
	s-0.4,2.7-1.4,2.7c-0.3,0-0.7-0.1-1-0.3V110C424.5,109.8,424.8,109.7,425.2,109.7L425.2,109.7z M450.9,101.7
	c-8.5,0-12.2,3.3-12.2,10.6c0,7.7,4.1,10.9,14.1,10.9c2.7,0,5.5-0.3,8.2-0.8l-0.3-8.9c-2,0.5-4.1,0.8-6.2,0.8c-3,0-4.1-0.4-4.3-1.7
	h11.3c0.2-1,0.3-2,0.3-3C461.8,104.2,458.3,101.7,450.9,101.7L450.9,101.7z M451.4,107.4c1,0,1.3,0.6,1.4,2.7H450
	C450.1,108,450.4,107.4,451.4,107.4L451.4,107.4z M477.6,101.7c-2.5-0.1-4.7,1.8-5,4.3h-0.1l-0.1-3.6h-9.4v20.2h11v-7.3
	c0-2.4,0.9-3.6,3.2-3.6c0.6,0,1.2,0.1,1.9,0.2v-10C478.6,101.7,478.1,101.6,477.6,101.7L477.6,101.7z"/>
</svg>
