<svg xmlns="http://www.w3.org/2000/svg" width="16.188" height="16.5" viewBox="0 0 16.188 16.5">
  <defs>
    <style>
      .cls-1 {
        fill: #1e1e1e;
        fill-rule: evenodd;
      }
    </style>
  </defs>
  <path id="new-window" class="cls-1" d="M210.731,3067.97a1.081,1.081,0,0,1-.761-0.32,1.093,1.093,0,0,1-.01-1.54l7.632-7.77a1.089,1.089,0,0,1,1.532-.01,1.106,1.106,0,0,1,.009,1.55l-7.631,7.76A1.068,1.068,0,0,1,210.731,3067.97Zm7.773-3.43a1.088,1.088,0,0,1-1.083-1.09v-3.51H213.9a1.09,1.09,0,0,1,0-2.18H218.5a1.089,1.089,0,0,1,1.084,1.09v4.6A1.089,1.089,0,0,1,218.5,3064.54Zm-1.827,9.7H204.5a1.088,1.088,0,0,1-1.084-1.09V3060.9a1.088,1.088,0,0,1,1.084-1.09h6.328a1.09,1.09,0,0,1,0,2.18h-5.245v10.07h10.015v-5.27a1.084,1.084,0,1,1,2.167,0v6.36a1.083,1.083,0,0,1-.317.77A1.058,1.058,0,0,1,216.677,3074.24Z" transform="translate(-203.406 -3057.75)"/>
</svg>
