<svg xmlns="http://www.w3.org/2000/svg" width="1051.436" height="279.28" viewBox="0 0 1051.436 279.28">
  <defs>
    <style>
      .cls-1 {
        fill: #1e1e1e;
        fill-rule: evenodd;
      }
    </style>
  </defs>
  <path id="rush" class="cls-1" d="M247.059,1529.85c-26.663,0-52.554,15.52-58.736,50.81H187.55l-1.16-43.05H75.1V1778.1H204.939v-86.89c0-28.7,10.433-43.05,37.483-43.05,4.637,0,15.457.38,22.026,2.32V1531.79C259.038,1530.24,251.31,1529.85,247.059,1529.85Zm316.083,7.76H434.076v148.95a21.7,21.7,0,0,1-11.979,3.49c-10.047,0-13.525-5.43-13.525-20.95V1537.61H279.506v151.27c0,70.21,21.253,96.98,78.058,96.98,35.937,0,60.668-10.86,78.83-39.57h0.773l2.705,31.81h123.27V1537.61Zm153.393-7.76c-100.47,0-135.635,21.72-135.635,85.34,0,46.93,37.1,69.43,112.45,69.43,0,10.08-10.434,13.19-34.779,13.19-29.754,0-57.963-6.6-72.261-16.68l-3.864,95.03c41.734,6.59,77.671,9.7,108.585,9.7,100.471,0,135.635-21.73,135.635-85.34,0-49.26-35.937-72.92-108.972-72.92,0-8.92,8.888-12.41,33.233-12.41,27.436,0,51.394,6.2,63.374,15.51l3.864-91.15A545,545,0,0,0,716.535,1529.85Zm255.412-23.27H842.881V1778.1H971.947V1629.15c2.705-2.33,6.956-3.49,11.979-3.49,10.047,0,13.525,5.43,13.525,20.94v131.5H1126.52V1626.82c0-69.82-21.26-96.97-76.9-96.97-36.33,0-59.125,11.64-76.9,39.57h-0.773v-62.84Z" transform="translate(-75.094 -1506.56)"/>
</svg>
