<svg xmlns="http://www.w3.org/2000/svg" width="1053.219" height="348.37" viewBox="0 0 1053.219 348.37">
  <defs>
    <style>
      .cls-1 {
        fill: #1e1e1e;
        fill-rule: evenodd;
      }
    </style>
  </defs>
  <path id="the" class="cls-1" d="M392.057,1016.91H74.293v133.54h68.575V1355.6H323.482V1150.45h68.575V1016.91Zm181.563,0h-161.3V1355.6h161.3V1169.8c3.381-2.9,8.693-4.35,14.971-4.35,12.556,0,16.9,6.77,16.9,26.13V1355.6h161.3V1166.9c0-87.09-26.561-120.96-96.1-120.96-45.395,0-73.887,14.52-96.1,49.35H573.62v-78.38Zm393.08,29.03c-125.078,0-180.614,48.38-180.614,157.73,0,114.19,60.848,161.6,208.623,161.6,44.911,0,84.991-4.35,120.731-12.09l-4.83-131.61c-32.84,8.23-57.47,11.62-91.27,11.62-43.948,0-61.333-5.81-63.748-24.68H1123.17c2.41-7.74,4.34-29.03,4.34-44.51C1127.51,1083.2,1076.81,1045.94,966.7,1045.94Zm7.727,85.16c15.453,0,19.8,8.7,20.282,39.67H954.144C954.627,1139.8,958.973,1131.1,974.427,1131.1Z" transform="translate(-74.281 -1016.91)"/>
</svg>
