<?xml version="1.0" encoding="utf-8"?>
<!-- Generator: Adobe Illustrator 25.3.1, SVG Export Plug-In . SVG Version: 6.00 Build 0)  -->
<svg version="1.1"
	 id="svg2" sodipodi:docname="Javascript-03.eps" xmlns:cc="http://creativecommons.org/ns#" xmlns:dc="http://purl.org/dc/elements/1.1/" xmlns:inkscape="http://www.inkscape.org/namespaces/inkscape" xmlns:rdf="http://www.w3.org/1999/02/22-rdf-syntax-ns#" xmlns:sodipodi="http://sodipodi.sourceforge.net/DTD/sodipodi-0.dtd" xmlns:svg="http://www.w3.org/2000/svg"
	 xmlns="http://www.w3.org/2000/svg" xmlns:xlink="http://www.w3.org/1999/xlink" x="0px" y="0px" viewBox="0 0 100 100"
	 style="enable-background:new 0 0 100 100;" xml:space="preserve">
<style type="text/css">
	.st0{enable-background:new    ;}
	.st1{fill:#FA38FF;}
</style>
<sodipodi:namedview  bordercolor="#666666" borderopacity="1" gridtolerance="10" guidetolerance="10" id="namedview4" inkscape:pageopacity="0" inkscape:pageshadow="2" inkscape:window-height="480" inkscape:window-width="640" objecttolerance="10" pagecolor="#ffffff">
	</sodipodi:namedview>
<sodipodi:namedview  bordercolor="#666666" borderopacity="1" gridtolerance="10" guidetolerance="10" id="namedview4" inkscape:pageopacity="0" inkscape:pageshadow="2" inkscape:window-height="480" inkscape:window-width="640" objecttolerance="10" pagecolor="#ffffff">
	</sodipodi:namedview>
<sodipodi:namedview  bordercolor="#666666" borderopacity="1" gridtolerance="10" guidetolerance="10" id="namedview4" inkscape:pageopacity="0" inkscape:pageshadow="2" inkscape:window-height="480" inkscape:window-width="640" objecttolerance="10" pagecolor="#ffffff">
	</sodipodi:namedview>
<g class="st0">
	<path d="M30.8,66.8l0.8,0.3c-0.4,2.1-2.8,4.7-6.3,4.7c0,0-5.4,0.1-5.8-5.8c-1,3.3-5,5.8-9.8,5.8c0,0-7.8,0-7.8-7.1
		c0-6.9,5.8-8.4,17.6-11.4v-4c0-7.1-3.6-11.1-9.1-8.5c-2.7,1.3-3.1,2.6-2.7,2.7c0.8,0.1,1.6,0.5,2.1,1.2c1,1.4,0.8,3.4-0.7,4.5
		c-1.4,1.1-3.4,0.8-4.4-0.6c-0.8-1-0.9-2.4-0.3-3.4c0.5-1,1.7-3.1,5.4-5.1c3-1.5,6.3-1.3,6.3-1.3c7.5,0,9.6,5.6,9.6,13.8v11.7
		c0,0-0.1,4.3,3.1,4.3C28.8,68.5,30.3,68.5,30.8,66.8z M8,63.3c0,2,1.2,5.4,5.4,5.4c3.6,0,5.4-2.6,6.1-4.3c0-0.1,0-10.2,0-10.2
		C11.5,56.1,8,59.1,8,63.3z"/>
	<path class="st1" d="M47.8,71.2H30.9v-0.8c2.8,0,5.6-0.3,5.6-5.4V32.2c0-5-3.8-2.6-6.3-0.6l-0.5-0.8l10.6-8.7h2.3V65
		c0,5.3,2.9,5.4,5.3,5.4V71.2z"/>
	<path class="st1" d="M67.4,71.2H50.5v-0.8c2.8,0,5.6-0.3,5.6-5.4V32.2c0-5-3.8-2.6-6.3-0.6l-0.5-0.8l10.6-8.7h2.3V65
		c0,5.3,2.9,5.4,5.3,5.4V71.2z"/>
	<path d="M100,39.4v0.8c-2.4,0-4.7,0.6-8.8,11L80.5,80.3c-1.4,4-3.2,5.6-4.2,6.4c-1,0.8-2.8,1.1-4.1,0.5c-1.9-0.8-2.6-3-1.9-4.8
		c0.9-1.9,3-2.7,4.8-1.9c1,0.4,1.6,1.3,1.9,2.2c0.3,1,1.7,0,2.7-2.5l3.1-8.7C74.6,53.4,70,43.7,70,43.7c-1.4-3.2-3.8-3.4-4.8-3.5
		v-0.8h14.2v0.8c-4.5,0-2.1,5-2.1,5l8.5,18.3L90.4,51c0,0,4.3-10.9-3.6-10.8v-0.8H100z"/>
</g>
</svg>
