<?xml version="1.0" encoding="utf-8"?>
<!-- Generator: Adobe Illustrator 25.3.1, SVG Export Plug-In . SVG Version: 6.00 Build 0)  -->
<svg version="1.1"
	 id="svg2" sodipodi:docname="Javascript-03.eps" xmlns:cc="http://creativecommons.org/ns#" xmlns:dc="http://purl.org/dc/elements/1.1/" xmlns:inkscape="http://www.inkscape.org/namespaces/inkscape" xmlns:rdf="http://www.w3.org/1999/02/22-rdf-syntax-ns#" xmlns:sodipodi="http://sodipodi.sourceforge.net/DTD/sodipodi-0.dtd" xmlns:svg="http://www.w3.org/2000/svg"
	 xmlns="http://www.w3.org/2000/svg" xmlns:xlink="http://www.w3.org/1999/xlink" x="0px" y="0px" viewBox="0 0 100 100"
	 style="enable-background:new 0 0 100 100;" xml:space="preserve">
<style type="text/css">
	.st0{fill:#376FBB;}
	.st1{fill:#61A3DE;}
	.st2{fill:#EDEDED;}
	.st3{fill:#CFCECD;}
	.st4{fill:#100F0D;}
</style>
<sodipodi:namedview  bordercolor="#666666" borderopacity="1" gridtolerance="10" guidetolerance="10" id="namedview4" inkscape:pageopacity="0" inkscape:pageshadow="2" inkscape:window-height="480" inkscape:window-width="640" objecttolerance="10" pagecolor="#ffffff">
	</sodipodi:namedview>
<g id="g10" transform="matrix(1.3333333,0,0,-1.3333333,0,480)" inkscape:groupmode="layer" inkscape:label="ink_ext_XXXXXX">
	<g id="g12" transform="scale(0.1)">
		<path id="path14" class="st0" d="M161.4,2906.5l-48.4,542.4h531.3L596,2906.6l-217.6-60.3L161.4,2906.5"/>
		<path id="path16" class="st1" d="M378.8,2892.4l175.8,48.7l41.4,463.4H378.8V2892.4"/>
		<path id="path18" class="st2" d="M206.1,3279.3l-6.5,62.8h358.3l-4.2-72.7l-151.6-66.9h145.3l-15.6-206.2l-146.5-39.3l-152,36.8
			l-9.4,104.6h67.2l3.6-55.2l88-16.4l81.3,24.9l3.6,88.4H218.3l-4.7,65.6l165.1,72.4L206.1,3279.3"/>
		<path id="path20" class="st3" d="M213.6,3205.6l4.7-65.6h160.4v138L213.6,3205.6"/>
		<path id="path22" class="st3" d="M294.9,3043.1l-3.6,55.2h-67.2l9.4-104.6l145.3-35.2v69L294.9,3043.1"/>
		<path id="path24" class="st3" d="M199.6,3342.1l6.5-62.8l172.7-1.3v64.1H199.6"/>
		<path id="path26" class="st4" d="M428.8,3571.3v25h-100v-58.3h68.8v-18.8h-70.8v-22.9h100v60.4h-70.8v14.6H428.8"/>
		<path id="path28" class="st4" d="M247.5,3537.3v-18.2h70.8v-22.9h-100v59.8v40.2h97.9v-25h-68.8V3537.3"/>
		<path id="path30" class="st4" d="M539.2,3571.3v25h-100v-58.3h68.8v-18.8h-70.8v-22.9h100v60.4h-70.8v14.6H539.2"/>
	</g>
</g>
</svg>
