<?xml version="1.0" encoding="utf-8"?>
<!-- Generator: Adobe Illustrator 25.3.1, SVG Export Plug-In . SVG Version: 6.00 Build 0)  -->
<svg version="1.1"
	 id="svg2" sodipodi:docname="Javascript-03.eps" xmlns:cc="http://creativecommons.org/ns#" xmlns:dc="http://purl.org/dc/elements/1.1/" xmlns:inkscape="http://www.inkscape.org/namespaces/inkscape" xmlns:rdf="http://www.w3.org/1999/02/22-rdf-syntax-ns#" xmlns:sodipodi="http://sodipodi.sourceforge.net/DTD/sodipodi-0.dtd" xmlns:svg="http://www.w3.org/2000/svg"
	 xmlns="http://www.w3.org/2000/svg" xmlns:xlink="http://www.w3.org/1999/xlink" x="0px" y="0px" viewBox="0 0 100 100"
	 style="enable-background:new 0 0 100 100;" xml:space="preserve">
<style type="text/css">
	.st0{fill:#FABC32;}
	.st1{fill:#F1B749;}
	.st2{fill:#F47216;}
	.st3{fill:#F9E149;}
	.st4{fill:#F9C727;}
	.st5{fill:#ECA424;}
	.st6{enable-background:new    ;}
	.st7{fill:#606060;}
</style>
<sodipodi:namedview  bordercolor="#666666" borderopacity="1" gridtolerance="10" guidetolerance="10" id="namedview4" inkscape:pageopacity="0" inkscape:pageshadow="2" inkscape:window-height="480" inkscape:window-width="640" objecttolerance="10" pagecolor="#ffffff">
	</sodipodi:namedview>
<sodipodi:namedview  bordercolor="#666666" borderopacity="1" gridtolerance="10" guidetolerance="10" id="namedview4" inkscape:pageopacity="0" inkscape:pageshadow="2" inkscape:window-height="480" inkscape:window-width="640" objecttolerance="10" pagecolor="#ffffff">
	</sodipodi:namedview>
<sodipodi:namedview  bordercolor="#666666" borderopacity="1" gridtolerance="10" guidetolerance="10" id="namedview4" inkscape:pageopacity="0" inkscape:pageshadow="2" inkscape:window-height="480" inkscape:window-width="640" objecttolerance="10" pagecolor="#ffffff">
	</sodipodi:namedview>
<sodipodi:namedview  bordercolor="#666666" borderopacity="1" gridtolerance="10" guidetolerance="10" id="namedview4" inkscape:pageopacity="0" inkscape:pageshadow="2" inkscape:window-height="480" inkscape:window-width="640" objecttolerance="10" pagecolor="#ffffff">
	</sodipodi:namedview>
<g id="g10" transform="matrix(1.3333333,0,0,-1.3333333,0,486.66667)" inkscape:groupmode="layer" inkscape:label="ink_ext_XXXXXX">
	<g id="g12" transform="scale(0.1)">
		<path id="path14" class="st0" d="M159.4,3158.8l3.7,5l172.3,326.9l0.3,3.5l-75.9,142.6c-6.3,12-24.3,8.9-26.4-4.4L159.4,3158.8"/>
		<path id="path16" class="st1" d="M391.2,3386.5l56.6,58l-56.6,108c-5.4,10.2-20.4,10.2-25.7,0l-30.2-57.6v-4.9L391.2,3386.5"/>
		<path id="path18" class="st2" d="M159.4,3158.8l1.7,1.7l6,2.4l220.5,219.6l2.8,7.6l-55,104.8L159.4,3158.8"/>
		<path id="path20" class="st3" d="M398.2,3048.1l199.6,111.3l-57,351c-1.8,10.9-15.3,15.4-23.1,7.5l-358.3-358.9l198.5-110.9
			C370.4,3041,385.7,3041,398.2,3048.1"/>
		<path id="path22" class="st4" d="M596,3160.3l-56.6,348.3c-1.8,10.9-12.9,15.4-20.7,7.6l-357-356.7l196.3-109.7
			c12.4-6.9,27.6-6.9,40.1,0L596,3160.3"/>
		<path id="path24" class="st5" d="M398.2,3051.3c-12.5-6.9-27.8-6.9-40.4,0L161,3160.5l-1.6-1.7l198.4-110.8c12.5-7,27.8-7,40.4,0
			l199.6,111.3l-0.5,3.1L398.2,3051.3"/>
	</g>
</g>
<g class="st6">
	<path class="st7" d="M15,84.6h9.5v1.9h-7.4v4.7H24v1.9h-6.8v6.5h-2v-15H15z"/>
	<path class="st7" d="M25.3,86c0-0.4,0.1-0.7,0.4-0.9c0.3-0.2,0.6-0.4,0.9-0.4c0.3,0,0.7,0.1,0.9,0.4s0.4,0.6,0.4,0.9
		S28,86.7,27.7,87c-0.3,0.3-0.6,0.4-0.9,0.4c-0.3,0-0.6-0.1-0.9-0.4C25.6,86.6,25.3,86.3,25.3,86z M25.9,89.6h1.9v10h-1.9V89.6z"/>
	<path class="st7" d="M29.8,89.6h1.9v1.6l0,0c0.1-0.3,0.3-0.5,0.5-0.7c0.2-0.2,0.4-0.4,0.7-0.5c0.2-0.1,0.5-0.3,0.8-0.4
		c0.3-0.1,0.6-0.1,0.9-0.1c0.3,0,0.6,0,0.8,0.1l-0.1,2.1c-0.1,0-0.3-0.1-0.4-0.1s-0.3,0-0.4,0c-0.9,0-1.7,0.2-2.1,0.7
		c-0.5,0.5-0.7,1.4-0.7,2.4v5h-1.9V89.6H29.8z"/>
	<path class="st7" d="M37.5,95.3c0,0.4,0.1,0.8,0.3,1.2c0.2,0.3,0.4,0.6,0.7,0.9c0.3,0.2,0.6,0.4,1.1,0.6c0.4,0.1,0.8,0.2,1.3,0.2
		c0.6,0,1.2-0.1,1.6-0.4c0.4-0.3,0.8-0.6,1.2-1.1l1.5,1.1c-1.1,1.4-2.5,2.1-4.4,2.1c-0.8,0-1.5-0.1-2.1-0.4
		c-0.6-0.3-1.2-0.6-1.7-1.2c-0.4-0.5-0.7-1.1-1.1-1.7c-0.2-0.6-0.3-1.4-0.3-2.1c0-0.7,0.1-1.5,0.4-2.1c0.2-0.6,0.6-1.2,1.1-1.7
		s1.1-0.8,1.7-1.2c0.6-0.3,1.4-0.4,2.1-0.4c0.8,0,1.7,0.1,2.2,0.4c0.6,0.3,1.2,0.7,1.5,1.3c0.4,0.5,0.6,1.1,0.8,1.7s0.3,1.3,0.3,1.9
		v0.6h-8.1V95.3z M43.6,93.8c0-0.4-0.1-0.8-0.2-1.2c-0.1-0.3-0.3-0.6-0.5-0.9c-0.2-0.2-0.5-0.4-0.9-0.6c-0.3-0.1-0.7-0.2-1.3-0.2
		c-0.4,0-0.8,0.1-1.3,0.3c-0.4,0.2-0.7,0.3-1.1,0.6s-0.5,0.6-0.6,0.9s-0.2,0.7-0.2,1.1C37.5,93.8,43.6,93.8,43.6,93.8z"/>
	<path class="st7" d="M46.9,83.6h1.9V91l0,0c0.3-0.5,0.8-0.9,1.5-1.3c0.6-0.3,1.3-0.4,2-0.4s1.5,0.1,2.1,0.4
		c0.6,0.3,1.2,0.6,1.6,1.2c0.4,0.4,0.7,1.1,1.1,1.7c0.2,0.6,0.3,1.4,0.3,2.1c0,0.7-0.1,1.5-0.3,2.1s-0.6,1.2-1.1,1.7
		s-0.9,0.8-1.6,1.2c-0.6,0.3-1.4,0.4-2.1,0.4c-0.6,0-1.4-0.1-2-0.4c-0.6-0.3-1.2-0.7-1.5-1.3l0,0v1.5h-1.9V83.6z M52.1,98.1
		c0.5,0,0.9-0.1,1.4-0.3c0.4-0.2,0.7-0.4,1.1-0.7c0.3-0.3,0.5-0.6,0.6-1.1c0.1-0.4,0.2-0.9,0.2-1.4c0-0.5-0.1-0.9-0.2-1.4
		c-0.1-0.4-0.4-0.8-0.6-1.1c-0.3-0.3-0.6-0.5-1.1-0.7c-0.4-0.2-0.8-0.3-1.4-0.3c-0.5,0-0.9,0.1-1.4,0.3c-0.4,0.2-0.7,0.4-1.1,0.7
		c-0.3,0.3-0.5,0.6-0.6,1.1c-0.1,0.4-0.2,0.9-0.2,1.4c0,0.5,0.1,0.9,0.2,1.4c0.1,0.4,0.4,0.8,0.6,1.1c0.3,0.3,0.6,0.5,1.1,0.7
		S51.5,98.1,52.1,98.1z"/>
	<path class="st7" d="M58.8,90.7c0.5-0.5,1.2-0.8,1.9-1.2c0.7-0.2,1.4-0.4,2.1-0.4c0.7,0,1.4,0.1,1.9,0.3c0.5,0.2,0.9,0.4,1.3,0.7
		c0.3,0.3,0.6,0.6,0.7,1.1c0.2,0.4,0.2,0.8,0.2,1.3v5.3c0,0.3,0,0.6,0,0.9s0,0.6,0.1,0.8h-1.7c0-0.5-0.1-1.1-0.1-1.5l0,0
		c-0.4,0.6-0.9,1.2-1.5,1.4c-0.5,0.2-1.2,0.4-2,0.4c-0.4,0-0.9-0.1-1.4-0.2c-0.4-0.1-0.8-0.3-1.2-0.5c-0.3-0.2-0.5-0.5-0.7-0.9
		c-0.2-0.4-0.3-0.8-0.3-1.3c0-0.6,0.1-1.2,0.4-1.6c0.3-0.4,0.7-0.8,1.2-1.1c0.4-0.2,1.1-0.4,1.8-0.6c0.7-0.2,1.4-0.2,2.1-0.2H65
		v-0.4c0-0.2,0-0.5-0.1-0.7s-0.2-0.5-0.4-0.7c-0.2-0.2-0.4-0.3-0.7-0.5c-0.3-0.1-0.6-0.2-1.1-0.2c-0.3,0-0.7,0-0.9,0.1
		c-0.3,0.1-0.5,0.2-0.7,0.3c-0.2,0.1-0.3,0.2-0.5,0.3c-0.2,0.1-0.3,0.3-0.5,0.4L58.8,90.7z M64.2,94.7c-0.4,0-0.9,0-1.4,0.1
		c-0.4,0-0.9,0.1-1.3,0.3c-0.4,0.1-0.7,0.3-0.9,0.6c-0.2,0.2-0.4,0.5-0.4,0.9c0,0.6,0.2,0.9,0.6,1.3c0.4,0.2,0.9,0.4,1.6,0.4
		c0.5,0,0.9-0.1,1.4-0.3c0.3-0.2,0.6-0.4,0.8-0.7c0.2-0.3,0.4-0.6,0.5-0.9c0.1-0.3,0.1-0.7,0.1-1.1v-0.6H64.2z"/>
	<path class="st7" d="M74,92.1c-0.2-0.3-0.5-0.5-0.8-0.7s-0.7-0.3-1.3-0.3c-0.4,0-0.8,0.1-1.2,0.3c-0.3,0.2-0.5,0.4-0.5,0.8
		c0,0.3,0.1,0.5,0.3,0.7c0.2,0.2,0.4,0.3,0.6,0.4c0.2,0.1,0.5,0.2,0.8,0.2c0.3,0.1,0.5,0.1,0.7,0.1c0.4,0.1,0.8,0.2,1.2,0.3
		c0.3,0.1,0.6,0.3,0.9,0.5c0.2,0.2,0.4,0.5,0.6,0.8c0.1,0.3,0.2,0.7,0.2,1.2c0,0.5-0.1,1.1-0.3,1.5c-0.2,0.4-0.5,0.7-0.9,0.9
		c-0.4,0.2-0.8,0.4-1.3,0.5c-0.5,0.1-0.9,0.2-1.5,0.2c-0.8,0-1.6-0.1-2.2-0.4c-0.6-0.2-1.2-0.7-1.7-1.4l1.5-1.2
		c0.3,0.3,0.6,0.6,1.1,0.8c0.4,0.2,0.8,0.3,1.4,0.3c0.2,0,0.5,0,0.7-0.1c0.2,0,0.4-0.1,0.6-0.2c0.2-0.1,0.3-0.2,0.4-0.4
		c0.1-0.2,0.2-0.3,0.2-0.5c0-0.3-0.1-0.5-0.3-0.7c-0.2-0.2-0.3-0.1-0.5-0.2s-0.5-0.2-0.7-0.2c-0.2,0-0.5-0.1-0.7-0.2
		c-0.4-0.1-0.8-0.2-1.2-0.3c-0.3-0.1-0.7-0.3-0.9-0.5c-0.2-0.2-0.5-0.5-0.6-0.8c-0.2-0.3-0.2-0.7-0.2-1.2c0-0.5,0.1-0.9,0.3-1.4
		s0.5-0.7,0.8-0.9c0.3-0.2,0.7-0.4,1.3-0.5c0.4-0.1,0.9-0.2,1.4-0.2c0.6,0,1.4,0.1,2,0.4s1.2,0.6,1.5,1.3L74,92.1z"/>
	<path class="st7" d="M78.6,95.3c0,0.4,0.1,0.8,0.3,1.2c0.2,0.3,0.4,0.6,0.7,0.9c0.3,0.2,0.6,0.4,1.1,0.6c0.4,0.1,0.8,0.2,1.3,0.2
		c0.6,0,1.2-0.1,1.6-0.4c0.4-0.3,0.8-0.6,1.2-1.1l1.5,1.1c-1.1,1.4-2.5,2.1-4.4,2.1c-0.8,0-1.5-0.1-2.1-0.4s-1.2-0.6-1.7-1.2
		c-0.4-0.5-0.7-1.1-1.1-1.7c-0.2-0.6-0.3-1.4-0.3-2.1c0-0.7,0.1-1.5,0.4-2.1c0.2-0.6,0.6-1.2,1.1-1.7c0.4-0.5,1.1-0.8,1.7-1.2
		c0.6-0.3,1.4-0.4,2.1-0.4c0.8,0,1.7,0.1,2.2,0.4c0.6,0.3,1.2,0.7,1.5,1.3c0.4,0.5,0.6,1.1,0.8,1.7s0.3,1.3,0.3,1.9v0.6h-8.1V95.3z
		 M84.6,93.8c0-0.4-0.1-0.8-0.2-1.2c-0.1-0.3-0.3-0.6-0.5-0.9c-0.2-0.2-0.5-0.4-0.9-0.6c-0.3-0.1-0.7-0.2-1.3-0.2
		c-0.4,0-0.8,0.1-1.3,0.3c-0.4,0.2-0.7,0.3-0.9,0.6c-0.2,0.3-0.5,0.6-0.6,0.9c-0.1,0.3-0.2,0.7-0.2,1.1
		C78.6,93.8,84.6,93.8,84.6,93.8z"/>
</g>
</svg>
