<?xml version="1.0" encoding="utf-8"?>
<!-- Generator: Adobe Illustrator 25.3.1, SVG Export Plug-In . SVG Version: 6.00 Build 0)  -->
<svg version="1.1"
	 id="svg2" sodipodi:docname="Javascript-03.eps" xmlns:cc="http://creativecommons.org/ns#" xmlns:dc="http://purl.org/dc/elements/1.1/" xmlns:inkscape="http://www.inkscape.org/namespaces/inkscape" xmlns:rdf="http://www.w3.org/1999/02/22-rdf-syntax-ns#" xmlns:sodipodi="http://sodipodi.sourceforge.net/DTD/sodipodi-0.dtd" xmlns:svg="http://www.w3.org/2000/svg"
	 xmlns="http://www.w3.org/2000/svg" xmlns:xlink="http://www.w3.org/1999/xlink" x="0px" y="0px" viewBox="0 0 100 100"
	 style="enable-background:new 0 0 100 100;" xml:space="preserve">
<style type="text/css">
	.st0{fill:#E53D20;}
	.st1{fill:#F15123;}
	.st2{fill:#EDEDED;}
	.st3{fill:#100F0D;}
	.st4{fill:#FFFFFF;}
</style>
<sodipodi:namedview  bordercolor="#666666" borderopacity="1" gridtolerance="10" guidetolerance="10" id="namedview4" inkscape:pageopacity="0" inkscape:pageshadow="2" inkscape:window-height="480" inkscape:window-width="640" objecttolerance="10" pagecolor="#ffffff">
	</sodipodi:namedview>
<sodipodi:namedview  bordercolor="#666666" borderopacity="1" gridtolerance="10" guidetolerance="10" id="namedview4" inkscape:pageopacity="0" inkscape:pageshadow="2" inkscape:window-height="480" inkscape:window-width="640" objecttolerance="10" pagecolor="#ffffff">
	</sodipodi:namedview>
<g id="g10" transform="matrix(1.3333333,0,0,-1.3333333,0,480)" inkscape:groupmode="layer" inkscape:label="ink_ext_XXXXXX">
	<g id="g12" transform="scale(0.1)">
		<path id="path14" class="st0" d="M161.4,2906.5L113,3448.9h531.3L596,2906.6l-217.6-60.3L161.4,2906.5"/>
		<path id="path16" class="st1" d="M378.8,2892.4l175.8,48.7l41.4,463.4H378.8V2892.4"/>
		<path id="path18" class="st2" d="M378.8,3203.4h-88l-6.1,68.1h94.1v66.5h-0.2H212l1.6-17.8l16.3-183.3h148.9V3203.4"/>
		<path id="path20" class="st2" d="M378.8,3030.6l-0.3-0.1l-74.1,20l-4.7,53.1h-36h-30.8l9.3-104.4l136.3-37.8l0.3,0.1V3030.6"/>
		<path id="path22" class="st3" d="M162.5,3596.3h33.8v-33.4h30.9v33.4H261v-101.1h-33.8v33.9h-30.9v-33.9h-33.8V3596.3
			L162.5,3596.3"/>
		<path id="path24" class="st3" d="M305.5,3562.7h-29.8v33.5H369v-33.5h-29.8v-67.6h-33.8L305.5,3562.7L305.5,3562.7"/>
		<path id="path26" class="st3" d="M383.9,3596.3h35.2l21.7-35.5l21.7,35.5h35.3v-101.1h-33.7v50.1l-23.3-36h-0.6l-23.3,36v-50.1
			h-33.1L383.9,3596.3"/>
		<path id="path28" class="st3" d="M514.6,3596.3h33.8v-67.7h47.5v-33.4h-81.4v101.1"/>
		<path id="path30" class="st4" d="M378.5,3203.4v-66.5h81.9l-7.7-86.3l-74.2-20v-69.2l136.4,37.8l1,11.2l15.6,175.1l1.6,17.9h-17.9
			H378.5"/>
		<path id="path32" class="st4" d="M378.5,3338v-66.5H539l0,0h0.2l1.3,15l3,33.7l1.6,17.8H378.5"/>
	</g>
</g>
</svg>
