<?xml version="1.0" encoding="utf-8"?>
<!-- Generator: Adobe Illustrator 25.3.1, SVG Export Plug-In . SVG Version: 6.00 Build 0)  -->
<svg version="1.1"
	 id="svg2" sodipodi:docname="Javascript-03.eps" xmlns:cc="http://creativecommons.org/ns#" xmlns:dc="http://purl.org/dc/elements/1.1/" xmlns:inkscape="http://www.inkscape.org/namespaces/inkscape" xmlns:rdf="http://www.w3.org/1999/02/22-rdf-syntax-ns#" xmlns:sodipodi="http://sodipodi.sourceforge.net/DTD/sodipodi-0.dtd" xmlns:svg="http://www.w3.org/2000/svg"
	 xmlns="http://www.w3.org/2000/svg" xmlns:xlink="http://www.w3.org/1999/xlink" x="0px" y="0px" viewBox="0 0 100 100"
	 style="enable-background:new 0 0 100 100;" xml:space="preserve">
<style type="text/css">
	.st0{fill:#F0E10E;}
	.st1{fill:#100F0D;}
</style>
<sodipodi:namedview  bordercolor="#666666" borderopacity="1" gridtolerance="10" guidetolerance="10" id="namedview4" inkscape:pageopacity="0" inkscape:pageshadow="2" inkscape:window-height="480" inkscape:window-width="640" objecttolerance="10" pagecolor="#ffffff">
	</sodipodi:namedview>
<g id="g10" transform="matrix(1.3333333,0,0,-1.3333333,0,682.66667)" inkscape:groupmode="layer" inkscape:label="ink_ext_XXXXXX">
	<g id="g12" transform="scale(0.1)">
		<path id="path14" class="st0" d="M0,5120h750v-750H0V5120"/>
		<path id="path16" class="st1" d="M197.2,4493.2l57.4,34.7c11.1-19.6,21.1-36.2,45.3-36.2c23.1,0,37.8,9.1,37.8,44.2v239.6h70.5
			v-240.7c0-72.9-42.8-106.2-105.2-106.2C246.5,4428.7,213.9,4458,197.2,4493.2"/>
		<path id="path18" class="st1" d="M446.5,4500.8l57.4,33.3c15.1-24.6,34.7-42.8,69.4-42.8c29.2,0,47.8,14.6,47.8,34.7
			c0,24.2-19.2,32.7-51.4,46.9l-17.6,7.6c-50.8,21.7-84.5,48.8-84.5,106.2c0,52.9,40.3,93.2,103.3,93.2c44.8,0,77.1-15.7,100.2-56.4
			l-54.9-35.3c-12,21.7-25.2,30.2-45.3,30.2c-20.7,0-33.7-13-33.7-30.2c0-21.1,13-29.7,43.4-42.8l17.6-7.6
			c59.9-25.6,93.6-51.9,93.6-110.7c0-63.4-49.8-98.1-116.7-98.1C509.3,4428.7,467.1,4460.1,446.5,4500.8"/>
	</g>
</g>
</svg>
