<?xml version="1.0" encoding="utf-8"?>
<!-- Generator: Adobe Illustrator 25.3.1, SVG Export Plug-In . SVG Version: 6.00 Build 0)  -->
<svg version="1.1"
	 id="svg2" sodipodi:docname="Javascript-03.eps" xmlns:cc="http://creativecommons.org/ns#" xmlns:dc="http://purl.org/dc/elements/1.1/" xmlns:inkscape="http://www.inkscape.org/namespaces/inkscape" xmlns:rdf="http://www.w3.org/1999/02/22-rdf-syntax-ns#" xmlns:sodipodi="http://sodipodi.sourceforge.net/DTD/sodipodi-0.dtd" xmlns:svg="http://www.w3.org/2000/svg"
	 xmlns="http://www.w3.org/2000/svg" xmlns:xlink="http://www.w3.org/1999/xlink" x="0px" y="0px" viewBox="0 0 100 100"
	 style="enable-background:new 0 0 100 100;" xml:space="preserve">
<style type="text/css">
	.st0{fill:#CE4A9C;}
</style>
<sodipodi:namedview  bordercolor="#666666" borderopacity="1" gridtolerance="10" guidetolerance="10" id="namedview4" inkscape:pageopacity="0" inkscape:pageshadow="2" inkscape:window-height="480" inkscape:window-width="640" objecttolerance="10" pagecolor="#ffffff">
	</sodipodi:namedview>
<sodipodi:namedview  bordercolor="#666666" borderopacity="1" gridtolerance="10" guidetolerance="10" id="namedview4" inkscape:pageopacity="0" inkscape:pageshadow="2" inkscape:window-height="480" inkscape:window-width="640" objecttolerance="10" pagecolor="#ffffff">
	</sodipodi:namedview>
<sodipodi:namedview  bordercolor="#666666" borderopacity="1" gridtolerance="10" guidetolerance="10" id="namedview4" inkscape:pageopacity="0" inkscape:pageshadow="2" inkscape:window-height="480" inkscape:window-width="640" objecttolerance="10" pagecolor="#ffffff">
	</sodipodi:namedview>
<g id="g10" transform="matrix(1.3333333,0,0,-1.3333333,0,512.12)" inkscape:groupmode="layer" inkscape:label="ink_ext_XXXXXX">
	<g id="g12" transform="scale(0.1)">
		<path id="path14" class="st0" d="M534.8,3328.8c-2.3,1.6-1.9,7.2,5.9,24.3c3.1,6.7,10.1,18,22.3,28.7c1.3-4.4,2.3-8.6,2.2-12.6
			C565.1,3342.7,546.2,3332.9,534.8,3328.8z M434.6,3306c-3.2-1.6-6.2-2.8-7.5-1.9c-1,0.6,1.3,2.8,1.3,2.8s16.3,17.6,22.7,25.5
			c3.7,4.7,8.1,10.1,12.7,16.3v-1.8C463.9,3325.7,443.6,3311.7,434.6,3306z M304.6,3368c-7.5-18.3-23.3-65.3-32.8-62.7
			c-8.2,2.2-13.3,37.8-1.6,72.9c5.9,17.7,18.3,38.8,25.6,47c11.7,13.2,24.7,17.6,28,12.2C327.6,3430.6,309.3,3379.6,304.6,3368z
			 M147.1,3261c-21.7-23.6-51.8-32.5-64.7-24.9c-13.9,8.1-8.5,42.9,18,67.8c16.1,15.2,36.9,29.3,50.8,37.9c3.2,1.9,7.8,4.7,13.5,8.1
			c1,0.6,1.5,0.9,1.5,0.9c1,0.7,2.2,1.3,3.2,2.1C179.2,3317.1,169.8,3285.7,147.1,3261z M650,3430.6c-26.2-0.1-48.9-6.4-68-15.8
			c-7,13.8-13.9,26.2-15.2,35.1c-1.3,10.5-3.1,17-1.3,29.6c1.6,12.6,9.1,30.6,8.9,31.9c-0.1,1.3-1.6,7.8-16.7,7.9
			c-15.1,0.1-28.1-2.9-29.6-6.9s-4.4-13-6.3-22.3c-2.6-13.8-30.2-62.5-45.8-88.2c-5.1,10-9.5,18.7-10.4,25.8
			c-1.3,10.5-3.1,17-1.3,29.6c1.6,12.6,9.1,30.6,8.9,31.9c-0.1,1.3-1.6,7.8-16.7,7.9c-15.1,0.1-28.1-2.9-29.6-6.9
			c-1.5-4-3.2-13.3-6.3-22.3c-3.2-9.1-39.7-90.7-49.4-111.7c-5-10.8-9.2-19.5-12.2-25.3c0,0-0.1-0.4-0.6-1c-2.6-5.1-4.1-7.8-4.1-7.8
			v-0.1c-2.1-3.7-4.2-7.2-5.3-7.2c-0.9,0-2.3,9.8,0.3,23.3c5.4,28.4,18.5,72.5,18.3,74c0,0.9,2.5,8.5-8.5,12.4
			c-10.7,4-14.5-2.6-15.5-2.6s-1.6-2.3-1.6-2.3s11.9,49.6-22.7,49.6c-21.7,0-51.5-23.7-66.3-45.1c-9.4-5.1-29.1-15.8-50.4-27.5
			c-8.1-4.5-16.4-9.1-24.3-13.3c-0.6,0.6-1,1.2-1.6,1.8c-41.9,44.8-119.4,76.4-116.1,136.5c1.2,22,8.8,79.4,148.9,149.2
			c115.3,56.8,207.1,41.2,222.9,6.2c22.7-49.8-49.2-142.5-168.3-155.8c-45.4-5.1-69.3,12.4-75.3,19c-6.3,6.9-7.3,7.3-9.5,5.9
			c-3.8-2.1-1.3-8.2,0-11.7c3.5-9.4,18.2-25.8,43.1-33.8c22-7.2,75.1-11.1,139.7,13.8c72.2,28,128.6,105.6,112,170.6
			c-17,66.2-126.5,88-230.2,51.1c-61.7-22-128.4-56.4-176.5-101.3c-57.3-53.5-66.2-99.9-62.5-119.4c13.3-69,108.5-113.9,146.6-147.2
			c-1.9-1-3.7-2-5.3-2.9c-19-9.5-91.7-47.4-109.7-87.6c-20.5-45.4,3.2-78.1,19-82.4c48.9-13.6,99.1,10.8,126.1,51.1
			c26.9,40.3,23.7,92.6,11.3,116.6c-0.1,0.3-0.3,0.6-0.6,0.9c5,2.9,10,5.9,14.9,8.8c9.7,5.7,19.3,11.1,27.5,15.5
			c-4.7-12.7-8.1-28-9.7-49.8c-2.1-25.8,8.5-59.2,22.3-72.3c6.2-5.7,13.5-5.9,18-5.9c16.1,0,23.4,13.5,31.5,29.3
			c9.8,19.5,18.7,42,18.7,42s-11.1-61.1,19-61.1c11,0,22.1,14.2,26.9,21.5v-0.1c0,0,0.3,0.4,0.9,1.3c1,1.8,1.8,2.9,1.8,2.9v0.3
			c4.4,7.6,14.2,25,28.8,53.9c18.9,37.2,37.1,83.8,37.1,83.8s1.6-11.4,7.3-30.3c3.2-11.1,10.1-23.3,15.7-35
			c-4.4-6.2-7.2-9.5-7.2-9.5l0.1-0.1c-3.5-4.7-7.5-9.7-11.6-14.6c-14.9-17.9-32.8-38.2-35.1-44.1c-2.9-7-2.2-12,3.2-16.1
			c4-3.1,11.1-3.4,18.3-3.1c13.5,1,22.8,4.2,27.5,6.3c7.3,2.6,15.8,6.6,23.7,12.4c14.6,10.8,23.6,26.4,22.7,46.7
			c-0.4,11.3-4.1,22.4-8.6,33c1.3,1.9,2.6,3.8,4,5.7c23.1,33.8,41.2,70.9,41.2,70.9s1.6-11.4,7.3-30.3c2.8-9.5,8.3-20.1,13.3-30.2
			c-21.8-17.7-35.1-38.2-40-51.7c-8.6-24.9-1.9-36.2,10.8-38.8c5.7-1.2,13.9,1.5,20.1,4.1c7.6,2.5,16.7,6.7,25.3,13
			c14.6,10.8,28.7,25.9,28,46.3c-0.4,9.4-2.9,18.5-6.3,27.4c18.5,7.6,42.3,11.9,72.8,8.3c65.2-7.6,78.1-48.3,75.6-65.5
			c-2.5-17.1-16.1-26.4-20.6-29.3c-4.5-2.9-6-3.8-5.6-5.9c0.6-3.1,2.8-2.9,6.6-2.3c5.3,1,34.3,13.8,35.4,45.4
			C756.1,3386.9,717.9,3430.9,650,3430.6"/>
	</g>
</g>
</svg>
