<?xml version="1.0" standalone="no"?>
<!DOCTYPE svg PUBLIC "-//W3C//DTD SVG 20010904//EN"
 "http://www.w3.org/TR/2001/REC-SVG-20010904/DTD/svg10.dtd">
<svg version="1.0" xmlns="http://www.w3.org/2000/svg"
 width="700.000000pt" height="700.000000pt" viewBox="0 0 700.000000 700.000000"
 preserveAspectRatio="xMidYMid meet">
<metadata>
Created by potrace 1.14, written by Peter Selinger 2001-2017
</metadata>
<g transform="translate(0.000000,700.000000) scale(0.100000,-0.100000)"
fill="#000000" stroke="none">
<path d="M2982 6781 c0 -3 0 -13 -1 -21 -1 -13 -2 -13 -11 0 -5 8 -10 10 -10
4 0 -6 -7 -11 -15 -11 -8 0 -15 4 -15 9 0 5 -5 6 -10 3 -6 -4 -7 -11 -4 -17 4
-6 -1 -6 -14 1 -15 8 -21 8 -24 -1 -2 -6 -14 -13 -27 -15 -15 -2 -20 1 -16 9
4 7 1 6 -7 -3 -7 -9 -19 -14 -27 -11 -10 3 -11 0 -5 -9 7 -12 5 -12 -9 0 -12
9 -17 10 -17 2 0 -7 -4 -9 -10 -6 -5 3 -10 2 -10 -4 0 -5 6 -11 13 -14 6 -2
-4 -4 -23 -3 -19 1 -39 -4 -45 -11 -5 -7 -27 -14 -47 -15 -27 -2 -38 -8 -38
-19 0 -13 -8 -15 -32 -13 -28 4 -30 3 -14 -9 16 -12 15 -13 -13 -11 -17 1 -29
-2 -26 -6 3 -5 1 -11 -5 -15 -5 -3 -10 0 -11 7 0 7 -5 2 -10 -11 -7 -17 -15
-22 -29 -18 -11 3 -23 0 -27 -5 -3 -7 -1 -8 5 -4 7 4 12 3 12 -3 0 -5 -10 -11
-22 -13 -13 -2 -22 -9 -21 -15 2 -8 -4 -10 -14 -6 -12 5 -15 2 -10 -10 6 -15
3 -16 -13 -7 -11 6 -19 7 -18 3 4 -10 -39 -57 -53 -59 -5 -1 -14 -2 -20 -3 -5
0 -7 -6 -3 -13 5 -8 2 -9 -9 -5 -9 3 -16 3 -16 -1 3 -20 -2 -25 -12 -12 -9 12
-10 11 -6 -7 5 -24 -7 -40 -18 -23 -4 6 -11 5 -19 -3 -8 -6 -12 -15 -9 -19 2
-4 -4 -5 -13 -1 -13 5 -16 3 -11 -9 4 -11 0 -15 -11 -13 -9 1 -38 -15 -63 -36
-25 -21 -50 -35 -54 -31 -5 4 -5 1 0 -6 5 -10 10 -11 18 -3 6 6 15 11 21 11 5
0 1 -6 -9 -14 -11 -8 -26 -11 -35 -8 -8 3 -12 2 -8 -2 9 -11 -14 -35 -29 -29
-6 3 -17 -5 -23 -17 -6 -11 -15 -18 -21 -15 -5 4 -9 1 -9 -5 0 -7 -7 -9 -16
-6 -14 5 -15 4 -4 -9 11 -13 10 -14 -6 -8 -17 6 -18 5 -4 -12 14 -17 14 -18
-9 -6 -15 8 -21 9 -17 2 4 -6 2 -11 -4 -11 -6 0 -8 -4 -5 -10 3 -5 0 -7 -8 -4
-8 3 -21 -2 -30 -10 -8 -8 -18 -12 -23 -8 -5 4 -2 -2 6 -13 8 -11 10 -17 6
-13 -5 4 -16 2 -24 -5 -13 -10 -14 -9 -7 2 6 10 4 12 -4 7 -7 -5 -10 -14 -7
-21 3 -8 -2 -11 -15 -8 -12 4 -19 0 -19 -10 0 -8 -8 -21 -17 -28 -11 -10 -14
-10 -9 -1 4 6 3 12 -3 12 -6 0 -15 -9 -21 -20 -6 -10 -17 -17 -24 -14 -8 3
-20 -4 -28 -15 -8 -12 -18 -18 -21 -14 -4 3 -7 -1 -7 -10 0 -9 -5 -19 -12 -23
-7 -5 -8 -3 -3 5 4 7 -4 5 -19 -4 -25 -17 -38 -34 -14 -19 7 4 8 3 4 -5 -6 -9
-11 -9 -24 1 -9 7 -13 8 -9 2 3 -6 -6 -22 -21 -35 -20 -18 -22 -19 -9 -3 9 11
17 24 17 29 0 5 -11 -5 -23 -23 -13 -17 -27 -29 -30 -25 -4 3 -7 1 -7 -7 0
-10 -3 -10 -15 0 -13 11 -14 10 -9 -4 4 -11 2 -16 -7 -14 -8 2 -13 -2 -12 -9
1 -6 -4 -14 -13 -17 -8 -3 -12 -2 -9 4 10 16 -5 12 -31 -9 -13 -10 -20 -21
-17 -25 3 -3 -4 -6 -16 -6 -16 0 -21 -5 -18 -14 4 -9 0 -12 -13 -9 -10 3 -21
-1 -25 -8 -6 -8 -4 -10 5 -4 9 5 11 4 6 -4 -4 -6 -12 -9 -17 -5 -13 8 -41 -16
-35 -31 2 -6 -2 -12 -9 -12 -7 0 -11 7 -8 16 3 12 2 12 -7 -2 -6 -9 -8 -23 -4
-30 5 -8 2 -7 -9 2 -12 9 -17 10 -17 2 0 -7 -4 -10 -9 -6 -5 3 -13 0 -17 -6
-4 -8 -3 -9 4 -5 7 4 12 2 12 -3 0 -10 -22 -16 -43 -12 -5 1 -6 -3 -2 -9 3 -6
11 -7 17 -4 7 4 8 2 4 -5 -4 -6 -11 -9 -16 -6 -4 3 -11 -2 -14 -11 -3 -8 -10
-12 -16 -9 -5 3 -10 1 -10 -5 0 -6 -5 -8 -12 -4 -8 5 -7 0 2 -11 14 -17 14
-18 -7 -6 -20 10 -22 9 -16 -5 4 -12 3 -15 -5 -10 -8 5 -10 1 -5 -10 4 -12 3
-15 -5 -10 -7 4 -12 1 -12 -9 0 -9 -5 -13 -10 -10 -9 6 -14 -7 -11 -27 0 -4
-5 -5 -13 -2 -7 3 -19 -2 -26 -11 -11 -13 -10 -15 6 -9 11 3 7 -3 -9 -13 -25
-16 -40 -41 -42 -68 0 -5 -8 -9 -18 -7 -12 2 -15 -2 -10 -14 5 -13 2 -16 -9
-11 -11 4 -14 1 -11 -12 3 -11 -2 -21 -11 -24 -9 -4 -16 -12 -16 -19 0 -9 3
-9 11 2 9 13 10 13 6 0 -2 -8 -12 -14 -21 -14 -9 1 -16 -5 -16 -13 0 -8 5 -11
13 -8 6 4 4 0 -6 -8 -10 -9 -19 -19 -20 -24 -1 -4 -6 -7 -11 -5 -5 2 -5 -3 1
-10 9 -13 -8 -64 -18 -53 -3 2 -11 -5 -18 -17 -7 -11 -8 -17 -2 -13 6 3 11 1
11 -4 0 -6 -4 -11 -10 -11 -5 0 -7 -7 -4 -15 4 -8 -1 -17 -10 -21 -9 -3 -16
-10 -16 -16 0 -5 6 -6 13 -2 6 4 4 -1 -5 -12 -13 -14 -14 -23 -6 -38 7 -13 7
-17 0 -12 -6 4 -16 -4 -23 -16 -11 -21 -11 -22 5 -9 14 12 16 12 10 -3 -3 -9
-11 -16 -18 -16 -6 0 -4 -4 4 -10 12 -8 12 -10 -4 -16 -14 -5 -15 -9 -4 -15
10 -7 10 -9 0 -9 -10 0 -10 -5 -2 -20 7 -12 7 -20 1 -20 -5 0 -8 -9 -6 -20 2
-11 0 -18 -4 -15 -5 2 -11 -5 -15 -18 -8 -32 -7 -39 4 -32 6 4 8 10 5 15 -3 5
-1 11 4 14 12 8 8 -18 -5 -35 -16 -20 -25 -49 -15 -49 4 0 8 -7 8 -15 0 -11
-4 -12 -13 -4 -11 9 -11 5 -4 -20 7 -25 6 -31 -6 -31 -8 0 -12 -5 -9 -10 4 -6
10 -8 14 -6 4 3 8 -1 8 -9 0 -11 -5 -11 -19 -4 -18 9 -18 8 -8 -10 8 -16 8
-21 -2 -21 -9 0 -9 -3 2 -10 8 -5 11 -10 5 -10 -5 0 -10 -22 -9 -49 0 -37 -3
-48 -13 -44 -9 4 -11 0 -6 -13 5 -13 3 -15 -8 -9 -12 8 -12 6 0 -8 10 -13 11
-20 2 -30 -7 -10 -7 -17 0 -24 8 -8 7 -13 -2 -18 -8 -6 -10 -4 -4 5 5 9 4 11
-4 6 -9 -6 -9 -11 0 -22 6 -8 8 -14 4 -14 -4 0 -1 -8 6 -17 11 -15 11 -16 -1
-5 -21 18 -26 15 -27 -15 -2 -69 -8 -103 -20 -107 -7 -3 -13 -11 -13 -18 0
-10 2 -10 9 0 7 11 9 10 14 -3 4 -9 3 -13 -3 -10 -6 3 -10 -1 -10 -9 0 -9 -6
-16 -12 -16 -8 0 -9 -3 -3 -8 14 -10 18 -35 5 -27 -7 4 -9 -2 -6 -19 4 -20 1
-24 -12 -19 -9 3 -14 3 -10 -2 4 -4 3 -16 -3 -27 -7 -14 -7 -23 2 -34 9 -11 9
-14 0 -14 -7 0 -9 -4 -6 -10 3 -5 1 -10 -5 -10 -6 0 -9 -4 -5 -9 3 -6 -3 -15
-12 -21 -15 -10 -15 -11 -1 -6 19 5 33 -20 16 -30 -7 -4 -8 -3 -4 4 4 7 3 12
-2 12 -5 0 -12 -9 -15 -20 -3 -13 -1 -18 6 -13 7 4 6 -1 -2 -11 -13 -15 -13
-19 0 -27 10 -8 8 -9 -8 -4 -19 5 -21 3 -17 -20 3 -15 1 -24 -5 -21 -5 4 -7
-3 -3 -16 3 -14 1 -19 -6 -14 -8 5 -10 2 -6 -8 3 -9 10 -13 16 -10 5 3 4 -3
-4 -15 -7 -12 -20 -21 -28 -22 -11 0 -12 -2 -2 -6 10 -4 9 -10 -5 -26 -10 -11
-13 -17 -7 -14 7 4 15 0 18 -9 3 -8 2 -13 -3 -10 -5 3 -12 -1 -15 -10 -3 -8
-10 -13 -14 -10 -5 3 -9 -1 -9 -9 0 -8 3 -12 7 -10 3 2 6 -5 6 -15 0 -11 -6
-16 -14 -13 -15 6 -13 -18 3 -29 6 -4 2 -8 -9 -8 -12 0 -16 -5 -12 -16 3 -8 2
-12 -4 -9 -5 3 -9 -3 -9 -12 0 -27 -6 -51 -16 -60 -4 -4 -5 -2 -1 5 4 6 2 12
-5 12 -6 0 -9 -8 -6 -20 3 -10 0 -21 -7 -24 -7 -3 -6 -8 4 -15 13 -9 13 -11
-2 -11 -9 0 -20 -5 -24 -12 -5 -7 -3 -8 7 -3 12 8 12 6 0 -8 -11 -14 -11 -20
0 -34 8 -9 9 -14 2 -10 -7 4 -14 -1 -18 -13 -3 -11 -10 -20 -15 -20 -5 0 -7
-7 -3 -16 3 -9 0 -20 -8 -25 -10 -6 -10 -9 -1 -9 6 0 12 -5 12 -11 0 -5 -4 -8
-9 -5 -5 3 -14 -1 -20 -8 -10 -11 -7 -18 11 -30 12 -9 17 -16 10 -16 -7 0 -10
-4 -7 -10 4 -6 -1 -7 -12 -3 -16 6 -17 5 -3 -12 8 -10 10 -16 4 -12 -8 4 -11
-2 -10 -18 0 -14 6 -25 11 -25 7 0 7 -3 0 -8 -13 -9 -16 -42 -4 -42 5 0 9 -5
9 -11 0 -5 -4 -7 -10 -4 -16 10 -12 -7 7 -27 14 -15 14 -18 2 -13 -10 4 -16 0
-16 -10 0 -8 5 -15 11 -15 6 0 4 -5 -4 -10 -12 -8 -12 -10 5 -11 l20 0 -20 -8
c-19 -8 -19 -8 3 -15 l22 -7 -21 -18 c-20 -16 -20 -17 -3 -31 15 -12 16 -12 9
-1 -5 10 -4 12 4 7 9 -6 9 -11 0 -23 -10 -12 -10 -16 2 -24 12 -7 12 -9 -1 -9
-10 0 -11 -3 -4 -8 7 -4 11 -31 10 -65 -1 -32 2 -61 8 -64 5 -3 6 -1 2 5 -3 6
-3 13 2 16 9 5 12 -11 12 -57 0 -16 3 -26 7 -24 10 6 10 -54 0 -70 -5 -7 0
-10 15 -7 13 2 17 2 11 -2 -7 -3 -13 -10 -13 -15 0 -6 6 -7 13 -3 9 6 9 4 0
-7 -15 -16 -17 -33 -3 -24 6 4 9 -3 6 -17 -1 -13 4 -34 13 -48 9 -14 11 -21 4
-17 -9 5 -13 2 -13 -8 0 -9 5 -13 11 -9 7 4 10 1 7 -7 -3 -8 -1 -24 3 -37 6
-15 5 -21 -1 -17 -7 4 -7 -3 0 -19 5 -14 6 -26 2 -26 -4 0 0 -5 8 -10 10 -6
11 -10 3 -10 -13 0 -13 -26 0 -47 5 -8 3 -13 -4 -13 -6 0 -3 -8 8 -17 10 -10
14 -15 7 -10 -7 4 -14 1 -17 -7 -4 -9 -1 -18 5 -22 7 -5 8 -2 3 7 -8 12 -6 12
8 0 19 -15 23 -26 6 -15 -8 5 -10 -3 -5 -27 4 -21 1 -44 -8 -61 -9 -16 -10
-27 -4 -25 6 1 13 -4 16 -12 2 -8 0 -11 -6 -7 -6 3 -13 2 -16 -3 -4 -5 -2 -12
4 -16 6 -4 7 -13 1 -23 -12 -22 -12 -34 1 -49 7 -9 7 -13 -2 -13 -6 0 -10 -6
-7 -12 2 -7 -3 -26 -11 -43 -14 -28 -14 -29 2 -16 14 12 16 12 10 -2 -3 -8
-12 -18 -21 -21 -12 -5 -13 -9 -4 -20 9 -11 8 -18 -4 -30 -10 -9 -12 -16 -5
-16 6 0 9 -4 5 -10 -3 -5 -13 -6 -23 -3 -13 4 -13 2 3 -11 14 -11 15 -15 5
-14 -8 2 -14 -3 -12 -10 3 -17 -45 -117 -64 -133 -10 -8 -11 -16 -3 -31 8 -15
8 -19 -1 -13 -7 4 -10 1 -8 -11 2 -13 -3 -19 -15 -18 -13 2 -15 -1 -7 -11 8
-9 8 -15 0 -20 -5 -3 -10 -15 -10 -26 0 -11 -4 -18 -9 -15 -5 4 -8 -5 -6 -19
1 -15 -6 -36 -15 -48 -14 -16 -16 -27 -8 -41 7 -13 7 -16 -1 -12 -11 7 -12 -1
-15 -62 -1 -12 -7 -26 -14 -31 -11 -7 -10 -9 3 -14 10 -5 14 -3 9 5 -4 7 -3 8
5 4 8 -6 9 -12 2 -20 -6 -7 -8 -16 -4 -20 4 -4 -1 -4 -12 0 -17 7 -18 6 -5 -8
8 -9 18 -14 23 -11 4 2 7 -1 7 -8 0 -7 -8 -9 -21 -6 -20 5 -20 5 -2 -15 17
-20 17 -21 1 -15 -10 4 -18 4 -18 1 0 -2 10 -8 21 -12 20 -8 20 -9 4 -25 -12
-13 -13 -17 -3 -17 8 0 14 -9 15 -20 1 -11 -2 -18 -6 -16 -4 3 -8 -1 -8 -9 0
-8 3 -15 7 -15 3 0 6 -9 7 -20 1 -11 -3 -20 -8 -20 -6 0 -6 -6 0 -18 6 -10 6
-24 1 -32 -5 -8 -7 -18 -4 -22 3 -4 0 -17 -7 -29 -8 -15 -8 -19 0 -15 6 4 11
0 11 -9 0 -9 -4 -14 -9 -10 -5 3 -13 0 -17 -6 -4 -8 -3 -9 4 -5 7 4 12 2 12
-3 0 -6 -5 -11 -11 -11 -6 0 -9 -7 -5 -15 3 -8 0 -15 -7 -15 -7 0 -8 -3 -2 -8
15 -11 17 -32 2 -26 -8 3 -14 -1 -15 -8 -6 -62 -12 -83 -21 -81 -6 2 -11 -2
-11 -8 0 -5 -6 -7 -13 -3 -9 6 -9 4 0 -7 14 -14 17 -30 6 -28 -20 3 -24 -2
-13 -16 11 -13 10 -14 -3 -10 -8 4 -18 1 -23 -6 -4 -8 -3 -10 4 -5 7 4 12 2
12 -3 0 -6 -4 -11 -10 -11 -5 0 -10 -7 -10 -15 0 -8 -4 -15 -8 -15 -5 0 -13
-10 -18 -22 -6 -13 -8 -16 -6 -8 2 11 0 12 -8 4 -17 -17 -9 -160 9 -156 9 2
11 -3 7 -14 -5 -14 -4 -15 9 -4 13 11 15 9 15 -14 0 -14 6 -26 13 -26 8 0 7
-4 -3 -10 -12 -8 -12 -10 -1 -10 8 0 11 -7 8 -20 -3 -11 -1 -18 3 -15 5 3 11
1 15 -5 4 -6 11 -8 16 -5 5 4 9 1 9 -4 0 -6 5 -11 11 -11 5 0 7 5 3 12 -5 7
-3 8 6 3 24 -15 111 -16 128 -3 13 11 14 11 7 -2 -8 -13 -6 -13 8 -1 9 7 14
18 10 24 -3 6 -1 7 5 3 6 -4 9 -14 6 -24 -4 -13 -2 -12 8 3 14 22 66 36 53 14
-5 -7 -4 -10 3 -5 6 3 9 16 7 28 -3 16 -2 19 7 10 8 -8 15 -7 25 6 8 9 12 12
9 5 -4 -7 1 -11 14 -10 11 1 20 5 20 9 0 4 5 8 11 8 5 0 7 -5 3 -12 -4 -7 -3
-8 4 -4 7 4 12 15 12 24 0 14 2 14 9 3 7 -11 11 -9 20 8 7 13 21 21 37 21 14
0 22 4 19 10 -3 5 1 10 9 10 8 0 18 5 22 12 4 6 3 8 -3 5 -5 -3 -10 0 -10 8 0
18 9 19 23 5 7 -7 10 3 10 34 -1 41 0 43 19 33 17 -9 18 -8 8 5 -7 8 -10 18
-6 21 3 4 0 13 -6 21 -7 8 -10 20 -6 26 3 5 0 10 -7 10 -9 0 -9 3 2 10 10 6
11 10 3 10 -15 0 -18 29 -3 31 6 1 14 2 19 3 5 0 13 5 18 10 4 5 3 6 -4 2 -6
-3 -15 -1 -19 6 -4 7 -4 10 0 6 4 -3 21 -2 37 2 19 6 29 5 29 -2 0 -5 7 -8 15
-5 8 4 17 1 21 -5 4 -7 3 -8 -4 -4 -7 4 -12 3 -12 -2 0 -14 35 -21 54 -10 10
6 16 5 16 -2 0 -7 6 -7 21 1 16 8 20 8 14 -1 -5 -7 -1 -11 11 -10 33 4 45 0
39 -10 -4 -6 7 -10 25 -10 20 0 29 -4 24 -11 -4 -8 0 -9 15 -4 12 4 21 2 21
-4 0 -15 27 -14 33 2 4 8 6 7 6 -3 1 -9 10 -16 21 -17 11 -1 18 2 15 7 -3 6 1
7 9 4 9 -3 14 -10 11 -14 -3 -5 8 -5 24 0 25 7 29 6 24 -8 -4 -10 -3 -14 2
-10 4 4 15 2 24 -5 14 -11 14 -10 2 6 -19 25 -6 33 22 14 22 -14 24 -14 23 0
-1 19 45 26 57 9 6 -7 7 -4 3 7 -3 9 -1 17 5 17 6 0 7 5 3 12 -4 7 -3 8 5 4 6
-4 8 -12 4 -19 -3 -6 9 0 27 13 18 13 30 19 26 12 -4 -7 -1 -12 9 -12 9 0 13
4 10 10 -3 5 1 10 10 10 10 0 13 -5 9 -12 -4 -7 -3 -8 4 -4 7 4 12 15 12 24 0
11 3 13 8 6 4 -7 24 -11 44 -9 21 1 35 -2 31 -8 -3 -5 4 -4 15 2 28 15 32 14
26 -6 -5 -17 -5 -17 5 -1 9 13 22 16 51 13 23 -2 40 0 40 6 0 6 6 7 13 2 20
-13 34 -12 33 2 0 8 4 14 9 15 6 1 17 8 26 16 9 8 19 11 22 7 4 -3 7 -1 7 6 0
7 4 10 9 6 5 -3 12 -1 16 5 3 5 1 10 -6 10 -7 0 -9 3 -5 8 4 4 13 7 19 7 7 0
13 13 15 28 3 23 8 28 22 24 12 -3 17 0 13 9 -2 7 -12 10 -21 8 -9 -3 -7 1 6
8 12 8 19 17 16 21 -4 4 -2 7 4 7 6 0 9 7 5 17 -4 11 -3 14 5 9 7 -4 12 -1 12
9 0 9 4 14 9 10 5 -3 12 -1 16 5 8 14 86 10 78 -4 -3 -6 0 -5 8 2 17 15 53 16
43 0 -5 -7 -3 -8 7 -3 19 13 49 14 49 2 0 -5 7 -4 15 3 8 7 15 8 15 3 0 -5 7
-10 15 -10 8 0 12 5 8 10 -3 5 3 6 15 3 19 -6 20 -5 9 18 -7 14 -15 26 -19 26
-5 0 -8 7 -8 16 0 9 -5 12 -12 8 -9 -6 -9 -3 0 9 12 14 11 16 -8 12 -17 -3
-20 0 -15 15 4 11 2 20 -4 20 -6 0 -7 7 -4 17 4 11 3 14 -5 9 -7 -4 -13 -2
-13 3 -3 26 -4 30 -11 36 -4 4 -3 18 3 32 5 13 5 22 1 19 -4 -3 -8 13 -9 35 0
21 3 36 8 33 5 -3 5 5 0 18 -10 27 -9 118 2 135 4 6 3 14 -2 17 -11 7 -11 55
1 62 5 3 3 13 -4 22 -8 9 -8 13 -2 9 7 -4 14 0 17 8 4 10 1 12 -11 9 -15 -5
-15 -4 1 6 9 6 21 9 26 6 4 -3 8 7 7 22 -1 17 4 26 12 24 8 -1 11 2 7 8 -4 6
-1 18 7 27 11 14 11 16 -2 8 -13 -8 -13 -7 -1 8 11 14 11 17 0 17 -10 0 -10 3
-3 8 6 4 12 28 13 55 1 26 2 53 2 60 2 19 -5 41 -16 49 -6 5 -4 8 5 8 13 0 13
1 0 10 -13 9 -13 11 0 20 13 9 13 10 0 11 -8 1 -19 1 -23 0 -5 -1 -6 3 -2 9 3
6 12 8 18 4 7 -3 4 1 -5 9 -12 9 -14 17 -7 24 8 8 7 13 -2 18 -8 6 -10 4 -4
-5 5 -8 4 -11 -1 -7 -6 3 -10 28 -9 55 1 33 -3 48 -10 46 -7 -3 -10 10 -9 36
1 24 -3 40 -10 40 -6 0 -4 5 4 10 12 8 12 10 1 10 -11 0 -11 3 -1 15 9 11 9
15 1 15 -8 0 -9 5 -2 19 6 10 8 21 5 24 -10 10 -12 171 -2 184 6 7 4 14 -3 19
-8 5 -9 3 -4 -6 5 -9 4 -11 -4 -6 -9 6 -9 13 3 30 12 19 12 23 1 23 -8 0 -12
-4 -9 -8 2 -4 0 -10 -5 -13 -5 -4 -8 2 -6 11 1 10 -3 24 -9 32 -8 11 -8 13 0
8 7 -4 14 2 17 14 5 17 3 18 -9 8 -12 -10 -13 -9 -8 5 3 9 0 24 -7 33 -12 15
-12 16 3 10 13 -4 16 -2 12 11 -5 15 -4 15 6 -1 6 -9 15 -15 20 -12 4 3 6 -3
3 -14 -3 -10 0 -22 6 -25 7 -5 8 -1 4 11 -8 23 1 15 17 -16 10 -19 10 -22 -2
-15 -11 7 -11 5 0 -9 8 -9 10 -22 6 -29 -4 -7 3 -4 17 7 20 17 21 17 9 2 -11
-15 -11 -20 -1 -27 11 -6 11 -9 0 -13 -12 -5 -12 -6 0 -6 11 -1 11 -4 0 -18
-8 -9 -9 -14 -2 -10 7 4 14 -1 18 -13 6 -20 16 -23 70 -21 23 2 27 0 15 -8
-20 -14 -4 -14 22 0 17 9 23 8 30 -5 7 -12 14 -14 27 -6 14 7 22 5 32 -8 13
-15 12 -16 -3 -4 -12 10 -18 10 -24 1 -4 -7 -3 -9 4 -5 6 3 13 2 16 -3 4 -5
17 -8 31 -7 13 2 22 -1 19 -5 -3 -5 0 -9 6 -9 6 0 8 -4 5 -10 -4 -6 3 -6 21 0
23 9 25 9 15 -4 -11 -13 -9 -15 9 -11 18 4 20 2 9 -11 -10 -13 -8 -13 15 -4
20 7 25 7 20 -2 -5 -8 -2 -9 9 -5 20 8 22 -3 5 -23 -11 -12 -10 -12 3 -2 9 6
19 9 23 5 12 -13 48 -14 40 -1 -4 7 -3 8 5 4 9 -6 9 -11 1 -21 -9 -11 -6 -13
14 -11 14 2 23 0 21 -4 -3 -5 2 -11 11 -14 8 -3 13 -2 10 2 -2 4 5 8 17 9 12
0 16 -1 10 -4 -7 -3 -13 -9 -13 -15 0 -6 6 -8 14 -5 8 3 17 1 20 -6 3 -8 5 -7
5 2 1 11 5 10 17 -5 8 -10 13 -12 9 -4 -5 12 -4 12 7 -1 14 -17 52 -34 44 -20
-4 5 3 7 15 4 11 -3 18 -11 16 -18 -3 -6 1 -12 8 -12 8 0 11 7 7 16 -3 9 4 5
16 -9 12 -14 21 -20 22 -14 0 6 7 11 15 11 8 0 11 -5 8 -10 -4 -6 4 -8 20 -5
19 4 24 1 19 -10 -3 -10 -1 -13 6 -8 7 4 12 1 13 -6 0 -7 4 -4 9 7 7 17 9 17
9 3 1 -12 6 -15 18 -11 10 4 14 2 10 -4 -3 -5 0 -10 8 -10 8 0 12 3 10 7 -2 3
5 6 16 6 12 0 19 -7 19 -20 0 -20 0 -20 15 0 13 16 14 16 9 2 -7 -21 6 -23 25
-5 11 9 13 9 7 0 -9 -15 10 -18 19 -3 4 6 11 8 16 4 6 -4 6 -11 -1 -19 -8 -10
-8 -15 1 -21 8 -4 9 -3 5 5 -6 8 0 11 18 9 14 -2 28 -7 32 -10 3 -4 12 -4 20
-1 8 3 22 -1 31 -8 9 -8 14 -9 10 -3 -4 8 3 11 22 10 16 0 27 -4 25 -8 -3 -5
6 -8 20 -8 14 0 26 -4 26 -10 0 -5 5 -10 11 -10 5 0 8 4 5 8 -3 5 1 9 9 9 8 0
15 -4 15 -9 0 -13 30 -9 31 5 0 6 4 3 9 -8 6 -13 9 -15 9 -5 1 13 3 13 10 1 5
-8 17 -16 25 -17 9 -1 14 1 11 6 -11 18 25 17 46 -1 20 -17 23 -18 34 -2 9 13
14 13 20 3 6 -9 4 -11 -5 -5 -8 5 -11 4 -6 -3 3 -6 19 -9 34 -8 15 2 35 -1 45
-6 11 -5 17 -5 17 2 0 5 7 10 16 10 8 0 13 -4 10 -9 -4 -5 2 -8 11 -6 10 2 18
4 18 5 0 1 24 3 53 5 28 2 57 7 64 11 7 5 9 2 4 -7 -4 -8 0 -5 8 5 9 11 16 14
16 8 0 -7 7 -12 16 -12 11 0 14 6 10 18 -5 14 -4 14 9 -2 11 -14 15 -16 15 -5
0 12 2 12 10 -1 5 -8 10 -11 10 -6 0 5 8 2 18 -5 13 -10 12 -8 -3 10 l-20 24
23 -12 c12 -6 22 -8 22 -3 0 5 19 7 41 5 33 -4 40 -2 33 8 -6 12 -5 12 9 0 14
-11 17 -11 17 0 0 11 2 11 10 -1 9 -13 10 -13 10 0 0 12 2 12 9 1 6 -9 11 -10
15 -2 4 6 13 11 19 11 7 0 6 -4 -3 -11 -12 -9 -12 -10 3 -5 10 3 21 6 23 6 3
0 3 4 -1 9 -3 5 0 13 6 17 7 4 9 3 6 -3 -4 -6 0 -16 8 -23 13 -11 14 -10 9 4
-5 12 -2 15 12 9 11 -4 15 -3 11 4 -8 13 35 11 45 -2 5 -6 8 -5 8 4 0 11 3 11
17 0 14 -12 16 -12 8 0 -6 11 -4 13 8 8 10 -4 17 -2 17 5 0 7 4 7 14 -1 11 -9
15 -8 20 4 3 9 10 14 15 11 5 -4 12 -1 14 4 3 6 4 5 3 -2 -2 -7 -9 -12 -15
-10 -7 1 -10 -2 -6 -8 5 -8 11 -7 21 1 8 6 14 8 14 4 0 -4 6 -2 14 4 8 7 30
13 50 14 24 1 36 7 37 17 0 10 2 11 6 2 2 -6 9 -10 14 -6 5 3 9 -2 9 -11 0
-10 5 -13 12 -9 6 4 8 3 4 -4 -3 -5 -3 -12 1 -15 5 -2 2 -2 -5 -1 -7 2 -15 -3
-18 -11 -4 -8 -11 -12 -17 -8 -6 3 -7 1 -3 -6 6 -9 12 -9 24 1 15 11 15 11 5
-3 -7 -9 -9 -20 -5 -24 4 -5 1 -5 -5 -1 -14 8 -14 6 -17 -34 0 -14 -5 -31 -9
-38 -5 -7 -4 -12 2 -12 10 0 7 -37 -4 -48 -2 -3 0 -11 6 -18 7 -8 7 -14 -1
-19 -8 -5 -8 -10 0 -20 9 -10 6 -15 -11 -20 -17 -6 -19 -9 -8 -17 11 -7 11
-11 2 -15 -7 -2 -13 -9 -13 -14 0 -6 6 -7 13 -3 8 5 8 2 -2 -9 -11 -14 -11
-17 0 -17 10 0 11 -2 2 -8 -8 -5 -11 -27 -9 -60 2 -28 0 -50 -4 -47 -4 2 -5
-7 -2 -20 2 -14 8 -22 13 -19 5 3 6 -2 3 -10 -3 -9 -11 -13 -16 -10 -7 5 -7 1
-1 -11 6 -10 8 -26 6 -36 -3 -11 1 -27 8 -36 10 -12 10 -14 2 -9 -7 4 -13 2
-13 -3 0 -6 6 -11 13 -11 9 0 8 -3 -2 -9 -11 -7 -11 -9 0 -14 11 -4 11 -6 1
-6 -10 -1 -9 -5 3 -18 16 -15 16 -18 1 -29 -15 -10 -15 -12 -1 -18 11 -4 14
-2 9 7 -4 6 -3 8 1 4 12 -10 15 -38 4 -31 -5 3 -9 0 -9 -5 0 -6 5 -11 11 -11
5 0 7 -5 4 -10 -4 -6 -1 -18 7 -27 11 -14 11 -16 -3 -11 -9 4 -16 1 -16 -8 0
-7 3 -11 7 -9 3 2 12 0 20 -6 10 -6 11 -9 3 -9 -7 0 -13 -5 -13 -11 0 -6 6 -9
13 -6 7 3 13 -5 13 -19 1 -13 -2 -21 -7 -18 -5 3 -6 -2 -3 -10 3 -9 10 -13 15
-10 13 8 11 -10 -3 -25 -11 -11 -9 -11 10 -2 14 8 22 8 22 1 0 -5 -6 -10 -12
-10 -10 0 -10 -2 0 -9 8 -4 13 -11 13 -15 -3 -23 0 -36 8 -32 5 4 8 -5 6 -20
-2 -18 1 -24 12 -20 8 3 11 1 8 -4 -3 -6 1 -13 9 -16 9 -3 16 -10 16 -16 0 -5
-6 -6 -12 -2 -7 4 -2 -5 12 -19 14 -15 35 -28 47 -30 12 -2 31 -11 42 -21 11
-10 27 -16 36 -13 8 4 15 2 15 -3 0 -6 5 -10 11 -10 5 0 8 3 6 8 -6 9 46 8 61
-2 7 -4 12 -3 12 2 0 5 12 8 26 6 19 -2 28 3 32 18 3 15 7 16 13 7 6 -10 11
-7 18 11 5 14 10 21 10 16 1 -5 10 1 21 14 11 12 17 26 15 30 -3 4 3 14 13 21
16 13 16 13 2 -5 -14 -18 -13 -19 5 -13 19 7 19 6 2 -7 -10 -8 -14 -16 -9 -17
5 -2 12 -17 16 -33 l7 -30 -21 25 -21 24 15 -26 c9 -14 13 -29 9 -34 -5 -4 -2
-4 6 0 11 6 13 4 7 -10 -5 -15 -4 -16 9 -5 13 10 15 9 15 -9 0 -19 11 -26 34
-22 5 1 4 -4 -2 -12 -9 -11 -6 -13 20 -9 24 4 29 2 23 -9 -7 -12 -6 -12 7 -1
13 10 18 10 24 1 5 -8 3 -9 -6 -4 -9 5 -11 4 -6 -4 4 -6 12 -9 17 -5 5 3 18 0
27 -7 12 -10 11 -7 -3 10 l-20 24 26 -16 c14 -10 29 -14 32 -10 4 3 7 1 7 -7
0 -10 3 -10 15 0 10 9 15 9 15 1 0 -6 3 -10 8 -9 15 3 62 -15 62 -24 0 -5 5
-6 10 -3 6 3 10 -1 10 -10 0 -9 4 -14 9 -11 8 6 26 -22 23 -36 -1 -4 10 -5 24
-2 22 4 25 2 20 -18 -3 -13 -3 -17 0 -11 4 9 12 8 32 -5 18 -12 24 -13 18 -3
-6 10 -5 12 2 7 7 -4 12 -15 13 -24 0 -14 2 -13 9 3 6 14 9 16 9 4 1 -11 10
-15 31 -13 17 1 30 -3 30 -9 0 -7 4 -6 9 2 5 8 18 12 30 8 12 -3 19 -1 15 4
-3 5 0 9 6 9 6 0 9 4 6 9 -3 5 2 8 12 7 9 0 16 5 14 12 -2 10 2 10 17 3 16 -9
18 -8 13 11 -4 17 -2 20 11 15 11 -4 14 -2 10 9 -3 7 0 14 7 14 7 0 10 8 7 20
-3 10 -2 19 2 18 3 0 13 0 21 1 12 1 12 3 2 10 -11 7 -10 12 5 27 23 22 36 54
23 54 -5 0 -7 7 -4 15 4 8 10 13 14 10 5 -3 12 0 16 6 4 8 3 9 -4 5 -7 -4 -12
-3 -12 3 0 5 5 13 11 17 8 4 7 9 -2 15 -11 7 -10 9 3 9 11 0 15 5 12 15 -4 8
-1 21 5 29 6 7 7 17 3 21 -4 5 1 5 11 2 13 -5 16 -3 10 6 -12 19 -12 38 -1 31
6 -4 8 -1 6 7 -7 18 10 51 22 44 6 -3 7 1 3 10 -5 13 -7 14 -14 3 -7 -10 -9
-10 -9 0 0 7 7 15 15 18 8 4 12 10 9 15 -3 6 -1 16 6 24 8 9 8 15 0 20 -6 3
-8 11 -4 16 3 5 9 7 14 4 4 -3 13 2 20 10 11 13 10 14 -4 9 -9 -3 -16 -1 -16
5 0 6 8 11 18 11 16 0 18 -8 18 -59 -1 -36 -5 -57 -11 -54 -12 4 -13 -96 -1
-115 5 -8 1 -12 -11 -12 -15 0 -15 -2 -4 -9 13 -8 13 -12 0 -28 -13 -17 -13
-17 5 -3 18 14 19 13 13 -2 -3 -10 -2 -18 3 -18 6 0 10 -14 10 -31 0 -17 4
-28 10 -24 9 5 15 -16 11 -38 -1 -5 3 -6 9 -2 5 3 10 0 10 -7 0 -7 14 -19 30
-26 17 -8 30 -18 30 -24 0 -6 -10 -3 -22 8 l-23 19 19 -22 c15 -18 22 -20 33
-12 10 9 13 7 13 -7 0 -16 2 -17 10 -4 8 12 10 12 10 -5 0 -17 2 -17 10 -5 8
12 10 12 10 -5 0 -11 4 -15 8 -10 9 14 45 14 54 0 5 -6 8 -4 8 5 0 13 1 13 10
0 8 -13 10 -13 10 -1 0 11 4 9 15 -5 15 -18 15 -18 8 0 -4 13 -3 17 5 12 7 -4
12 -2 12 6 0 9 3 9 10 -2 7 -11 10 -11 10 -2 0 7 4 11 9 8 5 -3 15 2 22 12 13
16 13 16 -6 2 -19 -14 -19 -14 -6 3 8 10 20 16 28 13 11 -4 11 -1 3 14 -9 16
-8 18 6 13 13 -5 15 -3 9 7 -6 10 -4 12 8 7 12 -4 14 -2 10 10 -4 11 -2 14 5
9 8 -5 10 -2 6 8 -3 9 -10 16 -16 16 -5 0 -2 7 7 16 11 12 13 20 5 29 -7 9 -5
16 7 26 17 13 17 13 3 -6 -14 -18 -14 -19 2 -7 10 8 14 20 11 29 -5 12 -2 15
10 10 9 -3 16 -3 16 1 -3 19 2 25 11 12 7 -12 9 -10 7 8 0 12 -6 22 -11 22 -5
0 -6 3 -3 6 4 4 13 1 22 -6 13 -11 14 -10 9 4 -5 13 -2 17 12 14 13 -2 19 3
18 15 -2 14 1 15 12 6 12 -10 13 -9 8 5 -4 11 -2 16 7 14 8 -2 13 2 12 9 -2 7
6 10 17 8 17 -3 18 -1 10 15 -8 15 -6 18 8 15 28 -4 45 14 30 33 -9 11 -10 14
-1 9 11 -7 31 16 31 36 0 14 12 22 12 9 0 -7 4 -12 10 -12 5 0 9 3 7 8 -1 4 3
8 8 10 6 1 11 -2 11 -8 1 -5 2 -15 3 -21 1 -8 5 -8 14 -1 8 7 18 6 31 -4 23
-16 40 -19 31 -4 -9 15 0 12 23 -8 23 -20 97 -19 85 2 -4 6 1 5 10 -3 10 -8
20 -11 24 -7 3 3 1 6 -6 6 -7 0 -9 5 -6 10 4 7 12 7 25 0 20 -11 46 10 32 26
-4 4 1 2 11 -5 15 -12 17 -12 11 4 -5 11 -4 16 3 12 5 -3 16 4 23 18 7 13 18
21 26 18 10 -4 12 0 8 11 -6 15 5 21 29 17 4 -1 3 8 -3 19 -9 16 -8 19 6 13
12 -4 15 -3 10 5 -4 7 -3 12 3 12 6 0 7 7 4 17 -4 10 -2 14 4 10 12 -8 12 11
0 30 -8 13 8 27 22 19 4 -3 7 6 5 19 -1 16 2 23 9 18 6 -4 8 0 5 9 -4 8 0 15
8 15 7 0 11 -3 9 -7 -2 -4 2 -7 10 -7 8 0 12 4 9 9 -3 4 0 8 6 8 15 0 12 308
-3 317 -6 3 -7 1 -3 -5 3 -6 3 -13 -2 -16 -4 -2 -8 19 -7 48 0 39 -3 52 -12
49 -19 -7 -16 8 5 23 14 12 14 13 1 8 -19 -6 -27 9 -25 49 1 15 -3 27 -8 27
-6 0 -5 5 1 11 9 9 7 16 -6 28 -9 9 -10 12 -2 6 11 -8 13 -7 7 3 -4 7 -2 21 5
30 11 14 11 15 -1 5 -20 -19 -29 -16 -25 7 2 11 0 20 -6 20 -5 0 -9 5 -9 11 0
5 6 7 13 3 8 -6 8 -3 -2 9 -7 9 -10 24 -7 33 4 11 -2 27 -16 42 -13 14 -16 21
-8 17 13 -8 13 -7 1 8 -7 9 -10 17 -6 17 4 0 2 7 -5 15 -7 8 -16 13 -20 10 -4
-3 -7 9 -6 25 2 21 -2 29 -11 26 -7 -3 -15 0 -19 6 -4 7 -3 8 4 4 7 -4 12 -1
12 9 0 9 -4 14 -9 11 -5 -4 -7 3 -4 14 3 12 0 20 -6 20 -7 0 -10 4 -7 9 4 5 2
11 -3 13 -6 1 -12 17 -14 33 -3 17 -10 29 -16 27 -7 -1 -10 2 -6 8 3 5 1 10
-4 10 -6 0 -11 5 -11 11 0 5 5 7 10 4 6 -3 10 -1 10 4 0 6 -6 11 -12 11 -9 0
-8 4 2 10 13 9 7 14 -12 11 -4 0 -3 11 2 25 6 15 6 23 0 19 -5 -3 -14 5 -21
17 -11 21 -11 22 4 9 21 -17 22 -8 1 13 -8 9 -10 16 -4 16 7 0 8 6 2 17 -5 10
-7 24 -5 31 3 7 0 19 -7 26 -7 10 -8 16 0 21 5 3 10 11 10 16 0 6 -6 7 -12 3
-10 -6 -10 -4 -2 7 6 8 11 21 11 29 1 8 4 24 9 34 5 14 4 17 -4 12 -9 -5 -9
-1 -3 17 6 14 7 28 4 31 -4 3 1 6 11 6 9 0 14 5 11 10 -3 6 -1 10 5 10 6 0 8
5 5 10 -4 6 -11 7 -17 4 -7 -4 -8 -2 -4 5 4 6 12 8 18 5 7 -5 9 -1 5 9 -4 11
-2 14 7 11 9 -3 13 3 12 18 -1 13 4 29 11 36 7 8 11 17 8 22 -3 4 3 7 13 6 11
-1 16 5 14 17 -2 10 3 17 12 17 10 0 13 6 10 15 -4 9 0 15 7 15 10 0 11 2 2 8
-17 11 -9 44 13 53 18 7 18 8 -1 8 -13 1 -16 4 -8 9 16 10 5 54 -11 45 -6 -3
-3 3 7 14 15 17 15 22 4 31 -8 7 -17 8 -22 4 -4 -4 -3 2 3 14 8 15 8 24 0 32
-9 9 -7 12 7 12 18 0 18 0 -1 15 -12 9 -14 14 -6 15 10 0 10 4 -2 16 -21 21
-20 30 1 13 15 -13 15 -12 4 9 -6 12 -9 22 -5 22 3 0 2 6 -3 13 -11 14 -11 27
0 45 5 7 3 12 -7 12 -8 0 -18 5 -22 12 -5 7 -3 8 6 3 10 -6 12 -4 7 8 -4 11
-1 17 9 17 8 0 12 5 9 10 -4 6 -11 7 -17 4 -7 -5 -9 -1 -5 9 4 10 1 17 -6 17
-8 0 -6 4 3 10 12 8 12 10 1 10 -11 0 -11 3 0 16 8 10 9 18 3 22 -5 4 -9 29
-9 56 0 27 -5 54 -12 61 -10 10 -8 14 8 18 21 6 18 27 -4 27 -7 0 -6 -4 3 -10
12 -7 10 -9 -7 -7 -12 0 -19 6 -15 11 9 15 12 57 4 52 -4 -2 -7 22 -6 55 1 54
-1 59 -20 60 -21 0 -21 1 -1 9 11 5 14 9 7 9 -9 1 -11 8 -7 21 4 11 2 20 -4
20 -6 0 -11 5 -11 11 0 5 4 8 8 5 5 -3 9 1 9 9 0 8 -4 12 -9 9 -5 -3 -7 6 -4
20 4 24 3 25 -17 14 -19 -10 -20 -9 -10 3 13 16 12 36 0 57 -5 6 -4 12 2 12 6
0 8 7 5 15 -4 8 -11 12 -18 8 -8 -5 -8 -3 0 8 11 15 11 25 0 51 -5 10 -12 16
-16 13 -4 -3 -10 4 -13 14 -3 14 -1 18 10 14 13 -5 13 -3 2 15 -7 11 -18 18
-24 14 -5 -3 -3 3 5 13 8 10 10 16 4 12 -15 -9 -23 11 -19 51 2 27 0 30 -11
21 -8 -7 -17 -9 -21 -5 -3 3 0 6 7 6 9 0 7 7 -6 22 -15 19 -16 20 -1 9 16 -13
16 -11 3 20 -7 19 -11 41 -8 49 4 13 3 13 -10 2 -10 -8 -19 -9 -22 -3 -4 5 -2
12 4 16 5 3 10 11 10 16 0 6 -4 8 -9 4 -5 -3 -13 0 -17 6 -4 7 -3 9 4 5 6 -3
13 -2 17 4 3 5 1 10 -6 10 -7 0 -9 3 -6 7 4 3 0 14 -9 24 -10 11 -14 25 -10
36 4 9 4 14 0 11 -9 -10 -32 15 -27 29 3 7 0 13 -7 13 -10 0 -10 3 -1 14 10
12 7 18 -13 31 -14 9 -22 23 -20 30 3 8 -4 16 -17 20 -16 5 -18 9 -8 15 10 7
10 12 0 23 -9 11 -9 16 0 19 7 2 5 9 -7 18 -14 12 -16 12 -9 1 5 -10 4 -12 -4
-7 -9 6 -9 11 1 24 11 13 11 14 -1 7 -11 -6 -13 -1 -9 22 3 19 0 30 -9 30 -6
0 -9 -5 -6 -10 3 -6 1 -7 -5 -3 -6 4 -8 14 -5 23 5 12 3 14 -7 8 -10 -6 -10
-4 -2 11 8 15 6 26 -13 50 -13 17 -21 34 -18 38 4 3 1 6 -6 6 -7 0 -9 5 -6 10
3 6 -2 10 -12 10 -10 0 -14 4 -8 8 6 4 10 17 11 29 0 17 -2 20 -12 12 -10 -8
-12 -6 -9 10 3 15 -1 21 -13 21 -15 0 -15 2 -2 10 11 7 12 10 2 10 -9 0 -11 7
-7 20 4 14 2 20 -7 18 -7 -2 -12 3 -11 10 2 6 -2 12 -8 12 -8 0 -7 6 2 17 8 9
9 14 2 10 -7 -5 -14 4 -18 23 -4 16 -11 30 -15 30 -5 0 -7 6 -4 14 3 8 -4 21
-16 29 -15 11 -18 16 -8 20 10 4 11 7 1 18 -7 7 -13 21 -13 30 0 10 -5 21 -12
25 -7 5 -8 3 -3 -6 5 -9 4 -11 -3 -6 -9 5 -9 13 -2 26 7 13 7 21 -2 26 -7 4
-8 3 -4 -4 12 -19 2 -14 -18 10 -15 17 -15 20 -3 15 9 -3 19 -2 22 4 4 5 1 8
-7 7 -7 -2 -12 3 -10 10 1 6 -2 12 -8 12 -5 0 -7 7 -4 15 4 9 0 15 -7 15 -11
0 -11 3 1 10 12 8 12 10 -5 11 -12 0 -15 3 -7 6 10 4 9 8 -5 19 -12 9 -13 13
-5 14 7 0 10 5 7 10 -4 6 -12 7 -18 4 -9 -5 -9 -4 0 6 9 10 7 16 -9 30 -17 13
-18 19 -8 25 9 6 11 4 5 -5 -6 -9 -4 -11 5 -5 9 6 11 4 5 -5 -6 -9 -4 -11 5
-5 10 6 8 12 -9 26 -13 11 -17 20 -11 24 8 5 8 11 1 19 -6 7 -7 17 -3 22 4 4
0 3 -8 -3 -13 -10 -16 -8 -16 7 0 10 4 16 8 14 4 -3 2 9 -3 26 -6 16 -16 30
-22 31 -7 0 -3 4 8 9 11 5 14 9 7 9 -7 1 -10 6 -7 11 3 6 1 10 -6 10 -8 0 -7
5 2 17 10 11 10 14 2 9 -8 -4 -13 -2 -13 6 0 10 -3 9 -11 -2 -9 -13 -10 -13
-6 0 2 8 9 15 14 15 6 0 15 4 20 9 5 6 2 6 -6 1 -11 -6 -13 -4 -8 9 4 9 3 14
-2 11 -5 -3 -12 -1 -16 5 -3 5 0 10 7 10 8 0 9 3 3 8 -6 4 -11 27 -12 51 0 24
-6 47 -13 51 -10 6 -16 24 -19 53 -1 4 -8 7 -16 7 -8 0 -15 9 -15 20 0 11 -7
20 -16 20 -8 0 -12 5 -9 10 3 6 -1 10 -10 10 -11 0 -15 5 -12 14 4 11 1 13
-10 9 -11 -4 -14 -3 -9 6 4 6 4 11 -1 10 -14 -4 -43 13 -38 21 3 5 -3 6 -14 3
-13 -3 -20 2 -24 18 -5 19 -8 20 -21 9 -13 -10 -16 -10 -16 3 0 10 -6 14 -14
11 -8 -3 -17 0 -22 7 -5 8 -3 10 6 4 8 -5 11 -4 6 3 -4 6 -13 9 -21 5 -9 -3
-15 1 -15 8 0 12 -2 12 -9 1 -6 -10 -10 -8 -14 9 -5 18 -9 20 -21 10 -12 -10
-18 -8 -32 14 -9 14 -26 30 -38 36 -17 8 -16 6 4 -11 l25 -22 -34 19 c-19 10
-36 26 -39 35 -2 10 -8 15 -13 13 -4 -3 -13 4 -19 15 -6 11 -20 20 -30 20 -14
0 -20 7 -20 21 0 18 -2 19 -15 9 -13 -11 -14 -10 -9 5 6 14 4 16 -6 10 -9 -6
-11 -4 -5 5 5 8 1 18 -10 26 -11 8 -16 21 -12 34 4 16 2 20 -9 16 -13 -5 -18
5 -15 32 1 6 -3 12 -9 12 -5 0 -10 5 -10 11 0 5 5 7 11 3 7 -4 7 1 -1 16 -6
12 -9 28 -6 35 5 14 -11 15 -32 1 -7 -4 -12 -4 -11 1 3 20 -2 25 -16 13 -13
-11 -14 -10 -10 3 4 8 1 18 -5 22 -6 3 -10 3 -9 -2 1 -4 1 -15 -1 -23 -1 -11
-4 -9 -10 5 l-9 20 -1 -20 c-1 -19 -1 -19 -11 -2 -6 9 -15 15 -20 11 -5 -3
-17 0 -26 8 -9 7 -14 8 -10 2 4 -7 0 -15 -9 -18 -8 -3 -12 -2 -9 4 6 10 0 12
-47 12 -16 1 -28 5 -28 11 0 5 -8 3 -17 -4 -9 -8 -14 -9 -11 -4 3 6 0 16 -8
23 -11 10 -14 10 -14 0 0 -9 -3 -9 -10 2 -7 11 -10 11 -10 2 0 -10 -3 -10 -14
0 -8 7 -11 17 -8 22 3 5 0 6 -6 2 -6 -3 -13 -2 -16 3 -7 10 -25 9 -43 -2 -9
-6 -11 -3 -7 7 4 11 0 16 -15 16 -12 0 -21 5 -21 11 0 6 -9 9 -19 6 -14 -3
-18 -1 -14 9 3 8 0 14 -6 14 -6 0 -11 -5 -11 -10 0 -6 -6 -5 -14 2 -10 9 -11
15 -2 20 7 5 7 8 0 8 -5 0 -15 -5 -22 -12 -9 -9 -12 -9 -12 1 0 7 -4 10 -9 6
-5 -3 -13 0 -17 6 -4 7 -3 9 4 5 6 -3 13 -3 15 1 3 5 -8 9 -25 9 -16 1 -41 12
-55 25 -15 13 -23 19 -19 12 4 -8 -1 -11 -14 -10 -11 1 -20 8 -21 17 0 10 -3
9 -9 -5 l-9 -20 0 20 c-1 17 -3 17 -11 5 -8 -12 -10 -12 -10 5 0 17 -2 17 -10
5 -5 -8 -10 -10 -10 -5 0 14 -273 15 -282 1 -5 -7 -8 -7 -8 -1 0 7 -75 11
-224 11 -142 0 -223 -3 -219 -9 3 -6 1 -7 -6 -3 -21 13 -61 17 -61 6 0 -6 4
-8 10 -5 6 3 7 -1 3 -10 -5 -13 -7 -14 -14 -3 -5 7 -9 9 -9 5 0 -4 -10 -2 -22
4 -20 11 -21 10 -11 -3 10 -12 10 -14 -5 -13 -9 0 -22 4 -29 8 -6 4 -16 0 -23
-8 -8 -9 -18 -12 -27 -6 -17 9 -65 3 -59 -8 3 -4 -5 -8 -17 -8 -16 -2 -18 0
-8 6 9 6 3 8 -17 8 -17 -1 -28 -5 -25 -10 2 -4 9 -4 15 -1 6 4 8 2 5 -3 -8
-12 -56 -5 -76 11 -11 8 -13 8 -8 0 4 -7 0 -15 -9 -18 -8 -3 -13 -2 -10 3 3 5
-1 11 -9 15 -8 3 -17 0 -21 -6 -5 -7 -2 -8 7 -3 8 5 10 4 6 0 -15 -17 -36 -14
-29 3 5 15 4 16 -13 2 -14 -11 -17 -11 -11 -1 7 10 3 12 -14 6 -15 -5 -20 -3
-16 3 3 6 2 13 -3 16 -5 4 -13 2 -16 -4 -5 -8 -11 -8 -20 0 -10 8 -15 8 -20
-1 -6 -8 -10 -8 -15 2 -5 7 -16 14 -24 15 -9 1 -14 -2 -11 -6 3 -5 1 -11 -5
-15 -5 -3 -10 1 -10 9 0 9 -5 16 -11 16 -5 0 -7 -6 -3 -12 4 -7 4 -10 -1 -6
-4 4 -15 2 -24 -4 -13 -10 -14 -10 -3 2 17 20 15 35 -3 20 -8 -7 -15 -8 -15
-3 0 5 -13 10 -30 10 -16 0 -30 -4 -30 -9 0 -4 -5 -8 -11 -8 -5 0 -8 3 -5 8 2
4 -15 7 -39 8 -24 0 -41 -4 -39 -8 3 -4 1 -8 -5 -8 -5 0 -13 5 -16 10 -8 13
-25 13 -25 -1 0 -5 5 -7 12 -3 7 4 8 3 4 -4 -4 -6 -14 -8 -23 -5 -11 4 -14 3
-9 -5 5 -8 1 -10 -10 -5 -11 4 -13 8 -6 11 17 5 15 19 -2 19 -8 0 -15 -3 -14
-6z m2053 -161 c3 -5 1 -10 -4 -10 -6 0 -11 5 -11 10 0 6 2 10 4 10 3 0 8 -4
11 -10z m255 -70 c0 -5 -5 -10 -11 -10 -5 0 -7 5 -4 10 3 6 8 10 11 10 2 0 4
-4 4 -10z m-3136 -218 c3 -5 -1 -9 -9 -9 -8 0 -12 4 -9 9 3 4 7 8 9 8 2 0 6
-4 9 -8z m3396 -52 c0 -5 -2 -10 -4 -10 -3 0 -8 5 -11 10 -3 6 -1 10 4 10 6 0
11 -4 11 -10z m-2207 -193 c32 2 47 0 47 -9 0 -6 7 -3 16 8 8 10 13 14 10 8
-3 -7 1 -15 10 -18 8 -3 12 -2 9 4 -3 6 -1 10 4 10 6 0 11 -6 11 -12 0 -9 4
-8 10 2 7 11 10 11 10 2 0 -8 5 -10 13 -6 7 5 6 0 -3 -11 -14 -17 -13 -17 10
-12 14 4 19 4 12 1 -6 -3 -10 -9 -7 -14 3 -4 -3 -14 -12 -21 -10 -8 -14 -9
-10 -2 4 6 3 14 -3 18 -5 3 -10 1 -10 -5 0 -6 -4 -8 -10 -5 -5 3 -10 0 -11 -7
0 -9 -2 -10 -5 -1 -4 8 -19 10 -46 7 -32 -5 -39 -3 -34 7 4 8 0 5 -8 -5 -12
-15 -16 -16 -16 -5 0 12 -2 12 -9 0 -7 -11 -9 -11 -14 0 -3 11 -7 11 -17 2 -9
-8 -20 -8 -41 -1 -24 8 -27 13 -18 24 10 12 8 13 -7 8 -18 -7 -18 -6 1 13 11
11 23 19 27 17 4 -3 10 0 13 6 4 7 11 7 18 2 7 -5 33 -7 60 -5z m-433 -64 c10
9 14 9 17 0 3 -7 9 -13 14 -13 6 0 8 3 6 8 -3 4 6 8 19 8 13 1 23 -1 22 -5 -2
-20 3 -31 13 -26 6 4 5 -2 -2 -13 -9 -15 -17 -18 -25 -11 -8 7 -15 6 -20 -2
-4 -7 -3 -9 3 -6 5 3 10 0 10 -8 0 -12 -3 -12 -15 -3 -18 16 -63 17 -81 4 -11
-8 -13 -8 -7 2 4 6 3 12 -2 12 -6 0 -13 7 -16 16 -5 13 -4 14 7 5 12 -9 14 -6
12 14 -3 21 0 23 14 15 12 -6 22 -5 31 3z m-1233 -48 c0 -8 -4 -12 -9 -9 -5 3
-6 10 -3 15 9 13 12 11 12 -6z m1343 -9 c0 -3 -4 -8 -10 -11 -5 -3 -10 -1 -10
4 0 6 5 11 10 11 6 0 10 -2 10 -4z m2995 -16 c3 -6 -1 -7 -9 -4 -18 7 -21 14
-7 14 6 0 13 -4 16 -10z m28 -63 c3 -8 -1 -14 -8 -14 -7 0 -11 6 -8 14 3 7 6
13 8 13 2 0 5 -6 8 -13z m-1029 -101 c11 4 16 1 16 -12 0 -16 2 -17 10 -4 8
13 11 13 22 1 11 -11 11 -13 -1 -6 -10 5 -12 4 -7 -4 4 -6 12 -9 17 -5 5 3 17
0 25 -7 12 -10 13 -9 9 4 -8 18 11 32 21 16 5 -8 3 -9 -6 -4 -8 5 -11 4 -7 -3
8 -11 25 -11 45 1 7 5 12 3 12 -5 0 -9 3 -9 10 2 6 10 10 11 10 3 0 -7 5 -13
11 -13 5 0 7 6 3 13 -6 8 -3 8 9 -2 9 -7 24 -11 32 -7 9 3 18 -1 21 -8 3 -8
13 -17 21 -20 14 -6 14 -4 2 11 -13 17 -12 17 4 4 10 -8 16 -22 14 -31 -2 -9
2 -17 9 -17 7 0 10 5 7 11 -4 6 1 5 10 -3 18 -15 23 -26 7 -16 -5 3 -10 1 -10
-4 0 -6 7 -11 16 -11 8 0 12 -4 9 -10 -3 -5 -1 -10 4 -10 6 0 11 -7 11 -16 0
-8 4 -12 10 -9 6 4 7 -1 3 -11 -5 -12 -3 -15 6 -9 10 6 11 3 2 -14 -10 -17 -9
-21 4 -21 8 0 15 -5 15 -11 0 -5 6 -7 13 -3 9 6 9 4 -1 -8 -11 -14 -10 -17 10
-24 13 -4 26 -7 31 -6 4 1 6 -4 5 -10 -2 -7 3 -12 11 -10 12 3 12 0 1 -12 -8
-11 -9 -16 -1 -16 6 0 11 -7 11 -16 0 -8 -4 -13 -8 -10 -5 3 -9 -2 -9 -10 0
-8 6 -13 14 -10 7 3 13 1 13 -3 0 -5 -7 -12 -16 -15 -9 -4 -12 -11 -7 -18 11
-18 10 -32 -2 -40 -6 -5 -5 -8 3 -8 10 0 10 -5 2 -20 -8 -15 -8 -20 2 -20 10
0 10 -2 0 -9 -19 -12 -19 -15 -2 -36 9 -11 10 -16 3 -11 -7 4 -13 2 -13 -3 0
-6 6 -11 13 -11 9 0 9 -2 -1 -9 -8 -5 -11 -21 -9 -45 3 -28 1 -36 -9 -32 -8 3
-14 1 -14 -4 0 -6 8 -10 18 -10 16 -1 16 -1 0 -11 -10 -5 -18 -15 -18 -21 0
-6 7 -5 17 3 16 13 16 11 -1 -15 -15 -23 -16 -30 -5 -37 10 -6 11 -9 2 -9 -7
0 -13 -5 -13 -11 0 -5 6 -7 13 -3 9 6 9 5 -1 -8 -10 -12 -9 -18 3 -28 8 -7 15
-18 14 -24 0 -7 -2 -6 -6 2 -2 6 -10 9 -15 6 -7 -5 -8 -2 -3 6 5 9 4 11 -4 6
-8 -6 -9 -12 -2 -20 6 -7 8 -16 4 -19 -3 -4 -1 -7 5 -7 13 0 12 -27 -2 -49 -6
-10 -5 -12 2 -7 12 7 17 -16 12 -58 -1 -12 2 -16 12 -11 10 6 11 5 1 -5 -10
-11 -10 -17 0 -29 8 -10 8 -13 0 -8 -13 8 -12 -18 2 -30 4 -4 5 -2 0 6 -5 9
-4 12 3 7 6 -4 8 -14 5 -22 -3 -9 -1 -19 5 -23 6 -3 12 -13 14 -21 2 -8 9 -21
16 -28 7 -8 10 -17 7 -22 -3 -4 2 -11 11 -14 10 -4 13 -2 8 6 -4 7 -3 8 5 4 6
-4 9 -12 6 -17 -4 -5 -2 -16 3 -25 6 -11 11 -13 16 -5 4 6 13 11 19 11 7 0 6
-4 -3 -11 -12 -9 -13 -12 -1 -16 11 -5 11 -7 0 -14 -11 -7 -11 -9 -1 -9 8 0
10 -5 6 -12 -5 -8 0 -7 11 2 17 14 18 13 12 -20 -3 -19 -3 -29 0 -22 7 17 23
5 23 -19 0 -14 4 -18 13 -13 9 6 9 5 0 -7 -15 -19 -14 -81 1 -72 6 3 5 0 -1
-7 -8 -9 -9 -18 -3 -25 7 -8 5 -12 -4 -12 -8 0 -13 8 -11 18 2 10 1 21 -3 23
-4 3 -8 -11 -8 -29 0 -18 4 -31 8 -29 4 3 8 2 9 -3 0 -4 2 -18 3 -30 2 -17 -1
-20 -9 -13 -9 8 -12 4 -11 -12 0 -13 6 -26 11 -30 6 -4 2 -8 -9 -8 -18 0 -18
-1 1 -17 10 -10 12 -13 4 -8 -11 8 -13 6 -9 -5 3 -8 1 -24 -5 -35 -9 -18 -9
-19 8 -5 17 14 18 14 6 -8 -7 -13 -10 -29 -8 -36 3 -7 1 -19 -3 -27 -6 -8 -4
-16 3 -21 9 -6 9 -8 0 -8 -7 0 -13 -5 -13 -11 0 -5 4 -8 8 -5 4 2 8 -4 8 -14
0 -10 -4 -16 -8 -14 -13 8 -9 -11 5 -25 8 -10 8 -12 0 -7 -6 3 -14 2 -18 -4
-3 -5 -1 -10 5 -10 6 0 9 -4 5 -9 -3 -5 0 -13 6 -17 9 -5 7 -11 -6 -21 -11 -7
-13 -13 -7 -13 7 0 12 -5 12 -11 0 -5 -4 -8 -8 -5 -5 3 -9 -1 -9 -9 0 -8 4
-15 9 -15 4 0 8 -5 8 -11 0 -5 -6 -7 -12 -3 -8 5 -7 0 2 -11 8 -10 10 -16 4
-12 -7 4 -14 0 -17 -8 -4 -10 -1 -12 11 -8 15 6 15 5 3 -10 -10 -12 -10 -17
-2 -17 8 0 7 -6 -3 -16 -20 -19 -21 -31 -2 -15 11 9 16 9 22 0 5 -8 3 -9 -5
-5 -8 5 -12 3 -10 -5 4 -33 -1 -50 -13 -43 -7 4 -4 -3 7 -16 11 -13 15 -21 10
-17 -6 3 -17 -4 -24 -16 -11 -18 -11 -20 0 -9 18 17 34 15 19 -3 -10 -12 -10
-15 0 -15 7 0 10 -6 7 -14 -3 -7 0 -19 6 -26 9 -10 9 -11 0 -6 -7 4 -13 4 -14
-1 0 -4 -2 -19 -5 -32 -4 -20 -2 -22 11 -11 20 16 19 6 -1 -14 -10 -10 -11
-16 -4 -16 7 0 9 -7 6 -17 -4 -9 -1 -20 6 -25 8 -5 1 -7 -17 -3 -16 3 -24 2
-17 -1 6 -3 9 -11 6 -16 -4 -7 -2 -8 4 -4 7 4 12 3 12 -3 0 -5 -5 -11 -12 -13
-6 -2 -12 -14 -13 -26 -1 -13 3 -19 9 -15 6 4 5 0 -1 -9 -7 -8 -10 -18 -6 -21
3 -4 1 -7 -7 -7 -10 0 -10 -3 1 -17 13 -15 12 -15 -8 -5 -22 12 -27 2 -10 -25
5 -8 4 -13 -2 -13 -6 0 -10 -6 -9 -12 2 -7 -3 -12 -11 -10 -12 3 -12 1 -1 -13
7 -9 9 -15 4 -14 -21 4 -28 -2 -14 -11 13 -9 13 -10 0 -10 -25 0 -41 -21 -29
-37 8 -9 8 -13 0 -13 -6 0 -11 -7 -11 -15 0 -8 -8 -15 -17 -16 -12 0 -13 -2
-5 -6 9 -3 3 -14 -19 -34 -17 -15 -36 -26 -42 -22 -6 3 -7 1 -3 -6 6 -9 12 -9
24 1 15 11 15 11 5 -3 -7 -9 -10 -18 -7 -21 3 -3 -3 -5 -13 -5 -9 1 -18 -4
-19 -10 -3 -26 -5 -28 -14 -13 -8 13 -10 12 -10 -3 0 -12 -4 -16 -12 -11 -8 5
-8 2 1 -10 12 -15 12 -17 0 -14 -8 2 -13 -3 -11 -10 1 -8 -2 -11 -7 -8 -5 4
-14 -2 -20 -11 -9 -16 -12 -16 -21 -3 -6 9 -10 10 -10 3 0 -7 8 -17 18 -23 13
-9 13 -10 1 -7 -21 7 -32 -2 -46 -35 -8 -19 -17 -26 -28 -22 -9 4 -15 0 -15
-9 0 -9 -5 -19 -12 -23 -7 -5 -8 -3 -3 6 6 9 4 11 -4 6 -7 -5 -10 -14 -7 -22
3 -8 2 -13 -2 -13 -19 3 -33 -2 -28 -10 3 -5 -5 -12 -19 -15 -14 -4 -24 -12
-22 -19 1 -6 -6 -11 -15 -11 -10 1 -15 -2 -12 -7 3 -5 0 -9 -6 -9 -6 0 -8 -5
-4 -12 5 -8 2 -9 -9 -5 -11 4 -23 -3 -37 -20 -11 -14 -20 -23 -20 -19 0 4 -5
4 -11 0 -8 -4 -7 -9 2 -15 11 -7 10 -9 -4 -9 -12 0 -16 -5 -11 -12 5 -10 4
-10 -6 -1 -16 15 -40 0 -40 -26 0 -14 -2 -14 -10 -1 -8 13 -10 13 -10 -1 0
-25 -24 -41 -38 -27 -9 9 -11 7 -8 -9 3 -12 -1 -20 -9 -20 -8 0 -11 5 -8 11 3
6 -4 1 -16 -12 -12 -12 -26 -20 -30 -17 -13 7 -34 -22 -26 -36 6 -8 2 -8 -13
0 -18 10 -20 9 -17 -9 3 -18 1 -19 -17 -9 -18 10 -20 9 -15 -5 3 -8 1 -18 -5
-22 -7 -5 -8 -2 -3 6 5 8 3 11 -6 8 -8 -3 -13 -11 -11 -18 2 -11 0 -11 -11 -2
-12 10 -18 7 -31 -13 -13 -20 -20 -24 -31 -15 -10 8 -15 8 -21 -1 -5 -8 -3
-10 7 -5 8 4 3 -2 -11 -14 -15 -14 -26 -18 -28 -10 -3 7 -14 3 -30 -12 -14
-13 -22 -17 -17 -9 5 9 4 12 -3 7 -7 -4 -12 -15 -12 -24 0 -13 -2 -13 -16 4
-8 10 -12 13 -8 5 5 -11 3 -13 -12 -8 -18 7 -18 7 -1 -7 17 -13 16 -14 -17
-12 -31 3 -34 1 -24 -12 11 -13 10 -14 -9 -3 -17 9 -23 9 -23 0 0 -6 -7 -8
-15 -5 -9 3 -18 -1 -21 -9 -4 -8 -11 -12 -17 -8 -7 4 -8 0 -3 -12 5 -15 4 -16
-9 -5 -10 8 -15 9 -15 2 0 -6 -6 -9 -14 -6 -8 3 -17 1 -21 -5 -3 -6 -11 -11
-16 -11 -6 0 -7 5 -3 12 4 7 3 8 -4 4 -7 -4 -12 -13 -12 -20 0 -7 -7 -13 -15
-13 -9 0 -12 5 -7 12 4 6 0 3 -9 -6 -12 -13 -19 -15 -28 -6 -8 8 -11 8 -11 -2
0 -10 -3 -11 -13 -2 -10 8 -19 6 -36 -10 -12 -12 -25 -18 -28 -15 -3 3 -12 1
-20 -5 -10 -9 -13 -8 -13 0 0 7 -5 9 -10 6 -6 -4 -7 -11 -4 -17 4 -6 -1 -6
-14 1 -15 8 -23 8 -28 -1 -4 -6 -3 -8 4 -4 6 3 13 2 16 -3 7 -11 -13 -9 -32 2
-7 5 -14 2 -18 -7 -5 -12 -10 -13 -25 -5 -14 7 -19 6 -20 -3 0 -10 -2 -10 -6
0 -2 6 -9 10 -13 7 -5 -3 -6 -13 -3 -22 6 -15 5 -16 -9 -3 -9 8 -13 19 -10 24
3 5 0 6 -6 3 -5 -4 -8 -17 -5 -30 4 -21 3 -21 -11 3 -8 14 -15 19 -16 13 0 -7
-9 -13 -21 -13 -11 0 -18 -4 -15 -8 3 -5 -1 -9 -9 -9 -8 0 -11 5 -8 10 4 7 -1
7 -13 2 -10 -4 -28 -7 -39 -7 -10 1 -25 -3 -31 -9 -9 -7 -15 -5 -23 8 -6 10
-11 13 -11 7 0 -14 -48 -15 -56 -2 -3 5 -11 4 -19 -2 -8 -7 -19 -9 -25 -5 -5
3 -10 -2 -11 -12 -1 -13 -3 -11 -9 7 -4 14 -8 20 -9 14 -1 -7 -12 -14 -26 -16
-18 -4 -22 -2 -16 6 6 8 2 11 -14 11 -18 0 -21 -3 -12 -13 8 -11 5 -11 -17 -1
-23 11 -29 10 -37 -2 -7 -11 -9 -10 -9 5 0 15 -3 16 -15 6 -12 -10 -15 -10
-15 1 0 10 -3 10 -12 1 -9 -9 -16 -8 -32 6 -11 9 -16 11 -12 4 10 -17 -26 -11
-50 8 -16 14 -16 13 -5 -10 l12 -25 -20 24 c-12 13 -21 21 -21 18 0 -3 -16 -1
-35 3 -21 5 -35 4 -35 -2 0 -5 -5 -6 -10 -3 -6 4 -7 12 -4 18 5 8 3 8 -7 -1
-17 -16 -32 -15 -26 1 3 8 -1 14 -9 14 -7 0 -11 -5 -8 -11 3 -6 -2 -2 -10 8
-9 11 -16 15 -16 10 0 -12 -29 -12 -48 0 -7 4 -20 2 -30 -5 -14 -11 -15 -11
-4 1 16 18 15 27 -2 33 -11 4 -13 1 -10 -11 5 -15 4 -15 -8 -2 -7 9 -26 15
-41 13 -25 -2 -27 0 -15 14 12 15 11 15 -12 3 -22 -12 -23 -11 -13 1 10 12 8
15 -7 15 -10 0 -16 -4 -13 -9 3 -5 -6 -2 -19 7 -14 9 -27 14 -30 10 -3 -3 -9
0 -14 7 -5 8 -3 10 6 4 9 -5 11 -4 6 4 -4 6 -12 9 -17 5 -6 -3 -19 2 -30 12
-11 10 -33 18 -50 19 -18 1 -36 10 -45 24 -12 17 -19 19 -29 11 -11 -9 -17 -7
-27 9 -7 12 -23 21 -35 21 -13 0 -22 5 -20 12 1 7 -7 12 -18 12 -11 0 -28 9
-37 19 -9 10 -21 16 -27 13 -5 -4 -7 3 -4 16 5 23 5 23 -11 3 -15 -19 -16 -19
-9 -1 5 15 3 18 -9 14 -14 -6 -41 16 -46 37 -1 6 -5 11 -9 11 -27 5 -53 18
-53 26 0 5 -5 6 -11 2 -8 -4 -9 1 -5 17 3 13 3 18 0 12 -8 -18 -24 -16 -24 3
0 11 -6 13 -20 9 -15 -5 -18 -2 -15 15 4 19 2 20 -11 9 -8 -7 -14 -8 -13 -3 4
21 -2 35 -11 29 -6 -3 -13 1 -16 9 -3 9 -12 16 -19 16 -7 0 -16 7 -19 16 -3 8
-10 12 -16 9 -6 -4 -7 1 -3 11 5 13 3 15 -7 9 -10 -6 -12 -3 -8 12 4 15 1 20
-11 19 -9 -1 -15 5 -13 14 3 12 1 13 -9 3 -18 -18 -34 -16 -20 1 10 11 8 16
-8 21 -12 3 -22 11 -22 16 -1 5 -2 15 -3 22 -1 6 -10 11 -20 9 -14 -3 -17 1
-12 13 3 9 2 13 -4 10 -6 -3 -10 -1 -10 4 0 6 -8 11 -17 12 -13 0 -14 2 -4 6
10 4 5 10 -15 19 l-29 13 28 -4 c16 -2 25 0 22 6 -4 5 -11 7 -16 4 -5 -4 -12
1 -15 9 -3 8 -15 18 -26 22 -16 5 -18 8 -7 15 10 6 11 9 2 9 -7 0 -13 7 -13
16 0 8 -5 12 -10 9 -6 -4 -7 -11 -4 -17 4 -7 2 -8 -4 -4 -6 4 -9 13 -5 21 3 8
0 15 -6 15 -6 0 -11 7 -11 16 0 19 -25 46 -34 36 -4 -3 -4 2 0 13 6 14 4 17
-9 12 -11 -4 -14 -2 -10 8 3 8 10 12 16 8 6 -3 7 -1 3 6 -4 6 -12 9 -17 6 -5
-4 -9 3 -9 14 0 12 -5 21 -11 21 -5 0 -7 5 -4 10 3 6 2 10 -4 10 -5 0 -12 -6
-15 -12 -4 -9 -5 -8 -5 2 2 32 -1 41 -13 34 -10 -6 -10 -4 0 8 10 13 10 17 -5
23 -10 5 -22 7 -28 6 -5 -1 -1 7 9 18 12 13 14 21 7 21 -7 0 -9 4 -6 10 4 6
-1 7 -12 3 -16 -6 -17 -5 -3 13 8 10 10 16 6 12 -5 -4 -15 0 -22 10 -9 13 -10
20 -1 31 7 8 8 12 2 9 -12 -7 -29 11 -33 36 -2 11 1 15 8 11 7 -4 5 6 -4 23
-8 16 -12 33 -8 37 4 5 1 5 -6 1 -7 -4 -9 -13 -6 -19 4 -7 3 -9 -1 -4 -13 11
-14 51 -1 59 7 5 4 8 -7 8 -14 0 -16 4 -8 19 8 14 7 22 -6 32 -14 12 -16 12
-8 0 5 -10 4 -12 -4 -7 -9 6 -9 11 1 24 8 9 8 13 2 9 -7 -4 -14 0 -18 8 -3 8
-1 15 5 15 6 0 7 5 4 10 -4 6 -12 7 -18 3 -7 -4 -7 0 1 10 12 14 9 21 -21 51
-19 19 -32 38 -29 42 4 4 2 4 -5 0 -7 -4 -17 3 -24 16 -11 20 -13 20 -24 5
-15 -20 -21 -21 -23 -4 0 6 -3 22 -6 34 -2 13 0 26 6 29 7 4 8 2 4 -4 -4 -7
-2 -12 3 -12 14 0 14 27 1 35 -13 8 -13 25 1 25 5 0 7 -6 3 -12 -4 -7 -3 -9 1
-5 12 11 15 36 5 42 -5 3 -6 13 -3 22 5 12 2 15 -8 11 -12 -5 -14 1 -11 26 3
17 1 28 -3 24 -4 -4 -16 3 -25 15 -17 20 -19 20 -25 5 -9 -23 -23 -23 -21 0 0
10 -5 16 -13 14 -9 -2 -12 4 -8 18 3 11 0 20 -6 21 -8 0 -7 2 1 6 10 4 10 8 1
19 -9 11 -9 14 0 14 7 0 9 5 5 12 -12 18 -11 58 1 58 5 0 3 5 -5 10 -13 9 -13
10 0 10 13 0 13 1 0 10 -13 9 -13 10 0 10 13 0 13 1 0 10 -13 9 -13 10 0 10 9
0 11 3 5 8 -5 4 -10 31 -10 60 0 28 5 52 10 52 6 0 3 5 -5 10 -11 7 -11 10 -2
10 10 0 10 5 2 20 -8 15 -8 20 2 20 9 0 9 3 -2 10 -8 5 -10 10 -4 10 6 0 10
11 9 24 -2 14 3 27 11 30 9 3 12 1 9 -4 -3 -6 3 -10 14 -10 12 0 21 -7 21 -15
0 -8 5 -15 11 -15 5 0 7 -4 4 -10 -3 -5 0 -7 8 -5 7 3 24 -4 37 -15 18 -16 25
-17 32 -8 4 7 8 9 8 4 0 -5 7 -3 15 4 12 10 15 10 16 -1 0 -8 5 -3 10 10 8 19
12 21 24 11 9 -7 18 -10 22 -7 3 4 13 1 22 -5 9 -7 13 -8 9 -4 -5 5 7 18 24
29 21 12 34 15 36 8 2 -7 9 -6 19 4 8 8 20 12 26 8 7 -4 8 0 3 12 -5 15 -4 16
9 5 13 -11 18 -10 31 6 11 14 14 15 11 3 -3 -9 1 -16 8 -16 7 0 11 6 8 13 -3
9 2 12 17 9 11 -2 23 2 26 8 2 7 14 13 24 14 13 1 18 -2 14 -9 -4 -7 -2 -8 4
-4 7 4 12 15 13 24 0 14 2 13 9 -3 l9 -20 0 20 c1 17 3 17 11 5 7 -12 10 -12
10 -1 0 8 6 11 16 7 9 -3 12 -2 9 5 -4 6 -1 10 6 8 29 -3 49 1 47 12 -2 6 5
13 15 14 9 2 17 -2 17 -8 0 -6 7 -2 16 9 8 10 13 13 9 7 -9 -19 6 -16 22 5 8
9 12 12 9 5 -4 -7 1 -11 13 -10 14 1 17 5 11 12 -7 9 0 11 23 10 19 -1 37 4
44 14 12 14 12 14 6 -4 -6 -17 -4 -18 9 -8 8 7 19 9 24 5 4 -4 3 0 -4 9 -10
13 -6 15 33 13 32 -2 43 1 38 9 -4 7 1 6 10 -2 11 -9 17 -10 17 -2 0 6 9 11
21 11 11 0 17 4 14 10 -3 5 0 7 9 4 15 -6 16 -40 1 -64 -6 -10 -4 -12 8 -7 9
3 16 3 16 -1 -1 -4 -1 -14 0 -22 1 -13 2 -13 11 0 8 12 10 12 10 1 0 -9 8 -12
25 -9 18 4 23 2 16 -6 -7 -8 -4 -12 10 -13 13 -1 17 2 12 10 -5 9 -3 9 8 0 18
-14 51 -20 65 -11 6 4 11 1 11 -7 0 -8 -4 -12 -8 -9 -4 2 -10 1 -12 -3 -3 -5
28 -8 68 -8 40 0 71 3 69 7 -10 15 7 30 21 18 9 -7 16 -6 25 5 7 8 17 12 23 8
5 -3 7 -1 4 4 -4 6 0 14 9 17 8 3 13 10 10 14 -3 5 4 19 15 30 11 12 17 22 13
22 -4 0 1 10 12 22 13 14 14 19 4 14 -8 -4 -6 0 4 8 18 15 18 16 2 16 -9 0
-14 5 -11 10 4 6 10 8 15 5 4 -3 10 2 14 10 3 10 -1 15 -12 16 -14 0 -14 2 3
9 13 6 15 9 5 9 -13 1 -13 2 0 11 12 8 12 10 1 10 -11 0 -11 3 0 17 10 11 10
14 2 9 -7 -4 -13 -2 -13 3 0 6 6 11 13 11 9 0 9 2 -1 9 -18 11 -17 22 2 33 9
5 13 14 10 20 -4 7 -2 8 4 4 18 -11 37 4 21 16 -11 8 -10 8 4 4 21 -7 57 13
57 31 0 7 7 13 16 13 9 0 12 5 8 12 -4 6 -3 8 3 5 6 -4 19 0 29 8 14 10 15 14
5 15 -8 0 -11 3 -8 6 4 4 14 1 24 -7 11 -9 14 -10 9 -1 -4 7 -2 12 8 12 8 0
18 5 22 12 5 7 3 8 -6 3 -9 -6 -11 -4 -5 5 6 10 11 9 22 -6 14 -19 14 -19 11
1 -2 12 3 20 12 21 36 3 41 4 36 12 -6 10 11 12 67 12 20 -1 37 4 37 10 0 5 5
10 11 10 5 0 8 -4 5 -9 -8 -13 48 -10 56 3 6 8 8 7 8 -1 0 -7 5 -13 11 -13 5
0 7 4 4 10 -3 6 1 7 10 4 12 -5 14 -2 8 12 -6 16 -5 17 9 4 9 -8 14 -19 11
-25 -3 -5 5 1 17 15 18 20 21 21 16 6 -7 -19 -6 -19 14 -1 15 14 20 15 20 4 0
-9 3 -10 8 -3 4 6 17 10 30 9 24 -2 30 10 10 18 -7 3 -2 5 12 5 43 -1 51 2 44
14 -5 7 -3 8 7 2 22 -14 32 -12 56 9 18 16 25 18 37 8 12 -10 14 -9 9 8 -4 17
-1 19 17 16 19 -4 20 -2 8 12 -8 10 -8 14 -1 10 7 -4 17 0 23 10 9 15 10 14 5
-7 l-7 -25 19 27 c15 22 22 25 32 15 10 -9 11 -8 5 6 -4 12 -2 17 7 15 8 -2
13 3 11 11 -3 12 0 12 12 1 14 -11 16 -9 16 10 0 16 4 21 16 16 12 -4 15 -2
10 9 -3 8 -1 15 4 15 6 0 10 -6 10 -12 0 -7 8 2 17 20 8 18 18 30 21 28 3 -3
-1 -12 -8 -21 -25 -30 0 -14 39 25 22 22 44 40 50 40 5 0 16 12 23 27 7 15 22
29 33 31 11 2 25 9 30 14 7 8 6 9 -2 4 -7 -4 -13 -2 -13 3 0 6 4 11 10 11 5 0
19 10 30 23 13 13 20 16 17 7 -2 -8 -2 -12 0 -7 3 4 8 5 12 2 5 -2 7 6 6 20
-2 16 1 22 10 19 7 -3 20 2 29 11 9 9 16 13 16 9 0 -4 11 5 24 21 13 15 28 25
34 21 6 -3 12 -1 14 4 2 6 13 12 25 13 12 0 20 5 17 9 -3 4 -12 5 -22 2 -14
-5 -15 -4 -2 5 8 6 25 11 38 11 12 0 25 7 28 15 4 8 10 15 16 15 5 0 7 -4 3
-9 -3 -5 -1 -13 5 -16 6 -4 10 -3 9 2 -4 24 4 33 27 33 14 0 32 7 40 15 12 11
20 12 35 5 15 -9 19 -7 19 7 0 15 2 16 10 3 9 -13 11 -13 20 0 5 8 10 10 10 4
0 -7 9 -14 20 -17 11 -3 18 -1 14 4 -5 9 0 11 29 13 6 1 18 8 25 16 12 13 13
13 8 -2 -3 -10 0 -20 6 -24 6 -4 8 -3 5 3 -4 6 0 16 8 23 12 10 15 10 15 -1 0
-9 3 -10 8 -3 4 6 19 10 34 10 14 -1 26 1 26 4 -2 20 4 21 18 4 8 -10 13 -14
10 -8 -3 7 1 17 9 24 13 11 14 10 9 -6 -6 -15 -4 -17 6 -7 7 6 19 9 28 6 11
-5 13 -2 8 8 -4 8 0 5 8 -5 14 -17 16 -17 16 -3 0 9 9 21 20 27 11 6 17 16 14
22 -4 7 -3 8 4 4 7 -4 21 -9 31 -11 15 -3 18 1 15 13 -5 15 -4 15 9 -1 8 -10
21 -15 31 -11z m-3617 -1 c0 -8 -4 -12 -9 -9 -5 3 -6 10 -3 15 9 13 12 11 12
-6z m3218 -75 c-3 -5 -12 -10 -18 -10 -7 0 -6 4 3 10 19 12 23 12 15 0z
m-2744 -320 c6 0 7 4 4 10 -3 6 1 7 10 4 20 -8 40 -44 25 -44 -6 0 -9 -4 -6
-9 3 -4 -6 -6 -19 -3 -15 2 -25 0 -25 -7 0 -7 6 -9 13 -5 6 4 8 3 4 -2 -16
-17 -58 -11 -68 10 -9 20 -9 20 4 3 14 -17 15 -16 13 7 0 13 -5 22 -10 18 -5
-3 -6 0 -2 6 4 7 14 12 21 12 9 0 12 7 9 18 -5 16 -5 16 6 0 6 -10 16 -18 21
-18z m3739 -195 c-7 -8 -17 -12 -24 -8 -7 4 -7 1 1 -7 10 -11 15 -11 28 0 10
8 15 9 15 1 0 -6 -4 -11 -10 -11 -5 0 -9 -19 -9 -42 2 -63 0 -70 -13 -62 -10
5 -10 4 -1 -6 10 -11 10 -17 0 -29 -9 -12 -9 -13 1 -7 7 4 12 2 12 -6 0 -8 -6
-20 -12 -27 -10 -11 -10 -13 0 -7 6 4 12 2 12 -3 0 -6 -4 -11 -10 -11 -5 0
-10 -7 -10 -15 0 -22 -15 -18 -18 5 -1 11 -3 28 -4 39 -2 13 -8 17 -23 13
l-20 -5 20 19 c12 10 16 16 9 11 -7 -4 -14 -1 -18 8 -3 9 -2 13 4 10 6 -3 15
6 20 20 13 34 13 38 -2 29 -9 -6 -9 -3 1 9 7 9 11 24 7 32 -4 11 -2 14 6 9 8
-5 9 -2 5 11 -8 19 10 48 24 39 5 -3 9 0 9 7 0 7 3 9 6 6 4 -4 1 -13 -6 -22z
m-3391 -61 c-5 -6 -6 -13 -3 -17 3 -3 -4 -10 -15 -17 -12 -6 -21 -7 -22 -3 0
4 -5 -3 -11 -17 -6 -14 -11 -28 -10 -32 1 -4 -8 -5 -21 -2 -42 10 -76 10 -70
1 3 -5 -5 -6 -18 -2 -14 4 -19 3 -12 -2 14 -10 6 -56 -8 -47 -5 3 -9 -2 -9
-11 0 -15 -1 -15 -16 -1 -19 19 -31 21 -16 3 8 -10 6 -13 -8 -13 -10 0 -16 4
-14 8 3 4 0 8 -6 8 -6 0 -8 5 -5 10 3 6 1 10 -4 10 -6 0 -11 5 -11 11 0 5 4 7
10 4 6 -3 7 1 4 9 -4 11 0 16 15 16 11 0 30 13 43 30 12 17 27 29 33 26 7 -2
18 0 26 4 8 6 16 4 21 -3 6 -9 8 -8 8 3 0 13 1 13 10 0 7 -11 10 -12 10 -2 0
9 7 11 20 7 13 -4 22 -1 26 9 3 9 11 13 17 9 6 -4 8 0 4 11 -4 10 -3 15 3 11
6 -3 10 -1 10 5 0 7 5 6 14 -2 9 -8 11 -17 5 -24z m1443 -6 c-7 -7 -12 -8 -12
-2 0 14 12 26 19 19 2 -3 -1 -11 -7 -17z m-1662 -53 c-7 -9 -15 -13 -19 -10
-3 3 1 10 9 15 21 14 24 12 10 -5z m3550 5 c0 -5 -2 -10 -4 -10 -3 0 -8 5 -11
10 -3 6 -1 10 4 10 6 0 11 -4 11 -10z m104 -362 c-3 -4 0 -8 5 -8 6 0 11 -20
11 -46 0 -25 -4 -43 -9 -40 -4 3 -7 -8 -5 -25 3 -25 1 -30 -12 -25 -15 6 -15
4 -3 -11 12 -15 11 -15 -8 1 -13 10 -20 22 -18 27 3 4 -2 15 -11 23 -8 9 -11
16 -6 16 6 0 9 15 8 33 -2 35 15 64 39 64 8 0 12 -4 9 -9z m23 -123 c0 -8 -4
-12 -9 -9 -5 3 -6 10 -3 15 9 13 12 11 12 -6z m-2828 -17 c-2 -2 -17 -14 -34
-28 l-30 -25 24 28 c14 15 29 27 34 27 6 0 8 -1 6 -2z m3686 -48 c3 -6 -1 -7
-9 -4 -18 7 -21 14 -7 14 6 0 13 -4 16 -10z m50 -130 c3 -5 1 -10 -4 -10 -6 0
-11 5 -11 10 0 6 2 10 4 10 3 0 8 -4 11 -10z m-6024 -357 c-12 -20 -14 -14 -5
12 4 9 9 14 11 11 3 -2 0 -13 -6 -23z m6154 -3 c3 -5 1 -10 -4 -10 -6 0 -11 5
-11 10 0 6 2 10 4 10 3 0 8 -4 11 -10z m-5646 -126 c-7 -8 -5 -17 6 -28 15
-15 15 -16 -2 -17 -16 -1 -16 -2 -1 -6 9 -2 16 -13 15 -23 -1 -10 -5 -16 -9
-14 -5 3 -6 10 -3 15 4 5 4 9 1 9 -14 0 -14 -20 0 -34 9 -10 11 -16 4 -16 -7
0 -9 -7 -6 -16 3 -8 2 -13 -3 -10 -5 3 -19 -3 -32 -13 -21 -17 -22 -21 -9 -37
8 -10 10 -15 4 -11 -7 4 -14 0 -17 -7 -3 -8 -1 -16 5 -18 7 -3 5 -10 -5 -20
-9 -8 -13 -19 -9 -24 4 -5 -2 -2 -12 6 -18 14 -19 14 -7 -8 12 -22 11 -23 -9
-12 -15 8 -20 8 -16 1 4 -6 2 -11 -4 -11 -6 0 -8 -5 -4 -12 6 -10 4 -10 -8 0
-14 11 -16 10 -14 -13 2 -14 -1 -28 -7 -32 -6 -3 -7 -1 -3 5 4 7 2 12 -3 12
-10 0 -15 -14 -12 -32 0 -5 -4 -8 -10 -8 -5 0 -7 -5 -3 -12 5 -7 3 -8 -7 -3
-7 5 -26 8 -42 7 -26 -2 -27 -1 -16 19 6 12 7 19 1 15 -5 -3 -13 1 -16 10 -3
8 -2 12 3 9 5 -3 12 4 16 15 4 11 10 18 15 15 13 -8 61 17 57 29 -3 6 0 19 5
30 8 15 12 16 19 5 7 -11 9 -11 9 -1 0 7 5 10 11 6 8 -5 9 -2 1 12 -8 14 -6
21 6 32 16 13 16 13 0 8 -10 -3 -18 -1 -18 4 0 6 6 10 13 10 7 0 13 9 14 20 1
13 -2 18 -10 14 -7 -4 -1 5 12 19 14 15 33 27 43 27 23 0 24 20 1 21 -15 0
-15 2 2 9 11 5 14 9 8 9 -7 1 -13 6 -13 12 0 6 7 8 16 5 14 -5 15 -4 4 9 -9
11 -9 15 -1 15 7 0 9 4 6 10 -4 6 4 9 19 8 18 -2 22 -6 15 -14z m584 -237 c3
-8 -1 -14 -8 -14 -7 0 -11 6 -8 14 3 7 6 13 8 13 2 0 5 -6 8 -13z m-753 -31
c0 -3 -4 -8 -10 -11 -5 -3 -10 -1 -10 4 0 6 5 11 10 11 6 0 10 -2 10 -4z
m5619 -115 c-6 -1 -3 -8 6 -15 15 -11 14 -14 -3 -33 -15 -18 -21 -20 -32 -10
-10 9 -11 9 -6 0 4 -7 5 -13 2 -13 -3 0 -10 9 -16 20 -9 16 -8 19 7 14 16 -5
16 -4 -1 10 -20 16 -20 16 0 17 10 0 13 3 7 6 -7 2 -13 9 -13 15 0 6 7 7 16 4
15 -6 15 -4 3 11 -11 14 -9 13 13 -2 14 -11 22 -22 17 -24z m-5695 -115 c-1
-12 -3 -23 -3 -25 -1 -2 -9 3 -18 10 -15 12 -16 12 -10 -3 4 -12 2 -15 -9 -11
-18 7 -18 9 4 31 23 24 39 23 36 -2z m-54 -50 c0 -21 -36 -26 -37 -7 -1 10 7
17 18 18 10 1 19 -4 19 -11z m5775 -86 c-3 -5 -1 -10 5 -10 18 0 42 -28 30
-35 -5 -3 -10 -11 -10 -17 0 -6 7 -5 17 3 11 10 14 10 9 2 -4 -8 -2 -13 6 -14
10 0 10 -2 1 -6 -7 -2 -13 -9 -13 -14 0 -6 6 -7 13 -3 9 6 9 4 -1 -8 -7 -9 -9
-19 -4 -22 16 -9 6 -48 -19 -74 -13 -14 -18 -22 -11 -18 6 4 12 2 12 -3 0 -6
-7 -11 -16 -11 -9 0 -12 -5 -8 -12 4 -7 -1 -6 -12 3 -10 8 -29 14 -40 14 -17
-2 -21 3 -19 21 1 13 -2 21 -6 18 -5 -3 -9 0 -9 6 0 6 -4 9 -8 6 -4 -2 -7 12
-6 32 2 52 3 54 14 47 6 -3 10 -3 11 2 0 4 2 20 3 35 1 15 8 33 15 40 11 11
13 10 6 -2 -4 -8 3 -5 16 8 25 24 34 28 24 12z m-6240 -40 c3 -5 -1 -10 -10
-10 -9 0 -13 5 -10 10 3 6 8 10 10 10 2 0 7 -4 10 -10z m5225 -40 c0 -5 -5
-10 -11 -10 -5 0 -7 5 -4 10 3 6 8 10 11 10 2 0 4 -4 4 -10z m1003 -164 c4
-10 0 -12 -15 -8 -15 4 -17 7 -6 13 17 11 15 11 21 -5z m332 -16 c3 -5 1 -10
-4 -10 -6 0 -11 5 -11 10 0 6 2 10 4 10 3 0 8 -4 11 -10z m-6227 -21 c-7 -5
-8 -9 -2 -9 11 0 38 -50 30 -57 -2 -2 -7 5 -11 16 -3 12 -11 21 -18 21 -8 0
-8 -3 1 -12 14 -14 16 -52 2 -43 -6 4 -7 -1 -3 -11 4 -11 8 -13 11 -6 2 7 8
12 14 12 6 0 4 -8 -5 -18 -10 -10 -14 -22 -10 -25 3 -4 1 -7 -6 -7 -7 0 -9 -5
-5 -12 6 -10 4 -10 -8 0 -14 11 -16 10 -11 -8 4 -17 2 -19 -13 -13 -17 6 -18
5 -4 -12 9 -11 10 -16 3 -11 -8 4 -13 2 -13 -5 0 -8 -5 -7 -17 2 -11 10 -14
10 -9 2 4 -7 2 -13 -3 -13 -6 0 -11 5 -11 10 0 33 -18 62 -33 53 -9 -5 -9 -3
0 9 7 8 9 19 5 23 -4 5 2 5 12 1 20 -7 20 -7 1 14 -11 12 -15 21 -10 20 21 -5
36 1 30 10 -6 10 22 53 40 61 6 2 9 9 9 15 -1 6 9 9 23 6 18 -3 21 -7 11 -13z
m4442 -288 c0 -5 -7 -12 -16 -15 -14 -5 -15 -4 -4 9 14 17 20 19 20 6z m-250
-181 c0 -5 -5 -10 -11 -10 -5 0 -7 5 -4 10 3 6 8 10 11 10 2 0 4 -4 4 -10z
m787 -122 c6 -9 5 -21 -2 -36 -9 -17 -15 -20 -20 -11 -6 9 -11 7 -22 -6 -12
-17 -13 -17 -13 -2 0 9 5 17 10 17 6 0 10 5 10 11 0 5 -6 7 -12 3 -7 -4 -4 2
6 14 22 25 30 27 43 10z m-4747 -74 c-1 -4 4 -11 12 -15 10 -7 10 -9 0 -9 -8
0 -10 -5 -5 -12 12 -21 15 -61 4 -53 -7 4 -8 0 -4 -11 6 -16 7 -15 20 2 7 10
13 13 13 6 0 -6 -11 -19 -26 -28 -15 -11 -23 -23 -19 -32 4 -12 3 -13 -10 -2
-12 10 -16 9 -21 -4 -3 -9 -11 -13 -18 -9 -8 5 -8 3 0 -8 9 -12 11 -37 5 -92
-1 -5 -11 -7 -23 -5 -11 2 -23 -3 -26 -11 -3 -9 0 -11 8 -6 9 5 11 4 6 -4 -4
-6 -12 -8 -18 -5 -7 5 -9 1 -5 -9 3 -9 1 -18 -6 -21 -8 -3 -9 -7 -2 -13 12 -9
14 -63 3 -63 -5 0 -8 -5 -8 -11 0 -5 6 -7 13 -3 14 9 -10 -24 -33 -44 -8 -8
-10 -11 -4 -8 6 3 11 -2 11 -10 0 -9 -6 -13 -15 -9 -10 3 -12 0 -8 -10 3 -10
-1 -15 -12 -15 -13 0 -14 -2 -4 -9 15 -9 15 -20 0 -38 -7 -9 -7 -13 1 -13 7 0
9 -5 4 -12 -9 -16 -12 -58 -4 -58 4 0 7 -8 7 -19 0 -11 -5 -17 -14 -14 -7 3
-12 0 -10 -8 2 -8 -3 -13 -10 -11 -10 2 -10 -2 -2 -18 8 -15 8 -18 -3 -15 -7
3 -21 -1 -32 -10 -20 -15 -20 -15 0 -8 17 6 18 5 5 -9 -8 -9 -19 -13 -25 -10
-5 4 -19 5 -30 3 -16 -3 -17 -1 -6 13 11 13 11 16 1 16 -8 0 -10 3 -7 7 4 3 1
13 -6 21 -9 13 -9 14 0 8 8 -4 13 -2 13 4 0 6 5 8 13 4 9 -6 9 -5 0 7 -10 12
-8 15 8 16 20 2 59 33 41 33 -11 0 -11 18 1 37 4 6 3 15 -3 18 -8 5 -8 11 0
20 8 10 8 15 0 20 -8 5 -8 10 0 20 8 10 8 15 0 20 -8 5 -7 11 2 23 7 9 8 13 2
9 -6 -3 -11 0 -11 8 0 8 4 12 8 10 4 -3 10 7 14 22 4 19 9 23 14 14 7 -10 13
-11 27 -2 12 6 14 11 5 11 -11 0 -11 3 -1 15 10 12 10 15 0 15 -9 0 -9 4 -2
13 6 7 10 21 8 32 -4 25 16 48 27 31 5 -8 12 -5 22 8 18 24 20 40 3 30 -10 -6
-10 -5 -1 7 10 12 10 18 0 29 -9 10 -9 11 1 6 6 -4 12 -2 12 3 0 6 -5 11 -11
11 -6 0 -3 7 5 16 18 17 21 28 6 19 -5 -3 -10 -1 -10 4 0 6 5 11 10 11 6 0 10
5 10 11 0 5 -5 7 -12 3 -7 -4 -8 -3 -4 4 4 7 13 12 21 12 8 0 17 5 21 12 5 7
3 8 -6 3 -8 -5 -11 -3 -8 6 3 8 10 13 16 12 6 -2 9 3 6 11 -3 8 0 17 6 21 9 6
9 10 -1 17 -10 7 -8 8 9 5 12 -3 20 -1 17 3 -3 5 -2 10 2 13 5 2 2 2 -4 1 -7
-2 -13 1 -13 6 0 6 9 10 20 10 11 0 18 6 16 13 -1 6 -1 9 1 5 3 -4 4 -10 3
-14z m4668 -12 c8 -22 7 -29 -4 -29 -7 0 -10 5 -7 10 4 6 -1 8 -11 4 -9 -4
-15 -3 -13 1 2 4 7 15 10 25 9 24 13 22 25 -11z m25 -6 c-3 -4 -9 -2 -14 5
-13 22 -11 31 5 17 8 -7 12 -17 9 -22z m-2745 -7 c3 -12 2 -12 -6 0 -6 8 -15
10 -22 6 -9 -5 -11 -4 -6 4 10 15 28 10 34 -10z m1587 1 c3 -5 1 -10 -4 -10
-6 0 -11 5 -11 10 0 6 2 10 4 10 3 0 8 -4 11 -10z m-3975 -44 c0 -2 -7 -7 -16
-10 -8 -3 -12 -2 -9 4 6 10 25 14 25 6z m1417 -23 c-7 -7 22 -32 37 -33 6 0 2
6 -9 13 -14 11 -15 16 -5 22 9 5 11 4 6 -3 -5 -8 1 -12 14 -12 12 0 19 -4 16
-9 -3 -5 1 -12 10 -15 11 -4 13 -10 7 -19 -11 -15 -11 -87 0 -104 5 -8 3 -13
-5 -13 -9 0 -9 -3 2 -10 13 -9 13 -10 0 -10 -13 0 -13 -1 0 -10 11 -7 11 -10
2 -10 -8 0 -10 -5 -6 -12 5 -7 2 -9 -9 -5 -9 3 -18 1 -21 -6 -2 -7 -5 -4 -5 6
-1 9 -8 17 -16 17 -8 0 -15 8 -15 19 0 13 -9 20 -30 25 -16 3 -30 10 -30 16 0
6 4 8 10 5 7 -4 7 3 0 20 -13 35 -13 58 1 49 8 -4 8 0 0 15 -10 18 -9 20 6 14
15 -6 16 -4 5 9 -11 13 -10 16 5 14 10 0 18 5 19 12 2 19 4 22 11 22 3 0 3 -3
0 -7z m2333 -2 c0 -5 -7 -12 -16 -15 -14 -5 -15 -4 -4 9 14 17 20 19 20 6z
m-530 -97 c0 -8 -5 -12 -10 -9 -6 4 -8 11 -5 16 9 14 15 11 15 -7z m2923 -63
c3 -13 1 -18 -8 -14 -19 7 -27 33 -11 33 8 0 16 -9 19 -19z m-1119 -5 c-7 16
-5 17 8 7 8 -7 19 -9 24 -5 4 4 2 -2 -6 -12 -8 -11 -10 -17 -3 -13 23 14 22
-11 -1 -38 -14 -16 -23 -38 -21 -51 1 -16 -3 -24 -14 -25 -10 0 -12 -2 -3 -6
6 -2 12 -9 12 -14 0 -6 -4 -8 -8 -5 -11 6 -9 -25 3 -43 6 -10 4 -12 -5 -6 -8
5 -11 3 -8 -6 3 -8 1 -22 -3 -31 -6 -11 -5 -19 3 -24 6 -4 8 -3 4 4 -3 6 -2
13 3 16 5 4 8 -1 7 -10 -1 -8 -9 -20 -17 -24 -18 -12 -18 -32 1 -48 13 -10 12
-11 -4 -5 -13 4 -17 3 -12 -5 4 -8 2 -10 -8 -6 -8 3 -17 12 -20 20 -3 9 -1 12
4 9 6 -3 10 -1 10 4 0 6 -5 11 -11 11 -8 0 -8 4 0 14 9 11 9 16 0 22 -8 5 -9
3 -4 -6 5 -9 4 -11 -4 -6 -9 6 -9 11 0 22 6 8 8 14 5 14 -4 0 -1 10 5 23 11
20 11 21 -4 8 -19 -15 -23 -1 -5 17 8 8 8 15 -3 28 -8 10 -9 15 -3 11 7 -4 14
0 17 8 4 10 1 12 -10 8 -12 -5 -13 -2 -6 13 5 10 9 40 9 67 -1 26 3 47 7 47 5
0 5 5 1 12 -4 6 -3 8 4 4 6 -3 14 -1 17 4 5 8 14 5 26 -6 19 -17 20 -17 13 2z
m-5024 -77 c0 -5 -5 -9 -12 -9 -6 0 -8 3 -5 7 4 3 1 13 -6 22 -11 14 -10 14 6
2 9 -7 17 -17 17 -22z m6466 10 c3 -6 1 -16 -6 -22 -10 -9 -11 -9 -5 2 4 8 2
17 -6 22 -9 6 -10 9 -2 9 6 0 15 -5 19 -11z m-1415 -12 c-6 -8 -7 -18 -3 -22
4 -5 1 -5 -6 -1 -10 6 -10 11 -1 22 6 8 14 14 16 14 3 0 0 -6 -6 -13z m-4390
-39 c0 -10 2 -10 6 0 5 13 33 17 33 4 0 -4 -5 -13 -12 -20 -9 -9 -9 -12 -1
-12 12 0 9 -38 -3 -49 -4 -3 -4 2 -1 11 4 12 1 16 -13 15 -15 -1 -17 -5 -9
-22 9 -17 7 -16 -10 4 -23 26 -28 46 -8 35 8 -5 8 -2 -2 9 -9 12 -10 17 -2 17
7 0 9 5 6 10 -3 6 -1 10 4 10 6 0 11 -6 12 -12z m3356 -34 c-3 -3 -12 -4 -19
-1 -8 3 -5 6 6 6 11 1 17 -2 13 -5z m-2460 -46 c-3 -8 -6 -5 -6 6 -1 11 2 17
5 13 3 -3 4 -12 1 -19z m3458 -116 c-3 -3 -11 0 -18 7 -9 10 -8 11 6 5 10 -3
15 -9 12 -12z m-4378 -76 c-3 -8 0 -19 6 -25 11 -11 -1 -16 -32 -12 -8 2 -10
-3 -6 -11 5 -8 2 -7 -8 2 -21 20 -29 66 -13 79 7 6 16 8 19 4 4 -3 7 0 7 8 0
8 7 4 16 -9 9 -13 13 -29 11 -36z m4925 39 c5 -6 8 -5 8 3 0 7 8 4 20 -8 12
-12 24 -19 28 -16 4 2 7 -13 7 -34 1 -24 -3 -36 -10 -32 -5 3 -4 -2 4 -11 11
-14 11 -17 0 -17 -11 0 -11 -2 1 -10 13 -8 12 -10 -2 -10 -10 0 -18 -5 -18
-11 0 -5 5 -7 10 -4 6 3 10 -3 10 -14 0 -12 -5 -21 -11 -21 -5 0 -7 5 -3 12 5
7 3 8 -5 3 -9 -5 -7 -12 7 -25 27 -25 18 -66 -14 -73 -14 -2 -27 0 -30 5 -3 4
-9 6 -14 3 -5 -3 -12 0 -16 6 -4 7 -3 9 4 5 6 -3 14 -2 17 4 4 6 3 10 -2 9
-20 -4 -53 2 -52 9 1 4 0 9 -1 12 -6 16 -5 48 2 44 4 -3 8 0 8 5 0 6 -6 11
-12 12 -10 0 -10 2 -1 5 7 3 9 12 6 20 -3 7 -8 12 -12 9 -4 -2 -8 2 -8 10 0 8
4 12 8 10 11 -7 18 20 9 35 -5 8 -5 21 0 31 5 9 6 20 2 24 -4 5 -1 4 7 0 10
-6 13 -4 9 7 -7 17 32 20 44 3z m58 -285 c0 -5 -2 -10 -4 -10 -3 0 -8 5 -11
10 -3 6 -1 10 4 10 6 0 11 -4 11 -10z m474 -12 c-6 -10 -5 -10 7 -1 12 10 21
8 43 -6 19 -13 24 -20 14 -24 -8 -3 -6 -6 7 -7 18 -1 18 -2 -5 -16 l-25 -15
25 6 c23 6 23 5 8 -8 -21 -17 -24 -29 -5 -21 9 3 13 -8 12 -41 0 -38 -3 -45
-20 -46 -11 0 -28 -2 -37 -4 -10 -2 -18 1 -18 6 0 4 -8 5 -17 2 -13 -5 -15 -2
-10 12 7 16 5 16 -10 4 -9 -8 -14 -9 -10 -3 4 7 0 14 -8 18 -8 3 -12 12 -9 21
3 8 10 12 15 9 5 -3 9 0 9 5 0 10 -14 15 -32 12 -5 0 -8 4 -8 10 0 6 7 9 14 6
11 -4 13 -1 9 10 -5 12 -3 14 8 8 11 -7 11 -5 -1 10 -9 11 -10 16 -2 11 8 -4
12 -1 12 9 0 11 5 15 16 11 8 -3 12 -2 9 4 -6 10 1 30 11 30 3 0 2 -6 -2 -12z
m-6314 -68 c0 -5 -5 -10 -11 -10 -5 0 -7 5 -4 10 3 6 8 10 11 10 2 0 4 -4 4
-10z m6361 -139 c-17 -11 -6 -31 18 -31 9 0 26 -7 37 -16 10 -8 13 -13 6 -9
-9 5 -11 0 -8 -17 4 -24 -2 -26 -77 -19 -5 1 -6 5 -3 10 3 5 -1 12 -10 15 -12
5 -14 10 -5 20 6 7 8 16 4 20 -4 4 1 4 11 0 16 -6 17 -4 8 12 -9 17 -7 20 11
21 16 2 18 0 8 -6z m-1497 -46 c-4 -8 -1 -22 6 -30 9 -11 9 -15 1 -15 -8 0 -9
-5 -1 -19 7 -14 7 -22 -2 -27 -7 -5 -8 -3 -3 6 6 9 4 11 -5 5 -10 -6 -9 -11 5
-22 12 -8 14 -13 6 -13 -10 0 -11 -3 -2 -14 9 -11 9 -16 0 -21 -8 -6 -7 -10 2
-17 10 -7 8 -8 -9 -5 -12 3 -20 1 -16 -4 3 -5 11 -9 17 -9 7 0 12 -14 12 -34
0 -19 -3 -32 -7 -29 -5 2 -8 -1 -8 -6 0 -6 6 -11 13 -12 9 0 9 -2 0 -5 -9 -4
-9 -13 -2 -31 8 -22 7 -24 -8 -19 -17 5 -17 4 -1 -6 15 -11 15 -13 0 -25 -9
-7 -12 -13 -7 -12 26 3 28 -3 5 -17 -14 -8 -17 -13 -8 -10 10 3 20 0 24 -6 4
-7 3 -8 -4 -4 -7 4 -12 3 -12 -2 0 -10 -42 -8 -59 3 -7 4 -9 -1 -5 -12 5 -14
4 -15 -4 -4 -6 8 -18 11 -28 7 -17 -5 -17 -5 -3 6 9 7 14 19 12 26 -3 6 1 12
7 12 10 0 10 3 1 14 -9 11 -9 16 0 22 8 5 10 3 5 -7 -4 -8 -1 -6 7 3 8 10 18
14 22 10 5 -4 5 -2 1 5 -4 7 -12 11 -19 9 -7 -1 -9 -1 -4 1 11 7 8 38 -5 53
-11 12 -10 12 3 2 14 -10 18 -10 23 3 3 8 0 15 -6 15 -6 0 -5 6 3 17 12 15 12
16 -1 8 -13 -8 -13 -7 -1 8 11 14 11 17 0 17 -11 0 -11 2 1 10 11 7 11 10 2
10 -10 0 -10 5 -2 20 8 15 8 20 -1 20 -8 0 -7 5 2 17 11 13 11 17 1 21 -10 3
-10 7 -1 18 9 11 9 17 0 28 -8 10 -9 16 -1 21 6 3 7 11 4 17 -4 7 -2 8 4 4 7
-4 20 -2 29 3 23 14 23 14 17 -4z m731 -33 c-3 -3 -11 0 -18 7 -9 10 -8 11 6
5 10 -3 15 -9 12 -12z m2 -27 c0 -8 -4 -15 -9 -15 -4 0 -8 7 -8 15 0 8 4 15 8
15 5 0 9 -7 9 -15z m843 -91 c0 -8 -19 -13 -24 -6 -3 5 1 9 9 9 8 0 15 -2 15
-3z m-830 -100 c0 -8 -19 -13 -24 -6 -3 5 1 9 9 9 8 0 15 -2 15 -3z m-1293
-111 c-4 -3 -1 -13 6 -22 11 -14 10 -14 -5 -2 -16 12 -16 31 -1 31 4 0 3 -3 0
-7z m1123 -133 c0 -5 -5 -10 -11 -10 -5 0 -7 5 -4 10 3 6 8 10 11 10 2 0 4 -4
4 -10z m-366 -116 c3 -8 2 -12 -4 -9 -6 3 -10 10 -10 16 0 14 7 11 14 -7z"/>
<path d="M4495 5680 c-3 -5 -1 -10 4 -10 6 0 11 5 11 10 0 6 -2 10 -4 10 -3 0
-8 -4 -11 -10z"/>
<path d="M4066 5411 c-4 -5 -2 -12 3 -15 5 -4 12 -2 15 3 4 5 2 12 -3 15 -5 4
-12 2 -15 -3z"/>
<path d="M4323 4983 c-3 -7 -14 -13 -24 -13 -10 0 -19 -4 -19 -10 0 -5 -7 -10
-15 -10 -9 0 -12 -6 -8 -17 4 -9 2 -14 -3 -11 -11 7 -35 -17 -26 -27 4 -4 3
-6 -3 -5 -20 4 -35 0 -35 -11 0 -5 5 -7 12 -3 7 4 8 3 4 -4 -4 -6 -14 -8 -24
-5 -9 3 -14 3 -10 -2 4 -4 -5 -19 -20 -33 -15 -13 -20 -21 -12 -16 13 7 13 5
1 -9 -9 -12 -10 -17 -2 -17 7 0 9 -5 5 -12 -12 -19 -12 -48 -1 -41 6 4 8 0 4
-10 -4 -10 1 -22 13 -30 11 -8 17 -17 13 -20 -8 -9 26 -47 42 -47 6 0 17 -11
23 -25 6 -14 17 -25 23 -25 6 0 8 -7 5 -16 -6 -14 -4 -15 9 -4 9 7 15 9 14 4
-6 -31 3 -54 19 -54 27 0 34 -11 19 -29 -10 -14 -10 -14 3 -4 17 13 37 12 58
-1 12 -7 12 -4 2 15 -11 24 -11 24 11 -1 13 -15 20 -18 16 -8 -3 9 0 19 7 21
14 5 38 -6 37 -17 -1 -7 7 -9 17 -3 4 2 1 2 -5 1 -19 -5 -16 4 6 16 14 7 22 7
27 -2 4 -7 3 -8 -4 -4 -8 5 -10 1 -5 -9 4 -12 8 -13 13 -5 4 6 11 11 16 11 20
-2 44 11 38 21 -4 6 2 5 15 -1 12 -7 21 -8 20 -4 -1 4 -1 17 0 28 1 17 3 18
11 5 5 -8 10 -12 11 -7 1 4 3 12 4 17 1 6 3 17 4 26 1 10 7 14 16 10 13 -4 13
-2 5 14 -7 13 -7 21 2 26 7 5 8 3 3 -6 -5 -9 -4 -11 4 -6 8 5 9 12 3 19 -5 7
-7 24 -5 40 2 15 -1 35 -7 45 -10 15 -11 15 -5 -3 4 -15 3 -17 -5 -9 -6 6 -12
20 -13 32 0 11 -5 18 -9 16 -7 -5 -12 9 -10 27 1 3 -10 5 -24 3 -20 -2 -23 0
-14 11 9 11 6 14 -12 17 -15 2 -23 9 -22 21 2 20 -7 22 -25 5 -10 -11 -11 -10
-6 4 5 11 -3 27 -21 45 -15 15 -21 19 -13 8 13 -18 13 -19 -3 -6 -10 7 -18 18
-18 23 0 15 -27 38 -35 30 -4 -4 -6 0 -3 8 7 21 -12 36 -51 42 -22 3 -35 0
-38 -9z m-118 -331 c-3 -3 -11 0 -18 7 -9 10 -8 11 6 5 10 -3 15 -9 12 -12z"/>
<path d="M5445 4921 c-3 -5 -2 -12 3 -15 5 -3 9 1 9 9 0 17 -3 19 -12 6z"/>
<path d="M5450 4861 c0 -6 4 -13 10 -16 6 -3 7 1 4 9 -7 18 -14 21 -14 7z"/>
<path d="M2430 4619 c0 -5 5 -7 10 -4 6 3 10 8 10 11 0 2 -4 4 -10 4 -5 0 -10
-5 -10 -11z"/>
<path d="M2100 4556 c0 -2 8 -10 18 -17 15 -13 16 -12 3 4 -13 16 -21 21 -21
13z"/>
<path d="M1450 4439 c0 -5 5 -7 10 -4 6 3 10 8 10 11 0 2 -4 4 -10 4 -5 0 -10
-5 -10 -11z"/>
<path d="M3540 4308 c-5 -13 -9 -17 -9 -10 -1 6 -6 12 -12 12 -5 0 -7 -4 -4
-10 3 -5 1 -10 -4 -10 -6 0 -11 6 -11 13 0 8 -3 7 -10 -3 -5 -8 -12 -11 -16
-8 -3 4 -15 -3 -25 -15 -10 -12 -18 -18 -19 -13 0 5 -8 2 -17 -5 -14 -12 -16
-12 -9 1 4 8 1 6 -8 -4 -8 -10 -13 -24 -9 -30 3 -6 0 -5 -8 2 -18 17 -30 15
-23 -3 4 -10 0 -15 -11 -15 -9 0 -14 -4 -11 -9 3 -5 -2 -12 -11 -15 -15 -6
-15 -8 -3 -16 12 -8 12 -10 1 -10 -8 0 -11 -6 -7 -16 4 -10 2 -13 -6 -8 -7 5
-9 0 -6 -14 4 -12 2 -20 -2 -17 -5 3 -12 0 -16 -6 -4 -8 -3 -9 4 -5 7 4 12 2
12 -4 0 -6 4 -8 10 -5 6 3 7 -1 4 -9 -4 -10 -1 -16 7 -16 12 0 12 -2 0 -9 -11
-7 -9 -10 8 -16 17 -5 21 -13 19 -33 -2 -16 2 -26 9 -25 6 1 14 -9 17 -23 5
-18 10 -23 19 -16 7 5 19 8 27 7 34 -6 45 -11 52 -20 4 -5 8 -1 8 10 0 16 2
17 10 5 7 -11 12 -12 21 -3 6 6 18 9 25 6 10 -4 12 0 8 13 -3 11 -2 15 3 9 4
-5 16 -16 26 -24 15 -12 17 -12 11 2 -4 12 -1 15 15 12 12 -2 21 1 21 8 0 7 4
6 10 -3 9 -13 10 -13 11 0 1 8 1 18 0 22 0 4 8 5 18 3 11 -2 27 3 38 11 10 9
13 13 6 10 -6 -4 -14 -2 -17 3 -4 5 5 8 18 7 18 -2 23 1 18 12 -3 9 -1 13 5 9
6 -4 14 0 17 9 4 10 2 13 -7 9 -6 -4 -1 3 13 15 14 12 18 19 10 15 -11 -5 -11
-3 2 7 12 11 14 18 6 32 -7 13 -7 17 0 12 6 -3 13 -2 17 4 3 5 1 10 -4 10 -6
0 -11 5 -11 11 0 5 4 8 8 5 5 -3 9 1 9 9 0 8 -5 11 -10 8 -6 -4 -8 1 -4 11 6
14 3 17 -9 12 -15 -6 -15 -4 -3 11 13 15 12 16 -9 11 -17 -5 -21 -3 -14 5 7 8
5 16 -4 25 -11 10 -14 10 -14 0 0 -11 -2 -11 -9 0 -4 7 -14 12 -21 10 -7 -2
-15 4 -17 12 -4 13 -3 13 7 0 10 -13 11 -13 7 0 -2 10 -14 14 -35 12 -18 -2
-32 0 -32 5 0 4 -13 8 -29 8 -16 1 -27 -3 -25 -7 3 -4 0 -8 -7 -8 -6 0 -9 8
-6 20 7 27 -1 25 -13 -2z"/>
<path d="M3430 4279 c0 -5 5 -7 10 -4 6 3 10 8 10 11 0 2 -4 4 -10 4 -5 0 -10
-5 -10 -11z"/>
<path d="M4505 3940 c2 -11 1 -19 -3 -18 -4 1 -19 -4 -34 -10 -21 -8 -26 -17
-23 -34 4 -23 4 -23 -12 -3 -15 19 -15 19 -11 -7 3 -16 1 -26 -6 -25 -6 1 -10
-4 -8 -10 1 -7 -5 -13 -14 -13 -13 0 -14 -3 -5 -14 10 -11 9 -16 -3 -23 -8 -4
-15 -12 -17 -18 -4 -23 -12 -35 -18 -30 -4 2 -8 -2 -8 -10 0 -11 4 -12 13 -4
8 7 14 6 20 -2 4 -8 3 -9 -4 -5 -13 8 -13 6 -16 -66 -1 -26 2 -45 6 -42 4 3 8
0 8 -5 0 -6 -4 -11 -10 -11 -5 0 -7 -7 -3 -15 3 -9 -3 -23 -13 -31 -11 -9 -14
-13 -8 -10 6 3 11 -1 11 -8 0 -8 -6 -12 -14 -9 -9 4 -11 0 -7 -12 6 -14 3 -16
-17 -10 -24 7 -24 7 -4 -10 11 -9 14 -14 8 -10 -7 3 -13 1 -13 -6 0 -7 -9 -9
-22 -6 -22 6 -22 6 -4 -9 19 -13 18 -14 -12 -10 -17 2 -29 -1 -26 -5 3 -5 0
-9 -6 -9 -6 0 -8 -5 -4 -12 5 -8 2 -8 -10 1 -9 8 -16 10 -15 5 4 -21 -2 -28
-11 -14 -6 9 -10 11 -10 3 0 -7 -7 -10 -17 -6 -12 5 -14 3 -8 -8 7 -12 6 -12
-7 -1 -14 11 -18 10 -27 -6 -8 -14 -17 -18 -32 -15 -16 5 -20 3 -14 -6 6 -10
3 -11 -14 -2 -18 10 -20 9 -14 -6 5 -14 3 -15 -6 -7 -15 13 -54 6 -45 -8 3 -5
-6 -6 -23 -3 -21 5 -24 4 -13 -4 13 -9 13 -11 0 -11 -9 0 -22 6 -29 13 -11 10
-13 9 -9 -3 4 -11 0 -16 -13 -16 -13 0 -15 3 -7 13 14 17 -2 16 -24 -1 -10 -7
-14 -17 -10 -21 4 -5 1 -5 -6 -1 -10 6 -10 11 -2 21 9 11 7 14 -9 12 -11 0
-18 -4 -16 -8 3 -3 -7 -4 -20 -1 -14 2 -22 9 -18 15 4 6 1 7 -8 2 -19 -13 -72
-13 -88 0 -11 7 -13 7 -7 -2 4 -7 3 -13 -1 -13 -5 0 -15 6 -22 13 -8 7 -11 7
-8 1 8 -13 -62 -12 -83 1 -9 5 -11 4 -6 -3 4 -7 2 -12 -3 -12 -6 0 -11 6 -11
13 0 8 -3 9 -8 1 -4 -7 -31 -10 -65 -8 -53 2 -57 1 -45 -14 12 -15 11 -16 -5
-3 -22 17 -55 22 -63 9 -3 -5 -12 -4 -20 3 -10 8 -17 7 -31 -6 -14 -14 -18
-15 -27 -4 -6 8 -18 15 -26 17 -12 3 -13 1 -2 -9 6 -7 12 -17 12 -23 0 -5 -8
0 -18 12 -12 13 -28 20 -45 18 -19 -2 -33 3 -44 18 -11 15 -14 16 -10 4 8 -22
0 -23 -20 -2 -9 8 -22 13 -29 10 -13 -5 -19 6 -15 27 1 5 -3 6 -9 2 -6 -3 -8
-11 -5 -16 4 -5 1 -9 -4 -9 -10 0 -15 14 -12 33 0 4 -4 7 -9 7 -6 0 -10 -7
-10 -16 0 -8 -5 -12 -10 -9 -6 4 -8 10 -5 15 3 5 0 12 -6 16 -8 4 -9 3 -5 -4
4 -7 2 -12 -3 -12 -6 0 -11 5 -11 11 0 8 -5 7 -15 -1 -9 -7 -18 -10 -22 -6 -3
3 -1 6 5 6 7 0 12 5 12 11 0 5 -4 7 -10 4 -5 -3 -10 -1 -10 5 0 6 -5 8 -12 3
-18 -11 -39 -13 -33 -3 3 4 -2 11 -11 14 -22 8 -26 8 -19 -4 3 -6 -1 -7 -9 -4
-9 3 -16 11 -16 16 0 6 -8 4 -17 -3 -10 -8 -14 -9 -10 -2 4 6 3 14 -3 18 -5 3
-10 2 -10 -3 0 -6 -7 -12 -15 -16 -18 -7 -47 3 -40 14 3 5 -4 6 -15 3 -15 -4
-19 -2 -14 10 3 10 -2 20 -16 27 -18 10 -19 14 -8 28 10 12 10 14 1 8 -9 -5
-13 0 -13 13 0 12 -4 21 -10 21 -5 0 -10 9 -10 21 0 11 -4 18 -9 14 -5 -3 -12
-1 -16 5 -3 5 0 10 7 10 8 1 6 6 -6 15 -10 8 -16 20 -13 28 6 15 -47 80 -57
70 -3 -3 -6 1 -6 11 0 9 -4 14 -10 11 -5 -3 -10 1 -10 10 0 10 -5 13 -12 9 -8
-5 -9 -2 -5 9 4 10 2 16 -6 14 -7 -1 -11 4 -9 12 2 11 0 12 -10 3 -11 -8 -17
-6 -27 10 -9 15 -16 17 -24 9 -14 -14 -30 -15 -22 -1 3 6 -1 7 -9 4 -9 -3 -14
-10 -11 -14 3 -5 -8 -5 -25 0 -16 5 -29 5 -29 2 3 -19 -2 -32 -12 -32 -5 0 -7
6 -3 13 4 6 -2 3 -14 -7 -26 -23 -30 -34 -4 -15 15 13 16 12 3 -3 -7 -10 -20
-18 -28 -18 -13 0 -13 -2 -2 -17 12 -15 12 -16 -3 -10 -12 4 -18 1 -18 -9 0
-8 4 -13 9 -10 5 4 7 -3 4 -14 -3 -11 -10 -20 -15 -20 -5 0 -6 6 -2 13 4 6 3
9 -1 4 -5 -4 -9 -18 -10 -31 0 -21 2 -23 18 -14 15 8 18 7 11 -4 -14 -21 -11
-68 4 -68 7 0 10 -5 7 -10 -4 -6 -12 -7 -18 -3 -8 5 -8 2 0 -9 7 -8 9 -19 5
-23 -4 -5 -1 -5 6 -1 6 4 12 2 12 -4 0 -6 3 -9 8 -7 4 3 8 -6 8 -19 1 -15 -2
-22 -10 -18 -6 3 3 -8 21 -24 24 -23 28 -33 20 -42 -9 -10 -9 -11 1 -6 6 4 12
2 12 -3 0 -6 7 -11 16 -11 14 0 14 -3 4 -15 -11 -13 -10 -14 4 -9 9 4 16 3 15
-2 -4 -23 2 -35 14 -28 7 5 7 2 -2 -10 -8 -9 -10 -16 -5 -15 23 4 33 -3 29
-22 -4 -17 -2 -19 10 -9 15 12 20 4 16 -22 0 -5 4 -8 10 -8 5 0 7 -4 4 -10 -3
-5 -1 -10 5 -10 16 0 40 -26 32 -34 -3 -4 2 -4 13 0 11 4 17 3 13 -1 -5 -5 1
-15 12 -22 11 -8 18 -18 15 -23 -3 -4 3 -6 14 -3 10 3 22 0 26 -7 5 -8 10 -8
21 1 11 9 14 9 14 -1 0 -9 4 -9 17 1 9 8 14 9 10 3 -4 -7 0 -15 9 -18 24 -9
31 -7 14 5 -13 9 -13 10 1 6 9 -3 22 -1 28 4 8 6 8 5 1 -3 -15 -19 -12 -32 5
-18 10 8 15 9 15 1 0 -6 10 -10 22 -8 12 1 23 -3 23 -10 0 -6 4 -15 8 -20 5
-4 8 -3 7 2 -4 20 0 35 10 35 6 0 10 -8 10 -18 0 -18 34 -23 58 -8 8 5 10 2 6
-8 -7 -19 7 -21 25 -3 11 10 13 9 8 -5 -7 -21 18 -45 29 -27 4 8 3 9 -4 5 -7
-4 -12 -2 -12 3 0 6 2 11 5 11 9 0 50 -25 57 -35 5 -6 12 -5 20 3 17 17 33 15
18 -2 -10 -13 -7 -14 14 -10 17 3 26 0 26 -8 0 -9 3 -8 10 2 8 12 10 12 10 1
0 -11 3 -11 17 0 14 12 16 12 9 0 -7 -11 -1 -13 27 -9 24 3 33 0 27 -7 -5 -6
3 -10 25 -10 18 0 31 3 28 8 -2 4 1 7 6 7 6 0 11 -5 11 -10 0 -13 32 -9 43 5
6 6 10 6 14 -2 2 -7 9 -13 14 -13 6 0 7 5 4 10 -3 6 0 10 9 10 8 0 16 -3 19
-7 2 -5 2 -3 1 4 -2 7 1 15 6 18 6 4 10 1 10 -4 0 -6 7 -11 15 -11 8 0 15 5
15 11 0 8 4 8 14 0 11 -9 15 -9 19 1 4 11 6 11 6 0 1 -9 6 -10 20 -3 10 6 22
7 26 3 3 -4 19 -7 34 -8 15 0 33 -4 41 -9 10 -6 12 -4 7 7 -6 17 16 19 30 3 4
-4 1 -5 -7 0 -12 6 -13 5 -3 -5 15 -16 46 -23 37 -9 -3 5 -10 6 -16 3 -7 -5
-8 -2 -4 5 5 7 14 10 21 7 8 -3 16 -2 18 2 2 4 2 1 1 -5 -4 -17 8 -16 32 2 10
8 24 14 29 14 6 0 2 -4 -7 -10 -10 -5 -18 -15 -18 -21 0 -9 3 -9 11 -1 6 6 18
9 27 6 10 -4 13 -2 8 5 -5 8 -2 10 8 6 9 -3 14 -9 11 -14 -5 -9 32 -5 59 6 15
6 17 4 11 -7 -6 -11 -5 -12 6 -1 7 6 17 12 22 12 4 0 5 -6 2 -12 -4 -7 1 -4 9
6 16 20 16 20 16 0 0 -16 2 -17 10 -4 6 10 10 11 10 3 0 -7 5 -13 11 -13 5 0
8 3 5 8 -2 4 7 12 20 19 13 6 22 8 19 3 -3 -4 4 -10 15 -13 11 -3 18 -2 15 3
-3 4 2 10 10 14 8 3 17 1 21 -5 4 -6 11 -6 20 2 11 9 14 8 14 -2 1 -9 4 -8 11
4 9 15 13 16 26 5 15 -12 15 -10 3 12 l-13 25 23 -20 c13 -11 20 -14 16 -7 -7
11 4 16 30 13 6 -1 16 9 23 21 6 13 9 15 7 6 -3 -10 -1 -20 4 -23 9 -5 14 6
12 26 -1 3 5 6 13 6 8 0 12 -5 9 -11 -3 -6 0 -4 8 5 7 9 19 14 26 12 6 -3 12
1 12 9 0 10 3 9 10 -2 8 -13 10 -13 10 1 0 11 8 15 25 13 17 -1 29 4 36 18 6
11 13 17 16 14 3 -3 12 2 20 12 8 9 12 11 8 5 -3 -7 -1 -13 4 -13 6 0 11 10
11 23 0 12 4 18 8 12 9 -13 35 -18 27 -5 -3 5 -1 10 5 10 6 0 8 5 4 12 -5 8
-2 9 9 5 10 -3 17 -2 17 4 0 6 4 8 9 4 5 -3 13 0 17 6 4 7 3 9 -4 5 -6 -3 -13
-3 -16 2 -2 4 5 9 16 9 24 2 40 22 30 38 -3 5 1 4 10 -3 13 -11 16 -10 14 5 0
10 5 17 13 15 9 -2 11 3 7 14 -5 13 -4 14 7 6 10 -9 13 -6 13 16 -1 21 3 27
20 26 11 -1 21 5 21 12 0 7 -5 10 -10 7 -6 -3 -7 -1 -3 5 4 7 14 12 21 12 9 0
12 6 8 17 -4 11 -3 14 5 9 7 -4 12 -2 12 4 0 6 5 8 12 4 7 -4 8 -3 4 4 -4 6
-14 9 -24 6 -9 -2 -7 1 6 7 13 7 21 18 18 26 -5 12 6 18 27 14 5 -1 6 3 2 9
-3 6 -12 8 -18 4 -7 -3 -5 0 4 8 9 7 17 16 18 20 3 14 11 38 18 56 4 9 7 24 8
32 0 8 6 14 13 13 7 -2 9 4 5 14 -5 11 -3 14 6 8 10 -6 11 -3 2 14 -9 17 -9
20 3 15 16 -6 17 26 1 39 -6 6 -6 10 2 14 10 3 10 10 2 24 -5 11 -7 24 -4 29
4 6 -1 13 -10 16 -9 4 -14 13 -10 22 5 12 3 13 -10 2 -9 -7 -15 -9 -14 -4 4
23 -3 33 -20 29 -14 -3 -18 1 -14 11 3 8 -1 14 -11 14 -9 0 -16 5 -16 11 0 8
-4 8 -15 -1 -12 -10 -14 -8 -11 7 3 15 -3 19 -27 20 -71 5 -95 8 -91 14 2 4
-3 9 -10 12 -10 4 -13 0 -11 -13z m-1870 -240 c10 -11 16 -20 13 -20 -3 0 -13
9 -23 20 -10 11 -16 20 -13 20 3 0 13 -9 23 -20z m1742 -15 c0 -8 -4 -12 -9
-9 -5 3 -6 10 -3 15 9 13 12 11 12 -6z m-2010 -192 c-4 -3 -1 -13 6 -22 11
-14 10 -14 -5 -2 -16 12 -16 31 -1 31 4 0 3 -3 0 -7z m1663 -143 c0 -5 -5 -10
-11 -10 -5 0 -7 5 -4 10 3 6 8 10 11 10 2 0 4 -4 4 -10z m-632 -35 c-3 -3 -9
2 -12 12 -6 14 -5 15 5 6 7 -7 10 -15 7 -18z m-791 -122 c0 -9 -4 -10 -14 -2
-7 6 -13 12 -13 14 0 1 6 2 13 2 8 0 14 -6 14 -14z m1730 -38 c0 -8 -4 -12 -9
-9 -5 3 -6 10 -3 15 9 13 12 11 12 -6z m-527 -121 c0 -8 -19 -13 -24 -6 -3 5
1 9 9 9 8 0 15 -2 15 -3z"/>
<path d="M4472 3934 c-7 -8 -8 -14 -3 -14 10 0 25 19 20 25 -2 1 -10 -3 -17
-11z"/>
<path d="M5600 3730 c-9 -6 -10 -10 -3 -10 6 0 15 5 18 10 8 12 4 12 -15 0z"/>
<path d="M2286 3627 c3 -10 9 -15 12 -12 3 3 0 11 -7 18 -10 9 -11 8 -5 -6z"/>
<path d="M2790 3470 c0 -5 5 -10 11 -10 5 0 7 5 4 10 -3 6 -8 10 -11 10 -2 0
-4 -4 -4 -10z"/>
<path d="M5256 2895 c-9 -26 -7 -32 5 -12 6 10 9 21 6 23 -2 3 -7 -2 -11 -11z"/>
<path d="M4915 2609 c-4 -6 -5 -12 -2 -15 2 -3 7 2 10 11 7 17 1 20 -8 4z"/>
<path d="M2566 2458 c3 -5 10 -6 15 -3 13 9 11 12 -6 12 -8 0 -12 -4 -9 -9z"/>
<path d="M2675 2401 c-3 -5 -2 -12 3 -15 5 -3 9 1 9 9 0 17 -3 19 -12 6z"/>
<path d="M3060 2246 c0 -2 8 -10 18 -17 15 -13 16 -12 3 4 -13 16 -21 21 -21
13z"/>
<path d="M2157 5101 c-10 -12 -9 -13 3 -6 8 5 21 10 28 11 24 4 25 13 3 11
-12 -1 -28 -8 -34 -16z"/>
<path d="M5615 4701 c-3 -5 -2 -12 3 -15 5 -3 9 1 9 9 0 17 -3 19 -12 6z"/>
<path d="M987 3813 c-11 -10 -8 -20 6 -20 8 0 14 6 14 14 0 14 -10 17 -20 6z"/>
<path d="M1003 3733 c4 -3 1 -13 -6 -22 -11 -14 -10 -14 5 -2 16 12 16 31 1
31 -4 0 -3 -3 0 -7z"/>
<path d="M6510 3499 c0 -5 5 -7 10 -4 6 3 10 8 10 11 0 2 -4 4 -10 4 -5 0 -10
-5 -10 -11z"/>
<path d="M6464 3147 c1 -11 8 -22 16 -24 13 -4 13 -3 1 5 -11 8 -12 14 -3 25
9 11 9 14 -2 14 -7 0 -13 -9 -12 -20z"/>
<path d="M6579 3143 c0 -5 -2 -18 -3 -30 -2 -19 0 -21 12 -11 10 9 11 13 3 16
-9 3 -9 7 0 18 8 10 8 14 0 14 -6 0 -11 -3 -12 -7z"/>
<path d="M5593 2391 c1 -15 4 -17 14 -9 7 5 10 14 7 19 -10 16 -23 9 -21 -10z"/>
<path d="M5415 2070 c-3 -5 -1 -10 4 -10 6 0 11 5 11 10 0 6 -2 10 -4 10 -3 0
-8 -4 -11 -10z"/>
<path d="M1015 1710 c-3 -5 -1 -10 4 -10 6 0 11 5 11 10 0 6 -2 10 -4 10 -3 0
-8 -4 -11 -10z"/>
<path d="M5063 963 c4 -3 1 -13 -6 -22 -11 -14 -10 -14 5 -2 16 12 16 31 1 31
-4 0 -3 -3 0 -7z"/>
<path d="M2855 6761 c-3 -5 -2 -12 3 -15 5 -3 9 1 9 9 0 17 -3 19 -12 6z"/>
<path d="M2306 6468 c3 -5 10 -6 15 -3 13 9 11 12 -6 12 -8 0 -12 -4 -9 -9z"/>
<path d="M5680 6201 c0 -6 4 -13 10 -16 6 -3 7 1 4 9 -7 18 -14 21 -14 7z"/>
<path d="M809 5193 c-13 -16 -12 -17 4 -4 16 13 21 21 13 21 -2 0 -10 -8 -17
-17z"/>
<path d="M6843 3275 c0 -8 4 -12 9 -9 5 3 6 10 3 15 -9 13 -12 11 -12 -6z"/>
<path d="M6863 2955 c0 -8 4 -12 9 -9 4 3 8 9 8 15 0 5 -4 9 -8 9 -5 0 -9 -7
-9 -15z"/>
<path d="M6745 2691 c-3 -5 -2 -12 3 -15 5 -3 9 1 9 9 0 17 -3 19 -12 6z"/>
<path d="M326 2607 c3 -10 9 -15 12 -12 3 3 0 11 -7 18 -10 9 -11 8 -5 -6z"/>
<path d="M1971 2354 c0 -11 3 -14 6 -6 3 7 2 16 -1 19 -3 4 -6 -2 -5 -13z"/>
<path d="M395 2120 c-3 -5 -1 -10 4 -10 6 0 11 5 11 10 0 6 -2 10 -4 10 -3 0
-8 -4 -11 -10z"/>
<path d="M3386 1837 c3 -10 9 -15 12 -12 3 3 0 11 -7 18 -10 9 -11 8 -5 -6z"/>
<path d="M4359 1713 c-13 -16 -12 -17 4 -4 9 7 17 15 17 17 0 8 -8 3 -21 -13z"/>
<path d="M4356 1668 c3 -5 10 -6 15 -3 13 9 11 12 -6 12 -8 0 -12 -4 -9 -9z"/>
<path d="M4350 1640 c0 -5 5 -10 10 -10 6 0 10 5 10 10 0 6 -4 10 -10 10 -5 0
-10 -4 -10 -10z"/>
<path d="M5785 1050 c-4 -6 -12 -7 -18 -3 -7 3 -4 -2 5 -13 14 -16 15 -23 6
-32 -9 -9 -9 -12 3 -12 10 0 15 11 15 35 0 38 -1 40 -11 25z"/>
<path d="M4564 749 c-4 -7 -3 -9 4 -5 5 3 13 0 15 -6 4 -9 6 -10 6 -1 1 17
-16 25 -25 12z"/>
<path d="M835 560 c-3 -5 -1 -10 4 -10 6 0 11 5 11 10 0 6 -2 10 -4 10 -3 0
-8 -4 -11 -10z"/>
<path d="M510 312 c0 -5 7 -9 15 -9 8 0 12 4 9 9 -3 4 -9 8 -15 8 -5 0 -9 -4
-9 -8z"/>
</g>
</svg>
