<svg xmlns="http://www.w3.org/2000/svg" width="1053.186" height="140.47" viewBox="0 0 1053.186 140.47">
  <defs>
    <style>
      .cls-1 {
        fill: #1e1e1e;
        fill-rule: evenodd;
      }
    </style>
  </defs>
  <path id="from_a_job" data-name="from a job" class="cls-1" d="M126.749,1795.72c-37.141,0-51.652,12.66-51.652,44.91v79.94h57.871v-27.05h22.8v-41.96H132.1c0-7.11,2.419-9.02,9.674-9.02a58.348,58.348,0,0,1,13.993,1.73v-45.08A114.6,114.6,0,0,0,126.749,1795.72Zm114.7,13.87c-11.919,0-23.493,6.94-26.257,22.72h-0.346l-0.518-19.25H164.577v107.51h58.044v-38.84c0-12.83,4.664-19.25,16.756-19.25a42.673,42.673,0,0,1,9.847,1.04v-53.06A32.483,32.483,0,0,0,241.45,1809.59Zm78.423,0c-46.124,0-67.027,17.69-67.027,57.23s20.9,57.22,67.027,57.22,67.027-17.69,67.027-57.22S366,1809.59,319.873,1809.59Zm0,42.83c5.182,0,6.737,3.13,6.737,14.4s-1.555,14.39-6.737,14.39-6.737-3.12-6.737-14.39S314.69,1852.42,319.873,1852.42ZM552.9,1809.59c-16.93,0-27.64,5.38-36.105,17.69h-0.345c-4.319-12.14-14.166-17.69-30.922-17.69s-27.64,5.55-35.241,17.69h-0.346l-1.209-14.22H394.493v107.51h56.834v-66.58a12.119,12.119,0,0,1,5.528-1.57c4.319,0,5.874,2.61,5.874,9.37v58.78h56.834v-66.58a9.6,9.6,0,0,1,5.355-1.57c4.492,0,6.047,2.43,6.047,9.37v58.78H587.8v-67.63C587.8,1821.56,578.3,1809.59,552.9,1809.59Zm125.231,0a279.262,279.262,0,0,0-49.751,4.34l1.727,48.38c7.256-4.34,20.385-6.94,34.2-6.94,17.275,0,25.049,3.99,25.049,12.83v0.35h-0.345c-6.738-3.47-17.275-5.55-28.159-5.55-23.839,0-35.413,10.06-35.413,30.87,0,20.29,10.883,30.17,33.168,30.17,15.029,0,26.43-4.51,33.34-13.18H692.3l2.246,9.71h54.416a129.711,129.711,0,0,1-1.728-23.75v-33.3C747.235,1823.29,729.615,1809.59,678.135,1809.59Zm6.219,72.66a7.792,7.792,0,0,1,5.01,1.39v14.91a7.792,7.792,0,0,1-5.01,1.39c-4.837,0-6.564-2.08-6.564-8.85S679.517,1882.25,684.354,1882.25Zm135.772-86.53c-20.212,0-29.713,6.94-29.713,21.5s9.5,21.51,29.713,21.51,29.713-6.94,29.713-21.51S840.337,1795.72,820.126,1795.72Zm28.849,44.22c-7.947,3.47-17.448,5.2-28.849,5.2-11.229,0-20.73-1.73-28.849-5.2v39.71c0,3.12-1.382,3.99-4.319,3.99a19.536,19.536,0,0,1-4.664-.52v49.24c6.564,2.43,15.72,3.82,26.43,3.82,29.54,0,40.251-9.19,40.251-37.98v-58.26Zm74.276-30.35c-46.124,0-67.026,17.69-67.026,57.23s20.9,57.22,67.026,57.22,67.027-17.69,67.027-57.22S969.375,1809.59,923.251,1809.59Zm0,42.83c5.183,0,6.737,3.13,6.737,14.4s-1.554,14.39-6.737,14.39-6.737-3.12-6.737-14.39S918.069,1852.42,923.251,1852.42Zm132.319-53.23h-57.7v121.38h42.5l4.66-8.32h0.35c9.5,8.5,18.83,11.79,32.65,11.79,33.68,0,50.27-19.42,50.27-58.96,0-36.24-13.82-55.49-40.77-55.49-13.65,0-24.19,4.86-31.62,14.92h-0.34v-25.32Zm5.18,53.23c5.36,0,7.26,3.82,7.26,14.4s-1.9,14.39-7.26,14.39a8.37,8.37,0,0,1-5.18-1.56v-25.66A8.312,8.312,0,0,1,1060.75,1852.42Z" transform="translate(-75.094 -1795.72)"/>
</svg>
