<svg id="intro" xmlns="http://www.w3.org/2000/svg" width="479.812" height="412.25" viewBox="0 0 479.812 412.25">
  <defs>
    <style>
      .cls-1 {
        fill: #1e1e1e;
        fill-rule: evenodd;
      }
    </style>
  </defs>
  <path id="is_a_front-end_developer_designer." data-name="is a front-end developer &amp; designer." class="cls-1" d="M363.721,357.144l5.517-.642V343.141l-5.517.642v13.361Zm2.758-14.756a3.889,3.889,0,0,0,2.417-1.1,3.028,3.028,0,0,0,.9-2.193,2.146,2.146,0,0,0-.9-1.849,3.349,3.349,0,0,0-2.417-.476,3.962,3.962,0,0,0-2.4,1.073,2.883,2.883,0,0,0-.916,2.122,2.252,2.252,0,0,0,.916,1.908,3.244,3.244,0,0,0,2.4.515h0ZM376.9,355.855a11.207,11.207,0,0,0,3.784-1.051,6.2,6.2,0,0,0,2.343-1.909,4.05,4.05,0,0,0,.781-2.362,3.091,3.091,0,0,0-.866-2.415,3.877,3.877,0,0,0-2-.964,17.921,17.921,0,0,0-2.771-.191,10.968,10.968,0,0,1-1.537-.077,0.453,0.453,0,0,1-.489-0.4q0-.635,1.807-0.845a7.323,7.323,0,0,1,3.856.529l1.514-3.816a8.308,8.308,0,0,0-2.478-.53,15.469,15.469,0,0,0-2.966.064,10.953,10.953,0,0,0-3.722,1.044,6.2,6.2,0,0,0-2.331,1.907,4.126,4.126,0,0,0-.781,2.412,3.087,3.087,0,0,0,.866,2.415,3.789,3.789,0,0,0,2.014.95,19.45,19.45,0,0,0,2.783.177,12.6,12.6,0,0,1,1.55.064,0.433,0.433,0,0,1,.476.385,0.6,0.6,0,0,1-.379.52,4.069,4.069,0,0,1-1.33.313,9.9,9.9,0,0,1-2.465-.03,7.112,7.112,0,0,1-2.2-.624l-1.514,3.815a8.771,8.771,0,0,0,2.685.64,15.256,15.256,0,0,0,3.369-.025h0Zm21.871-16.393a14.251,14.251,0,0,0-3.234.779,11.081,11.081,0,0,0-2.771,1.434l1.757,3.435a5.955,5.955,0,0,1,1.587-.954,6.753,6.753,0,0,1,1.831-.494q2.245-.261,2.514,1.271l-2.221.258a9.055,9.055,0,0,0-4.589,1.56,3.86,3.86,0,0,0-1.514,3.18,3.636,3.636,0,0,0,.574,2.046,3.362,3.362,0,0,0,1.684,1.294,5.732,5.732,0,0,0,2.7.236,4.324,4.324,0,0,0,3.783-2.443v1.759l5.126-.6v-7.181q0-3.273-1.855-4.633t-5.37-.951h0Zm-0.025,10.53a1.3,1.3,0,0,1-.964-0.193,0.858,0.858,0,0,1-.354-0.728q0-1.124,1.685-1.32l1.367-.158v0.928a2.161,2.161,0,0,1-.684,1.032,2.013,2.013,0,0,1-1.05.439h0Zm22.921-12.24a1.818,1.818,0,0,1,.354-1.2,1.423,1.423,0,0,1,.964-0.49,2.812,2.812,0,0,1,1.245.172l1.318-3.988a4.713,4.713,0,0,0-1.464-.318,9.386,9.386,0,0,0-1.807.039A6.775,6.775,0,0,0,417.885,334a6.16,6.16,0,0,0-1.562,4.322V338.4l-1.831.213v4.03l1.831-.213v8.6l5.517-.642v-8.6l2.734-.318v-4.031l-2.905.338v-0.024Zm11.643-.622v-1.441l-5.248.611v13.36l5.517-.641v-5.936a2.88,2.88,0,0,1,2.831-3.211,8.245,8.245,0,0,1,1.221-.044v-4.885a6.131,6.131,0,0,0-4.321,2.187h0ZM446.128,347.8a9.618,9.618,0,0,0,4.015-1.359,8.026,8.026,0,0,0,2.758-2.787,7.187,7.187,0,0,0,.989-3.694,6.028,6.028,0,0,0-.989-3.463,5.658,5.658,0,0,0-2.758-2.134,8.419,8.419,0,0,0-4.015-.412,9.668,9.668,0,0,0-3.991,1.343,8.022,8.022,0,0,0-2.771,2.777,7.13,7.13,0,0,0-1,3.695,5.973,5.973,0,0,0,1,3.462,5.8,5.8,0,0,0,2.771,2.144,8.263,8.263,0,0,0,3.991.428h0Zm0-4.3a1.781,1.781,0,0,1-1.563-.514,2.579,2.579,0,0,1-.61-1.871,3.085,3.085,0,0,1,.61-2,2.282,2.282,0,0,1,1.563-.866,1.8,1.8,0,0,1,1.562.5,2.536,2.536,0,0,1,.61,1.858,3.141,3.141,0,0,1-.61,2.013,2.263,2.263,0,0,1-1.562.878h0ZM464.9,331.771a6.689,6.689,0,0,0-2.222.65,6,6,0,0,0-1.806,1.382v-1.319l-5.248.61v13.361l5.517-.641v-6.278a3.309,3.309,0,0,1,.573-2.106,2.175,2.175,0,0,1,1.5-.822q1.637-.19,1.636,2.106v6.668l5.517-.642v-7.62q0-3-1.5-4.32a4.888,4.888,0,0,0-3.966-1.029h0Zm16.379,7.4a2.4,2.4,0,0,1-1.245.511,0.973,0.973,0,0,1-.83-0.246,1.211,1.211,0,0,1-.317-0.915v-3.371l2.734-.318V330.8l-2.734.318v-3.737l-5.517.641v3.737l-1.831.213v4.03l1.831-.212v3.419a4.634,4.634,0,0,0,1.513,3.891,5.764,5.764,0,0,0,4.321.853,7.507,7.507,0,0,0,3.393-1.1Zm2.343-.957,7.323-.852v-4.152l-7.323.852v4.152Zm24.093-4.512a6.282,6.282,0,0,0-.989-3.622,5.381,5.381,0,0,0-2.661-2.06,7.971,7.971,0,0,0-3.7-.376,9.181,9.181,0,0,0-3.869,1.33,8.009,8.009,0,0,0-2.709,2.77,7.186,7.186,0,0,0-.989,3.693,5.987,5.987,0,0,0,1,3.45,5.709,5.709,0,0,0,2.832,2.149,9.1,9.1,0,0,0,4.247.4,8.451,8.451,0,0,0,5.834-2.828l-2.88-2.572a6.035,6.035,0,0,1-1.306.909,4.619,4.619,0,0,1-1.477.392,3.124,3.124,0,0,1-1.709-.2,1.9,1.9,0,0,1-.976-1.047l9.276-1.079q0.072-1.18.073-1.3h0Zm-7.3-2.3a1.815,1.815,0,0,1,2.148,1.533l-4.3.5a2.54,2.54,0,0,1,.732-1.4,2.406,2.406,0,0,1,1.416-.629h0Zm18.308-5.891a6.689,6.689,0,0,0-2.222.65,6,6,0,0,0-1.806,1.382v-1.319l-5.248.611V340.2l5.517-.641v-6.278a3.309,3.309,0,0,1,.573-2.106,2.175,2.175,0,0,1,1.5-.822q1.635-.19,1.636,2.106v6.668l5.517-.641V330.86q0-3-1.5-4.32a4.889,4.889,0,0,0-3.966-1.029h0Zm17.355-6.537v5.667a4.255,4.255,0,0,0-3.393-.753,7.071,7.071,0,0,0-3.234,1.218,7.235,7.235,0,0,0-2.344,2.691,8.048,8.048,0,0,0-.866,3.752,6.958,6.958,0,0,0,.866,3.564,5.13,5.13,0,0,0,2.344,2.157,5.994,5.994,0,0,0,3.234.467,5.256,5.256,0,0,0,3.662-1.769v1.1l5.248-.611V318.333ZM534,333.285a1.778,1.778,0,0,1-1.562-.515,2.578,2.578,0,0,1-.61-1.871,3.084,3.084,0,0,1,.61-2,2.278,2.278,0,0,1,1.562-.866,1.8,1.8,0,0,1,1.562.5,2.536,2.536,0,0,1,.611,1.859,3.139,3.139,0,0,1-.611,2.013,2.265,2.265,0,0,1-1.562.878h0Zm26.607-17.164v5.667a4.257,4.257,0,0,0-3.393-.754,7.092,7.092,0,0,0-3.235,1.219,7.223,7.223,0,0,0-2.343,2.691,8.043,8.043,0,0,0-.867,3.752,6.952,6.952,0,0,0,.867,3.563,5.12,5.12,0,0,0,2.343,2.158,6.009,6.009,0,0,0,3.235.467,5.251,5.251,0,0,0,3.661-1.77v1.1l5.248-.611V315.479Zm-2.075,14.31a1.778,1.778,0,0,1-1.563-.514,2.578,2.578,0,0,1-.61-1.871,3.084,3.084,0,0,1,.61-2,2.282,2.282,0,0,1,1.563-.866,1.8,1.8,0,0,1,1.562.5,2.538,2.538,0,0,1,.61,1.859,3.145,3.145,0,0,1-.61,2.013,2.262,2.262,0,0,1-1.562.877h0Zm24.239-5.457a6.282,6.282,0,0,0-.989-3.622,5.373,5.373,0,0,0-2.661-2.059,7.96,7.96,0,0,0-3.7-.376,9.161,9.161,0,0,0-3.869,1.329,8.017,8.017,0,0,0-2.709,2.77,7.186,7.186,0,0,0-.989,3.693,5.98,5.98,0,0,0,1,3.45,5.718,5.718,0,0,0,2.831,2.15,9.106,9.106,0,0,0,4.248.4,8.451,8.451,0,0,0,5.834-2.828l-2.881-2.571a6.058,6.058,0,0,1-1.306.909,4.621,4.621,0,0,1-1.476.391,3.115,3.115,0,0,1-1.709-.2,1.906,1.906,0,0,1-.977-1.047l9.276-1.078q0.073-1.182.074-1.3h0Zm-7.3-2.3a1.815,1.815,0,0,1,2.148,1.534l-4.3.5a2.534,2.534,0,0,1,.732-1.4,2.415,2.415,0,0,1,1.416-.629h0Zm18.43-5.66-2.881,7.491-2.685-6.844-5.663.659,5.37,12.736,5.712-.665,5.37-13.985Zm19.918,4.351a6.282,6.282,0,0,0-.988-3.622,5.385,5.385,0,0,0-2.661-2.06,7.974,7.974,0,0,0-3.7-.376,9.176,9.176,0,0,0-3.869,1.33,8.012,8.012,0,0,0-2.71,2.77,7.186,7.186,0,0,0-.988,3.693,5.98,5.98,0,0,0,1,3.45,5.71,5.71,0,0,0,2.831,2.149,9.1,9.1,0,0,0,4.247.4,8.449,8.449,0,0,0,5.834-2.828l-2.88-2.572a5.987,5.987,0,0,1-1.306.909,4.619,4.619,0,0,1-1.477.392,3.122,3.122,0,0,1-1.708-.2,1.906,1.906,0,0,1-.977-1.047l9.276-1.079q0.073-1.18.073-1.3h0Zm-7.3-2.3a1.816,1.816,0,0,1,2.148,1.533l-4.3.5a2.528,2.528,0,0,1,.732-1.4,2.4,2.4,0,0,1,1.416-.629h0Zm9.031,8.793,5.517-.641V309.089l-5.517.642v18.123Zm15.012-1.5a9.636,9.636,0,0,0,4.016-1.359,8.029,8.029,0,0,0,2.758-2.788,7.186,7.186,0,0,0,.989-3.693,6.028,6.028,0,0,0-.989-3.463,5.662,5.662,0,0,0-2.758-2.134,8.435,8.435,0,0,0-4.016-.413,9.674,9.674,0,0,0-3.991,1.344,8.019,8.019,0,0,0-2.77,2.777,7.121,7.121,0,0,0-1,3.695,5.96,5.96,0,0,0,1,3.461,5.8,5.8,0,0,0,2.77,2.145,8.264,8.264,0,0,0,3.991.428h0Zm0-4.3a1.78,1.78,0,0,1-1.562-.515,2.578,2.578,0,0,1-.61-1.871,3.084,3.084,0,0,1,.61-2,2.282,2.282,0,0,1,1.562-.866,1.8,1.8,0,0,1,1.563.5,2.54,2.54,0,0,1,.61,1.859,3.143,3.143,0,0,1-.61,2.013,2.267,2.267,0,0,1-1.563.878h0Zm18.4-11.691a5.25,5.25,0,0,0-3.661,1.769v-1.1l-5.248.61v18.1l5.516-.641v-5.642a4.258,4.258,0,0,0,3.393.753,7.081,7.081,0,0,0,3.235-1.219,7.226,7.226,0,0,0,2.343-2.691,8.043,8.043,0,0,0,.867-3.752,6.957,6.957,0,0,0-.867-3.563,5.14,5.14,0,0,0-2.343-2.158,6,6,0,0,0-3.235-.466h0Zm-1.318,9.7a1.793,1.793,0,0,1-1.562-.5,2.531,2.531,0,0,1-.61-1.858,3.135,3.135,0,0,1,.61-2.013,2.263,2.263,0,0,1,1.562-.878,1.779,1.779,0,0,1,1.562.514,2.58,2.58,0,0,1,.611,1.871,3.085,3.085,0,0,1-.611,2,2.275,2.275,0,0,1-1.562.865h0Zm23.7-5.394a6.279,6.279,0,0,0-.988-3.622,5.375,5.375,0,0,0-2.661-2.06,7.961,7.961,0,0,0-3.7-.376,9.175,9.175,0,0,0-3.869,1.329,8.02,8.02,0,0,0-2.71,2.77,7.186,7.186,0,0,0-.988,3.693,5.98,5.98,0,0,0,1,3.45,5.712,5.712,0,0,0,2.831,2.15,9.1,9.1,0,0,0,4.248.4,8.457,8.457,0,0,0,5.834-2.828L667.476,317a6.058,6.058,0,0,1-1.306.909,4.645,4.645,0,0,1-1.477.392,3.121,3.121,0,0,1-1.708-.2,1.9,1.9,0,0,1-.977-1.046l9.276-1.079q0.073-1.181.073-1.3h0Zm-7.3-2.3a1.813,1.813,0,0,1,2.148,1.533l-4.3.5a2.534,2.534,0,0,1,.732-1.405,2.408,2.408,0,0,1,1.416-.628h0Zm14.28-3.737v-1.441l-5.249.61v13.361l5.517-.642v-5.935a2.882,2.882,0,0,1,2.832-3.212,8.375,8.375,0,0,1,1.22-.044v-4.885a6.127,6.127,0,0,0-4.32,2.188h0Zm30.219,0.149-4.418-.805a10.381,10.381,0,0,1-.659,2.3l-1.807-1.329a8,8,0,0,0,2.234-2.128,4.273,4.273,0,0,0,.72-2.392,3.466,3.466,0,0,0-.708-2.2,3.79,3.79,0,0,0-1.989-1.283,7.451,7.451,0,0,0-2.966-.18,8.889,8.889,0,0,0-3.222.961,5.971,5.971,0,0,0-2.161,1.875,4.339,4.339,0,0,0-.769,2.5,4.207,4.207,0,0,0,1.465,3.1,8.547,8.547,0,0,0-2.514,2.43,5.305,5.305,0,0,0-.806,2.89,3.476,3.476,0,0,0,.928,2.432,5.306,5.306,0,0,0,2.551,1.475,9.378,9.378,0,0,0,3.649.222,11.453,11.453,0,0,0,5.712-2.3L705.6,317.7l2.954-3.69-1.611-1.18a13.2,13.2,0,0,0,1.611-4.047h0Zm-9.569-4.456a1,1,0,0,1,.757.156,0.727,0.727,0,0,1,.268.6,2.374,2.374,0,0,1-1.342,1.622,3.628,3.628,0,0,1-.671-0.68,1.026,1.026,0,0,1-.184-0.589,1.01,1.01,0,0,1,.306-0.744,1.417,1.417,0,0,1,.866-0.369h0ZM698.5,314.5a2.469,2.469,0,0,1-1.575-.232,1.094,1.094,0,0,1-.573-0.984,2.272,2.272,0,0,1,.952-1.747l3.124,2.323a5.211,5.211,0,0,1-1.928.64h0Zm28.584-17.736v5.667a4.256,4.256,0,0,0-3.393-.753,7.079,7.079,0,0,0-3.235,1.218,7.232,7.232,0,0,0-2.343,2.691,8.05,8.05,0,0,0-.867,3.753,6.957,6.957,0,0,0,.867,3.563,5.127,5.127,0,0,0,2.343,2.157,6,6,0,0,0,3.235.467,5.252,5.252,0,0,0,3.661-1.769v1.1l5.248-.611V296.118ZM725.01,311.07a1.776,1.776,0,0,1-1.562-.515,2.576,2.576,0,0,1-.611-1.871,3.084,3.084,0,0,1,.611-2,2.278,2.278,0,0,1,1.562-.866,1.8,1.8,0,0,1,1.562.5,2.536,2.536,0,0,1,.61,1.859,3.137,3.137,0,0,1-.61,2.013,2.267,2.267,0,0,1-1.562.878h0Zm24.239-5.457a6.28,6.28,0,0,0-.989-3.622,5.369,5.369,0,0,0-2.661-2.06,7.958,7.958,0,0,0-3.7-.376,9.166,9.166,0,0,0-3.869,1.329,8.017,8.017,0,0,0-2.709,2.77,7.186,7.186,0,0,0-.989,3.693,5.98,5.98,0,0,0,1,3.45,5.71,5.71,0,0,0,2.832,2.15,9.087,9.087,0,0,0,4.247.4,8.451,8.451,0,0,0,5.834-2.828l-2.88-2.571a6.107,6.107,0,0,1-1.306.909,4.62,4.62,0,0,1-1.477.391,3.115,3.115,0,0,1-1.709-.2A1.9,1.9,0,0,1,739.9,308l9.275-1.079q0.074-1.182.074-1.3h0Zm-7.3-2.3a1.813,1.813,0,0,1,2.148,1.533l-4.3.5a2.54,2.54,0,0,1,.732-1.4,2.408,2.408,0,0,1,1.416-.628h0Zm14.256,8.429a11.2,11.2,0,0,0,3.783-1.05,6.21,6.21,0,0,0,2.344-1.909,4.06,4.06,0,0,0,.781-2.363,3.088,3.088,0,0,0-.867-2.415,3.877,3.877,0,0,0-2-.964,18.023,18.023,0,0,0-2.77-.191,10.68,10.68,0,0,1-1.538-.077,0.451,0.451,0,0,1-.488-0.4q0-.636,1.806-0.845a7.317,7.317,0,0,1,3.857.528l1.513-3.815a8.232,8.232,0,0,0-2.477-.53,15.307,15.307,0,0,0-2.966.064,10.937,10.937,0,0,0-3.723,1.043,6.213,6.213,0,0,0-2.331,1.908,4.121,4.121,0,0,0-.781,2.411,3.088,3.088,0,0,0,.867,2.415,3.791,3.791,0,0,0,2.014.951,19.732,19.732,0,0,0,2.782.177,12.2,12.2,0,0,1,1.55.064,0.431,0.431,0,0,1,.476.384,0.6,0.6,0,0,1-.378.52,4.078,4.078,0,0,1-1.33.314,9.956,9.956,0,0,1-2.466-.031,7.128,7.128,0,0,1-2.2-.624l-1.513,3.815a8.754,8.754,0,0,0,2.685.641,15.319,15.319,0,0,0,3.369-.026h0Zm8.567-1.24,5.517-.642V296.5l-5.517.642V310.5Zm2.759-14.757a3.883,3.883,0,0,0,2.416-1.1,3.028,3.028,0,0,0,.9-2.193,2.146,2.146,0,0,0-.9-1.849,3.347,3.347,0,0,0-2.416-.476,3.965,3.965,0,0,0-2.405,1.073,2.881,2.881,0,0,0-.915,2.122,2.251,2.251,0,0,0,.915,1.908,3.242,3.242,0,0,0,2.405.514h0Zm14.865-.654V296.6q-1.221-1.617-3.954-1.3a7.288,7.288,0,0,0-3.186,1.164A7.151,7.151,0,0,0,772.9,299a6.982,6.982,0,0,0-.879,3.473,5.961,5.961,0,0,0,.879,3.281,5.076,5.076,0,0,0,2.355,2,6.211,6.211,0,0,0,3.186.423,5.256,5.256,0,0,0,3.686-1.845v0.244a3.015,3.015,0,0,1-.757,2.164,3.853,3.853,0,0,1-2.417.99,7.552,7.552,0,0,1-2.294-.1,5.619,5.619,0,0,1-1.978-.723l-1.855,3.978a8.451,8.451,0,0,0,2.954.89,15.3,15.3,0,0,0,3.735-.007,9.677,9.677,0,0,0,6.017-2.617,8.193,8.193,0,0,0,2.111-5.974v-10.7Zm-2.49,8.619a2.128,2.128,0,0,1-1.635-.408,1.772,1.772,0,0,1-.659-1.475,2.219,2.219,0,0,1,.647-1.614,2.657,2.657,0,0,1,1.647-.778,2.12,2.12,0,0,1,1.623.4,1.756,1.756,0,0,1,.647,1.463,2.266,2.266,0,0,1-.647,1.627,2.593,2.593,0,0,1-1.623.787h0Zm19.455-10.836a6.675,6.675,0,0,0-2.221.649,5.981,5.981,0,0,0-1.807,1.383v-1.319l-5.248.61v13.361l5.517-.642v-6.277a3.314,3.314,0,0,1,.573-2.107,2.18,2.18,0,0,1,1.5-.821q1.635-.19,1.635,2.105v6.669l5.517-.642V298.22q0-3-1.5-4.32a4.895,4.895,0,0,0-3.967-1.028h0Zm22.311,4.317a6.282,6.282,0,0,0-.989-3.622,5.381,5.381,0,0,0-2.661-2.06,7.96,7.96,0,0,0-3.7-.375,9.161,9.161,0,0,0-3.869,1.329,8.017,8.017,0,0,0-2.709,2.77,7.186,7.186,0,0,0-.989,3.693,5.98,5.98,0,0,0,1,3.45,5.718,5.718,0,0,0,2.831,2.15,9.106,9.106,0,0,0,4.248.4,8.451,8.451,0,0,0,5.834-2.828l-2.881-2.571a6.058,6.058,0,0,1-1.306.909,4.621,4.621,0,0,1-1.476.391,3.115,3.115,0,0,1-1.709-.2,1.9,1.9,0,0,1-.976-1.047l9.275-1.079q0.073-1.181.074-1.3h0Zm-7.3-2.3a1.815,1.815,0,0,1,2.148,1.534l-4.3.5a2.54,2.54,0,0,1,.732-1.4,2.409,2.409,0,0,1,1.416-.629h0Zm14.28-3.737v-1.441l-5.248.611v13.36l5.516-.641V297.1a2.88,2.88,0,0,1,2.832-3.211,8.237,8.237,0,0,1,1.22-.044v-4.885a6.126,6.126,0,0,0-4.32,2.187h0Zm8.128,11.219a3.585,3.585,0,0,0,2.307-1.16,3.414,3.414,0,0,0,.916-2.39,2.644,2.644,0,0,0-.916-2.153,2.925,2.925,0,0,0-2.307-.6,3.639,3.639,0,0,0-2.306,1.136,3.323,3.323,0,0,0-.916,2.365,2.714,2.714,0,0,0,.916,2.178,2.874,2.874,0,0,0,2.306.623h0Z" transform="translate(-360.188 -241.5)"/>
  <path id="is_a_highly_creative_self-starter_that_loves_making_projects_th" data-name="is a highly creative self-starter that loves making projects th" class="cls-1" d="M362.811,555.937l5.371-.626V541.949l-5.371.626v13.362Zm2.686-14.75a3.729,3.729,0,0,0,2.353-1.092,3.064,3.064,0,0,0,.879-2.191,2.174,2.174,0,0,0-.879-1.852,3.206,3.206,0,0,0-2.353-.483,3.808,3.808,0,0,0-2.341,1.067,2.908,2.908,0,0,0-.891,2.119,2.281,2.281,0,0,0,.891,1.911,3.1,3.1,0,0,0,2.341.521h0Zm9.91,13.526a10.669,10.669,0,0,0,3.683-1.04,6.055,6.055,0,0,0,2.282-1.9,4.128,4.128,0,0,0,.76-2.361,3.141,3.141,0,0,0-.844-2.417,3.742,3.742,0,0,0-1.948-.97,17.006,17.006,0,0,0-2.7-.2,10.248,10.248,0,0,1-1.5-.082,0.445,0.445,0,0,1-.475-0.4q0-.636,1.758-0.84a6.963,6.963,0,0,1,3.755.539l1.474-3.811a7.868,7.868,0,0,0-2.412-.537,14.578,14.578,0,0,0-2.888.055,10.432,10.432,0,0,0-3.624,1.033,6.052,6.052,0,0,0-2.269,1.9,4.186,4.186,0,0,0-.761,2.409,3.143,3.143,0,0,0,.844,2.418,3.652,3.652,0,0,0,1.96.956,18.471,18.471,0,0,0,2.709.185,11.722,11.722,0,0,1,1.51.069,0.426,0.426,0,0,1,.463.385,0.6,0.6,0,0,1-.368.52,3.912,3.912,0,0,1-1.3.309,9.393,9.393,0,0,1-2.4-.037,6.818,6.818,0,0,1-2.139-.631l-1.473,3.812a8.377,8.377,0,0,0,2.614.648,14.516,14.516,0,0,0,3.28-.016h0Zm26.746-16.967a13.487,13.487,0,0,0-3.149.77,10.6,10.6,0,0,0-2.7,1.426l1.711,3.44a5.728,5.728,0,0,1,1.544-.95,6.416,6.416,0,0,1,1.783-.488q2.185-.255,2.447,1.278l-2.162.252a8.637,8.637,0,0,0-4.468,1.546,3.891,3.891,0,0,0-1.473,3.177,3.724,3.724,0,0,0,.558,2.047,3.3,3.3,0,0,0,1.64,1.3,5.443,5.443,0,0,0,2.626.244,4.192,4.192,0,0,0,3.683-2.432v1.758l4.991-.581V543.35q0-3.273-1.806-4.638t-5.228-.966h0Zm-0.024,10.531a1.254,1.254,0,0,1-.939-0.2,0.869,0.869,0,0,1-.344-0.73q0-1.122,1.639-1.314l1.331-.155v0.928a2.143,2.143,0,0,1-.665,1.03,1.94,1.94,0,0,1-1.022.437h0Zm31-14.141a6.02,6.02,0,0,0-3.66,1.745v-5.838l-5.371.626v18.125l5.371-.626V541.89a3.359,3.359,0,0,1,.559-2.1,2.094,2.094,0,0,1,1.461-.818q1.593-.186,1.593,2.11v6.669l5.37-.626V539.5q0-3-1.461-4.324a4.679,4.679,0,0,0-3.862-1.04h0Zm7.415,12.741,5.37-.626V532.89l-5.37.626v13.361Zm2.685-14.749a3.729,3.729,0,0,0,2.353-1.092,3.064,3.064,0,0,0,.879-2.191,2.174,2.174,0,0,0-.879-1.852,3.2,3.2,0,0,0-2.353-.483,3.8,3.8,0,0,0-2.341,1.067A2.908,2.908,0,0,0,440,529.7a2.282,2.282,0,0,0,.891,1.911,3.1,3.1,0,0,0,2.341.521h0Zm14.235-.584v1.514q-1.19-1.62-3.85-1.31a6.967,6.967,0,0,0-3.1,1.156,7.119,7.119,0,0,0-3.149,6,6.1,6.1,0,0,0,.855,3.283,5,5,0,0,0,2.294,2,5.922,5.922,0,0,0,3.1.432,5.052,5.052,0,0,0,3.588-1.835v0.245a3.055,3.055,0,0,1-.736,2.162,3.692,3.692,0,0,1-2.353.982,7.173,7.173,0,0,1-2.234-.106,5.42,5.42,0,0,1-1.925-.728l-1.806,3.972a8.064,8.064,0,0,0,2.876.9,14.48,14.48,0,0,0,3.636,0,9.271,9.271,0,0,0,5.858-2.6,8.3,8.3,0,0,0,2.055-5.968v-10.7Zm-2.424,8.612a2.037,2.037,0,0,1-1.592-.413,1.8,1.8,0,0,1-.642-1.476,2.249,2.249,0,0,1,.63-1.613,2.552,2.552,0,0,1,1.6-.773,2.026,2.026,0,0,1,1.58.4,1.783,1.783,0,0,1,.63,1.466,2.287,2.287,0,0,1-.63,1.624,2.493,2.493,0,0,1-1.58.783h0Zm18.7-10.754a6.016,6.016,0,0,0-3.66,1.746V525.31l-5.371.626v18.125l5.371-.626v-6.278a3.369,3.369,0,0,1,.558-2.105,2.1,2.1,0,0,1,1.462-.817q1.591-.186,1.592,2.11v6.669l5.371-.626v-7.621q0-3-1.461-4.325a4.686,4.686,0,0,0-3.862-1.04h0Zm7.414,12.742,5.371-.626V523.393l-5.371.626v18.125Zm16.9-15.331-2.733,7.476-2.686-6.844-5.513.642,5.466,12.9a1.861,1.861,0,0,1-1.331.692,2.637,2.637,0,0,1-.986-0.08,3.018,3.018,0,0,1-.915-0.407l-1.782,3.994a4.271,4.271,0,0,0,1.746.664,7.451,7.451,0,0,0,2.2.074,7.114,7.114,0,0,0,3.732-1.486,9.039,9.039,0,0,0,2.542-3.96l5.348-14.253Zm25.487,10.636a8.328,8.328,0,0,0,4.063-1.524,6.371,6.371,0,0,0,2.329-3.178l-4.158-1.616a2.842,2.842,0,0,1-2.258,2.021,1.848,1.848,0,0,1-1.581-.5,2.517,2.517,0,0,1-.629-1.881,3.035,3.035,0,0,1,.629-2,2.341,2.341,0,0,1,1.581-.868,2.121,2.121,0,0,1,2.258,1.5l4.158-2.585a4.6,4.6,0,0,0-2.329-2.636,7.055,7.055,0,0,0-4.063-.576,9.476,9.476,0,0,0-3.957,1.34,7.943,7.943,0,0,0-2.733,2.774,7.193,7.193,0,0,0-.986,3.693,6.1,6.1,0,0,0,.986,3.476,5.637,5.637,0,0,0,2.733,2.148,8.211,8.211,0,0,0,3.957.419h0Zm12.5-13.622v-1.441l-5.11.6v13.361l5.371-.626v-5.936a2.845,2.845,0,0,1,2.757-3.2,7.827,7.827,0,0,1,1.188-.041v-4.885a5.9,5.9,0,0,0-4.206,2.175h0Zm19.2,2.99a6.419,6.419,0,0,0-.963-3.625,5.274,5.274,0,0,0-2.59-2.068,7.556,7.556,0,0,0-3.6-.386,8.75,8.75,0,0,0-3.767,1.318,7.885,7.885,0,0,0-2.638,2.762,7.32,7.32,0,0,0-.963,3.691,6.115,6.115,0,0,0,.975,3.453,5.6,5.6,0,0,0,2.757,2.158,8.646,8.646,0,0,0,4.135.409,8.118,8.118,0,0,0,5.679-2.811l-2.8-2.58a5.848,5.848,0,0,1-1.271.9,4.415,4.415,0,0,1-1.438.388,2.978,2.978,0,0,1-1.664-.209,1.894,1.894,0,0,1-.95-1.05l9.031-1.052q0.071-1.182.071-1.3h0Zm-7.106-2.323a1.841,1.841,0,0,1,1.378.316,1.954,1.954,0,0,1,.713,1.223l-4.182.488a2.542,2.542,0,0,1,.713-1.4,2.3,2.3,0,0,1,1.378-.625h0Zm14.021-5.4a13.541,13.541,0,0,0-3.148.77,10.66,10.66,0,0,0-2.7,1.426l1.711,3.44a5.775,5.775,0,0,1,1.545-.95,6.419,6.419,0,0,1,1.782-.488q2.187-.255,2.448,1.278l-2.162.252a8.634,8.634,0,0,0-4.468,1.547,3.886,3.886,0,0,0-1.474,3.176,3.722,3.722,0,0,0,.559,2.048,3.311,3.311,0,0,0,1.64,1.3,5.455,5.455,0,0,0,2.626.243,4.2,4.2,0,0,0,3.683-2.432v1.759l4.991-.582V524.7q0-3.273-1.806-4.638t-5.229-.966h0Zm-0.023,10.531a1.252,1.252,0,0,1-.939-0.2,0.869,0.869,0,0,1-.345-0.729q0-1.123,1.64-1.315l1.331-.155v0.928a2.153,2.153,0,0,1-.665,1.03,1.944,1.944,0,0,1-1.022.437h0Zm17.443-3.255a2.292,2.292,0,0,1-1.212.508,0.929,0.929,0,0,1-.808-0.248,1.236,1.236,0,0,1-.309-0.916v-3.371l2.662-.31v-4.031l-2.662.31v-3.737l-5.371.626v3.737l-1.782.208v4.03l1.782-.207v3.419a4.713,4.713,0,0,0,1.473,3.9,5.5,5.5,0,0,0,4.207.865,7.155,7.155,0,0,0,3.3-1.093Zm2.4,4.02,5.371-.626V516.406l-5.371.626v13.362Zm2.685-14.749a3.732,3.732,0,0,0,2.353-1.093,3.064,3.064,0,0,0,.879-2.191,2.174,2.174,0,0,0-.879-1.852,3.2,3.2,0,0,0-2.353-.483,3.808,3.808,0,0,0-2.34,1.067,2.907,2.907,0,0,0-.892,2.119,2.281,2.281,0,0,0,.892,1.912,3.1,3.1,0,0,0,2.34.521h0Zm14.211-.582-2.8,7.484-2.614-6.852-5.513.642,5.228,12.752,5.561-.648,5.228-13.971Zm19.155,4.436a6.421,6.421,0,0,0-.963-3.625,5.278,5.278,0,0,0-2.59-2.067,7.566,7.566,0,0,0-3.6-.387,8.751,8.751,0,0,0-3.767,1.319,7.885,7.885,0,0,0-2.638,2.762,7.319,7.319,0,0,0-.962,3.691,6.109,6.109,0,0,0,.974,3.452,5.6,5.6,0,0,0,2.757,2.158,8.633,8.633,0,0,0,4.135.41,8.127,8.127,0,0,0,5.68-2.811l-2.8-2.58a5.859,5.859,0,0,1-1.271.9,4.391,4.391,0,0,1-1.438.387,2.964,2.964,0,0,1-1.663-.209,1.89,1.89,0,0,1-.951-1.049l9.031-1.053q0.071-1.181.071-1.3h0Zm-7.106-2.323a1.854,1.854,0,0,1,1.379.316,1.963,1.963,0,0,1,.713,1.224l-4.183.487a2.552,2.552,0,0,1,.713-1.4,2.311,2.311,0,0,1,1.378-.625h0Zm26.461,7a10.668,10.668,0,0,0,3.684-1.04,6.046,6.046,0,0,0,2.281-1.9,4.116,4.116,0,0,0,.761-2.36,3.148,3.148,0,0,0-.844-2.418,3.747,3.747,0,0,0-1.949-.969,16.993,16.993,0,0,0-2.7-.2,10.248,10.248,0,0,1-1.5-.082,0.445,0.445,0,0,1-.475-0.4q0-.635,1.758-0.84a6.974,6.974,0,0,1,3.755.54l1.474-3.811a7.9,7.9,0,0,0-2.413-.538,14.647,14.647,0,0,0-2.887.056,10.411,10.411,0,0,0-3.624,1.033,6.064,6.064,0,0,0-2.27,1.9,4.19,4.19,0,0,0-.76,2.409,3.146,3.146,0,0,0,.843,2.418,3.658,3.658,0,0,0,1.961.956,18.471,18.471,0,0,0,2.709.185,11.7,11.7,0,0,1,1.509.069,0.427,0.427,0,0,1,.464.385,0.592,0.592,0,0,1-.369.519,3.867,3.867,0,0,1-1.295.31,9.349,9.349,0,0,1-2.4-.038,6.792,6.792,0,0,1-2.139-.63l-1.473,3.812a8.377,8.377,0,0,0,2.614.648,14.565,14.565,0,0,0,3.279-.016h0Zm21.935-9.494a6.429,6.429,0,0,0-.962-3.625A5.279,5.279,0,0,0,655.766,509a7.566,7.566,0,0,0-3.6-.387,8.768,8.768,0,0,0-3.767,1.318,7.9,7.9,0,0,0-2.638,2.763,7.326,7.326,0,0,0-.962,3.69,6.11,6.11,0,0,0,.974,3.453,5.6,5.6,0,0,0,2.757,2.158,8.645,8.645,0,0,0,4.135.41,8.127,8.127,0,0,0,5.68-2.812l-2.805-2.58a5.867,5.867,0,0,1-1.271.906,4.377,4.377,0,0,1-1.438.387,2.964,2.964,0,0,1-1.663-.209,1.893,1.893,0,0,1-.951-1.049l9.031-1.053q0.07-1.181.071-1.3h0Zm-7.106-2.323a1.854,1.854,0,0,1,1.379.316,1.958,1.958,0,0,1,.713,1.224l-4.183.487a2.548,2.548,0,0,1,.713-1.4,2.308,2.308,0,0,1,1.378-.625h0Zm8.556,8.847,5.371-.626V502.461l-5.371.625v18.125Zm13.308-14.2a1.847,1.847,0,0,1,.344-1.2,1.37,1.37,0,0,1,.939-0.488,2.664,2.664,0,0,1,1.212.176l1.283-3.985a4.5,4.5,0,0,0-1.426-.322,8.877,8.877,0,0,0-1.758.034,6.506,6.506,0,0,0-4.278,2.025,6.243,6.243,0,0,0-1.521,4.318v0.073l-1.782.208v4.03l1.782-.207v8.6l5.371-.626v-8.6l2.662-.311V506.7l-2.828.33v-0.025Zm3.731,7.235,7.129-.831v-4.152l-7.129.831v4.152Zm14.235,3.569a10.681,10.681,0,0,0,3.684-1.04,6.053,6.053,0,0,0,2.281-1.9,4.117,4.117,0,0,0,.76-2.36,3.148,3.148,0,0,0-.843-2.418,3.752,3.752,0,0,0-1.949-.97,17.135,17.135,0,0,0-2.7-.2,10.228,10.228,0,0,1-1.5-.082,0.446,0.446,0,0,1-.476-0.4q0-.635,1.759-0.84a6.966,6.966,0,0,1,3.755.54l1.473-3.812a7.92,7.92,0,0,0-2.412-.537,14.57,14.57,0,0,0-2.887.056,10.41,10.41,0,0,0-3.625,1.033,6.051,6.051,0,0,0-2.269,1.9,4.191,4.191,0,0,0-.761,2.409,3.148,3.148,0,0,0,.844,2.418,3.662,3.662,0,0,0,1.961.956,18.45,18.45,0,0,0,2.709.185,11.75,11.75,0,0,1,1.509.068,0.427,0.427,0,0,1,.463.386,0.593,0.593,0,0,1-.368.519,3.874,3.874,0,0,1-1.295.31,9.348,9.348,0,0,1-2.4-.038,6.792,6.792,0,0,1-2.139-.63l-1.474,3.811a8.337,8.337,0,0,0,2.614.648,14.515,14.515,0,0,0,3.28-.015h0Zm16.4-6.455a2.294,2.294,0,0,1-1.212.508,0.933,0.933,0,0,1-.808-0.248,1.237,1.237,0,0,1-.309-0.917v-3.371l2.662-.31v-4.03l-2.662.31v-3.737l-5.37.626v3.737l-1.783.208v4.03l1.783-.208v3.42a4.714,4.714,0,0,0,1.473,3.9,5.5,5.5,0,0,0,4.206.865,7.16,7.16,0,0,0,3.3-1.093Zm8.223-10.265a13.537,13.537,0,0,0-3.149.77,10.636,10.636,0,0,0-2.7,1.426l1.711,3.44a5.742,5.742,0,0,1,1.544-.949,6.429,6.429,0,0,1,1.783-.489q2.186-.255,2.448,1.278l-2.163.252a8.637,8.637,0,0,0-4.468,1.547,3.888,3.888,0,0,0-1.473,3.176,3.725,3.725,0,0,0,.558,2.048,3.305,3.305,0,0,0,1.64,1.3,5.456,5.456,0,0,0,2.626.243,4.193,4.193,0,0,0,3.684-2.432v1.759l4.99-.582V506.7q0-3.273-1.806-4.639t-5.228-.966h0Zm-0.024,10.531a1.254,1.254,0,0,1-.939-0.2,0.871,0.871,0,0,1-.344-0.729q0-1.124,1.64-1.315l1.33-.155v0.928a2.138,2.138,0,0,1-.665,1.03,1.932,1.932,0,0,1-1.022.437h0Zm14.259-10.5v-1.441l-5.11.595v13.361l5.371-.625v-5.936a2.845,2.845,0,0,1,2.757-3.2,7.959,7.959,0,0,1,1.188-.041v-4.885a5.9,5.9,0,0,0-4.206,2.176h0Zm14.14,5.973a2.3,2.3,0,0,1-1.212.508,0.934,0.934,0,0,1-.808-0.248,1.238,1.238,0,0,1-.309-0.917v-3.371l2.661-.31v-4.03l-2.661.31V495.3l-5.371.625v3.738l-1.782.208v4.03l1.782-.208v3.42a4.711,4.711,0,0,0,1.473,3.9,5.5,5.5,0,0,0,4.207.866,7.155,7.155,0,0,0,3.3-1.094Zm15.874-4.244a6.418,6.418,0,0,0-.962-3.625,5.284,5.284,0,0,0-2.59-2.068,7.572,7.572,0,0,0-3.6-.386,8.75,8.75,0,0,0-3.766,1.318,7.879,7.879,0,0,0-2.638,2.763,7.316,7.316,0,0,0-.963,3.69,6.115,6.115,0,0,0,.975,3.453,5.6,5.6,0,0,0,2.756,2.158,8.648,8.648,0,0,0,4.135.41,8.127,8.127,0,0,0,5.68-2.812l-2.8-2.58a5.87,5.87,0,0,1-1.272.906,4.4,4.4,0,0,1-1.437.387,2.968,2.968,0,0,1-1.664-.209,1.89,1.89,0,0,1-.95-1.05l9.03-1.052q0.072-1.18.071-1.3h0Zm-7.105-2.323a1.847,1.847,0,0,1,1.378.316,1.958,1.958,0,0,1,.713,1.224l-4.182.487a2.547,2.547,0,0,1,.712-1.4,2.311,2.311,0,0,1,1.379-.625h0Zm13.665-3.669v-1.441l-5.11.6v13.361l5.371-.626v-5.936a2.845,2.845,0,0,1,2.757-3.2,7.827,7.827,0,0,1,1.188-.041V494.68a5.9,5.9,0,0,0-4.206,2.175h0Zm26.6,4.521a2.294,2.294,0,0,1-1.212.508,0.936,0.936,0,0,1-.808-0.248,1.238,1.238,0,0,1-.309-0.917v-3.371l2.662-.31v-4.03l-2.662.31V489.58l-5.371.626v3.738l-1.782.207v4.031l1.782-.208v3.42a4.71,4.71,0,0,0,1.474,3.895,5.5,5.5,0,0,0,4.206.866,7.16,7.16,0,0,0,3.3-1.094Zm11.431-10.639a6.016,6.016,0,0,0-3.66,1.746v-5.838l-5.371.626V505.4l5.371-.626v-6.277a3.36,3.36,0,0,1,.559-2.105,2.094,2.094,0,0,1,1.461-.818q1.591-.185,1.592,2.111v6.668l5.371-.626V496.1q0-3-1.461-4.324a4.682,4.682,0,0,0-3.862-1.04h0Zm13.237-1.543a13.537,13.537,0,0,0-3.149.77,10.636,10.636,0,0,0-2.7,1.426l1.711,3.44a5.742,5.742,0,0,1,1.544-.949,6.463,6.463,0,0,1,1.783-.489q2.186-.255,2.448,1.278l-2.163.252a8.646,8.646,0,0,0-4.468,1.547,3.888,3.888,0,0,0-1.473,3.176,3.725,3.725,0,0,0,.558,2.048,3.3,3.3,0,0,0,1.64,1.3,5.455,5.455,0,0,0,2.626.244,4.2,4.2,0,0,0,3.684-2.433v1.759l4.99-.582V494.8q0-3.273-1.806-4.638t-5.228-.967h0Zm-0.024,10.531a1.254,1.254,0,0,1-.939-0.2,0.87,0.87,0,0,1-.344-0.729q0-1.124,1.64-1.315l1.33-.155v0.928a2.134,2.134,0,0,1-.665,1.03,1.932,1.932,0,0,1-1.022.437h0Zm17.443-3.254a2.294,2.294,0,0,1-1.212.508,0.936,0.936,0,0,1-.808-0.248,1.238,1.238,0,0,1-.309-0.917v-3.371l2.662-.31V488.1l-2.662.31v-3.738l-5.37.626v3.738l-1.783.207v4.031l1.783-.208v3.42a4.709,4.709,0,0,0,1.473,3.9,5.5,5.5,0,0,0,4.206.866,7.16,7.16,0,0,0,3.3-1.094Zm-473.351,92.2,5.371-.626V569.917l-5.371.626v18.125Zm14.378-1.432a9.162,9.162,0,0,0,3.909-1.347,7.9,7.9,0,0,0,2.686-2.78,7.327,7.327,0,0,0,.962-3.691,6.169,6.169,0,0,0-.962-3.466,5.567,5.567,0,0,0-2.686-2.142,8.027,8.027,0,0,0-3.909-.424,9.228,9.228,0,0,0-3.886,1.333,7.9,7.9,0,0,0-2.7,2.769,7.255,7.255,0,0,0-.974,3.692,6.1,6.1,0,0,0,.974,3.465,5.7,5.7,0,0,0,2.7,2.153,7.847,7.847,0,0,0,3.886.438h0Zm0-4.3a1.707,1.707,0,0,1-1.521-.519,2.628,2.628,0,0,1-.594-1.872,3.136,3.136,0,0,1,.594-2,2.2,2.2,0,0,1,1.521-.861,1.724,1.724,0,0,1,1.521.506,2.585,2.585,0,0,1,.594,1.861,3.19,3.19,0,0,1-.594,2.011,2.182,2.182,0,0,1-1.521.873h0Zm18.037-11.408-2.8,7.483-2.614-6.852-5.513.643,5.228,12.752,5.561-.648,5.228-13.971Zm19.155,4.436a6.419,6.419,0,0,0-.963-3.625,5.274,5.274,0,0,0-2.59-2.068,7.556,7.556,0,0,0-3.6-.386,8.75,8.75,0,0,0-3.767,1.318,7.885,7.885,0,0,0-2.638,2.762,7.32,7.32,0,0,0-.963,3.691,6.115,6.115,0,0,0,.975,3.453,5.6,5.6,0,0,0,2.757,2.158,8.646,8.646,0,0,0,4.135.409,8.118,8.118,0,0,0,5.679-2.811l-2.8-2.58a5.848,5.848,0,0,1-1.271.905,4.415,4.415,0,0,1-1.438.388,2.978,2.978,0,0,1-1.664-.209,1.894,1.894,0,0,1-.95-1.05l9.03-1.052q0.072-1.182.072-1.3h0Zm-7.106-2.323a1.846,1.846,0,0,1,1.378.315,1.959,1.959,0,0,1,.713,1.224l-4.182.488a2.542,2.542,0,0,1,.713-1.4,2.3,2.3,0,0,1,1.378-.625h0Zm13.641,8.5a10.668,10.668,0,0,0,3.684-1.04,6.052,6.052,0,0,0,2.281-1.9,4.118,4.118,0,0,0,.761-2.36,3.148,3.148,0,0,0-.844-2.418,3.745,3.745,0,0,0-1.949-.97,17,17,0,0,0-2.7-.2,10.087,10.087,0,0,1-1.5-.082,0.445,0.445,0,0,1-.476-0.4q0-.635,1.759-0.84a6.965,6.965,0,0,1,3.755.539l1.473-3.811a7.883,7.883,0,0,0-2.412-.537,14.644,14.644,0,0,0-2.887.055,10.4,10.4,0,0,0-3.624,1.034,6.047,6.047,0,0,0-2.27,1.9,4.19,4.19,0,0,0-.76,2.409,3.144,3.144,0,0,0,.843,2.417,3.663,3.663,0,0,0,1.961.957,18.59,18.59,0,0,0,2.709.185,11.75,11.75,0,0,1,1.509.068,0.426,0.426,0,0,1,.463.386,0.591,0.591,0,0,1-.368.519,3.874,3.874,0,0,1-1.295.31,9.393,9.393,0,0,1-2.4-.038,6.845,6.845,0,0,1-2.139-.63l-1.474,3.811a8.392,8.392,0,0,0,2.615.648,14.449,14.449,0,0,0,3.279-.016h0Zm33.624-17.768a6.184,6.184,0,0,0-2.448.81,6.276,6.276,0,0,0-1.9,1.724,3.52,3.52,0,0,0-1.712-1.327,5.1,5.1,0,0,0-2.352-.227,5.586,5.586,0,0,0-3.684,1.919v-1.245l-5.109.6v13.362l5.371-.626v-6.522a3.253,3.253,0,0,1,.463-1.911,1.7,1.7,0,0,1,1.224-.729q1.449-.168,1.45,2.128v6.668l5.37-.626v-6.522a3.251,3.251,0,0,1,.464-1.91,1.7,1.7,0,0,1,1.224-.729q1.449-.169,1.449,2.127V578l5.371-.626v-7.622q0-3-1.414-4.329a4.472,4.472,0,0,0-3.766-1.051h0Zm13.094-1.526a13.437,13.437,0,0,0-3.149.77,10.6,10.6,0,0,0-2.7,1.425l1.711,3.441a5.728,5.728,0,0,1,1.544-.95,6.454,6.454,0,0,1,1.783-.489q2.185-.253,2.448,1.278l-2.163.253a8.637,8.637,0,0,0-4.468,1.546,3.889,3.889,0,0,0-1.473,3.176,3.725,3.725,0,0,0,.558,2.048,3.3,3.3,0,0,0,1.64,1.3,5.443,5.443,0,0,0,2.626.244,4.194,4.194,0,0,0,3.684-2.433v1.759l4.99-.582V568.45q0-3.273-1.806-4.638t-5.228-.966h0Zm-0.024,10.53a1.254,1.254,0,0,1-.939-0.2,0.866,0.866,0,0,1-.344-0.729q0-1.124,1.64-1.315l1.33-.155v0.928a2.142,2.142,0,0,1-.665,1.031,1.931,1.931,0,0,1-1.022.436h0Zm18.536,0.918,6.488-.756-5.8-6.9,5.37-6.415-6.345.74-3.731,4.318v-8.647l-5.371.626v18.125l5.371-.626v-3.151l0.856-1.053Zm7.32-.853,5.371-.626V559.453l-5.371.626v13.362Zm2.685-14.75A3.724,3.724,0,0,0,498.5,557.6a3.064,3.064,0,0,0,.879-2.191,2.174,2.174,0,0,0-.879-1.852,3.2,3.2,0,0,0-2.353-.483,3.808,3.808,0,0,0-2.34,1.067,2.907,2.907,0,0,0-.892,2.119,2.278,2.278,0,0,0,.892,1.911,3.093,3.093,0,0,0,2.34.521h0Zm13.855-.784a6.38,6.38,0,0,0-2.163.643,5.83,5.83,0,0,0-1.758,1.378v-1.319l-5.11.595v13.362l5.371-.626v-6.278a3.362,3.362,0,0,1,.559-2.105,2.1,2.1,0,0,1,1.461-.817q1.592-.186,1.592,2.11v6.669l5.371-.626v-7.622q0-3-1.461-4.324a4.686,4.686,0,0,0-3.862-1.04h0Zm17.063-1.744v1.514q-1.188-1.62-3.85-1.31a6.967,6.967,0,0,0-3.1,1.156,7.119,7.119,0,0,0-3.149,6,6.1,6.1,0,0,0,.855,3.283,5,5,0,0,0,2.294,2,5.9,5.9,0,0,0,3.1.432,5.054,5.054,0,0,0,3.589-1.835v0.245a3.056,3.056,0,0,1-.737,2.162,3.689,3.689,0,0,1-2.353.982,7.173,7.173,0,0,1-2.234-.106,5.4,5.4,0,0,1-1.925-.728l-1.806,3.972a8.07,8.07,0,0,0,2.876.9,14.48,14.48,0,0,0,3.636,0,9.271,9.271,0,0,0,5.858-2.6,8.3,8.3,0,0,0,2.055-5.968v-10.7Zm-2.424,8.612a2.033,2.033,0,0,1-1.592-.413,1.8,1.8,0,0,1-.642-1.476,2.245,2.245,0,0,1,.63-1.612,2.548,2.548,0,0,1,1.6-.774,2.034,2.034,0,0,1,1.58.4,1.783,1.783,0,0,1,.63,1.466,2.287,2.287,0,0,1-.63,1.624,2.488,2.488,0,0,1-1.58.783h0Zm26.661-11.681a5.049,5.049,0,0,0-3.565,1.759v-1.1l-5.11.6v18.1l5.371-.626v-5.643a4.069,4.069,0,0,0,3.3.763,6.755,6.755,0,0,0,3.148-1.21,7.137,7.137,0,0,0,2.282-2.684,8.219,8.219,0,0,0,.843-3.75,7.132,7.132,0,0,0-.843-3.566,5.075,5.075,0,0,0-2.282-2.164,5.708,5.708,0,0,0-3.148-.476h0Zm-1.284,9.7a1.722,1.722,0,0,1-1.521-.507,2.585,2.585,0,0,1-.594-1.861,3.19,3.19,0,0,1,.594-2.011,2.182,2.182,0,0,1,1.521-.873,1.707,1.707,0,0,1,1.521.519,2.629,2.629,0,0,1,.594,1.872,3.136,3.136,0,0,1-.594,2,2.194,2.194,0,0,1-1.521.862h0Zm14.116-9.511v-1.441l-5.109.6V565.8l5.371-.626v-5.936a2.846,2.846,0,0,1,2.757-3.2,7.965,7.965,0,0,1,1.188-.04v-4.886a5.9,5.9,0,0,0-4.207,2.176h0Zm12.239,10.738a9.189,9.189,0,0,0,3.91-1.347,7.893,7.893,0,0,0,2.685-2.78,7.317,7.317,0,0,0,.963-3.691,6.16,6.16,0,0,0-.963-3.466,5.553,5.553,0,0,0-2.685-2.142,8.006,8.006,0,0,0-3.91-.424,9.223,9.223,0,0,0-3.885,1.332,7.878,7.878,0,0,0-2.7,2.77,7.256,7.256,0,0,0-.975,3.692,6.1,6.1,0,0,0,.975,3.465,5.693,5.693,0,0,0,2.7,2.152,7.855,7.855,0,0,0,3.885.439h0Zm0-4.3a1.706,1.706,0,0,1-1.52-.519,2.626,2.626,0,0,1-.6-1.873,3.134,3.134,0,0,1,.6-2,2.2,2.2,0,0,1,1.52-.861,1.722,1.722,0,0,1,1.521.507,2.584,2.584,0,0,1,.6,1.86,3.193,3.193,0,0,1-.6,2.012,2.182,2.182,0,0,1-1.521.873h0Zm8.888,8a6.017,6.017,0,0,0,5.68-6.329V548.719l-5.371.625v12.629a1.974,1.974,0,0,1-.309,1.2,1.134,1.134,0,0,1-.808.473,2.3,2.3,0,0,1-1.212-.176l-1.283,3.985a6.7,6.7,0,0,0,3.3.274h0Zm3-19.768a3.73,3.73,0,0,0,2.352-1.093,3.063,3.063,0,0,0,.88-2.191,2.173,2.173,0,0,0-.88-1.851,3.193,3.193,0,0,0-2.352-.483,3.8,3.8,0,0,0-2.341,1.066,2.91,2.91,0,0,0-.891,2.119,2.283,2.283,0,0,0,.891,1.912,3.1,3.1,0,0,0,2.341.521h0Zm18.655,5.569a6.426,6.426,0,0,0-.962-3.625,5.286,5.286,0,0,0-2.591-2.068,7.554,7.554,0,0,0-3.6-.386A8.755,8.755,0,0,0,596,548.765a7.885,7.885,0,0,0-2.638,2.762,7.332,7.332,0,0,0-.962,3.691,6.115,6.115,0,0,0,.974,3.453,5.61,5.61,0,0,0,2.757,2.158,8.658,8.658,0,0,0,4.135.41,8.127,8.127,0,0,0,5.68-2.812l-2.8-2.58a5.851,5.851,0,0,1-1.272.9,4.4,4.4,0,0,1-1.438.388,2.973,2.973,0,0,1-1.663-.209,1.892,1.892,0,0,1-.951-1.05l9.031-1.052q0.07-1.18.071-1.3h0Zm-7.106-2.323a1.849,1.849,0,0,1,1.379.316,1.959,1.959,0,0,1,.713,1.223l-4.183.488a2.548,2.548,0,0,1,.713-1.4,2.308,2.308,0,0,1,1.378-.625h0Zm15.543,8.277a8.328,8.328,0,0,0,4.063-1.524,6.371,6.371,0,0,0,2.329-3.178l-4.158-1.616a2.842,2.842,0,0,1-2.258,2.021,1.845,1.845,0,0,1-1.58-.5,2.513,2.513,0,0,1-.63-1.881,3.03,3.03,0,0,1,.63-2,2.341,2.341,0,0,1,1.58-.868,2.121,2.121,0,0,1,2.258,1.5l4.158-2.585a4.594,4.594,0,0,0-2.329-2.635,7.047,7.047,0,0,0-4.063-.577,9.49,9.49,0,0,0-3.957,1.34,7.943,7.943,0,0,0-2.733,2.774,7.193,7.193,0,0,0-.986,3.693,6.1,6.1,0,0,0,.986,3.476,5.645,5.645,0,0,0,2.733,2.149,8.211,8.211,0,0,0,3.957.418h0Zm15.922-6.4a2.291,2.291,0,0,1-1.212.507,0.931,0.931,0,0,1-.808-0.247,1.238,1.238,0,0,1-.309-0.917v-3.371l2.661-.31v-4.031l-2.661.311v-3.738l-5.371.626v3.738l-1.782.207v4.031l1.782-.208v3.42a4.712,4.712,0,0,0,1.473,3.895,5.506,5.506,0,0,0,4.207.866,7.155,7.155,0,0,0,3.3-1.094Zm7.485,3.671a10.668,10.668,0,0,0,3.684-1.04,6.046,6.046,0,0,0,2.281-1.9,4.116,4.116,0,0,0,.761-2.36,3.148,3.148,0,0,0-.844-2.418,3.748,3.748,0,0,0-1.948-.969,17.016,17.016,0,0,0-2.7-.2,10.248,10.248,0,0,1-1.5-.082,0.445,0.445,0,0,1-.475-0.4q0-.635,1.758-0.84a6.974,6.974,0,0,1,3.755.54l1.474-3.811a7.9,7.9,0,0,0-2.413-.538,14.571,14.571,0,0,0-2.887.056,10.411,10.411,0,0,0-3.624,1.033,6.064,6.064,0,0,0-2.27,1.9,4.19,4.19,0,0,0-.76,2.409,3.144,3.144,0,0,0,.844,2.418,3.652,3.652,0,0,0,1.96.956,18.471,18.471,0,0,0,2.709.185,11.7,11.7,0,0,1,1.509.069,0.427,0.427,0,0,1,.464.385,0.592,0.592,0,0,1-.369.519,3.867,3.867,0,0,1-1.295.31,9.349,9.349,0,0,1-2.4-.038,6.792,6.792,0,0,1-2.139-.63l-1.473,3.812a8.377,8.377,0,0,0,2.614.648,14.565,14.565,0,0,0,3.279-.016h0Zm24.712-7.424a2.3,2.3,0,0,1-1.212.508,0.932,0.932,0,0,1-.808-0.248,1.236,1.236,0,0,1-.309-0.916V545.3l2.662-.311v-4.03l-2.662.31v-3.737l-5.371.626V541.9l-1.782.208v4.03l1.782-.207v3.419a4.712,4.712,0,0,0,1.474,3.9,5.5,5.5,0,0,0,4.206.865,7.155,7.155,0,0,0,3.3-1.093ZM674.9,538.69a6.015,6.015,0,0,0-3.66,1.745V534.6l-5.371.626v18.125l5.371-.626v-6.278a3.369,3.369,0,0,1,.558-2.1,2.1,2.1,0,0,1,1.462-.817q1.591-.186,1.592,2.11V552.3l5.371-.626v-7.621q0-3-1.462-4.324a4.676,4.676,0,0,0-3.861-1.04h0Zm13.237-1.543a13.487,13.487,0,0,0-3.149.77,10.628,10.628,0,0,0-2.7,1.426l1.712,3.44a5.728,5.728,0,0,1,1.544-.95,6.416,6.416,0,0,1,1.783-.488q2.185-.255,2.447,1.278l-2.162.252a8.637,8.637,0,0,0-4.468,1.546,3.891,3.891,0,0,0-1.473,3.177,3.724,3.724,0,0,0,.558,2.047,3.3,3.3,0,0,0,1.64,1.3,5.443,5.443,0,0,0,2.626.244,4.192,4.192,0,0,0,3.683-2.432v1.758l4.991-.581v-7.182q0-3.273-1.806-4.638t-5.228-.966h0Zm-0.024,10.531a1.254,1.254,0,0,1-.939-0.2,0.869,0.869,0,0,1-.344-0.73q0-1.122,1.639-1.314l1.331-.155v0.928a2.143,2.143,0,0,1-.665,1.03,1.94,1.94,0,0,1-1.022.437h0Zm17.443-3.255a2.3,2.3,0,0,1-1.212.508,0.932,0.932,0,0,1-.808-0.248,1.236,1.236,0,0,1-.309-0.916V540.4l2.662-.311v-4.03l-2.662.31v-3.737l-5.371.626v3.737l-1.782.208v4.03l1.782-.207v3.419a4.712,4.712,0,0,0,1.474,3.9,5.5,5.5,0,0,0,4.206.865,7.155,7.155,0,0,0,3.3-1.093Zm24.545-5.254a6.418,6.418,0,0,0-.962-3.625,5.284,5.284,0,0,0-2.59-2.068,7.56,7.56,0,0,0-3.6-.386,8.746,8.746,0,0,0-3.766,1.318,7.884,7.884,0,0,0-2.638,2.762,7.323,7.323,0,0,0-.963,3.691,6.115,6.115,0,0,0,.975,3.453,5.6,5.6,0,0,0,2.756,2.158,8.659,8.659,0,0,0,4.135.41,8.127,8.127,0,0,0,5.68-2.812l-2.8-2.58a5.894,5.894,0,0,1-1.272.906,4.428,4.428,0,0,1-1.437.387,2.975,2.975,0,0,1-1.664-.209,1.89,1.89,0,0,1-.95-1.05l9.03-1.052q0.072-1.181.071-1.3h0Zm-7.1-2.323a1.848,1.848,0,0,1,1.378.316,1.959,1.959,0,0,1,.713,1.223l-4.183.488a2.555,2.555,0,0,1,.713-1.4,2.311,2.311,0,0,1,1.379-.625h0Zm17.586-5.811a6.351,6.351,0,0,0-2.163.643,5.814,5.814,0,0,0-1.758,1.377v-1.319l-5.11.6v13.362l5.371-.626v-6.278a3.366,3.366,0,0,1,.558-2.1,2.1,2.1,0,0,1,1.462-.818q1.591-.186,1.592,2.11v6.669l5.371-.626V536.4q0-3-1.461-4.324a4.679,4.679,0,0,0-3.862-1.04h0Zm17.063-1.745V530.8q-1.19-1.62-3.85-1.31a6.962,6.962,0,0,0-3.1,1.155,7.125,7.125,0,0,0-3.148,6,6.1,6.1,0,0,0,.855,3.284,5,5,0,0,0,2.293,2,5.917,5.917,0,0,0,3.1.433,5.056,5.056,0,0,0,3.588-1.835v0.244a3.058,3.058,0,0,1-.736,2.162,3.7,3.7,0,0,1-2.353.983,7.2,7.2,0,0,1-2.234-.106,5.413,5.413,0,0,1-1.925-.729l-1.806,3.973a8.065,8.065,0,0,0,2.875.9,14.478,14.478,0,0,0,3.636,0,9.272,9.272,0,0,0,5.858-2.6,8.3,8.3,0,0,0,2.056-5.967V528.7Zm-2.424,8.612a2.037,2.037,0,0,1-1.593-.413,1.8,1.8,0,0,1-.641-1.476,2.247,2.247,0,0,1,.63-1.612,2.542,2.542,0,0,1,1.6-.773,2.026,2.026,0,0,1,1.58.4,1.781,1.781,0,0,1,.63,1.465,2.291,2.291,0,0,1-.63,1.625,2.487,2.487,0,0,1-1.58.782h0Zm15.494-10.379a13.511,13.511,0,0,0-3.149.77,10.638,10.638,0,0,0-2.7,1.426l1.711,3.44a5.75,5.75,0,0,1,1.545-.95,6.419,6.419,0,0,1,1.782-.488q2.187-.255,2.448,1.278l-2.163.252a8.633,8.633,0,0,0-4.467,1.546,3.888,3.888,0,0,0-1.474,3.177,3.717,3.717,0,0,0,.559,2.047,3.3,3.3,0,0,0,1.64,1.3,5.44,5.44,0,0,0,2.626.244,4.2,4.2,0,0,0,3.683-2.432v1.758l4.991-.581v-7.182q0-3.273-1.806-4.638t-5.229-.966h0Zm-0.023,10.53a1.247,1.247,0,0,1-.939-0.2,0.87,0.87,0,0,1-.345-0.73q0-1.124,1.64-1.314l1.331-.156v0.929a2.152,2.152,0,0,1-.666,1.03,1.928,1.928,0,0,1-1.021.436h0Zm18.8-12.474v1.514q-1.188-1.62-3.85-1.31a6.967,6.967,0,0,0-3.1,1.156,7.126,7.126,0,0,0-3.149,6,6.1,6.1,0,0,0,.856,3.284,5,5,0,0,0,2.293,2,5.9,5.9,0,0,0,3.1.432,5.054,5.054,0,0,0,3.589-1.835v0.245a3.056,3.056,0,0,1-.737,2.162,3.687,3.687,0,0,1-2.353.982,7.174,7.174,0,0,1-2.234-.106,5.388,5.388,0,0,1-1.924-.728l-1.807,3.972a8.07,8.07,0,0,0,2.876.9,14.481,14.481,0,0,0,3.636,0,9.269,9.269,0,0,0,5.858-2.6,8.3,8.3,0,0,0,2.056-5.968v-10.7Zm-2.424,8.612a2.035,2.035,0,0,1-1.592-.413,1.8,1.8,0,0,1-.642-1.476,2.245,2.245,0,0,1,.63-1.612,2.551,2.551,0,0,1,1.6-.774,2.035,2.035,0,0,1,1.581.4,1.785,1.785,0,0,1,.629,1.466,2.29,2.29,0,0,1-.629,1.624,2.488,2.488,0,0,1-1.581.783h0Zm23.5-4.4a6.419,6.419,0,0,0-.963-3.625,5.284,5.284,0,0,0-2.59-2.068,7.56,7.56,0,0,0-3.6-.386,8.75,8.75,0,0,0-3.766,1.318,7.876,7.876,0,0,0-2.638,2.762,7.323,7.323,0,0,0-.963,3.691,6.115,6.115,0,0,0,.975,3.453,5.6,5.6,0,0,0,2.756,2.158,8.66,8.66,0,0,0,4.135.41,8.123,8.123,0,0,0,5.68-2.812l-2.8-2.58a5.848,5.848,0,0,1-1.271.905,4.415,4.415,0,0,1-1.438.388,2.976,2.976,0,0,1-1.664-.209,1.894,1.894,0,0,1-.95-1.05l9.03-1.052q0.072-1.181.072-1.3h0Zm-7.106-2.323a1.847,1.847,0,0,1,1.378.316,1.954,1.954,0,0,1,.713,1.223l-4.182.488a2.542,2.542,0,0,1,.713-1.4,2.305,2.305,0,0,1,1.378-.625h0Zm33.434-2.309-4.3-.818a10.455,10.455,0,0,1-.642,2.3L830.2,525.3a7.856,7.856,0,0,0,2.174-2.122,4.35,4.35,0,0,0,.7-2.39,3.539,3.539,0,0,0-.689-2.2,3.7,3.7,0,0,0-1.937-1.288,7.089,7.089,0,0,0-2.887-.189,8.49,8.49,0,0,0-3.137.952,5.837,5.837,0,0,0-2.1,1.869,4.41,4.41,0,0,0-.749,2.494A4.267,4.267,0,0,0,823,525.534a8.392,8.392,0,0,0-2.448,2.422,5.405,5.405,0,0,0-.784,2.889,3.547,3.547,0,0,0,.9,2.435,5.158,5.158,0,0,0,2.484,1.481,8.884,8.884,0,0,0,3.552.233,10.954,10.954,0,0,0,5.561-2.284l1.759,1.358,2.876-3.682L835.33,529.2a13.358,13.358,0,0,0,1.569-4.042h0Zm-9.316-4.483a0.952,0.952,0,0,1,.736.158,0.736,0.736,0,0,1,.262.605,2.359,2.359,0,0,1-1.307,1.618,3.643,3.643,0,0,1-.654-0.682,1.052,1.052,0,0,1-.178-0.589,1.02,1.02,0,0,1,.3-0.743,1.352,1.352,0,0,1,.844-0.367h0Zm-0.476,10.168a2.343,2.343,0,0,1-1.532-.237,1.1,1.1,0,0,1-.559-0.985,2.285,2.285,0,0,1,.927-1.745l3.042,2.333a4.976,4.976,0,0,1-1.878.634h0ZM371.818,602.225v5.667a4.065,4.065,0,0,0-3.3-.763,6.768,6.768,0,0,0-3.149,1.209,7.141,7.141,0,0,0-2.281,2.684,8.211,8.211,0,0,0-.844,3.751,7.115,7.115,0,0,0,.844,3.565,5.065,5.065,0,0,0,2.281,2.165,5.711,5.711,0,0,0,3.149.476,5.054,5.054,0,0,0,3.565-1.759v1.1l5.109-.6V601.6Zm-2.02,14.3a1.707,1.707,0,0,1-1.521-.519,2.63,2.63,0,0,1-.594-1.873,3.14,3.14,0,0,1,.594-2,2.2,2.2,0,0,1,1.521-.861,1.722,1.722,0,0,1,1.521.507,2.584,2.584,0,0,1,.594,1.86,3.188,3.188,0,0,1-.594,2.011,2.18,2.18,0,0,1-1.521.874h0Zm23.361-5.361a6.421,6.421,0,0,0-.963-3.625,5.278,5.278,0,0,0-2.59-2.067,7.566,7.566,0,0,0-3.6-.387,8.763,8.763,0,0,0-3.767,1.318,7.9,7.9,0,0,0-2.638,2.763,7.316,7.316,0,0,0-.962,3.691,6.109,6.109,0,0,0,.974,3.452,5.6,5.6,0,0,0,2.757,2.158,8.645,8.645,0,0,0,4.135.41,8.127,8.127,0,0,0,5.68-2.812l-2.805-2.579a5.893,5.893,0,0,1-1.271.9,4.391,4.391,0,0,1-1.438.387,2.964,2.964,0,0,1-1.663-.209,1.893,1.893,0,0,1-.951-1.049l9.031-1.053q0.07-1.181.071-1.3h0Zm-7.106-2.323a1.854,1.854,0,0,1,1.379.316,1.963,1.963,0,0,1,.713,1.224l-4.183.487a2.548,2.548,0,0,1,.713-1.4,2.305,2.305,0,0,1,1.378-.625h0Zm8.556,8.847,5.37-.626V598.943l-5.37.626v18.124Zm7.509-.875,5.371-.626V602.831l-5.371.626v13.361Zm2.685-14.749a3.73,3.73,0,0,0,2.353-1.093,3.062,3.062,0,0,0,.879-2.191,2.173,2.173,0,0,0-.879-1.851,3.194,3.194,0,0,0-2.353-.483,3.8,3.8,0,0,0-2.34,1.066,2.907,2.907,0,0,0-.892,2.119,2.281,2.281,0,0,0,.892,1.912,3.1,3.1,0,0,0,2.34.521h0Zm14.235-.584V603q-1.188-1.62-3.85-1.31a6.966,6.966,0,0,0-3.1,1.155,7.129,7.129,0,0,0-3.149,6,6.092,6.092,0,0,0,.856,3.283,5,5,0,0,0,2.293,2,5.922,5.922,0,0,0,3.1.432,5.058,5.058,0,0,0,3.589-1.835v0.244a3.054,3.054,0,0,1-.737,2.162,3.687,3.687,0,0,1-2.353.983,7.166,7.166,0,0,1-2.233-.106,5.424,5.424,0,0,1-1.925-.728l-1.807,3.972a8.07,8.07,0,0,0,2.876.9,14.478,14.478,0,0,0,3.636,0,9.269,9.269,0,0,0,5.858-2.6,8.3,8.3,0,0,0,2.056-5.968v-10.7Zm-2.424,8.612a2.038,2.038,0,0,1-1.592-.413,1.8,1.8,0,0,1-.642-1.477,2.247,2.247,0,0,1,.63-1.612,2.55,2.55,0,0,1,1.6-.773,2.027,2.027,0,0,1,1.581.4,1.783,1.783,0,0,1,.629,1.466,2.292,2.292,0,0,1-.629,1.624,2.493,2.493,0,0,1-1.581.783h0Zm18.7-10.754a6.016,6.016,0,0,0-3.66,1.746v-5.838l-5.37.626V614l5.37-.626V607.1a3.36,3.36,0,0,1,.559-2.1,2.1,2.1,0,0,1,1.461-.818q1.593-.184,1.593,2.111v6.668l5.37-.626v-7.621q0-3-1.461-4.324a4.685,4.685,0,0,0-3.862-1.04h0Zm15.709,7.476a2.3,2.3,0,0,1-1.212.508,0.934,0.934,0,0,1-.808-0.248,1.238,1.238,0,0,1-.309-0.917v-3.371l2.661-.31v-4.03l-2.661.31v-3.737l-5.371.626v3.737l-1.783.208v4.03l1.783-.208v3.42a4.711,4.711,0,0,0,1.473,3.895,5.5,5.5,0,0,0,4.207.866,7.155,7.155,0,0,0,3.3-1.094Zm27.522-12.27v6.278a3.511,3.511,0,0,1-.523,2.1,1.849,1.849,0,0,1-1.307.8,1.3,1.3,0,0,1-1.259-.439,3.153,3.153,0,0,1-.428-1.9v-6.424l-5.371.626v7.377q0,3.126,1.5,4.5a4.762,4.762,0,0,0,3.969,1.089,5.864,5.864,0,0,0,2.02-.614,5.442,5.442,0,0,0,1.664-1.33v1.27l5.109-.6V593.923Zm12.6,12.138a10.669,10.669,0,0,0,3.683-1.04,6.057,6.057,0,0,0,2.282-1.9,4.122,4.122,0,0,0,.76-2.36,3.144,3.144,0,0,0-.844-2.418,3.748,3.748,0,0,0-1.948-.969,17.006,17.006,0,0,0-2.7-.2,10.248,10.248,0,0,1-1.5-.082,0.445,0.445,0,0,1-.475-0.4q0-.636,1.758-0.841a6.972,6.972,0,0,1,3.755.54l1.474-3.811a7.9,7.9,0,0,0-2.412-.538,14.656,14.656,0,0,0-2.888.056,10.411,10.411,0,0,0-3.624,1.033,6.064,6.064,0,0,0-2.27,1.9,4.19,4.19,0,0,0-.76,2.409,3.143,3.143,0,0,0,.844,2.418,3.652,3.652,0,0,0,1.96.956,18.471,18.471,0,0,0,2.709.185,11.693,11.693,0,0,1,1.509.069,0.427,0.427,0,0,1,.464.385,0.6,0.6,0,0,1-.368.52,3.912,3.912,0,0,1-1.3.309,9.349,9.349,0,0,1-2.4-.038,6.792,6.792,0,0,1-2.139-.63l-1.473,3.812a8.377,8.377,0,0,0,2.614.648,14.574,14.574,0,0,0,3.28-.016h0Zm21.934-9.494a6.429,6.429,0,0,0-.962-3.625,5.284,5.284,0,0,0-2.591-2.067,7.566,7.566,0,0,0-3.6-.387,8.756,8.756,0,0,0-3.767,1.319,7.885,7.885,0,0,0-2.638,2.762,7.327,7.327,0,0,0-.962,3.691,6.109,6.109,0,0,0,.974,3.452,5.6,5.6,0,0,0,2.757,2.158,8.634,8.634,0,0,0,4.135.41,8.127,8.127,0,0,0,5.68-2.812l-2.8-2.579a5.921,5.921,0,0,1-1.272.9,4.377,4.377,0,0,1-1.438.387,2.964,2.964,0,0,1-1.663-.209,1.893,1.893,0,0,1-.951-1.049l9.031-1.053q0.071-1.181.071-1.3h0Zm-7.1-2.323a1.852,1.852,0,0,1,1.378.316,1.958,1.958,0,0,1,.713,1.224l-4.183.487a2.552,2.552,0,0,1,.713-1.4,2.308,2.308,0,0,1,1.379-.625h0Zm13.664-3.668V589.76l-5.109.6v13.361l5.371-.626v-5.935a2.844,2.844,0,0,1,2.756-3.2,7.977,7.977,0,0,1,1.189-.041v-4.885a5.9,5.9,0,0,0-4.207,2.176h0Zm10.576,10.932a10.669,10.669,0,0,0,3.683-1.04,6.057,6.057,0,0,0,2.282-1.9,4.125,4.125,0,0,0,.76-2.36,3.144,3.144,0,0,0-.844-2.418,3.742,3.742,0,0,0-1.948-.97,17.139,17.139,0,0,0-2.7-.2,10.248,10.248,0,0,1-1.5-.082,0.445,0.445,0,0,1-.475-0.4q0-.635,1.758-0.84a6.953,6.953,0,0,1,3.755.54l1.474-3.812a7.927,7.927,0,0,0-2.412-.537,14.58,14.58,0,0,0-2.888.056,10.411,10.411,0,0,0-3.624,1.033,6.055,6.055,0,0,0-2.27,1.9,4.19,4.19,0,0,0-.76,2.409,3.144,3.144,0,0,0,.844,2.418,3.666,3.666,0,0,0,1.96.956,18.471,18.471,0,0,0,2.709.185,11.74,11.74,0,0,1,1.509.068,0.428,0.428,0,0,1,.464.386,0.593,0.593,0,0,1-.368.519,3.881,3.881,0,0,1-1.3.31,9.4,9.4,0,0,1-2.4-.038,6.792,6.792,0,0,1-2.139-.63l-1.473,3.811a8.322,8.322,0,0,0,2.614.648,14.515,14.515,0,0,0,3.28-.015h0Zm10.527-1.227a3.512,3.512,0,0,0,3.137-3.541,2.684,2.684,0,0,0-.891-2.156,2.8,2.8,0,0,0-2.246-.605,3.5,3.5,0,0,0-2.246,1.128,3.372,3.372,0,0,0-.891,2.364,2.669,2.669,0,0,0,3.137,2.81h0Zm27.214-3.025a11.382,11.382,0,0,0,4.242-1.264,7.045,7.045,0,0,0,2.626-2.383,5.606,5.606,0,0,0,.879-3.021,3.821,3.821,0,0,0-.963-2.819,4.777,4.777,0,0,0-2.269-1.287,19.817,19.817,0,0,0-3.208-.468,12.275,12.275,0,0,1-2.115-.3,0.724,0.724,0,0,1-.642-0.694q0-1.076,2.162-1.327a9.43,9.43,0,0,1,4.635.73l1.687-4.374a9.4,9.4,0,0,0-2.911-.772,14.726,14.726,0,0,0-3.363.014,11.5,11.5,0,0,0-4.242,1.251,6.914,6.914,0,0,0-2.626,2.382,5.672,5.672,0,0,0-.879,3.034,3.9,3.9,0,0,0,.95,2.833,4.684,4.684,0,0,0,2.234,1.3,22.14,22.14,0,0,0,3.208.517,12.875,12.875,0,0,1,2.151.336,0.756,0.756,0,0,1,.654.73,0.859,0.859,0,0,1-.5.754,4.567,4.567,0,0,1-1.664.426,9.819,9.819,0,0,1-2.828-.1,10.118,10.118,0,0,1-2.662-.825l-1.806,4.412a9.563,9.563,0,0,0,3.22.907,16.7,16.7,0,0,0,4.029.007h0Zm18.037-16.1a6.02,6.02,0,0,0-3.66,1.745V577.69l-5.371.626v18.125l5.371-.626v-6.278a3.359,3.359,0,0,1,.559-2.1,2.094,2.094,0,0,1,1.461-.818q1.592-.186,1.592,2.111v6.668l5.371-.626v-7.621q0-3-1.461-4.324a4.679,4.679,0,0,0-3.862-1.04h0Zm21.483,4.409a6.426,6.426,0,0,0-.962-3.625,5.286,5.286,0,0,0-2.591-2.068,7.567,7.567,0,0,0-3.6-.386,8.755,8.755,0,0,0-3.767,1.318,7.893,7.893,0,0,0-2.638,2.762,7.332,7.332,0,0,0-.962,3.691,6.115,6.115,0,0,0,.974,3.453,5.61,5.61,0,0,0,2.757,2.158,8.659,8.659,0,0,0,4.135.41,8.127,8.127,0,0,0,5.68-2.812l-2.8-2.58a5.894,5.894,0,0,1-1.272.906,4.427,4.427,0,0,1-1.438.387,2.964,2.964,0,0,1-1.663-.209,1.892,1.892,0,0,1-.951-1.05L607.4,587.5q0.071-1.181.071-1.3h0Zm-7.105-2.323a1.848,1.848,0,0,1,1.378.316,1.959,1.959,0,0,1,.713,1.223l-4.183.488a2.555,2.555,0,0,1,.713-1.4,2.308,2.308,0,0,1,1.379-.625h0Zm31.824,6.379a8.316,8.316,0,0,0,4.064-1.524,6.371,6.371,0,0,0,2.328-3.178l-4.158-1.616a2.841,2.841,0,0,1-2.258,2.022,1.846,1.846,0,0,1-1.58-.5,2.513,2.513,0,0,1-.63-1.881,3.032,3.032,0,0,1,.63-2,2.345,2.345,0,0,1,1.58-.868,2.122,2.122,0,0,1,2.258,1.5l4.158-2.586a4.6,4.6,0,0,0-2.328-2.635,7.06,7.06,0,0,0-4.064-.577,9.491,9.491,0,0,0-3.957,1.341,7.941,7.941,0,0,0-2.733,2.773,7.2,7.2,0,0,0-.986,3.694,6.091,6.091,0,0,0,.986,3.475,5.633,5.633,0,0,0,2.733,2.149,8.2,8.2,0,0,0,3.957.418h0Zm13.45-15.417a13.491,13.491,0,0,0-3.148.77,10.659,10.659,0,0,0-2.7,1.425l1.711,3.441a5.75,5.75,0,0,1,1.545-.95,6.419,6.419,0,0,1,1.782-.488q2.187-.255,2.448,1.278l-2.162.252a8.634,8.634,0,0,0-4.468,1.546,3.887,3.887,0,0,0-1.474,3.176,3.718,3.718,0,0,0,.559,2.048,3.3,3.3,0,0,0,1.64,1.3,5.442,5.442,0,0,0,2.626.244,4.2,4.2,0,0,0,3.683-2.432V588.2l4.991-.581v-7.182q0-3.273-1.806-4.638t-5.229-.966h0Zm-0.023,10.53a1.243,1.243,0,0,1-.939-0.2,0.867,0.867,0,0,1-.345-0.729q0-1.124,1.64-1.315l1.331-.155V583.9a2.158,2.158,0,0,1-.665,1.03,1.934,1.934,0,0,1-1.022.436h0Zm18.417-12.674a6.346,6.346,0,0,0-2.162.643,5.818,5.818,0,0,0-1.759,1.377v-1.319l-5.109.6v13.361l5.37-.626v-6.277a3.36,3.36,0,0,1,.559-2.105,2.094,2.094,0,0,1,1.461-.818q1.593-.185,1.593,2.111V586.3l5.371-.626v-7.621q0-3-1.462-4.324a4.681,4.681,0,0,0-3.862-1.04h0Zm10.076-5.938a3.511,3.511,0,0,0-2.257,1.118,3.377,3.377,0,0,0-.88,2.375,2.975,2.975,0,0,0,.4,1.6,2.248,2.248,0,0,0,1.141.93l-1.188,4.267,3.327-.388,1.664-3.834a15.056,15.056,0,0,0,.76-2.018,5.213,5.213,0,0,0,.166-1.29,2.7,2.7,0,0,0-.879-2.169,2.82,2.82,0,0,0-2.258-.592h0Zm13.332,12.517a2.3,2.3,0,0,1-1.212.507,0.929,0.929,0,0,1-.808-0.248,1.234,1.234,0,0,1-.309-0.916v-3.371l2.662-.31V570.9l-2.662.31V567.47l-5.371.626v3.737l-1.782.208v4.031l1.782-.208v3.42a4.71,4.71,0,0,0,1.474,3.895,5.5,5.5,0,0,0,4.206.865,7.155,7.155,0,0,0,3.3-1.093Zm28.488-17.146v5.667a4.066,4.066,0,0,0-3.3-.763,6.764,6.764,0,0,0-3.149,1.209,7.147,7.147,0,0,0-2.282,2.685,8.219,8.219,0,0,0-.843,3.75,7.122,7.122,0,0,0,.843,3.565,5.066,5.066,0,0,0,2.282,2.165,5.71,5.71,0,0,0,3.149.476,5.049,5.049,0,0,0,3.564-1.759v1.1l5.11-.6V561.494Zm-2.02,14.3a1.707,1.707,0,0,1-1.521-.519,2.629,2.629,0,0,1-.594-1.872,3.136,3.136,0,0,1,.594-2,2.2,2.2,0,0,1,1.521-.862,1.722,1.722,0,0,1,1.521.507,2.585,2.585,0,0,1,.594,1.861,3.191,3.191,0,0,1-.594,2.011,2.182,2.182,0,0,1-1.521.873h0Zm14.877-9.6v-1.441l-5.11.6v13.362l5.371-.626V572.78a2.846,2.846,0,0,1,2.757-3.2,7.965,7.965,0,0,1,1.188-.04V564.65a5.894,5.894,0,0,0-4.206,2.176h0Zm11.431-3.018a13.537,13.537,0,0,0-3.149.77,10.66,10.66,0,0,0-2.7,1.426l1.711,3.44a5.748,5.748,0,0,1,1.545-.949,6.419,6.419,0,0,1,1.783-.489q2.186-.255,2.447,1.278l-2.162.252a8.634,8.634,0,0,0-4.468,1.547,3.886,3.886,0,0,0-1.474,3.176,3.726,3.726,0,0,0,.559,2.048,3.305,3.305,0,0,0,1.64,1.3,5.455,5.455,0,0,0,2.626.243,4.193,4.193,0,0,0,3.683-2.432v1.759l4.991-.582v-7.181q0-3.273-1.806-4.639t-5.228-.966h0ZM740.2,574.339a1.254,1.254,0,0,1-.939-0.2,0.869,0.869,0,0,1-.345-0.729q0-1.124,1.64-1.315l1.331-.155v0.928a2.153,2.153,0,0,1-.665,1.03,1.936,1.936,0,0,1-1.022.437h0Zm26.616-13.386-2.329,7.4-2.257-6.869-4.563.532-2.329,7.33-2.234-6.8-5.086.593,4.516,12.835,5.228-.609,2.044-6.418,1.972,5.95,5.228-.609,4.516-13.888Zm7.462,6.434a3.507,3.507,0,0,0-2.257,1.118,3.377,3.377,0,0,0-.88,2.374,2.979,2.979,0,0,0,.4,1.6,2.248,2.248,0,0,0,1.141.93l-1.188,4.266,3.327-.387,1.663-3.834a15.006,15.006,0,0,0,.761-2.018,5.213,5.213,0,0,0,.166-1.29,2.7,2.7,0,0,0-.879-2.169,2.82,2.82,0,0,0-2.258-.592h0ZM803.794,556.4a5.01,5.01,0,0,0-3.3,1.533v-5.667l-5.371.626v18.125l5.109-.6v-1.1a4.05,4.05,0,0,0,3.565.928,6.759,6.759,0,0,0,3.149-1.21,7.112,7.112,0,0,0,2.281-2.7,8.3,8.3,0,0,0,.844-3.762,7.062,7.062,0,0,0-.844-3.554,5.082,5.082,0,0,0-2.281-2.152,5.711,5.711,0,0,0-3.149-.476h0Zm-1.283,9.7a1.707,1.707,0,0,1-1.521-.519,2.627,2.627,0,0,1-.594-1.873,3.13,3.13,0,0,1,.594-2,2.2,2.2,0,0,1,1.521-.861,1.725,1.725,0,0,1,1.521.506,2.59,2.59,0,0,1,.594,1.861,3.2,3.2,0,0,1-.594,2.011,2.189,2.189,0,0,1-1.521.874h0Zm17.847-11.387v6.278a3.518,3.518,0,0,1-.523,2.1,1.854,1.854,0,0,1-1.307.8,1.3,1.3,0,0,1-1.259-.44,3.141,3.141,0,0,1-.428-1.9v-6.424l-5.371.626v7.377q0,3.126,1.5,4.5a4.759,4.759,0,0,0,3.969,1.088,5.842,5.842,0,0,0,2.02-.614,5.42,5.42,0,0,0,1.663-1.329v1.27l5.11-.6V554.087Zm15.8,7.22a2.292,2.292,0,0,1-1.212.508,0.928,0.928,0,0,1-.808-0.248,1.232,1.232,0,0,1-.309-0.916v-3.371l2.661-.311v-4.03l-2.661.31v-3.737l-5.371.626V554.5l-1.783.208v4.03l1.783-.207v3.419a4.714,4.714,0,0,0,1.473,3.9,5.5,5.5,0,0,0,4.207.865,7.159,7.159,0,0,0,3.3-1.093ZM371.818,634.956v5.667a4.065,4.065,0,0,0-3.3-.763,6.759,6.759,0,0,0-3.149,1.21,7.125,7.125,0,0,0-2.281,2.684,8.207,8.207,0,0,0-.844,3.75,7.112,7.112,0,0,0,.844,3.565,5.059,5.059,0,0,0,2.281,2.165,5.711,5.711,0,0,0,3.149.476,5.054,5.054,0,0,0,3.565-1.759v1.1l5.109-.595V634.33Zm-2.02,14.3a1.707,1.707,0,0,1-1.521-.519,2.629,2.629,0,0,1-.594-1.872,3.136,3.136,0,0,1,.594-2,2.2,2.2,0,0,1,1.521-.862,1.725,1.725,0,0,1,1.521.507,2.585,2.585,0,0,1,.594,1.861,3.191,3.191,0,0,1-.594,2.011,2.182,2.182,0,0,1-1.521.873h0Zm16.4,2.388a9.176,9.176,0,0,0,3.909-1.347,7.9,7.9,0,0,0,2.686-2.78,7.327,7.327,0,0,0,.962-3.691,6.167,6.167,0,0,0-.962-3.466,5.556,5.556,0,0,0-2.686-2.142,8.015,8.015,0,0,0-3.909-.424,9.227,9.227,0,0,0-3.886,1.332,7.9,7.9,0,0,0-2.7,2.77,7.255,7.255,0,0,0-.974,3.692,6.1,6.1,0,0,0,.974,3.465,5.693,5.693,0,0,0,2.7,2.152,7.859,7.859,0,0,0,3.886.439h0Zm0-4.3a1.707,1.707,0,0,1-1.521-.519,2.629,2.629,0,0,1-.594-1.872,3.136,3.136,0,0,1,.594-2,2.2,2.2,0,0,1,1.521-.862,1.722,1.722,0,0,1,1.521.507,2.585,2.585,0,0,1,.594,1.861,3.191,3.191,0,0,1-.594,2.011,2.182,2.182,0,0,1-1.521.873h0Zm22.838-5.3a6.421,6.421,0,0,0-.963-3.625,5.278,5.278,0,0,0-2.59-2.067,7.572,7.572,0,0,0-3.6-.387,8.752,8.752,0,0,0-3.766,1.319,7.876,7.876,0,0,0-2.638,2.762,7.32,7.32,0,0,0-.963,3.691,6.11,6.11,0,0,0,.975,3.452,5.6,5.6,0,0,0,2.756,2.158,8.638,8.638,0,0,0,4.136.41,8.122,8.122,0,0,0,5.679-2.811l-2.8-2.58a5.883,5.883,0,0,1-1.271.905,4.391,4.391,0,0,1-1.438.387,2.968,2.968,0,0,1-1.664-.209,1.892,1.892,0,0,1-.95-1.049l9.03-1.053q0.072-1.18.072-1.3h0Zm-7.106-2.323a1.851,1.851,0,0,1,1.378.316,1.954,1.954,0,0,1,.713,1.224l-4.182.487a2.545,2.545,0,0,1,.713-1.4,2.311,2.311,0,0,1,1.378-.625h0Zm13.641,8.5a10.681,10.681,0,0,0,3.684-1.04,6.044,6.044,0,0,0,2.281-1.9,4.115,4.115,0,0,0,.76-2.36,3.144,3.144,0,0,0-.843-2.417,3.745,3.745,0,0,0-1.949-.97,17,17,0,0,0-2.7-.2,10.228,10.228,0,0,1-1.5-.082,0.445,0.445,0,0,1-.476-0.4q0-.636,1.759-0.84a6.965,6.965,0,0,1,3.755.539l1.473-3.811a7.861,7.861,0,0,0-2.412-.537,14.568,14.568,0,0,0-2.887.055A10.41,10.41,0,0,0,412.9,635.3a6.06,6.06,0,0,0-2.269,1.9,4.191,4.191,0,0,0-.761,2.409,3.147,3.147,0,0,0,.844,2.418,3.654,3.654,0,0,0,1.961.956,18.45,18.45,0,0,0,2.709.185,11.7,11.7,0,0,1,1.509.069,0.426,0.426,0,0,1,.463.385,0.6,0.6,0,0,1-.368.52,3.9,3.9,0,0,1-1.3.309,9.392,9.392,0,0,1-2.4-.037,6.818,6.818,0,0,1-2.139-.631l-1.474,3.812a8.392,8.392,0,0,0,2.614.648,14.574,14.574,0,0,0,3.28-.016h0ZM432.7,632.379a6.346,6.346,0,0,0-2.162.643,5.818,5.818,0,0,0-1.759,1.377V633.08l-5.109.6v13.361l5.37-.626v-6.277a3.36,3.36,0,0,1,.559-2.105,2.094,2.094,0,0,1,1.461-.818q1.593-.185,1.593,2.111v6.668l5.37-.626v-7.621q0-3-1.461-4.324a4.681,4.681,0,0,0-3.862-1.04h0Zm9.839-5.91a3.509,3.509,0,0,0-2.258,1.118,3.38,3.38,0,0,0-.879,2.374,2.972,2.972,0,0,0,.4,1.6,2.242,2.242,0,0,0,1.14.93l-1.188,4.266,3.327-.387,1.664-3.834a14.966,14.966,0,0,0,.76-2.018,5.215,5.215,0,0,0,.167-1.29,2.7,2.7,0,0,0-.88-2.169,2.815,2.815,0,0,0-2.257-.592h0Zm13.094,12.544a2.3,2.3,0,0,1-1.212.508,0.934,0.934,0,0,1-.808-0.248,1.238,1.238,0,0,1-.309-0.917v-3.371l2.661-.31v-4.03l-2.661.31v-3.737l-5.371.625v3.738l-1.783.208v4.03l1.783-.208v3.42a4.711,4.711,0,0,0,1.473,3.9,5.5,5.5,0,0,0,4.207.866,7.155,7.155,0,0,0,3.3-1.094Zm9.291,3.216,5.371-.626V623.479l-5.371.625v18.125Zm21.341-9.18a6.421,6.421,0,0,0-.963-3.625,5.279,5.279,0,0,0-2.59-2.068,7.58,7.58,0,0,0-3.6-.386,8.75,8.75,0,0,0-3.767,1.318,7.9,7.9,0,0,0-2.638,2.763,7.316,7.316,0,0,0-.963,3.69,6.113,6.113,0,0,0,.975,3.453,5.6,5.6,0,0,0,2.757,2.158,8.645,8.645,0,0,0,4.135.41,8.123,8.123,0,0,0,5.679-2.812l-2.8-2.58a5.891,5.891,0,0,1-1.271.906,4.391,4.391,0,0,1-1.438.387,2.969,2.969,0,0,1-1.664-.209,1.9,1.9,0,0,1-.95-1.049l9.03-1.053q0.072-1.18.072-1.3h0Zm-7.106-2.323a1.851,1.851,0,0,1,1.378.316,1.954,1.954,0,0,1,.713,1.224l-4.182.487a2.542,2.542,0,0,1,.713-1.4,2.305,2.305,0,0,1,1.378-.625h0Zm16.849,3.581a2.286,2.286,0,0,1-1.212.508,0.933,0.933,0,0,1-.808-0.248,1.236,1.236,0,0,1-.309-0.916V630.28l2.662-.311v-4.03l-2.662.31v-3.737l-5.37.626v3.737l-1.783.208v4.03l1.783-.207v3.419a4.711,4.711,0,0,0,1.473,3.9,5.5,5.5,0,0,0,4.206.865,7.16,7.16,0,0,0,3.3-1.093Zm17.586-2.049a2.3,2.3,0,0,1-1.212.508,0.935,0.935,0,0,1-.808-0.248,1.238,1.238,0,0,1-.309-0.917V628.23l2.662-.31v-4.03l-2.662.31v-3.738l-5.371.626v3.738l-1.782.207v4.031l1.782-.208v3.42a4.712,4.712,0,0,0,1.473,3.9,5.5,5.5,0,0,0,4.207.866,7.155,7.155,0,0,0,3.3-1.094Zm11.431-10.639a6.016,6.016,0,0,0-3.66,1.746v-5.838l-5.371.626v18.124l5.371-.626v-6.277a3.367,3.367,0,0,1,.558-2.105,2.094,2.094,0,0,1,1.462-.818q1.591-.185,1.592,2.111v6.668l5.371-.626v-7.621q0-3-1.462-4.324a4.679,4.679,0,0,0-3.861-1.04h0Zm13.236-1.543a13.541,13.541,0,0,0-3.148.77,10.66,10.66,0,0,0-2.7,1.426l1.711,3.44a5.748,5.748,0,0,1,1.545-.949,6.457,6.457,0,0,1,1.782-.489q2.187-.255,2.448,1.278l-2.162.252a8.643,8.643,0,0,0-4.468,1.547,3.886,3.886,0,0,0-1.474,3.176,3.718,3.718,0,0,0,.559,2.048,3.3,3.3,0,0,0,1.64,1.3,5.454,5.454,0,0,0,2.626.244,4.2,4.2,0,0,0,3.683-2.433v1.759l4.991-.582v-7.181q0-3.273-1.806-4.638t-5.229-.967h0Zm-0.023,10.531a1.253,1.253,0,0,1-.939-0.2,0.868,0.868,0,0,1-.345-0.729q0-1.124,1.64-1.315l1.331-.155v0.928a2.148,2.148,0,0,1-.665,1.03,1.936,1.936,0,0,1-1.022.437h0Zm17.443-3.254a2.3,2.3,0,0,1-1.212.508,0.935,0.935,0,0,1-.808-0.248,1.238,1.238,0,0,1-.309-0.917v-3.371l2.662-.31v-4.03l-2.662.31v-3.738l-5.371.626v3.738l-1.782.207v4.031l1.782-.208v3.42a4.71,4.71,0,0,0,1.474,3.895,5.5,5.5,0,0,0,4.206.866,7.155,7.155,0,0,0,3.3-1.094Zm14.377,2.868a10.668,10.668,0,0,0,3.684-1.04,6.053,6.053,0,0,0,2.281-1.9,4.118,4.118,0,0,0,.761-2.36,3.148,3.148,0,0,0-.844-2.418,3.752,3.752,0,0,0-1.949-.97,17.125,17.125,0,0,0-2.7-.2,10.238,10.238,0,0,1-1.5-.082,0.446,0.446,0,0,1-.476-0.4q0-.635,1.759-0.84a6.966,6.966,0,0,1,3.755.54l1.473-3.812a7.913,7.913,0,0,0-2.412-.537,14.57,14.57,0,0,0-2.887.056,10.4,10.4,0,0,0-3.624,1.033,6.047,6.047,0,0,0-2.27,1.9,4.19,4.19,0,0,0-.76,2.409,3.148,3.148,0,0,0,.843,2.418,3.662,3.662,0,0,0,1.961.956,18.45,18.45,0,0,0,2.709.185,11.75,11.75,0,0,1,1.509.068,0.428,0.428,0,0,1,.464.386,0.592,0.592,0,0,1-.369.519,3.874,3.874,0,0,1-1.3.31,9.349,9.349,0,0,1-2.4-.038,6.792,6.792,0,0,1-2.139-.63l-1.474,3.811a8.336,8.336,0,0,0,2.615.648,14.506,14.506,0,0,0,3.279-.015h0Zm16.4-6.455a2.3,2.3,0,0,1-1.212.508,0.931,0.931,0,0,1-.808-0.248,1.233,1.233,0,0,1-.309-0.917v-3.37l2.661-.311V615.4l-2.661.31v-3.737l-5.371.626v3.737l-1.783.208v4.03l1.783-.208v3.42a4.714,4.714,0,0,0,1.473,3.9,5.505,5.505,0,0,0,4.207.865,7.155,7.155,0,0,0,3.3-1.093Zm8.911,3.5a9.189,9.189,0,0,0,3.91-1.347,7.9,7.9,0,0,0,2.685-2.78,7.319,7.319,0,0,0,.962-3.691,6.159,6.159,0,0,0-.962-3.466,5.558,5.558,0,0,0-2.685-2.142,8.006,8.006,0,0,0-3.91-.424,9.218,9.218,0,0,0-3.885,1.332,7.9,7.9,0,0,0-2.7,2.769,7.269,7.269,0,0,0-.974,3.693,6.107,6.107,0,0,0,.974,3.465,5.7,5.7,0,0,0,2.7,2.152,7.853,7.853,0,0,0,3.885.439h0Zm0-4.3a1.707,1.707,0,0,1-1.521-.519,2.63,2.63,0,0,1-.594-1.873,3.14,3.14,0,0,1,.594-2,2.2,2.2,0,0,1,1.521-.861,1.722,1.722,0,0,1,1.521.507,2.584,2.584,0,0,1,.594,1.86,3.188,3.188,0,0,1-.594,2.011,2.18,2.18,0,0,1-1.521.874h0Zm17.681-11.612a5.051,5.051,0,0,0-3.565,1.759v-1.1l-5.109.6v18.1l5.371-.626v-5.643a4.065,4.065,0,0,0,3.3.763A6.768,6.768,0,0,0,616.2,624a7.149,7.149,0,0,0,2.281-2.684,8.208,8.208,0,0,0,.844-3.751,7.115,7.115,0,0,0-.844-3.565,5.07,5.07,0,0,0-2.281-2.165,5.711,5.711,0,0,0-3.149-.476h0Zm-1.283,9.7a1.722,1.722,0,0,1-1.521-.507,2.583,2.583,0,0,1-.594-1.86,3.193,3.193,0,0,1,.594-2.012,2.182,2.182,0,0,1,1.521-.873,1.707,1.707,0,0,1,1.521.519,2.63,2.63,0,0,1,.594,1.873,3.138,3.138,0,0,1-.594,2,2.2,2.2,0,0,1-1.521.861h0ZM636.7,608.605a6.015,6.015,0,0,0-3.66,1.745v-5.838l-5.371.626v18.125l5.371-.626v-6.278a3.371,3.371,0,0,1,.558-2.105,2.1,2.1,0,0,1,1.462-.817q1.591-.186,1.592,2.11v6.669l5.371-.626v-7.621q0-3-1.461-4.324a4.679,4.679,0,0,0-3.862-1.04h0Zm21.483,4.409a6.422,6.422,0,0,0-.963-3.626,5.278,5.278,0,0,0-2.59-2.067,7.554,7.554,0,0,0-3.6-.386,8.737,8.737,0,0,0-3.767,1.318,7.885,7.885,0,0,0-2.638,2.762,7.319,7.319,0,0,0-.962,3.691,6.115,6.115,0,0,0,.974,3.453,5.6,5.6,0,0,0,2.757,2.158,8.646,8.646,0,0,0,4.135.409,8.123,8.123,0,0,0,5.68-2.811l-2.805-2.58a5.824,5.824,0,0,1-1.271.9,4.4,4.4,0,0,1-1.438.388,2.973,2.973,0,0,1-1.663-.209,1.892,1.892,0,0,1-.951-1.05l9.031-1.052q0.07-1.182.071-1.3h0Zm-7.106-2.323a1.849,1.849,0,0,1,1.379.315,1.961,1.961,0,0,1,.713,1.224l-4.183.488a2.551,2.551,0,0,1,.713-1.4,2.307,2.307,0,0,1,1.378-.624h0Zm13.665-3.669v-1.441l-5.109.6v13.362l5.37-.626v-5.936a2.846,2.846,0,0,1,2.757-3.2,7.97,7.97,0,0,1,1.188-.04v-4.886a5.9,5.9,0,0,0-4.206,2.176h0Zm7.676,11.27a3.51,3.51,0,0,0,3.137-3.541,2.685,2.685,0,0,0-.891-2.156,2.8,2.8,0,0,0-2.246-.605,3.493,3.493,0,0,0-2.246,1.129,3.368,3.368,0,0,0-.891,2.363,2.669,2.669,0,0,0,3.137,2.81h0Z" transform="translate(-360.188 -241.5)"/>
  <path id="SHE" class="cls-1" d="M440.923,360.207c-58.3,6.78-80.749,23-80.749,57.213,0,31.743,19.981,41.992,65.918,36.65,0,6.39-5.562,9.1-19.364,10.7-17.921,2.084-34.813.338-43.671-4.4l-2.471,55.735a372.907,372.907,0,0,0,66.124-1.713c57.884-6.732,80.131-22.924,80.131-57.759,0-32.567-19.775-43.459-63.858-38.332,0-6.184,5.356-8.868,18.334-10.377,16.067-1.869,30.9-.09,38.521,4.589l2.265-53.444C482.74,357.2,462.347,357.716,440.923,360.207Zm244.726-24.34-77.042,8.96v45.76l-15.656,1.821v-45.76l-77.041,8.961V499.9l77.041-8.96v-45.76l15.656-1.82v45.759l77.042-8.96V335.867Zm150.793-17.538L700.9,334.094V478.38l135.544-15.764V416.65l-58.5,6.8V412.53l54.382-6.325V375.7l-54.382,6.324V371.1l58.5-6.8V318.329Z" transform="translate(-360.188 -241.5)"/>
  <path id="Brandi_Cameron" data-name="Brandi Cameron" class="cls-1" d="M361.942,292.671v34.078l24.91-2.9c12.7-1.477,16.348-3.9,16.348-10.81,0-4.966-1.9-6.888-7.25-7.239V305.56c4.379-1.58,6.033-3.915,6.033-8.589,0-6.913-3.6-8.539-15.812-7.118Zm18.975,5.728c2.432-.283,3.308.346,3.308,2.39s-0.876,2.877-3.308,3.16l-0.779.091v-5.55Zm0,12.707c2.432-.283,3.308.345,3.308,2.39s-0.876,2.877-3.308,3.16l-0.779.09V311.2Zm45.638-23.029a8.364,8.364,0,0,0-7.4,7.237l-0.1.012-0.146-5.387-14.012,1.63v30.184l16.347-1.9v-10.9c0-3.6,1.314-5.557,4.72-5.953a11.771,11.771,0,0,1,2.773-.03v-14.9A8.948,8.948,0,0,0,426.555,288.077Zm17.953-2.088a83.137,83.137,0,0,0-14.012,2.846l0.487,13.527c2.043-1.455,5.741-2.615,9.633-3.068,4.865-.566,7.055.3,7.055,2.782v0.1l-0.1.012a17.646,17.646,0,0,0-7.93-.636c-6.714.781-9.974,3.984-9.974,9.826,0,5.7,3.065,8.115,9.341,7.385,4.233-.493,7.444-2.132,9.39-4.792l0.1-.012,0.632,2.653,15.326-1.782a35.458,35.458,0,0,1-.486-6.614v-9.347C463.97,287.571,459.007,284.3,444.508,285.989Zm1.752,20.2a2.046,2.046,0,0,1,1.411.225V310.6a2.433,2.433,0,0,1-1.411.553c-1.363.159-1.849-.369-1.849-2.267S444.9,306.342,446.26,306.184Zm46.416-25.8c-4.768.554-7.833,2.42-9.974,6.125l-0.1.012-0.341-3.953-15.52,1.8V314.56l16.25-1.89V293.976a3.033,3.033,0,0,1,1.508-.614c1.265-.147,1.7.484,1.7,2.431v16.5l16.25-1.89V291.42C502.455,282.608,499.779,279.56,492.676,280.387Zm48.46-8.558-16.251,1.89v5.161l-0.1.011c-1.946-1.283-4.427-1.724-7.59-1.356-8.563.995-12.8,6.892-12.8,17.8,0,10.418,3.844,15.375,11.531,14.481a11.416,11.416,0,0,0,9.244-6.041l0.1-.011,0.34,3.952,16.007-1.861a35.446,35.446,0,0,1-.486-6.613v-27.41Zm-17.71,17.006a2.181,2.181,0,0,1,1.459.269v7.205a2.633,2.633,0,0,1-1.459.608c-1.508.175-2.044-.834-2.044-3.8S521.918,289.011,523.426,288.835Zm36.831-7.789a21.869,21.869,0,0,1-8.125,2.406,19.671,19.671,0,0,1-8.125-.516v22.638l16.25-1.89V281.046Zm32.258-16.166c-15.131,1.76-21.407,7.748-21.407,20.5s6.276,17.283,21.407,15.523a46.191,46.191,0,0,0,11.336-2.73l-0.583-15.17a38.048,38.048,0,0,1-8.32,1.941c-3.5.408-4.866-.018-4.866-1.771s1.363-2.5,4.866-2.9a35.388,35.388,0,0,1,8.32.007l0.583-15.307A42.559,42.559,0,0,0,592.515,264.88Zm27.684,0.675a83.037,83.037,0,0,0-14.012,2.847l0.487,13.526c2.043-1.455,5.741-2.615,9.633-3.068,4.866-.566,7.055.3,7.055,2.782v0.1l-0.1.011a17.639,17.639,0,0,0-7.931-.635c-6.714.78-9.974,3.983-9.974,9.825,0,5.7,3.065,8.115,9.342,7.385,4.233-.492,7.444-2.132,9.39-4.792l0.1-.011,0.633,2.652,15.325-1.782a35.446,35.446,0,0,1-.486-6.613v-9.348C639.661,267.138,634.7,263.869,620.2,265.555Zm1.752,20.195a2.045,2.045,0,0,1,1.411.225v4.187a2.431,2.431,0,0,1-1.411.554c-1.362.158-1.849-.369-1.849-2.268S620.589,285.908,621.951,285.75Zm65.1-27.97c-4.768.555-7.784,2.415-10.168,6.148l-0.1.012c-1.216-3.267-3.989-4.5-8.709-3.953s-7.784,2.463-9.925,6.12l-0.1.011-0.341-3.952-15.277,1.777v30.184l16.007-1.862V273.57a3.824,3.824,0,0,1,1.557-.619c1.216-.141,1.654.538,1.654,2.437v16.5l16.007-1.862V271.335a3.031,3.031,0,0,1,1.508-.613c1.265-.147,1.7.483,1.7,2.431v16.5l16.007-1.861V268.808C696.878,260,694.2,256.948,687.05,257.78Zm29.973-3.486c-12.6,1.466-18.2,6.985-18.2,17.987,0,11.49,6.131,15.548,21.019,13.816a60.678,60.678,0,0,0,12.163-2.631l-0.487-13.186a36.69,36.69,0,0,1-9.195,2.238c-4.428.515-6.179,0.134-6.422-1.736l16.882-1.963a21.665,21.665,0,0,0,.438-4.53C733.224,256.158,728.116,253,717.023,254.294Zm0.778,8.478c1.557-.181,2,0.644,2.044,3.754l-4.087.476C715.806,263.88,716.244,262.953,717.8,262.772Zm39.07-13.113a8.363,8.363,0,0,0-7.395,7.238l-0.1.012-0.146-5.387-14.012,1.629v30.184l16.348-1.9V270.529c0-3.6,1.313-5.557,4.719-5.953a11.718,11.718,0,0,1,2.773-.03v-14.9A9,9,0,0,0,756.871,249.659Zm22.089-2.569c-12.99,1.511-18.877,7.162-18.877,18.262s5.887,15.381,18.877,13.87,18.878-7.161,18.878-18.261S791.951,245.58,778.96,247.09Zm0,12.025c1.46-.169,1.9.656,1.9,3.821s-0.438,4.091-1.9,4.261-1.9-.656-1.9-3.82S777.5,259.285,778.96,259.115Zm46.952-17.485c-4.768.554-7.834,2.42-9.974,6.126l-0.1.011-0.34-3.953-15.521,1.805V275.8l16.251-1.89V255.219a3.038,3.038,0,0,1,1.508-.614c1.265-.147,1.7.484,1.7,2.431v16.5l16.25-1.89V252.663C835.691,243.852,833.015,240.8,825.912,241.63Z" transform="translate(-360.188 -241.5)"/>
</svg>
