<svg xmlns="http://www.w3.org/2000/svg" xmlns:xlink="http://www.w3.org/1999/xlink" viewBox="0 0 110 200" xmlns:v="https://vecta.io/nano"><path d="M65.9 105.1c1.1 1 4.2 3.6 5.5 4.5s2.1 2.3 3.2 3.5c.2.2.4.5.6.6 5.1 2.9 9.9 6.3 15.2 8.8 3.1 1.5 6.6 2.1 9.5 3.9 1.2.8 2.6 1 3.6 2.6 1.2 2-.2 3.4-.3 5v.4c-2.2 1-3.8.4-5-1.7-.7-1.2-1.6-2.1-2.8-2.6-10.1-3.9-21.7-10.3-30.2-18.1l.7-6.9z"/><path d="M60.2 119.9c-.4-2 1.7-12.4 1.5-14.5a10.84 10.84 0 0 1 .7-5.3c.6-1.5.1-3.4.1-5.1 0-4.9-.1-9.7.1-14.6.1-1.3-1.4-2.4-.2-3.7.1-.1-.6-.8-.7-1.3-.3-1-.9-1.6-2-1.8-6.6-.7-12.6-3.1-18.4-6.3-1-.5-1.9-.4-2.8-.5-.1-2.4-2.3-3.6-3.1-5.5-.8-1.7-1.8-1.2-2.9-1.4-.6-.6-1.6-.7-1.7-1.7 0-1.9.7-4.1-.2-5.4-1-1.5.1-3.4-1.5-4.6-.3-.2-.7-2.1 1.2-2 .5 0 .6-.9 1.4-.8 1.1.6 1.4 1.7 1.7 2.8C36.7 60.5 51 69.6 63.7 67.8c8.9-1.3 16-5.4 22-11.9 2.1-2.3 3.5-5.1 3.3-8.1-.3-4.5.5-8.8.4-13.2.1-.4.3-.8.6-1.1 2.5.6 3.1 3.1 3.2 4.8.3 3 .9 6.2-.4 9.1-.2.4-.3.8-.2 1.2.5 3.1-1.4 6-.9 9.1.2 1-.4 1.6-1 2.2-1.3 1.2-2.4 2.6-2.4 4.6l-.9.9-.9.9-.6.6c-.2.2-.5.3-.8.5-.1 0-.3.1-.4.1-.3 0-.6-.1-.7-.4l-9.6 4.3c-.4.2-.8.3-.7.9-.2.6-.4 1.2-1 1.3-5.5 1.3-5.7 5.5-5.6 10 .1 4.6-.1 9.1.1 13.7.2 4.4-2.2 17.2-2.3 22.3l-3.2.6-1.5-.3z"/><path d="M63.3 112.5c.2-1.1-1.8-1.8-2.7-1.2-3.2 1.9-6.9 2.9-9.8 5.3-2.3 2-4.3 4.4-6.9 6.1-2.5 1.6-4.6 3.6-7.4 4.9-2.2 1-6 2.2-8.3 1.7-.8-.1-1.5-.7-1.6-1.6-.1-.8-.3-1.7.2-2.5 6.3-.3 6.4-.2 9.8-2.1 2.4-1.3 7.8-5.4 8.9-7.2.7-1.1 2.3-1 2.8-2.6.4-1.2 2.2-1.3 3.4-1.9 2-.9 3.9-2.1 5.9-3.2 1.5-.8 3.7-3.2 4.4-4.4m4.6 14.1c-.5.5-1.9 4.2-1.6 4.8.7 1.7.2 3.2 0 4.9a21.75 21.75 0 0 0 0 5.1c.1 1.6-1.2 2.7-1 4.4.2 1.3.6 2.7-.7 4-.4.4-.1 1.6-.1 2.5v15c-.1 3.6 1.7 6.4 3.7 9.2 1.6 2.2 4.3 3.6 5.4 6.3 2.7 1 4 3.8 6.4 5.1 1.2.7 1.9 1.8 2.7 2.9 1.9 2.6 3.7 5.3 5 8.2.5 1.2 1.4 1.5 2.4 2 1.2.5 2.4 1.2 2 2.9-.1.5 0 1.1 0 1.9h-4.3c-1.9-2.3-4.2-4.4-4.7-7.7-2.5-2.8-3.6-6.8-7.5-8.4-1.3-2.7-4.4-3.5-6-5.9-1.7-2.4-4.1-4.3-6.3-6.7-3.6 2.4-5.6 6.8-8.7 9.6-1.7 1.6-2.4 3.3-4.8 4-.8.2-1.6 2.5-2.2 3.2-1.9 2.3-3.9 4.4-6.6 5.7-.4 2.2-2.8 2.4-3.9 3.9-1.6 2-3.5 2.7-5.8 2-.7-2.5.2-4.2 2.5-4.9 1.9-.6 3.1-2.2 4.6-3.5 1.1-1 1.9-2.3 3.5-2.8 1.1-.4 2.3-1.6 2.7-2.7.6-2.2 2.7-4.1 4.3-4.7 2.3-.9 1.6-3.8 3.6-5 2.7-1.6 4.3-5.4 6.4-7.8 1.4-1.6 2.2-3.3 2.2-5.5-.1-5.6.2-11.1-.1-16.7-.2-3.8.9-7.4 1.1-11.2.1-2.2 1.4-4.4-.2-6.6-.2-.3 0-.8.3-1.1.9-1 .7-2-.2-2.9-.3-.4-.3-1-.6-1.5M47 31c-.9.1-2.3.2-2.7 1.6-.1 1.1.9.7 1.4 1 2.7 1.2 3.5.7 3.7-2.3V30c-.8.1-1.4.9-2.4 1z"/><use xlink:href="#B"/><path d="M64.9 40c.2-1.3-1.4-2.3-3.6-2.2-1.3 0-3.3 1.7-3.2 2.7.1.8.9 1.2 1 2.1.1.6 1 .2 1.5.3 2.4 0 4-1.1 4.3-2.9z"/><path d="M106.4 68.6c-1.6-3.5-3.1-7.2-.2-10.8.4-.5.5-1.4.4-2.1-.6-4.4-.7-8.7-1.9-13.1-2.4-9.1-8.1-17-9.6-26.4-.2-1.1-.8-2.2-1.7-2.9-2.7-2-6.7-2.5-7.4-6.7 0-.2-.5-.4-.7-.4-3.9.4-6.9-2.6-10.5-3.2h-6.1-1.4c-3.3-.3-6.6 1.3-9.7.5-6.2-1.4-11.4.9-15.9 4.4-4.3 3.3-8.6 6.6-13.2 9.4-4.5 2.8-7.7 6.9-8.6 11.8-1.4 7.4-4.4 14.1-7.4 20.9-3.4 7.6-3.2 16.1-5.8 24-1.1 3.2-3.3 6.3-2.7 9.8.5 3.4-.7 6.1-2.5 8.8v1.7c1.3-.1.5 1.6 1.4 1.7.8.1 1.9.3 2.5 0 1.6-.9 3.9-.6 4.8-2.9.5-1.3 2.2-2.2 3.2-3.4.6-.7.9.2 1.2.2 2.4 0 4.6 1.8 6.8.9 1.1-.4 2-.8 3.1-.7 2.2.2 4-.1 4.9-2.6.5-1.4 1.8-1.1 3.2-.9 3.1.5 4.6-.9 4.8-4.1.1-.7 0-1.4 0-2.1s-.1-1.5.2-2c1.2-1.7 1-3.8.5-5.3-.7-2.1-.6-4.1-.7-6.1.3-3.8-1.2-6-5.3-7.7-1.1.1-2.5.6-1.6-1.5.5-2.3.2-4.5-.5-6.7-.6-2.1-.3-3.9 1-5.5.4-1 .4-2 .1-3-.1-.1-.1-.2-.2-.4-.6 0-1.2 0-1.2-1.1v-1.8-.6-2.2c.1-2.8 1.3.6 1.7-.3v.4c4.1-.8 7.9-2.6 12-3.4 1.9-.7 3.8-1.4 5.7-2.3 2.6-.8 4.4-3.7 7.1-3.7 5.1.1 8.5-2.9 11.9-5.9 2.1-1.9 4.3-3.1 7.2-3.2.6-.1 1.1-.3 1.7-.4s1.1-.1 1.7-.1c.4-1.4 1.5-.6 2.5-.3 3.3 0 3.3 0 5.1 3.4 1.9.7 2.2 2.4 2.5 4 .2.9 0 1.9 0 2.9V31c-.7.1.4-.3.4-.9 0-.8-1.3-1.8-1.3-2.6 0-.7 1.9-5.9 1.3-6.4-.3-.3-1.7-2.2-2-2.5.2.9-.4 8.1-.5 9 0 1 0 2.1.2 3.1l.3 1.2c.3.8 2.6 3.7 3.1 4.4 1.9 2.1.8 2.6.6 5.3-.6 7.2-.6 14.5-4.6 20.9-.2.5-.4 1.1-.6 1.6-.1.2-.2.3-.2.5l-.6.9c-.2.3-.3.6-.4 1-.1.5-.2 1.1-.2 1.6s0 1.1-.1 1.6c-.2.6-.4 1.3-.3 2 0 .2.2.3.2.3.6-.1-.3.5-.3 0 .1-.9.1-1.7.4-2.5 0-.4-.1-.8-.2-1.2-.4-.8-.8-1.5-1.7-1.9-3.9 1.3-8.3 1.6-10.6 5.7-.7 4.1-1.1 8.1.3 12.1.8 2.4 2 4.5 5.2 3.5 1.8-1 1.5-2.6 1.5-4.2.1-.5-.3-1.2.4-1.5-.6.4-.2 1-.3 1.6.1 1.3-.3 2.6 0 4 .9 2.1 3.2.9 4.7 2.2 2.9 2.6 4.8 1.9 6.1-1.8 1.1-3.2 2.2-6.4 2.5-9.8.1-.5.1-.6 0-.2v.8c-.4 2.3-.7 4.7-.7 7.1 0 1.5.6 2.8 2 3.5 1.6.7 3 .5 3.9-1.3 0-.3-.1-.6 0-.8.7-1.7 2.8-2.1 3.5-3.9.2-.6.6 0 .9.1 2.3.9 3.9.4 5.3-1.8.4-.7.1-2.1 1.5-2.1v-3.4c-.7-2.5-1-5.1-2.1-7.6zm-90.2-.9c-.1.6.4 1.6-.9 1.7v.9.9c-.3.6-.6 1.1-.9 1.7v.9.9c-.2.3-.3.7-.6.9s-.6 1.2-1.1.4c-.3-.5-.2-1.3.8-1.3v-.9-.9c.1-.6-.4-1.6.9-1.7v-.9c0-.6.3-.9.9-.9v-1.7c.4-.8.9-1.7 1.4-2.8.2 1.2 1.1 2.3-.5 2.8zm1.3-8.5c-1.2-1.5-.2-2.5 1-3.5.7 1.7 0 2.6-1 3.5zm1.8 16.1c-.1-.1-.5-.2-.5-.3 0-.4-.2-.9.3-1.1.1-.1.5.2.5.3 0 .4.3.8-.3 1.1zM20 72c-.1-.2-.3-.4-.5-.8.1-.3.3-.6.5-1 .1.2.4.4.4.6 0 .5-.2.8-.4 1.2zm.9-21.4c-.2.1-.3.1-.4 0v.4c-.2.1-.4.4-.5.4-.3-.1-.4-.4-.2-.5s.4-.2.7-.2c-.1-.1-.1-.2 0-.4s.3-.3.5-.4c.1.1.3.2.3.3-.2.1-.3.3-.4.4zm3.9-6c0 .6-.3.9-.9.9v.9c0 .6-.3.9-.9.9-.2.3-.3.7-.6.9s-.6 1.2-1.1.4c-.3-.5-.2-1.3.8-1.3 0-.6.3-.9.9-.9v-.9c0-.6.3-.9.9-.9v-.9c0-.4.1-.8.6-.7.1 0 .2.4.3.7v.9zm5.5 22.3c.1-.1.5-.1.8-.1.9.3.5 1.1.6 1.7v.9c0 .4-.1.8-.6.7-.1 0-.2-.4-.3-.7-1.6-.5-1-1.5-.5-2.5zm5.6-43.7c-.1.1-.3.2-.4.4-.1-.1-.3-.2-.4-.4 0-.7.4-.9 1-.8.2 0 .6.2.6.3-.1.4-.4.5-.8.5zm4.7 3.4c-.2.1-.3.1-.4 0-.1 1.3-1.1.7-1.7.8 0 1-.8 1.1-1.3.8-.8-.5.1-.8.4-1.1.2-.3.6-.4.9-.6h1.7c-.1-.1-.1-.2 0-.4s.3-.3.5-.4c.1.1.3.2.3.3-.2.3-.3.5-.4.6zM52 14.3c-.1.5-.7.2-1.1.3-.4-.1-1.2.3-1.1-.6.1-.5.7-.3 1.1-.3.4.1 1.2-.3 1.1.6zm6.6-.6h-2.1-.8c-.4 0-.8 0-.7-.6 0-.1.4-.2.7-.3h.8 2.1c.1 0 .2.4.3.6 0 .1-.2.3-.3.3zm31.1 19.7v.9c-1.7-.4-.5-1.7-.9-2.6 1.4.1.8 1.1.9 1.7zm-8.4 49.7v4.3h-1.7c1.1-1.3.8-2.8.9-4.3v-.8c0-.4 0-.8.6-.7.1 0 .2.4.3.7-.1.3-.1.6-.1.8zm4.8-8.6c-.8-1.6-.4-3.4-.5-5.1.2-.3.5-.4.9-.5.3.1.6.2.9.5-1.4 1.5-.8 3.4-1.3 5.1zm2.1-9.4c0 .6-.3.9-.9.9 0-.6.3-.9.9-.9 0-.6.3-.9.9-.9-.1.7-.3 1-.9.9zM95 77.2c.1.3 0 .6 0 .8-.6-.3-1.1-.6-1.7-.9.3-1.1-.7-3.2.7-3.3 1.9.1.7 2.2 1 3.4zm6-28.7c0-.1.3-.2.5-.3.5.3.3.7.3 1.1 0 .1-.4.4-.5.3-.5-.3-.3-.7-.3-1.1zm.4 3.9c.2-.3 1.1-.2 1.3.4s0 1.4 0 2c-.3.3-.3.8-.9.9-1.3-.9-1-2.2-.4-3.3zm1.2 16.7l-.3.3-.3-.6c0-.1.2-.2.3-.3.1.3.2.4.3.6zm-1.6 9.8c.3-.3.3-.8.9-.9 1.3.1.7 1.1.9 1.7v.9c-.3.3-.6.3-.9 0-1.3-.1-.8-1.1-.9-1.7zm1.8 3.4c-.6.1-1-.1-1-.8.3-.4.6-.4.9 0 .4-.1.7.1.7.5.1.1-.3.2-.6.3z" fill="#fec11e"/><path d="M68.1 54.1c.4-2.5-2.7-4.5-7-4.3-2.5 0-6.4 3.3-6.2 5.2.2 1.5 1.7 2.3 1.9 4.1.2 1.2 1.9.4 2.9.6 4.7 0 7.8-2.1 8.4-5.6z"/><use xlink:href="#B"/><defs ><path id="B" d="M68.6 30.1c-.7.5-.5 1.5-.3 1.9.5 1.1 1.7 1.6 2.1 2.9.1.3 1.8.1 2.8.2s1.6-.7 1.9-1.4.3-1.6-.5-2.3c-1.2-1-2.2-2.2-3.3-3.3-1.5.5-1.9 1.4-2.7 2z"/></defs></svg>