<svg xmlns="http://www.w3.org/2000/svg" width="32.09" height="39.438" viewBox="0 0 32.09 39.438">
  <defs>
    <style>
      .cls-1 {
        fill: #1e1e1e;
        fill-rule: evenodd;
      }
    </style>
  </defs>
  <path id="contact-graphic" class="cls-1" d="M1410.69,33.75h-9.85a5.447,5.447,0,0,0-5.42,5.441V43.2a5.358,5.358,0,0,0,.77,2.774,4.559,4.559,0,0,1-1.98,2.255,0.373,0.373,0,0,0,.11.7,5.228,5.228,0,0,0,3.99-.922,5.383,5.383,0,0,0,2.53.633h9.84a5.441,5.441,0,0,0,5.42-5.441V39.191A5.439,5.439,0,0,0,1410.69,33.75Zm-10.11,9.094a1.669,1.669,0,0,1-1.66-1.484v-0.4A1.677,1.677,0,1,1,1400.58,42.844Zm5.16,0.11a1.685,1.685,0,1,1,1.68-1.685A1.679,1.679,0,0,1,1405.74,42.954Zm5.16,0.109a1.644,1.644,0,0,1-.33-0.034,1.684,1.684,0,0,1,0-3.3,1.644,1.644,0,0,1,.33-0.034A1.685,1.685,0,0,1,1410.9,43.063Zm-6.28,8.09v4.795a1.091,1.091,0,0,1-1.08,1.089h-16.22a1.084,1.084,0,0,1-1.08-1.089V30.242a1.084,1.084,0,0,1,1.08-1.089h16.22a1.091,1.091,0,0,1,1.08,1.089v1h2.24v-3.62a4.244,4.244,0,0,0-4.22-4.242h-14.42a4.252,4.252,0,0,0-4.23,4.242V58.568a4.252,4.252,0,0,0,4.23,4.242h14.42a4.244,4.244,0,0,0,4.22-4.242V51.153h-2.24Zm-9.19,10.779a1.972,1.972,0,1,1,1.96-1.972A1.961,1.961,0,0,1,1395.43,61.932Z" transform="translate(-1384 -23.375)"/>
</svg>
