<svg xmlns="http://www.w3.org/2000/svg" width="1053.499" height="134.56" viewBox="0 0 1053.499 134.56">
  <defs>
    <style>
      .cls-1 {
        fill: #1e1e1e;
        fill-rule: evenodd;
      }
    </style>
  </defs>
  <path id="dopamine" class="cls-1" d="M202.635,1371.32H145.962v18.05h-0.339c-6.787-5.28-15.441-7.83-26.47-7.83-29.864,0-44.626,18.9-44.626,57.06,0,36.45,13.4,55.35,40.214,55.35,14.593,0,25.282-5.62,32.239-17.37h0.34l1.187,13.96h55.825a127.416,127.416,0,0,1-1.7-23.33v-95.89Zm-61.763,52.29a8.233,8.233,0,0,1,5.09,1.53v25.21a8.233,8.233,0,0,1-5.09,1.53c-5.26,0-7.127-3.75-7.127-14.14S135.612,1423.61,140.872,1423.61Zm134.209-42.07c-45.3,0-65.836,17.37-65.836,56.2s20.532,56.21,65.836,56.21,65.836-17.37,65.836-56.21S320.386,1381.54,275.081,1381.54Zm0,42.07c5.09,0,6.618,3.06,6.618,14.13s-1.528,14.14-6.618,14.14-6.617-3.06-6.617-14.14S269.991,1423.61,275.081,1423.61Zm161.188-42.07c-14.592,0-25.282,5.62-32.239,17.37h-0.339l-1.188-13.97H348.375v117.53h56.673v-16.35h0.339c6.788,5.28,15.611,7.83,26.64,7.83,29.694,0,44.456-18.9,44.456-57.06C476.483,1400.44,463.078,1381.54,436.269,1381.54Zm-26.131,42.07c5.26,0,7.127,3.75,7.127,14.13s-1.867,14.14-7.127,14.14a8.233,8.233,0,0,1-5.09-1.53v-25.21A8.233,8.233,0,0,1,410.138,1423.61Zm121.484-42.07a274.374,274.374,0,0,0-48.867,4.26l1.7,47.52c7.126-4.26,20.022-6.82,33.6-6.82,16.968,0,24.6,3.92,24.6,12.61v0.34h-0.34c-6.617-3.41-16.968-5.45-27.657-5.45-23.416,0-34.785,9.88-34.785,30.31,0,19.93,10.69,29.64,32.579,29.64,14.762,0,25.961-4.43,32.748-12.94h0.339l2.206,9.53h53.449a127.416,127.416,0,0,1-1.7-23.33v-32.7C599.494,1394.99,582.187,1381.54,531.622,1381.54Zm6.109,71.36a7.607,7.607,0,0,1,4.921,1.37v14.64a7.607,7.607,0,0,1-4.921,1.37c-4.751,0-6.448-2.05-6.448-8.69S532.98,1452.9,537.731,1452.9Zm227.024-71.36c-16.628,0-27.148,5.28-35.463,17.37h-0.339c-4.242-11.92-13.914-17.37-30.373-17.37s-27.148,5.45-34.614,17.37h-0.34l-1.187-13.97h-53.28v105.6h55.825v-65.4a12.014,12.014,0,0,1,5.43-1.53c4.242,0,5.769,2.55,5.769,9.2v57.73h55.824v-65.4a9.514,9.514,0,0,1,5.26-1.53c4.412,0,5.939,2.38,5.939,9.2v57.73h55.825v-66.42C799.031,1393.29,789.7,1381.54,764.755,1381.54Zm72.784-13.63c-19.852,0-29.185,6.82-29.185,21.12s9.333,21.12,29.185,21.12,29.185-6.81,29.185-21.12S857.392,1367.91,837.539,1367.91Zm28.337,43.43c-7.8,3.41-17.138,5.11-28.337,5.11-11.029,0-20.361-1.7-28.336-5.11v79.2h56.673v-79.2Zm101.3-29.8c-16.629,0-27.318,5.28-34.784,17.37h-0.34l-1.187-13.97H876.732v105.6h56.673v-65.4a9.512,9.512,0,0,1,5.26-1.53c4.412,0,5.939,2.38,5.939,9.2v57.73h56.676v-66.42C1001.28,1393.29,991.944,1381.54,967.171,1381.54Zm104.349,0c-43.95,0-63.46,17.03-63.46,55.52,0,40.2,21.38,56.89,73.3,56.89a199.467,199.467,0,0,0,42.42-4.26l-1.7-46.32a120.271,120.271,0,0,1-32.07,4.08c-15.44,0-21.55-2.04-22.4-8.68h58.88c0.85-2.73,1.53-10.22,1.53-15.67C1128.02,1394.65,1110.2,1381.54,1071.52,1381.54Zm2.71,29.98c5.43,0,6.96,3.06,7.13,13.96H1067.1C1067.27,1414.58,1068.8,1411.52,1074.23,1411.52Z" transform="translate(-74.531 -1367.91)"/>
</svg>
