<svg xmlns="http://www.w3.org/2000/svg" width="1053.499" height="134.56" xmlns:v="https://vecta.io/nano"><path d="M128.104 3.41H71.431v18.05h-.339c-6.787-5.28-15.441-7.83-26.47-7.83-29.864 0-44.626 18.9-44.626 57.06 0 36.45 13.4 55.35 40.214 55.35 14.593 0 25.282-5.62 32.239-17.37h.34l1.187 13.96h55.825c-1.281-7.708-1.85-15.518-1.7-23.33V3.41zM66.341 55.7c1.819-.067 3.609.471 5.09 1.53v25.21c-1.481 1.059-3.271 1.597-5.09 1.53-5.26 0-7.127-3.75-7.127-14.14s1.867-14.13 7.127-14.13zM200.55 13.63c-45.3 0-65.836 17.37-65.836 56.2s20.532 56.21 65.836 56.21 65.836-17.37 65.836-56.21-20.531-56.2-65.836-56.2zm0 42.07c5.09 0 6.618 3.06 6.618 14.13s-1.528 14.14-6.618 14.14-6.617-3.06-6.617-14.14 1.527-14.13 6.617-14.13zm161.188-42.07c-14.592 0-25.282 5.62-32.239 17.37h-.339l-1.188-13.97h-54.128v117.53h56.673v-16.35h.339c6.788 5.28 15.611 7.83 26.64 7.83 29.694 0 44.456-18.9 44.456-57.06 0-36.45-13.405-55.35-40.214-55.35zM335.607 55.7c5.26 0 7.127 3.75 7.127 14.13s-1.867 14.14-7.127 14.14c-1.819.067-3.609-.471-5.09-1.53V57.23c1.481-1.059 3.271-1.597 5.09-1.53zm121.484-42.07c-16.384-.042-32.738 1.384-48.867 4.26l1.7 47.52c7.126-4.26 20.022-6.82 33.6-6.82 16.968 0 24.6 3.92 24.6 12.61v.34h-.34c-6.617-3.41-16.968-5.45-27.657-5.45-23.416 0-34.785 9.88-34.785 30.31 0 19.93 10.69 29.64 32.579 29.64 14.762 0 25.961-4.43 32.748-12.94h.339l2.206 9.53h53.449c-1.281-7.708-1.85-15.518-1.7-23.33V66.6c0-39.52-17.307-52.97-67.872-52.97zm6.109 71.36c1.749-.124 3.488.36 4.921 1.37V101c-1.433 1.01-3.172 1.494-4.921 1.37-4.751 0-6.448-2.05-6.448-8.69s1.697-8.69 6.448-8.69zm227.024-71.36c-16.628 0-27.148 5.28-35.463 17.37h-.339c-4.242-11.92-13.914-17.37-30.373-17.37S596.901 19.08 589.435 31h-.34l-1.187-13.97h-53.28v105.6h55.825v-65.4c1.663-.934 3.524-1.458 5.43-1.53 4.242 0 5.769 2.55 5.769 9.2v57.73h55.824v-65.4c1.565-1.015 3.395-1.547 5.26-1.53 4.412 0 5.939 2.38 5.939 9.2v57.73H724.5V56.21c0-30.83-9.331-42.58-34.276-42.58zM763.008 0c-19.852 0-29.185 6.82-29.185 21.12s9.333 21.12 29.185 21.12 29.185-6.81 29.185-21.12S782.861 0 763.008 0zm28.337 43.43c-7.8 3.41-17.138 5.11-28.337 5.11-11.029 0-20.361-1.7-28.336-5.11v79.2h56.673v-79.2zm101.3-29.8c-16.629 0-27.318 5.28-34.784 17.37h-.34l-1.187-13.97h-54.133v105.6h56.673v-65.4a9.51 9.51 0 0 1 5.26-1.53c4.412 0 5.939 2.38 5.939 9.2v57.73h56.676V56.21c0-30.83-9.336-42.58-34.109-42.58zm104.349 0c-43.95 0-63.46 17.03-63.46 55.52 0 40.2 21.38 56.89 73.3 56.89 14.252.1 28.473-1.329 42.42-4.26l-1.7-46.32a120.27 120.27 0 0 1-32.07 4.08c-15.44 0-21.55-2.04-22.4-8.68h58.88c.85-2.73 1.53-10.22 1.53-15.67-.005-28.45-17.825-41.56-56.505-41.56zm2.71 29.98c5.43 0 6.96 3.06 7.13 13.96h-14.265c.17-10.9 1.7-13.96 7.13-13.96z" fill="#1e1e1e" fill-rule="evenodd"/></svg>