<svg xmlns="http://www.w3.org/2000/svg" width="220.938" height="17.625" viewBox="0 0 220.938 17.625">
  <defs>
    <style>
      .cls-1 {
        fill: #1e1e1e;
        fill-rule: evenodd;
      }
    </style>
  </defs>
  <path id="every-time" class="cls-1" d="M574.689,440.362c-5.638,0-8.141,2.177-8.141,7.1,0,5.138,2.743,7.271,9.4,7.271a25.737,25.737,0,0,0,5.442-.544l-0.217-5.921a15.468,15.468,0,0,1-4.115.522c-1.981,0-2.764-.261-2.873-1.11h7.554a9.42,9.42,0,0,0,.2-2C581.939,442.038,579.653,440.362,574.689,440.362Zm0.349,3.831c0.7,0,.892.392,0.914,1.785h-1.829C574.145,444.585,574.341,444.193,575.038,444.193Zm23.662-3.4h-7.51l-0.522,8.229H590.1l-0.523-8.229H581.96l2.591,13.5H596.11Zm8.229-.435c-5.638,0-8.142,2.177-8.142,7.1,0,5.138,2.743,7.271,9.4,7.271a25.747,25.747,0,0,0,5.443-.544l-0.218-5.921a15.46,15.46,0,0,1-4.114.522c-1.981,0-2.765-.261-2.874-1.11h7.554a9.355,9.355,0,0,0,.2-2C614.178,442.038,611.892,440.362,606.929,440.362Zm0.348,3.831c0.7,0,.893.392,0.914,1.785h-1.828C606.384,444.585,606.58,444.193,607.277,444.193Zm17.48-3.831a3.234,3.234,0,0,0-3.309,2.851h-0.043L621.34,440.8h-6.27v13.5h7.314v-4.876c0-1.611.588-2.417,2.112-2.417a5.344,5.344,0,0,1,1.241.131v-6.661A4.09,4.09,0,0,0,624.757,440.362Zm17.785,0.435h-7.51l-0.523,6.378a0.84,0.84,0,0,1-.3.066,0.315,0.315,0,0,1-.327-0.349l-0.457-6.095H625.8l1.045,5.421c0.588,2.96,1.5,3.635,4.724,3.635a11.615,11.615,0,0,0,2.307-.2h0.044c-0.414.74-1.132,1.067-2.852,1.067a10.525,10.525,0,0,1-4.136-.784l0.218,5.66a21.758,21.758,0,0,0,5.485.653c4.942,0,7.228-1.676,7.99-5.4Zm20.4-1.741h-7.271v2.307h-0.043a5.341,5.341,0,0,0-3.4-1c-3.832,0-5.725,2.416-5.725,7.292,0,4.659,1.719,7.075,5.159,7.075a4.444,4.444,0,0,0,4.136-2.22h0.043L656,454.294h7.162a16.18,16.18,0,0,1-.218-2.982V439.056Zm-7.924,6.683a1.055,1.055,0,0,1,.653.2v3.221a1.055,1.055,0,0,1-.653.2c-0.675,0-.914-0.479-0.914-1.806S654.34,445.739,655.015,445.739Zm15.369-5.377a35.423,35.423,0,0,0-6.27.544l0.218,6.074a9.235,9.235,0,0,1,4.31-.871c2.177,0,3.157.5,3.157,1.611v0.043h-0.044a8.3,8.3,0,0,0-3.548-.7c-3,0-4.463,1.262-4.463,3.874,0,2.547,1.372,3.788,4.18,3.788a5.12,5.12,0,0,0,4.2-1.654h0.044l0.283,1.219h6.857a16.269,16.269,0,0,1-.218-2.982v-4.18C679.091,442.081,676.871,440.362,670.384,440.362Zm0.783,9.121a0.988,0.988,0,0,1,.632.174v1.872a0.982,0.982,0,0,1-.632.174c-0.609,0-.827-0.261-0.827-1.11S670.558,449.483,671.167,449.483Zm29.127-9.121a4.944,4.944,0,0,0-4.55,2.22H695.7c-0.544-1.524-1.785-2.22-3.9-2.22a4.715,4.715,0,0,0-4.441,2.22H687.32l-0.153-1.785h-6.835v13.5h7.162v-8.359a1.538,1.538,0,0,1,.7-0.2c0.545,0,.741.326,0.741,1.175v7.38h7.162v-8.359a1.218,1.218,0,0,1,.674-0.2c0.566,0,.762.3,0.762,1.175v7.38h7.162V445.8C704.691,441.864,703.494,440.362,700.294,440.362Zm17.35,0a4.689,4.689,0,0,0-4.463,2.22h-0.044l-0.152-1.785h-6.944v13.5h7.271v-8.359a1.215,1.215,0,0,1,.674-0.2c0.566,0,.762.3,0.762,1.175v7.38h7.271V445.8C722.019,441.864,720.822,440.362,717.644,440.362Zm16.739-1.306h-7.271v10.035c0,4.093,1.764,5.638,6.509,5.638a12.983,12.983,0,0,0,3.44-.435v-6.313a4.355,4.355,0,0,1-1.589.305c-0.827,0-1.089-.24-1.089-0.871v-1.35h2.678V440.8h-2.678v-1.741Zm7.467-.436c-2.547,0-3.744.871-3.744,2.7s1.2,2.7,3.744,2.7,3.744-.871,3.744-2.7S744.4,438.62,741.85,438.62Zm3.635,5.551a9.031,9.031,0,0,1-3.635.653,9.188,9.188,0,0,1-3.636-.653v10.123h7.271V444.171Zm21.356-3.809a4.943,4.943,0,0,0-4.55,2.22h-0.044c-0.544-1.524-1.785-2.22-3.9-2.22a4.715,4.715,0,0,0-4.441,2.22h-0.044l-0.152-1.785h-6.836v13.5h7.162v-8.359a1.542,1.542,0,0,1,.7-0.2c0.544,0,.74.326,0.74,1.175v7.38h7.162v-8.359a1.221,1.221,0,0,1,.675-0.2c0.566,0,.762.3,0.762,1.175v7.38h7.162V445.8C771.238,441.864,770.041,440.362,766.841,440.362Zm13.409,0c-5.638,0-8.142,2.177-8.142,7.1,0,5.138,2.743,7.271,9.405,7.271a25.744,25.744,0,0,0,5.442-.544l-0.218-5.921a15.455,15.455,0,0,1-4.114.522c-1.981,0-2.765-.261-2.874-1.11H787.3a9.355,9.355,0,0,0,.2-2C787.5,442.038,785.213,440.362,780.25,440.362Zm0.348,3.831c0.7,0,.893.392,0.915,1.785h-1.829C779.706,444.585,779.9,444.193,780.6,444.193Z" transform="translate(-566.562 -438.625)"/>
</svg>
