<svg xmlns="http://www.w3.org/2000/svg" viewBox="0 0 99.8 117.8" xmlns:v="https://vecta.io/nano"><path d="M6.3 58.7c.1 0 .2-.1.2-.2.3-.8.2-2 .1-2.9 0-.9-.2-.9-1.1-1.1h-.2c-.2 0-.4.1-.4.3-.1 1-.3 2.2-.1 3.2.2.7.9.8 1.5.7zm-.7-2.2c0-.5 0-.9.1-1.4.1 0 .2.1.3.2.1.2 0 .7 0 1 0 .5 0 1.1-.1 1.6-.5 0-.3-1-.3-1.4zm.7-2.4c.7-.2.5-1.3.5-1.8 0-.4.1-1 0-1.4s-.3-.4-.7-.6h-.2c-.2-.3-.5-.3-.6 0-.2 1-.4 2.2-.3 3.2.1.7.8.7 1.3.6zm-.5-.8v-.8c0-.5.1-1.1.2-1.6.2.1.2.1.1.4v.8.9.3c0 .3 0 .3-.1.1-.1 0-.2 0-.2-.1-.3.1-.2.1 0 0zm.9-3.3c.2 0 .4-.1.4-.3.1-.1.1-.1.1-.2l.3-2.2c.1-.6-.1-.7-.6-1.1-.1 0-.1-.1-.2-.1-.2-.1-.5-.1-.5.2-.2.9-.5 1.8-.6 2.8-.1.7.5.8 1.1.9zm-.1-2.1c.1-.3.1-.6.2-.9 0 .1 0 .1.1.3 0 .2-.1.5-.1.8-.1.4-.1.8-.2 1.2-.1 0-.2 0-.3-.1 0-.4.2-1 .3-1.3zm1-2c.2 0 .2-.1.3-.2.1 0 .2-.1.3-.3l.5-2.3c.1-.6-.3-.8-.8-1 .1-.4-.7-.4-.7 0-.1.5-.1 1-.3 1.5-.1.4-.3.8-.3 1.2.1.7.4 1.1 1 1.1zm.1-2.4c0-.2.1-.4.1-.6h.1c.1.1.1.1 0 .3 0 .2-.1.4-.1.6l-.3 1.4c-.2-.2.2-1.5.2-1.7zm.8-1.7c.1.1.2 0 .3 0 .1.1.3.1.4 0 .3-.3.5-.7.6-1.1l.7-1.8c.1-.3-.2-.5-.4-.4v-.1c-.2-.2-.5-.4-.8-.5-.2-.2-.5-.2-.6.1l-.3 1.3c-.2.4-.5.8-.6 1.3-.2.7.2 1 .7 1.2zm.1-1.2c.1-.3.3-.5.4-.8.2-.4.3-.7.3-1.1.1 0 .2.1.3.2s.1.1.2.1c-.1.4-.3.7-.4 1.1s-.2.8-.5 1.1c-.4-.1-.4-.2-.3-.6z"/><path d="M10.2 38c.2.1.4-.1.4-.3.1 0 .1-.1.2-.2l1.1-2.8c.1-.3-.1-.4-.4-.4l-.5-.5c.1-.4-.5-.5-.7-.1-.2.6-.5 1.1-.7 1.7-.2.5-.5 1-.6 1.5 0 .7.7.9 1.2 1.1zm-.3-1.3c0-.3.2-.6.3-.9l.5-1.3.3.3-.9 2.4c-.1 0-.2-.1-.3-.1-.1-.1-.1-.2.1-.4zm1.8-3c.1.2.4.2.6 0l1.5-2.3c.1-.2 0-.5-.2-.5v-.1l-.6-.7-.1-.1c-.1-.3-.5-.4-.6-.1l-1.2 2.7c-.3.7.2.9.6 1.1zm.1-.9c0-.2.3-.6.4-.8l.5-1.2.4.4L12 33s-.1 0-.1-.1c-.3 0-.3-.1-.1-.1zm2.3-2.8c.1 0 .1-.1.1-.1l1.7-2.6c0-.1.1-.1.1-.2s0-.2-.1-.3c-.2-.2-.4-.5-.6-.7-.1-.1-.4-.1-.5 0-.7.8-1.3 1.7-1.8 2.7v.1c-.5.3.3 1 .5 1.3.3.3.6 0 .6-.2zm-.5-.8l1.5-2.3.2.2-1.6 2.3c0-.1 0-.1-.1-.2zm2.6-3.5c.1.2.4.4.6.2l2.7-2.8c.2-.2.1-.4 0-.5 0-.1 0-.2-.1-.4-.2-.2-.3-.4-.5-.6 0-.3-.3-.5-.6-.3l-1.1 1.2c-.1.1-.1.2-.1.3l-1.3 1.5s0 .1-.1.1c-.2.1-.3.2-.2.4.3.5.4.8.7.9zm.3-.7l1.4-1.7c.1-.1.1-.2.1-.3.2-.2.4-.4.6-.7.1.1.2.3.4.4l-2.3 2.4c-.2 0-.2 0-.2-.1zm3.5-3.4c.1.1.3.1.4 0l.1-.1c.6-.9 1.3-1.8 2-2.6.1-.1.1-.3 0-.4.1-.1.2-.3.1-.4-.1-.2-.2-.4-.3-.5-.1-.2-.4-.2-.5-.1l-2.3 2.4c-.1.1-.1.2-.1.3-.2.1-.4.4-.2.6.4.3.6.6.8.8zm.1-1.2c.6-.7 1.3-1.4 2-2.1 0 0 0 .1.1.1-.7.7-1.3 1.5-1.8 2.3l-.3-.3c-.1.1 0 .1 0 0zm3.9-2.3l3.1-2.7c.1-.1.1-.2.1-.3.1-.1.1-.3 0-.4l-.3-.3c0-.1-.1-.3-.3-.3-.2-.2-.6 0-.6.3l-2.9 2.3c-.1.1-.1.2-.1.3-.1.1-.1.2-.1.3.1.4.3.7.5 1 .3 0 .5 0 .6-.2zm-.3-1l2.8-2.2.1.1-2.8 2.4c-.1-.1-.1-.2-.1-.3zm3.5-3.1c.2.2.4.5.6.7a.45.45 0 0 0 .5 0l2.4-1.6c.1-.1.2-.2.1-.4.2-.1.3-.3.2-.5s-.2-.3-.2-.5-.3-.3-.5-.2l-3 1.7c-.2.1-.2.3-.1.5-.1 0-.1.2 0 .3zm3.1-1.7c0 .1 0 .1.1.2L28.2 14l-.3-.3 2.4-1.4zm1.1-.2c.1.3.6.3.7 0l2-1.2c.1-.1.1-.1.1-.2.1 0 .2 0 .2-.1.4-.3.4-1.4-.3-1.5-.4 0-.9.4-1.2.5-.6.3-1.1.6-1.7.8-.1.1-.2.2-.2.3-.1.1-.2.2-.1.4.3.4.4.7.5 1zm1.8-1.6c.2-.1.6-.2.7-.4h.1c0 .1 0 .1-.1.1l-.1.1h-.2l-1.8 1.1c0-.1-.1-.2-.1-.3.6-.2 1-.4 1.5-.6z"/><path d="M36 10.1l3.3-1.5c.2-.1.2-.4.1-.5v-.2c-.1-.2-.1-.3-.2-.5s-.3-.2-.5-.1c-1 .6-2.1 1-3.2 1.3-.1 0-.2.1-.2.2-.2.1-.3.2-.2.3.1.3.2.6.4 1 .1.3.3.2.5 0zM38.6 8s0 .1 0 0c0 .1.1.1 0 0l-2.7 1.4c0-.1 0-.2-.1-.2A13.9 13.9 0 0 0 38.6 8zm1.4.1c.1.1.1.1.2.1h.2l2.6-.7c.2-.1.2-.2.2-.3.1 0 .3-.1.2-.3v-.4c0-.2-.2-.4-.4-.3l-3 .5c-.2 0-.3.2-.3.4-.1.1-.1.2-.1.3.1.3.2.5.4.7zm2.7-1.2c-.7.3-1.5.5-2.3.7 0-.1-.1-.1-.1-.2l2.4-.5zm1.3.2c0 .4.6.4.7.2.7-.2 1.5-.3 2.3-.4.2 0 .3-.2.2-.4.1-.1.1-.1.1-.2 0-.2.1-.4.1-.6s-.1-.5-.3-.4l-2.9.3c-.3 0-.4.3-.3.5v.2c0 .2 0 .5.1.8zM46.7 6v.3l-2.1.3v-.3c.7-.2 1.4-.3 2.1-.3zm-.9 10.9a1.59 1.59 0 0 0 .7-2c-.3-.7-1.1-1-1.9-.8-.1 0-.1 0-.2.1-.6.5-1 1.5-.6 2.3.4.7 1.4.8 2 .4zm-1-2c1-.4 1.5.9.7 1.4-.3.2-.9.2-1.1-.2s.1-.9.4-1.2zm-5.5 3.3c.6.6 1.6.4 2.2-.2s.4-1.4-.2-1.8c-.7-.5-1.7-.3-2.2.3-.1.1-.1.3 0 .4-.2.5-.1 1 .2 1.3zm.5-1.2c.1-.1.1-.2.1-.2.2-.1.4-.1.6-.1.5.1.9.5.5.9-.3.2-.7.4-1 .2-.4-.2-.5-.5-.2-.8zm-3.6 3.7c.7-.3 1.3-1.1 1-1.8-.3-.8-1.3-.9-2-.8-.2 0-.3.2-.2.3-.5.5-.8 1.1-.6 1.8s1.2.7 1.8.5zm-.6-1.9c.1-.1.1-.1 0 0 .4-.1.8-.1.9.2.2.4-.2.8-.5 1-.4.2-1 .3-1-.3.1-.4.4-.7.6-.9zm-2.8 4.5c.8-.3 1.2-1.2 1-2s-1.1-1.3-2-1c-.2.1-.2.2-.2.4-.5.5-1 1.3-.7 2 .2.7 1.2.8 1.9.6zm-.5-2.4c.9-.1 1.2 1.3.2 1.7-.4.2-1 .1-1-.4.1-.5.4-1 .8-1.3zm-3.9 5.5c.7-.2 1.3-.9 1.1-1.7s-1-.9-1.7-.8h-.2c-.7.2-1 1-.9 1.7 0 1 1 1 1.7.8zm-.7-1.7c.3 0 .7-.1.9.1.4.3.1.8-.3 1-.3.1-1 .3-1-.2 0-.3.2-.8.4-.9zm-1.6 5c.4-.8.2-1.8-.6-2.3s-1.8 0-2.1.8v.1c-.4.7-.3 1.7.3 2.2.8.7 2 .1 2.4-.8zm-2-1.3c.1-.1.1-.2.1-.3.2-.2.7-.3 1-.1.4.3.5.8.3 1.2-.2.5-.9 1-1.4.6-.3-.2-.3-1.1 0-1.4zm-2.4 6.5c.8-.4 1.2-1.3.8-2.1-.3-.8-1.2-1.2-2-1-.1 0-.2.1-.2.2-.6.5-.8 1.5-.6 2.2.2.9 1.3 1.1 2 .7zm-.8-2.4c.9-.1 1.5 1.2.6 1.8-.5.4-1.2.2-1.1-.5 0-.5.1-1.1.5-1.3zm-1.8 7.3c1.4-1.2-.1-3.3-1.6-2.7-.1 0-.3 0-.4.1-.5.7-.9 2-.1 2.7.7.5 1.6.4 2.1-.1zm-1.5-2h0c1-.5 1.9.9 1 1.5-.3.2-.9.3-1.2 0-.3-.4 0-1.1.2-1.5zm-2.3 7.6c1 .3 1.9-.1 2.2-1.1.2-.8-.1-1.8-1-2.1-.7-.3-1.4 0-1.8.5-.1 0-.3.1-.3.2-.3 1-.3 2.1.9 2.5zm-.3-1.7c.1 0 .1-.1.1-.2.1-.5.6-.9 1.2-.7.5.2.7.8.5 1.3-.2.7-.7.8-1.3.6-.5-.2-.6-.6-.5-1zm.8 6.3c.6-.8.6-2-.4-2.5-.6-.3-1.4-.2-1.8.3-.1 0-.1 0-.1.1-.6.7-.6 1.8.1 2.4s1.7.4 2.2-.3zm-2-1.4c.1 0 .2-.1.2-.2.1-.4.8-.4 1.1-.3.6.3.4 1.2 0 1.6-.3.3-.8.3-1.1 0s-.3-.7-.2-1.1zm-.2 6.8c.9.1 1.6-.6 1.9-1.5.2-.7-.1-1.5-.8-1.6 0-.1-.1-.1-.2-.2-.9-.2-1.7.5-1.9 1.4-.2.8.2 1.7 1 1.9zm.6-2.6c.1.1.2.2.4.1.6-.1.3.9.2 1.1-.2.4-.7.8-1.1.5-.9-.3-.4-1.7.5-1.7zm84.9-6.1c-1.9-11.9-7.4-23.2-16-31.8-4.5-4.5-9.8-8-15.6-10.7C62.1 1.5 56.1-.3 49.9 0c-6.2-.3-12.1 1.5-17.7 4.1-5.7 2.7-11 6.3-15.6 10.7C8 23.3 2.5 34.6.6 46.6.1 50.7-.1 54.8 0 58.9c-.1 4.1.1 8.2.7 12.2 1.9 11.9 7.4 23.2 16 31.8 4.5 4.5 9.8 8 15.6 10.7 5.5 2.7 11.5 4.5 17.7 4.1 6.2.3 12.1-1.5 17.7-4.1 5.7-2.7 11-6.3 15.6-10.7 8.6-8.5 14.1-19.8 16-31.8.6-4.1.8-8.1.7-12.2s-.3-8.2-.9-12.2zm0 12.2v.5h0c.2 9.4-1.5 18.8-5.5 27.4-5 10.5-13.1 19.1-23.3 24.6-6.3 3.4-13.1 6-20.4 5.6-7.2.4-14.1-2.2-20.4-5.6-10.2-5.6-18.3-14.1-23.3-24.6-4-8.6-5.8-18-5.5-27.4h0v-.5-.5h0C.5 49 2.2 39.6 6.3 31c5-10.5 13.1-19.1 23.3-24.6C35.9 3 42.7.4 50 .8 57.1.3 64 3 70.3 6.4 80.5 11.9 88.6 20.5 93.6 31c4 8.6 5.8 18 5.5 27.4h0v.5z"/><path d="M98.4 56.7c-.2-5.6-.9-11.2-2.4-16.6C93.3 30 88 21 80 14.3c-4.2-3.6-8.8-7.2-13.9-9.5-5-2.3-10.5-3.1-16-3.8h-.2-.2c-5.4.7-10.9 1.5-16 3.8s-9.7 5.9-13.9 9.5C11.8 21 6.5 30 3.8 40.1c-1.5 5.4-2.2 11-2.4 16.6-.1.1-.1.1-.1.3v1.9 1.9c0 .1 0 .2.1.3.2 5.6.9 11.2 2.4 16.6 2.7 10.1 8.1 19.1 16.1 25.8 4.2 3.6 8.8 7.2 13.9 9.5 5 2.3 10.5 3.1 16 3.8h.2.2c5.4-.7 10.9-1.5 16-3.8s9.7-5.9 13.9-9.5c8-6.8 13.3-15.7 16.1-25.8 1.5-5.4 2.2-11 2.4-16.6.1-.1.1-.1.1-.3v-1.9V57c-.2-.1-.2-.2-.3-.3zm-.7.3c-.2-.3-.4-.4-.7-.6.4-.3.7-.7.6-1.2a1.62 1.62 0 0 0-1.2-1.6c.5-.3.9-.7 1-1.3.2 1.5.3 3.1.3 4.7zM67 108.3c-5.3 2.8-11.1 4.5-17.1 5.1-6-.6-11.7-2.4-17.1-5.1C14.4 98.6 4.7 79 4.6 58.9c.1-20.1 9.8-39.7 28.3-49.4C38.2 6.7 44 5 49.9 4.4c6 .6 11.8 2.3 17.1 5.1 18.5 9.7 28.2 29.3 28.3 49.4-.1 20.1-9.9 39.7-28.3 49.4zm14.7-8.4c-.5.6-1.3.7-1.8.1-.1-.1-.2-.1-.2-.1.6-.6 1.2-1.3 1.8-1.9.4.6.6 1.3.2 1.9zm-2.2 2.1c-.6.6-1.4.3-2 0h-.1c.5-.5 1-.9 1.6-1.4l.4-.4v.2c.2.4.5 1.2.1 1.6zm-2.7.9c.6.6.1 1.5-.8 1.4-.3 0-.6-.2-.8-.4.5-.4 1.1-.8 1.6-1.3-.1.1-.1.2 0 .3zm-2.5 2.8c-.5.2-.8 0-1.1-.4.4-.3.9-.6 1.3-.9.1.2.3.3.4.5.1.5-.1.8-.6.8zm-1.8 1.4c-.5.2-.9-.2-1.2-.6a9.13 9.13 0 0 1 1.3-.8v.1c.2.5.4 1.1-.1 1.3zm-2.1 1.7c-.6.6-1.4 0-1.9-.5.6-.4 1.3-.7 1.9-1.1.5.4.4 1.1 0 1.6zm-2.8 1.5c-.6.1-1.3-.2-1.8-.5l-.1-.1c.7-.3 1.4-.7 2.1-1.1.4.5.6 1.6-.2 1.7zm-3 .9c-.5.1-.9-.2-1.2-.5.6-.2 1.2-.5 1.8-.8v.2c.3.5 0 1-.6 1.1zm-2.6 1.6c-.7.3-1.2-.1-1.5-.7 0-.1 0-.2-.1-.2.7-.2 1.4-.5 2.1-.8.3.6.2 1.4-.5 1.7zm-2.7.8c-.6 0-1.2-.3-1.3-1 .6-.2 1.2-.4 1.9-.6 0 .1 0 .1.1.2 0 .7 0 1.3-.7 1.4zm-2.9.7c-.7.3-1.2-.4-1.4-.9.6-.1 1.3-.3 1.9-.4.1.4 0 1-.5 1.3zm-3.1.5c-.4-.1-.5-.7-.8-1.1l1.7-.3c.1.7-.1 1.6-.9 1.4zm-6-1c-.2.4-.4 1-.8 1.1-.7.2-1-.8-.9-1.3.6 0 1.1.1 1.7.2zm-2.5-.5c-.2.6-.7 1.2-1.4.9-.6-.2-.6-.9-.5-1.4.7.2 1.3.4 1.9.5zm-2.9-.7c-.1.6-.7 1-1.3 1-.7-.1-.8-.7-.6-1.3 0-.1.1-.1.1-.2.6.2 1.2.3 1.8.5zm-2.5-.8c0 .1-.1.2-.1.3-.2.6-.8 1.1-1.5.7-.7-.3-.8-1.1-.6-1.8.8.3 1.5.6 2.2.8zm-2.9-1.1c-.3.3-.7.6-1.2.5-.6-.1-.9-.6-.6-1.1v-.2c.6.3 1.2.6 1.8.8zm-2.4-1c-.6.4-1.2.7-1.8.6-.8-.1-.6-1.2-.3-1.7.7.4 1.4.7 2.1 1.1zm-2.8-1.5c0 .1 0 .1 0 0-.4.5-1.3 1.2-1.9.5-.4-.5-.5-1.2 0-1.6.7.4 1.3.8 1.9 1.1zm-2.8-1.6c-.3.4-.7.8-1.2.6s-.3-.9-.1-1.3v-.1c.5.2.9.5 1.3.8zm-1.9-1.3c-.3.4-.6.6-1.1.4-.5 0-.7-.3-.6-.9.1-.2.3-.3.4-.5.4.4.9.7 1.3 1zm-3.4-2.7c.5.4 1 .9 1.6 1.3-.3.2-.5.3-.8.4-.9.1-1.4-.7-.8-1.4v-.3zm-.8-.6h-.1c-.6.3-1.4.5-2 0-.4-.4-.1-1.2.1-1.6v-.2c.1.1.2.3.4.4.6.5 1.1.9 1.6 1.4zm-2.2-2.1c-.1 0-.2 0-.2.1-.5.6-1.3.5-1.8-.1-.4-.6-.2-1.3.2-1.9.5.6 1.1 1.3 1.8 1.9zM15.7 23a14.29 14.29 0 0 0-1.4 2c-.5-.5-.9-1.2-.4-1.8.4-.7 1.2-.5 1.8-.2zm.5-2.6c.5-.2.9 0 1.4.2-.5.6-1.1 1.2-1.6 1.9 0 0 0-.1-.1-.1-.3-.7-.6-1.7.3-2zm-2.5 5.2c-.3.6-.7 1.1-1 1.6 0 0 0-.1-.1-.1-.4-.4-1.3-1.2-.5-1.7.5-.3 1.2-.3 1.6.2zm-1.4 2.3L11.1 30c-.5-.4-.7-1.1-.4-1.6.3-.6 1-.8 1.6-.5zm-1.6 2.7c-.4.7-.8 1.4-1.1 2.2-.4-.5-1-.8-.9-1.5.2-.9 1.3-.9 2-.7zm-1.4 2.9c-.4.8-.7 1.7-1.1 2.5 0-.1-.1-.2-.1-.2-.5-.4-1.1-1.2-.8-1.8s1.4-.6 2-.5zm-1.5 3.4c-.2.6-.4 1.2-.7 1.8-.4-.2-.8-.6-.7-1.1 0-.3.2-.5.4-.6.1-.1.2-.1.3-.1h.3.4zm-1.1 2.6h.2c-.2.7-.5 1.4-.7 2.1-.6-.3-1.1-.7-1-1.4 0-.7.9-.9 1.5-.7zM6 42.4c-.2.8-.4 1.5-.5 2.3l-.1-.1c-.6-.3-1.2-.7-1-1.4s.9-1 1.6-.8zm-1 3c0 .2.1.2.3.3-.1.6-.3 1.2-.4 1.8-.4-.3-1-.6-1-1.2 0-.3.3-.5.5-.7.2 0 .6.1.6-.2zm-.3 3c0 .2 0 .4-.1.5-.1.5-.1 1-.2 1.4-.4-.2-.9-.5-.9-1.1-.1-.6.5-1 1.2-.8zm-.4 2.7c-.1.7-.1 1.3-.2 2-.4-.2-.9-.5-1-.9-.2-.8.6-1.1 1.2-1.1zm-.3 3c0 .6-.1 1.2-.1 1.9-.5.1-1-.3-1-.8 0-.6.5-1 1.1-1.1zM3.6 57h.2v1.5H3c-.3-.1-.5-.4-.4-.7.1-.6.6-.9 1-.8zM3 59.4h.9v1.5h-.2c-.5.1-1-.2-1.1-.7-.1-.4.1-.7.4-.8zm.9 2.4c0 .6.1 1.2.1 1.9-.6-.1-1.1-.4-1.1-1s.5-.9 1-.9zm.2 2.9c.1.7.1 1.3.2 2-.6 0-1.4-.3-1.2-1 .1-.5.6-.8 1-1zm.3 2.7c.1.5.1 1 .2 1.4 0 .2.1.4.1.5-.6.2-1.3-.3-1.2-.9 0-.4.4-.7.9-1zm.4 2.9c.1.6.2 1.2.4 1.8-.1 0-.2.1-.3.3 0-.2-.4-.2-.6-.2-.3-.1-.5-.4-.5-.7 0-.6.6-1 1-1.2zm.5 2.9h0c.3.7.5 1.5.7 2.2h-.1c-.6.1-1.4-.1-1.6-.8-.1-.7.5-1.1 1-1.4zm.9 3c0-.1 0-.1 0 0 .3.7.5 1.4.7 2.1h-.2c-.6.3-1.4.1-1.5-.7-.1-.7.4-1.2 1-1.4zm1 2.9c.2.6.5 1.2.7 1.8-.1 0-.3.1-.3.2h-.3c-.2-.1-.3-.1-.4-.2-.2-.1-.4-.4-.4-.6-.1-.5.2-1 .7-1.2zM8 82c.1-.1.1-.1.1-.2a27.18 27.18 0 0 0 1.1 2.5c-.6.1-1.7.1-2-.5-.2-.6.4-1.4.8-1.8zm1.6 3c.4.7.7 1.5 1.1 2.2-.7.2-1.8.2-2-.7-.1-.7.5-1.1.9-1.5zm1.5 2.8l1.2 2.1c-.6.3-1.3.1-1.6-.5-.4-.5-.1-1.2.4-1.6zm1.5 2.9c.1-.1.1-.1 0 0 .4.4.7 1 1.1 1.5-.4.5-1.1.5-1.6.1-.8-.5.1-1.3.5-1.6zm1.6 2.2c.5.6 1 1.3 1.5 1.9-.6.3-1.4.4-1.8-.1-.7-.6-.2-1.3.3-1.8zm1.8 2.6s0-.1.1-.1c.5.6 1 1.3 1.6 1.9-.5.1-.9.3-1.4.2-1-.4-.7-1.4-.3-2zm2.1-77.6c.5-.6 1.3-.7 1.8-.1.1.1.2.1.2.1-.6.6-1.2 1.3-1.8 1.9-.4-.6-.6-1.3-.2-1.9zm2.2-2.1c.6-.6 1.4-.3 2 0h.1c-.5.5-1 .9-1.6 1.4l-.4.4v-.2c-.1-.4-.4-1.2-.1-1.6zm2.8-.9c-.6-.6-.1-1.5.8-1.4.3 0 .6.2.8.4-.5.4-1.1.8-1.6 1.3.1-.1.1-.2 0-.3zm2.4-2.8c.5-.2.8 0 1.1.4-.4.3-.9.6-1.3.9-.1-.2-.3-.3-.4-.5-.1-.5.1-.8.6-.8zm1.8-1.4c.5-.2.9.2 1.2.6a9.13 9.13 0 0 1-1.3.8V12c-.2-.5-.4-1.1.1-1.3zM29.5 9c.6-.6 1.4 0 1.9.5-.6.4-1.3.7-1.9 1.1-.5-.4-.4-1.1 0-1.6zm2.8-1.5c.6-.1 1.3.2 1.8.5l.1.1c-.7.3-1.4.7-2.1 1.1-.4-.5-.6-1.6.2-1.7zm2.9-.9c.5-.1.9.2 1.2.5-.6.2-1.2.5-1.8.8v-.2c-.3-.5.1-1 .6-1.1zM37.8 5c.7-.3 1.2.1 1.5.7 0 .1 0 .2.1.2-.7.2-1.4.5-2.1.8-.3-.6-.2-1.4.5-1.7zm2.8-.8c.6 0 1.2.3 1.3 1-.6.2-1.2.4-1.9.6 0-.1 0-.1-.1-.2-.1-.7-.1-1.3.7-1.4zm2.9-.7c.7-.3 1.2.4 1.4.9-.6.1-1.3.3-1.9.4-.2-.4-.1-1 .5-1.3zm3-.5c.4.1.5.7.8 1.1l-1.7.3c-.1-.7.2-1.6.9-1.4zm6.1 1c.2-.4.4-1 .8-1.1.7-.2 1 .8.9 1.3-.6 0-1.2-.1-1.7-.2zm2.4.5c.2-.6.7-1.2 1.4-.9.6.2.6.9.5 1.4-.6-.2-1.3-.4-1.9-.5zm2.9.7c.1-.6.7-1 1.3-1 .8.1.8.7.7 1.3 0 .1-.1.1-.1.2-.6-.1-1.3-.3-1.9-.5zm2.5.8c0-.1.1-.2.1-.3.3-.6.8-1.1 1.5-.7.7.3.8 1.1.6 1.8-.7-.3-1.4-.6-2.2-.8zm3 1.1c.3-.3.7-.6 1.2-.5.6.1.9.6.6 1.1v.2c-.6-.3-1.2-.6-1.8-.8zm2.3 1h0c.6-.4 1.2-.7 1.8-.6.8.1.6 1.2.3 1.7-.6-.4-1.3-.7-2.1-1.1zm2.8 1.5s0-.1 0 0c.4-.6 1.3-1.2 1.9-.6.4.5.5 1.2 0 1.6-.6-.3-1.3-.7-1.9-1zm2.8 1.6c.3-.4.7-.8 1.2-.6s.3.9.1 1.3v.1c-.5-.2-.9-.5-1.3-.8zm1.9 1.3c.3-.4.6-.6 1.1-.4.5 0 .7.3.6.9-.1.2-.3.3-.4.5a6.42 6.42 0 0 0-1.3-1zm3.5 2.7c-.5-.4-1-.9-1.6-1.3.3-.2.5-.3.8-.4.9-.1 1.4.7.8 1.4v.3zm.7.6h.1c.6-.3 1.4-.5 2 0 .4.4.1 1.2-.1 1.6v.2c-.1-.1-.2-.3-.4-.4-.6-.5-1.1-.9-1.6-1.4zm2.3 2.1c.1 0 .2 0 .2-.1.5-.6 1.3-.5 1.8.1.4.6.2 1.3-.2 1.9-.6-.6-1.2-1.2-1.8-1.9zm16.1 35.2c-.1-.7-.1-1.3-.2-2 .6 0 1.4.3 1.2 1-.2.5-.6.8-1 1zm1.1 2.1c0 .5-.5.9-1 .8 0-.6-.1-1.2-.1-1.9.6.1 1.1.5 1.1 1.1zm-1.5-4.8c-.1-.5-.1-1-.2-1.4 0-.2-.1-.4-.1-.5.6-.2 1.3.3 1.2.9.1.4-.4.7-.9 1zm-.4-2.9c-.1-.6-.2-1.2-.4-1.8.1 0 .2-.1.3-.3 0 .2.4.2.6.2.3.1.5.4.5.7 0 .6-.6 1-1 1.2zm-.5-2.9s-.1 0 0 0c-.3-.7-.5-1.5-.7-2.2h.1c.6-.1 1.4.1 1.6.8s-.5 1.1-1 1.4zm-.8-2.9c-.1 0-.1 0 0 0-.3-.7-.5-1.4-.7-2.1h.2c.6-.3 1.4-.1 1.5.7.1.6-.5 1.1-1 1.4zm-1-3c-.2-.6-.5-1.2-.7-1.8.1 0 .3-.1.3-.2h.3c.1 0 .2.1.3.1.2.1.4.4.4.6.1.6-.2 1.1-.6 1.3zm-.9-2.9c-.1.1-.1.1-.1.2a27.18 27.18 0 0 0-1.1-2.5c.6-.1 1.7-.1 2 .5s-.3 1.4-.8 1.8zm-1.6-3c-.4-.7-.7-1.5-1.1-2.2.7-.2 1.8-.2 2 .7.2.7-.5 1.1-.9 1.5zM88.8 30l-1.2-2.1c.6-.3 1.3-.1 1.6.5.3.5.1 1.2-.4 1.6zm-1.6-2.9c0 .1 0 .1 0 0-.4-.4-.7-1-1.1-1.5.4-.5 1.1-.5 1.6-.1.8.5 0 1.3-.5 1.6zm-1.5-2.2c-.1 0-.1 0 0 0-.5-.6-1-1.3-1.5-1.9.6-.3 1.4-.4 1.8.1.6.6.2 1.3-.3 1.8zm-1.9-2.6s0 .1-.1.1c-.5-.6-1-1.3-1.6-1.9.5-.1.9-.3 1.4-.2 1.1.4.7 1.4.3 2zm-.1 73.1h0s0 .1.1.1c.4.6.8 1.6-.2 1.9-.5.2-.9 0-1.4-.2l1.5-1.8zm.5-.6a14.29 14.29 0 0 0 1.4-2c.5.5.9 1.2.4 1.8-.4.7-1.2.5-1.8.2zm2-2.6c-.1 0-.1 0 0 0 .3-.6.7-1.1 1-1.6 0 0 0 .1.1.1.4.4 1.3 1.2.5 1.7-.5.3-1.3.3-1.6-.2zm1.4-2.3l1.2-2.1c.5.4.7 1.1.4 1.6-.3.6-1.1.8-1.6.5zm1.5-2.7c.4-.7.8-1.4 1.1-2.2.4.5 1 .8.9 1.5-.2.9-1.3.9-2 .7zm1.5-2.9c.4-.8.7-1.7 1.1-2.5 0 .1.1.2.1.2.5.4 1.1 1.2.8 1.8s-1.4.6-2 .5zm1.4-3.4c.2-.6.4-1.2.7-1.8.4.2.8.6.7 1.1 0 .3-.2.5-.4.6-.2.2-.3.2-.4.2h-.3s-.2-.1-.3-.1zm1.2-2.6H93c.2-.7.5-1.4.7-2.1.6.3 1.1.7 1 1.4-.1.8-.9.9-1.5.7zm.7-2.9c-.1 0-.1.1 0 0 .2-.8.4-1.5.5-2.3l.1.1c.6.3 1.2.7 1 1.4s-1 1-1.6.8zm1-3c0-.2-.1-.2-.3-.3.1-.6.3-1.2.4-1.8.4.3 1 .6 1 1.2 0 .3-.3.5-.5.7-.2 0-.6-.1-.6.2zm.3-3c0-.2 0-.4.1-.5.1-.5.1-1 .2-1.4.4.2.9.5.9 1.1s-.6 1-1.2.8zm.4-2.7c.1-.7.1-1.3.2-2 .4.2.9.5 1 .9.1.8-.6 1.1-1.2 1.1zm.2-3c0-.6.1-1.2.1-1.9.5-.1 1 .3 1 .8 0 .6-.5 1-1.1 1.1zm.4-2.9H96v-1.5h.9c.3.1.5.4.4.7-.1.6-.7.9-1.1.8zm.7-2.4H96v-1.5h.2c.5-.1 1 .2 1.1.7.1.4-.1.7-.4.8zm-.7-14.8c.6 2.6 1 5.2 1.2 7.9-.2-.5-.5-.8-1-.9.5-.4.8-.9.7-1.7-.1-.6-.6-1-1.2-1.2.6-.5 1.1-1.3.5-2.1-.3-.4-.7-.6-1.1-.7.4-.3.8-.7.9-1.3zm-.2-1c-.3-.5-.7-.8-1.2-.9.4-.4.6-.8.6-1.3l.6 2.2zm-.9-3.1c-.3-.5-.9-.7-1.4-.7.4-.5.5-1.2.2-1.7-.2-.4-.8-.9-1.3-1 .5-.5.8-1.2.8-1.8.6 1.6 1.2 3.4 1.7 5.2zM68.5 6.8c9.1 5.2 17.5 12.7 22.4 22 .8 1.6 1.6 3.1 2.2 4.8-.4-.5-1.1-.8-1.9-.8.2-.2.4-.4.5-.7.2-.4.1-.9-.1-1.3-.4-.7-1.1-1-1.8-1 .3-.6.3-1.4-.1-2-.3-.5-.9-.8-1.5-.8.5-.6.8-1.4 0-2.1-.4-.3-1-.5-1.5-.4.3-.6.3-1.2-.2-1.8s-1.2-.7-1.9-.6c.3-.7.4-1.4-.2-1.9-.3-.3-.7-.5-1.1-.5s-.7.1-1 .2c.5-.9.4-2-.3-2.7-.5-.4-1.1-.6-1.7-.4.1-.6 0-1.1-.4-1.6-.6-.7-1.6-.5-2.4-.2.3-.6.3-1.3-.2-1.8s-1.1-.5-1.7-.3c.1-.4-.1-.9-.5-1.3-.5-.4-1.1-.5-1.7-.2.1-.5-.1-1.1-.6-1.4s-1-.2-1.5.1c.1-.6-.1-1.2-.5-1.7-.6-.6-1.4-.5-2-.1 0-.5-.1-1.1-.5-1.4-.6-.4-1.6-.2-2.3.1-.1-.5-.4-.9-.8-1.1a1.68 1.68 0 0 0-1.8.2c0-.8-.3-1.5-1.1-1.9-.7-.2-1.3-.1-1.7.3-.1-.5-.5-.8-1.1-1-.7-.1-1.4.2-1.9.7-.1-.6-.4-1.2-1.1-1.4s-1.3 0-1.7.5a1.65 1.65 0 0 0-1-1c-.4-.2-.9-.1-1.2.2-.2.1-.3.3-.4.5-.1-.5-.4-1-.9-1.2 6 .9 11.9 1.9 17.2 5zM51.6 3.9c-.5-.1-1-.1-1.4-.2.1-.5.3-1.2.9-1.2.6-.1.7.9.5 1.4zm-1.8-2.2c.1 0 .1 0 .2-.1 0 0 .1.1.2.1.2 0 .5.1.7.1-.4 0-.7.3-.9.6-.3-.4-.6-.6-1-.6.3-.1.5-.1.8-.1zm-.9.8c.6 0 .8.7.9 1.2-.5.1-1 .1-1.4.2-.3-.5-.3-1.5.5-1.4zM9 28.8c4.9-9.3 13.3-16.7 22.4-22 5.3-3 11.1-4.1 17.1-4.9-.6.1-.9.6-1 1.1-.1-.2-.2-.4-.4-.5-.3-.3-.8-.3-1.2-.2-.5.2-.8.6-1 1-.4-.5-1-.7-1.7-.5s-1 .8-1.1 1.4c-.4-.5-1.2-.8-1.9-.7-.6.1-.9.5-1.1 1-.5-.4-1.1-.5-1.7-.2-.8.4-1.1 1.1-1.1 1.9-.5-.3-1.2-.5-1.8-.2-.5.2-.8.7-.8 1.1-.7-.3-1.7-.6-2.3-.1-.3.3-.4.8-.4 1.4-.7-.4-1.4-.5-2 .1-.4.4-.6 1.1-.5 1.7-.4-.3-1-.4-1.5-.1s-.7.8-.6 1.4c-.5-.2-1.1-.2-1.7.2a1.3 1.3 0 0 0-.5 1.3c-.6-.2-1.2-.2-1.7.3-.5.4-.5 1.1-.2 1.7-.8-.3-1.8-.5-2.4.2-.4.4-.5 1-.4 1.6-.6-.2-1.2 0-1.7.4-.8.7-.8 1.8-.3 2.7-.3-.1-.7-.2-1-.2-.4 0-.8.2-1.1.5-.6.6-.5 1.3-.2 1.9-.7-.1-1.4 0-1.9.6s-.4 1.3-.2 1.8c-.5-.1-1.1.1-1.5.4-.7.6-.5 1.4 0 2.1-.6 0-1.1.3-1.5.8-.4.6-.4 1.3-.1 2-.7 0-1.5.3-1.8 1-.2.4-.3.9-.1 1.3.1.3.3.5.5.7-.7 0-1.5.2-1.9.8.7-1.7 1.4-3.3 2.3-4.8zm-2.5 5.4c-.1.7.3 1.3.8 1.8-.5.1-1.1.6-1.3 1-.3.6-.2 1.2.2 1.7-.6 0-1.1.2-1.4.7.4-1.7 1-3.5 1.7-5.2zm-2.1 6.2c0 .5.2 1 .6 1.3-.5.1-.9.4-1.2.9.3-.7.4-1.5.6-2.2zm-.7 3.2c.1.5.4 1 .9 1.3-.4.1-.9.3-1.1.7-.6.8-.1 1.6.5 2.1-.6.1-1 .6-1.2 1.2-.2.7.2 1.3.7 1.7-.5.2-.8.5-1 .9a53.89 53.89 0 0 1 1.2-7.9zm-1.3 8.7c.1.5.6 1 1 1.3a1.62 1.62 0 0 0-1.2 1.6c0 .5.3 1 .6 1.2-.3.1-.5.3-.7.6l.3-4.7zm-.3 6.6v-.4c.1.1.2.3.4.4a.78.78 0 0 0-.4.4v-.4zm0 1.9c.2.3.4.4.7.6-.4.3-.7.7-.6 1.2a1.62 1.62 0 0 0 1.2 1.6c-.5.3-.9.7-1 1.3l-.3-4.7zm1.6 13.4c-.6-2.6-1-5.2-1.2-7.9.2.5.5.8 1 .9-.5.4-.8.9-.7 1.7.1.6.6 1 1.2 1.2-.6.5-1.1 1.3-.5 2.1.3.4.7.6 1.1.7-.5.3-.9.8-.9 1.3zm.2 1c.3.5.7.8 1.2.9-.4.4-.6.8-.6 1.3-.3-.7-.4-1.5-.6-2.2zm.8 3.1c.3.5.9.7 1.4.7-.4.5-.5 1.2-.2 1.7.2.4.8.9 1.3 1-.5.5-.8 1.2-.8 1.8-.6-1.6-1.2-3.4-1.7-5.2zM31.4 111C22.3 105.8 13.9 98.3 9 89c-.8-1.6-1.6-3.1-2.2-4.8.4.5 1.1.8 1.9.8-.2.2-.4.4-.5.7-.3.4-.2.9 0 1.3.4.7 1.1 1 1.8 1-.3.6-.3 1.4.1 2 .3.5.9.8 1.5.8-.5.6-.8 1.4 0 2.1.4.3 1 .5 1.5.4-.3.6-.3 1.2.2 1.8s1.2.7 1.9.6c-.3.7-.4 1.4.2 1.9.3.3.7.5 1.1.5s.7-.1 1-.2c-.5.9-.4 2 .3 2.7.5.4 1.1.6 1.7.4-.1.6 0 1.1.4 1.6.6.7 1.6.5 2.4.2-.3.6-.3 1.3.2 1.8s1.1.5 1.7.3c-.1.4.1.9.5 1.3.5.4 1.1.5 1.7.2-.1.5.1 1.1.6 1.4s1 .2 1.5-.1c-.1.6.1 1.2.5 1.7.6.6 1.4.5 2 .1 0 .5.1 1.1.5 1.4.6.4 1.6.2 2.3-.1.1.5.4.9.8 1.1a1.68 1.68 0 0 0 1.8-.2c0 .8.3 1.5 1.1 1.9.7.3 1.3.2 1.7-.2.1.5.5.8 1.1 1 .7.1 1.4-.2 1.9-.7.1.6.4 1.2 1.1 1.4s1.3 0 1.7-.5a1.65 1.65 0 0 0 1 1c.4.2.9.1 1.2-.2.2-.1.3-.3.4-.5.1.5.4 1 .9 1.2-6-1-11.9-2-17.1-5.1zm16.9 2.9c.5.1 1 .1 1.4.2-.1.5-.3 1.2-.9 1.2-.7.1-.7-.8-.5-1.4zm1.8 2.2c-.1 0-.1 0-.2.1 0 0-.1-.1-.2-.1-.2 0-.5-.1-.7-.1.4 0 .7-.3.9-.6.2.3.5.5.9.6-.2.1-.5.1-.7.1zm.9-.8c-.6 0-.8-.7-.9-1.2.5-.1 1-.1 1.4-.2.3.6.2 1.5-.5 1.4zm39.9-26.2c-4.9 9.3-13.3 16.7-22.4 22-5.3 3-11.1 4.1-17.1 4.9.6-.2.9-.7.9-1.2.1.2.2.4.4.5.3.3.8.3 1.2.2.5-.2.8-.6 1-1 .4.5 1 .7 1.7.5s1-.8 1.1-1.4c.4.5 1.2.8 1.9.7.6-.1.9-.5 1.1-1 .5.4 1.1.5 1.7.2.8-.4 1.1-1.1 1.1-1.9.5.3 1.2.5 1.8.2.5-.2.8-.7.8-1.1.7.3 1.7.6 2.3.1.4-.3.6-.8.5-1.4.7.4 1.4.5 2-.1.4-.4.6-1.1.5-1.7.4.3 1 .4 1.5.1s.7-.8.6-1.4c.5.2 1.1.2 1.7-.2a1.3 1.3 0 0 0 .5-1.3c.6.2 1.2.2 1.7-.3s.5-1.2.2-1.8c.8.3 1.8.5 2.4-.2.4-.4.5-1 .4-1.6.6.2 1.2 0 1.7-.4.8-.7.8-1.8.3-2.7.3.1.7.2 1 .2.4 0 .8-.2 1.1-.5.6-.6.5-1.3.2-1.9.7.1 1.4 0 1.9-.6s.4-1.3.2-1.8c.5.1 1.1-.1 1.5-.4.7-.6.5-1.4 0-2.1.6 0 1.1-.3 1.5-.8.4-.6.4-1.3.1-2 .7 0 1.5-.3 1.8-1 .2-.4.3-.9.1-1.3-.1-.3-.3-.5-.5-.7.7 0 1.5-.2 1.9-.8-.8 1.8-1.5 3.4-2.3 5zm2.5-5.5c.1-.7-.3-1.3-.8-1.8.5-.1 1.1-.6 1.3-1 .3-.6.2-1.2-.2-1.7.6 0 1.1-.2 1.4-.7-.5 1.7-1.1 3.5-1.7 5.2zm2-6.2c0-.5-.2-1-.6-1.3.5-.1.9-.4 1.2-.9l-.6 2.2zm.8-3.2c-.1-.5-.4-1-.9-1.3.4-.1.9-.3 1.1-.7.6-.8.1-1.6-.5-2.1.6-.1 1-.6 1.2-1.2.2-.7-.2-1.3-.7-1.7.5-.2.8-.5 1-.9-.3 2.6-.7 5.3-1.2 7.9zm1.2-8.7c-.1-.5-.6-1-1-1.3a1.62 1.62 0 0 0 1.2-1.6c0-.5-.3-1-.6-1.2.3-.1.5-.3.7-.6 0 1.6-.1 3.2-.3 4.7zm.4-6.2c-.1-.1-.2-.3-.4-.4a.78.78 0 0 0 .4-.4v.4.4z"/><path d="M91 50.6C89.5 39.9 84.5 30 76.9 22.4c-3.6-3.6-7.6-6.6-12.1-8.9-4.6-2.4-9.6-4.3-14.9-4-5.2-.2-10.3 1.6-14.9 4-4.5 2.3-8.5 5.4-12.1 8.9C15.3 30 10.3 39.9 8.8 50.6c-.4 2.7-.5 5.5-.5 8.3-.1 2.8.1 5.5.5 8.3 1.5 10.7 6.5 20.6 14.2 28.3 3.6 3.6 7.6 6.6 12.1 8.9 4.6 2.4 9.6 4.3 14.9 4 5.2.2 10.3-1.6 14.9-4 4.5-2.3 8.5-5.4 12.1-8.9 7.6-7.6 12.6-17.6 14.2-28.3.4-2.7.5-5.5.5-8.3-.1-2.8-.3-5.5-.7-8.3zm-24.4 52c-5 3-10.7 5.4-16.6 5.1-5.9.3-11.6-2.2-16.6-5.1C17.8 93.4 8.8 76.4 9.1 58.9c-.3-17.5 8.7-34.5 24.2-43.7 5-3 10.7-5.4 16.6-5.1 5.9-.3 11.6 2.2 16.6 5.1C82 24.4 91.1 41.4 90.8 58.9c.3 17.5-8.8 34.5-24.2 43.7zm27.9-48.1h-.2c-.8.2-1.1.2-1.1 1.1s-.1 2.1.1 2.9c0 .1.1.2.2.2.6.1 1.3 0 1.4-.7.2-1 0-2.2-.1-3.2.1-.2-.1-.3-.3-.3zM94 58c-.1-.5-.1-1.1-.1-1.6 0-.2-.1-.8 0-1s.2-.2.3-.2c0 .5 0 .9.1 1.4 0 .3.2 1.3-.3 1.4zm-.3-7.8c-.3.2-.6.2-.7.6s0 1 0 1.4c0 .5-.2 1.7.5 1.8.5.1 1.2.1 1.3-.5.1-1-.1-2.2-.3-3.2 0-.3-.4-.3-.6-.1h-.2zm.4 3.1c.2.1.2.1 0 0-.1.1-.2.1-.3.1-.1.3-.1.2-.1-.1V53v-.9-.8c0-.3 0-.3.2-.4.1.5.1 1.1.2 1.6 0 .3-.1.5 0 .8zm-1.2-7.1c-.5.3-.7.5-.6 1.1l.3 2.2c0 .1.1.2.1.2 0 .2.2.3.4.3.6-.1 1.2-.2 1.1-.9-.1-.9-.4-1.9-.6-2.8-.1-.3-.4-.3-.5-.2s-.1.1-.2.1zm.4 1.7c.1.3.3.9.3 1.3-.1 0-.2 0-.3.1-.1-.4-.1-.8-.2-1.2 0-.2-.1-.5-.1-.8 0-.1 0-.2.1-.3 0 .3.1.6.2.9z"/><path d="M91.9 42.2c-.4.2-.8.5-.8 1 .1.8.3 1.6.5 2.3 0 .2.2.2.3.3 0 .1.1.2.3.2.6 0 .9-.4.9-1 0-.4-.2-.8-.3-1.2l-.3-1.5c.1-.6-.6-.6-.6-.1zm.2 1.3c0 .2.4 1.5.2 1.7l-.3-1.4c0-.2-.1-.4-.1-.6-.1-.2-.1-.2.1-.2h.1v.5zm-2.4-5.1s0 .1 0 0c-.3 0-.6.2-.5.5l.7 1.8c.2.4.3.8.6 1.1.1.1.3.1.4 0 .1.1.2.1.3 0 .6-.2 1-.5.7-1.2-.1-.4-.4-.8-.6-1.3-.2-.4-.3-.8-.3-1.3-.1-.3-.4-.3-.6-.1s-.4.3-.7.5zm1.2 1.4c.1.3.3.5.4.8.1.4 0 .4-.3.6-.3-.3-.4-.7-.5-1.1s-.3-.7-.4-1.1c.1 0 .1 0 .2-.1s.2-.2.3-.2c0 .4.1.8.3 1.1z"/><path d="M88.8 33.8c-.2.2-.4.3-.5.5-.2 0-.5.2-.4.4l1.1 2.8c0 .1.1.2.2.2 0 .2.2.4.4.3.6-.2 1.3-.4 1.1-1.1-.1-.5-.4-1-.6-1.5-.2-.6-.5-1.1-.7-1.7-.1-.4-.7-.3-.6.1zm.8 2c.1.3.3.6.3.9.2.2.2.3 0 .4-.1 0-.2.1-.3.1l-.9-2.4.3-.3.6 1.3z"/><path d="M86.9 30.1l-.6.7v.1c-.2 0-.4.3-.2.5l1.5 2.3c.2.2.4.2.6 0 .5-.3.9-.4.7-1-.3-.9-.8-1.8-1.2-2.7-.3-.3-.7-.2-.8.1zm.3.7l.5 1.2c.1.2.3.5.4.8.2 0 .2.1 0 .1 0 0-.1 0-.1.1l-1.1-1.8.3-.4zm-3.4-3.7c0 .1 0 .1.1.2l1.7 2.6c0 .1.1.1.1.1 0 .3.4.5.6.3.3-.3 1-1 .5-1.3v-.1c-.5-1-1.1-1.9-1.8-2.7-.1-.1-.4-.1-.5 0-.2.2-.4.5-.6.7-.1 0-.1.1-.1.2zm.9-.2c.6.7 1.1 1.5 1.5 2.3v.1l-.1.1-1.6-2.3.2-.2zm-4.4-4.2c-.1.1-.2.3 0 .5L83 26c.2.2.5 0 .6-.2.3-.1.5-.4.5-.7 0-.2-.1-.4-.2-.4 0 0 0-.1-.1-.1l-1.3-1.5c0-.1 0-.2-.1-.3l-1.1-1.2c-.2-.3-.6 0-.6.3-.2.2-.3.4-.5.6.1-.1.1.1.1.2zm.9-.4c.2.2.4.4.6.7 0 .1 0 .2.1.2l1.4 1.7c0 .1-.1.1-.2.1l-2.3-2.4c.2 0 .3-.1.4-.3zm-4-3.7c-.1.1-.1.3 0 .4.7.8 1.4 1.7 2 2.6l.1.1c.1.1.3.1.4 0 .2-.3.5-.5.7-.8.2-.2 0-.5-.2-.6 0-.1 0-.2-.1-.3l-2.3-2.4c-.2-.2-.4-.1-.5.1s-.2.4-.3.5a.76.76 0 0 0 .2.4zm.6-.3l2 2.1.1.1-.3.3-1.8-2.3c-.1 0-.1 0 0-.2-.1.1 0 .1 0 0zm-5.2-3.2c0 .1 0 .2.1.3l3.1 2.7c.1.1.3.2.5 0 .3-.3.4-.6.5-1 0-.1 0-.3-.1-.3 0-.1 0-.2-.1-.3l-2.9-2.3c0-.3-.4-.5-.6-.3-.2 0-.3.2-.3.3l-.3.3c0 .4 0 .5.1.6zm.8-.2l2.8 2.2c0 .1-.1.2-.1.3L73.3 15l.1-.1z"/><path d="M69 12.7c0 .1 0 .3.1.4l2.4 1.6c.1.1.3.1.5 0 .2-.2.4-.4.6-.7.1-.1.1-.3 0-.4.1-.2.1-.4-.1-.5-1.1-.5-2.1-1-3-1.7-.2-.1-.5 0-.5.2s-.1.4-.2.5c-.1.3 0 .5.2.6zm.5-.4l2.5 1.4-.3.3-2.2-1.5v-.2zm-3.9-1.5c0 .1.1.1.1.2l2 1.2c.1.3.6.3.7 0s.2-.6.4-.9c.1-.2 0-.3-.1-.4 0-.1 0-.2-.2-.3-.6-.3-1.1-.6-1.7-.8-.3-.2-.8-.5-1.2-.5-.7 0-.6 1.1-.3 1.5h.3zm.3-.7c.2.2.5.3.7.4.5.2.9.5 1.4.7 0 .1-.1.2-.1.3l-1.8-1.1h-.2s0-.1-.1-.1l-.1-.1c.1-.1.2-.1.2-.1zm-5.3-1.5l3.2 1.5c.1.2.4.2.6 0 .2-.3.3-.6.4-1 0-.1 0-.2-.1-.3 0-.1-.1-.2-.2-.2-1.1-.3-2.2-.8-3.2-1.3-.2-.1-.4 0-.5.1-.1.2-.2.3-.2.5v.2c-.2.1-.3.4 0 .5zm.6-.5s0-.1 0 0L64 9.2c0 .1 0 .2-.1.2l-2.7-1.3zm-4.6-.9c0 .1.1.3.2.3.8.3 1.7.5 2.6.7h.2c.1 0 .2-.1.2-.1a1.08 1.08 0 0 0 .3-.7c0-.1 0-.2-.1-.3 0-.2-.1-.4-.3-.4-1-.1-2-.3-2.9-.6-.2-.1-.4.1-.4.3v.4c0 .3.1.4.2.4zm2.9.1c0 .1 0 .1-.1.2-.8-.2-1.5-.4-2.3-.7.8.3 1.6.4 2.4.5z"/><path d="M52.6 6.5c-.1.2 0 .4.2.4l2.4.4c.1.3.6.2.7-.2 0-.3 0-.6.1-.9V6c.1-.2 0-.5-.3-.5l-2.9-.3c-.2 0-.4.2-.3.4 0 .2.1.4.1.6-.1.1-.1.2 0 .3zm2.7-.3v.4l-2.1-.3V6c.6 0 1.3.1 2.1.2zM54 16.9c.6.3 1.6.3 2-.3.4-.7 0-1.8-.6-2.3-.1-.1-.1-.1-.2-.1-.7-.3-1.6.1-1.9.8a1.76 1.76 0 0 0 .7 1.9zm1-2c.3.3.6.8.4 1.3-.2.4-.8.4-1.1.2-.8-.6-.2-1.9.7-1.5zm5.5 3.3c.3-.3.4-.8.3-1.2.1-.1.1-.3 0-.4-.6-.6-1.5-.8-2.2-.3-.6.4-.8 1.3-.2 1.8.5.5 1.5.7 2.1.1zm-1.1-1.5c.2 0 .4 0 .6.1 0 .1 0 .2.1.2.3.2.2.6-.1.8s-.8 0-1-.2c-.5-.4-.1-.9.4-.9zm4.2 4c.6.3 1.6.3 1.9-.5.2-.6-.2-1.3-.6-1.8 0-.2 0-.3-.2-.3-.7-.1-1.7-.1-2 .8-.4.7.2 1.4.9 1.8zm-.3-1.7c.2-.3.5-.3.8-.3 0 0 0 .1.1.1.3.2.6.6.6.9 0 .6-.6.5-1 .3-.3-.2-.8-.6-.5-1zm3.8 4.3c.7.3 1.7.2 1.9-.6.2-.7-.2-1.5-.7-2a.76.76 0 0 0-.2-.4c-.8-.3-1.7.2-2 1s.2 1.7 1 2zm.4-2.4c.4.3.7.8.8 1.3.1.6-.6.6-1 .4-.9-.3-.7-1.7.2-1.7zm3.9 5.5c.7.2 1.7.1 1.7-.8 0-.7-.2-1.5-.9-1.7H72c-.7-.1-1.5 0-1.7.8s.4 1.5 1.1 1.7zm-.2-1.7c.2-.2.7-.1.9-.1.2.1.4.6.4.9-.1.5-.7.3-1 .2-.4-.2-.7-.7-.3-1zm3.2 2.7c-.8.5-1 1.5-.6 2.3s1.6 1.4 2.4.7c.5-.5.6-1.4.3-2.1v-.1c-.3-.8-1.3-1.2-2.1-.8zm1.2.8c0 .1 0 .2.1.3.3.3.3 1.2 0 1.5-.5.5-1.2-.1-1.4-.6-.2-.4-.1-1 .3-1.2.4-.3.8-.3 1 0zm2.5 6.7c.7.4 1.8.1 2-.7.2-.7-.1-1.7-.6-2.2 0-.1-.1-.2-.2-.2-.8-.2-1.7.2-2 1-.4.8.1 1.8.8 2.1zm.8-2.4c.4.2.5.8.5 1.2 0 .7-.6.9-1.1.5-.8-.5-.3-1.8.6-1.7zm1.8 7.3c.6.5 1.5.6 2.1.1.8-.7.4-1.9-.1-2.7-.1-.2-.3-.2-.4-.1-1.5-.6-3 1.5-1.6 2.7zm1.5-2c.3.5.6 1.2.2 1.5-.3.3-.9.2-1.2 0-.8-.6 0-2 1-1.5zm.1 6.4c.3 1 1.2 1.4 2.2 1.1 1.2-.4 1.1-1.5.8-2.5 0-.2-.2-.2-.3-.2-.4-.5-1.1-.8-1.8-.5-.7.4-1.1 1.3-.9 2.1zm1.2-1.4c.5-.2 1 .1 1.2.7 0 .1.1.2.1.2.1.4 0 .9-.5 1-.6.2-1.2 0-1.3-.6-.1-.5 0-1.1.5-1.3zm.9 4.7c-1 .5-1 1.7-.4 2.5.5.7 1.5.8 2.2.3.7-.6.7-1.7.1-2.4 0-.1-.1-.1-.1-.1-.4-.5-1.2-.6-1.8-.3zm1.4.9c0 .1.1.2.2.2.2.4.2.8-.1 1.1s-.8.3-1.1 0c-.4-.4-.6-1.3 0-1.6.2-.2.8-.2 1 .3zm-.4 3.7c-.1 0-.2.1-.2.2-.7.1-1 .9-.8 1.6.2.8.9 1.6 1.9 1.5.9-.1 1.3-1.1 1.1-1.9-.3-.9-1.1-1.5-2-1.4zm.9 2.5c-.5.3-.9-.1-1.1-.5-.1-.2-.4-1.2.2-1.1.2 0 .3 0 .4-.1.7-.1 1.3 1.3.5 1.7zM5.4 63.3h.2c.8-.2 1.1-.2 1.1-1.1s.1-2.1-.1-2.9c0-.1-.1-.2-.2-.2-.6-.1-1.3 0-1.4.7-.2 1 0 2.2.1 3.2-.1.2.1.3.3.3zm.5-3.5c.1.5.1 1.1.1 1.6 0 .2.1.8 0 1s-.2.2-.3.2c0-.5 0-.9-.1-1.4 0-.3-.2-1.3.3-1.4zm.3 7.8c.3-.2.6-.2.7-.6s0-1 0-1.4c0-.5.2-1.7-.5-1.8-.5-.1-1.2-.1-1.3.5-.1 1 .1 2.2.3 3.2 0 .3.4.3.6.1h.2zm-.4-3.1c-.2-.1-.3-.1 0 0 .1-.1.2-.1.3-.1.1-.3.1-.2.1.1v.3.9.8c0 .3 0 .3-.2.4-.1-.5-.1-1.1-.2-1.6v-.8zm1.1 7.1c.5-.3.7-.5.6-1.1l-.3-2.2c0-.1-.1-.2-.1-.2 0-.2-.2-.3-.4-.3-.6.1-1.2.2-1.1.9.1.9.4 1.9.6 2.8.1.3.4.3.5.2.1 0 .1-.1.2-.1zm-.3-1.7c-.1-.3-.3-.9-.3-1.3.1 0 .2 0 .3-.1.1.4.1.8.2 1.2 0 .2.1.5.1.8 0 .1 0 .2-.1.3-.1-.3-.2-.6-.2-.9zm1.3 5.7c.4-.2.8-.5.8-1-.1-.8-.3-1.6-.5-2.3 0-.2-.2-.3-.3-.3 0-.1-.1-.2-.3-.2-.6 0-.9.4-.9 1 0 .4.2.8.3 1.2l.3 1.5c-.1.6.6.6.6.1zm-.2-1.3c0-.2-.4-1.5-.2-1.7l.3 1.4c0 .2.1.4.1.6.1.2.1.2 0 .2h-.1c0-.1-.1-.3-.1-.5zm2.4 5.1s0-.1 0 0c.3 0 .6-.2.5-.5l-.7-1.8c-.2-.4-.3-.8-.6-1.1-.1-.1-.3-.1-.4 0-.1-.1-.2-.1-.3 0-.6.2-1 .5-.7 1.2.1.4.4.8.6 1.3.2.4.3.8.3 1.3.1.3.4.3.6.1s.5-.3.7-.5zM9 78c-.1-.3-.3-.5-.4-.8-.1-.4 0-.4.3-.6.3.3.4.7.5 1.1s.3.7.4 1.1c-.1 0-.1 0-.2.1s-.2.1-.3.2L9 78z"/><path d="M11.1 84c.2-.2.4-.3.5-.5.2 0 .5-.2.4-.4l-1.1-2.8c0-.1-.1-.2-.2-.2 0-.2-.2-.4-.4-.3-.6.2-1.3.4-1.2 1.1.1.5.4 1 .6 1.5.2.6.5 1.1.7 1.7.1.4.7.3.7-.1zm-.8-2c-.1-.3-.3-.6-.3-.9-.2-.2-.2-.3 0-.4.1 0 .2-.1.3-.1l.9 2.4-.3.3-.6-1.3zm2.7 5.7l.6-.7v-.1c.2 0 .4-.3.2-.5l-1.5-2.3a.37.37 0 0 0-.6 0c-.5.3-.9.4-.7 1 .3.9.8 1.8 1.2 2.7.2.3.6.2.8-.1-.1 0 0 0 0 0zm-.3-.7l-.5-1.2c-.1-.2-.3-.5-.4-.8-.2 0-.2-.1 0-.1 0 0 .1 0 .1-.1l1.1 1.8-.3.4zm3.4 3.7c0-.1 0-.1-.1-.2l-1.7-2.6c0-.1-.1-.1-.1-.1 0-.3-.4-.5-.6-.3-.3.3-1 1-.5 1.3v.1c.5 1 1.1 1.9 1.8 2.7.1.1.4.1.5 0 .2-.2.4-.5.6-.7.1 0 .1-.1.1-.2zm-.9.2c-.6-.7-1.1-1.5-1.5-2.3v-.1l.1-.1 1.6 2.3c-.1.1-.2.1-.2.2zm4.3 4.2c.1-.1.2-.3 0-.5l-2.7-2.8c-.2-.2-.5 0-.6.2-.3.1-.5.4-.5.7 0 .2.1.4.2.4 0 0 0 .1.1.1l1.3 1.5c0 .1 0 .2.1.3l1.1 1.2c.2.3.6 0 .6-.3.2-.2.3-.4.5-.6 0 .1 0-.1-.1-.2zm-.9.4c-.2-.2-.4-.4-.6-.7 0-.1 0-.2-.1-.2l-1.4-1.7c0-.1.1-.1.2-.1l2.3 2.4c-.2 0-.3.1-.4.3zm4 3.7c.1-.1.1-.3 0-.4-.7-.8-1.4-1.7-2-2.6l-.1-.1c-.1-.1-.3-.1-.4 0-.2.3-.5.5-.7.8-.2.2 0 .5.2.6 0 .1 0 .2.1.3l2.3 2.4c.2.2.4.1.5-.1s.2-.4.3-.5c0-.1 0-.3-.2-.4zm-.5.3l-2-2.1-.1-.1.3-.3 1.8 2.3v.2c0-.1 0-.1 0 0zm5.1 3.2c0-.1 0-.2-.1-.3L24 99.7c-.1-.1-.3-.2-.5 0-.3.3-.4.6-.5 1 0 .1 0 .3.1.3 0 .1 0 .2.1.3l2.9 2.3c0 .3.4.5.6.3.2 0 .3-.2.3-.3l.3-.3c0-.3 0-.5-.1-.6zm-.8.2l-2.8-2.2c0-.1.1-.2.1-.3l2.8 2.4s0 .1-.1.1z"/><path d="M30.9 105.1c0-.1 0-.3-.1-.4l-2.4-1.6c-.1-.1-.3-.1-.5 0-.2.2-.4.4-.6.7-.1.1-.1.3 0 .4-.1.2-.1.4.1.5 1.1.5 2.1 1 3 1.7.2.1.5 0 .5-.2s.1-.4.2-.5c.1-.3-.1-.5-.2-.6zm-.6.4l-2.5-1.4.3-.3 2.2 1.5c.1.1 0 .2 0 .2zm3.9 1.5c0-.1-.1-.1-.1-.2l-2-1.2c-.1-.3-.6-.3-.7 0s-.2.6-.4.9c-.1.2 0 .3.1.4 0 .1 0 .2.2.3.6.3 1.1.6 1.7.8.3.2.8.5 1.2.5.7 0 .6-1.1.3-1.5h-.3zm-.3.7c-.2-.2-.5-.3-.7-.4-.5-.2-.9-.5-1.4-.7 0-.1.1-.2.1-.3l1.8 1.1h.2s0 .1.1.1l.1.1c-.1.1-.1.1-.2.1zm5.4 1.5l-3.2-1.5c-.1-.2-.4-.2-.6 0-.2.3-.3.6-.4 1 0 .1 0 .2.1.3 0 .1.1.2.2.2 1.1.3 2.2.8 3.2 1.3.2.1.4 0 .5-.1.1-.2.2-.3.2-.5v-.2c.2-.1.2-.4 0-.5zm-.7.5s0 .1 0 0l-2.8-1.1c0-.1 0-.2.1-.2l2.7 1.3h0zm4.6.9c0-.1-.1-.3-.2-.3-.8-.3-1.7-.5-2.6-.7h-.2c-.1 0-.2.1-.2.1a1.08 1.08 0 0 0-.3.7c0 .1 0 .2.1.3 0 .2.1.4.3.4 1 .1 2 .3 2.9.6.2.1.4-.1.4-.3v-.4c0-.2-.1-.4-.2-.4zm-2.8-.1c0-.1 0-.1.1-.2l2.3.7c-.9-.3-1.6-.4-2.4-.5zm6.8.8c.1-.2 0-.4-.2-.4l-2.4-.4c-.1-.3-.6-.2-.7.2 0 .3 0 .6-.1.9v.2c-.1.2 0 .5.3.5l2.9.3c.2 0 .4-.2.3-.4 0-.2-.1-.4-.1-.6.2-.1.1-.2 0-.3zm-2.6.3v-.4l2.1.3v.3c-.7 0-1.4-.1-2.1-.2zm1.2-10.7c-.6-.3-1.6-.3-2 .3-.4.7 0 1.8.6 2.3.1.1.1.1.2.1.7.3 1.6-.1 1.9-.8s0-1.5-.7-1.9zm-1 2c-.3-.3-.6-.8-.4-1.3.2-.4.8-.4 1.1-.2.8.6.2 1.9-.7 1.5zm-5.5-3.3c-.3.3-.4.8-.3 1.2-.1.1-.1.3 0 .4.6.6 1.5.8 2.2.3.6-.4.8-1.3.2-1.8-.5-.5-1.5-.7-2.1-.1zm1.2 1.5c-.2 0-.4 0-.6-.1 0-.1 0-.2-.1-.2-.3-.2-.2-.6.1-.8s.8 0 1 .2c.5.4 0 .9-.4.9zm-4.3-3.9c-.6-.3-1.6-.3-1.9.5-.2.6.2 1.3.6 1.8 0 .2 0 .3.2.3.7.1 1.7.1 2-.8.4-.8-.2-1.5-.9-1.8zm.4 1.6c-.2.3-.5.3-.8.3 0 0 0-.1-.1-.1-.3-.2-.6-.6-.6-.9 0-.6.6-.5 1-.3.3.2.7.6.5 1zm-3.8-4.3c-.7-.3-1.7-.2-1.9.6-.2.7.2 1.5.7 2a.76.76 0 0 0 .2.4c.8.3 1.7-.2 2-1 .2-.8-.3-1.7-1-2zm-.5 2.4c-.4-.3-.7-.8-.8-1.3-.1-.6.6-.6 1-.4.9.4.7 1.7-.2 1.7zm-3.9-5.5c-.7-.2-1.7-.1-1.7.8 0 .7.2 1.5.9 1.7h.2c.7.1 1.5 0 1.7-.8s-.4-1.5-1.1-1.7zm.2 1.7c-.2.2-.7.1-.9.1-.2-.1-.4-.6-.4-.9.1-.5.7-.3 1-.2.5.2.8.7.3 1zm-4.9-5.7c-.5.5-.6 1.4-.3 2.1v.1c.3.8 1.3 1.2 2.1.8.8-.5 1-1.5.6-2.3s-1.6-1.5-2.4-.7zm1.5 2.3c-.3.2-.7.2-1-.1 0-.1 0-.2-.1-.3-.3-.3-.3-1.2 0-1.5.5-.5 1.2.1 1.4.6.1.5 0 1-.3 1.3zm-3.5-6.8c-.7-.4-1.8-.1-2 .7-.2.7.1 1.7.6 2.2 0 .1.1.2.2.2.8.2 1.7-.2 2-1 .4-.8 0-1.7-.8-2.1zm-.8 2.4c-.4-.2-.5-.8-.5-1.2 0-.7.6-.9 1.1-.5.9.5.3 1.8-.6 1.7zM19.1 78c-.6-.5-1.5-.6-2.1-.1-.8.7-.4 1.9.1 2.7.1.2.3.2.4.1 1.6.6 3-1.5 1.6-2.7zm-1.4 2s-.1 0 0 0c-.3-.5-.6-1.2-.2-1.5.3-.3.9-.2 1.2 0 .8.6-.1 2-1 1.5zm-.2-6.4c-.3-1-1.2-1.4-2.2-1.1-1.2.4-1.1 1.5-.8 2.5 0 .2.2.2.3.2.4.5 1.1.8 1.8.5.8-.4 1.1-1.3.9-2.1zM16.3 75c-.5.2-1-.1-1.2-.7 0-.1-.1-.2-.1-.2-.1-.4 0-.9.5-1 .6-.2 1.2 0 1.3.6.2.5 0 1.1-.5 1.3zm-.9-4.7c1-.5 1-1.7.4-2.5-.5-.7-1.5-.8-2.2-.3-.7.6-.7 1.7-.1 2.4 0 .1.1.1.1.1.4.5 1.2.6 1.8.3zm-1.4-.9c0-.1-.1-.2-.2-.2-.2-.4-.2-.8.1-1.1s.8-.3 1.1 0c.4.4.6 1.3 0 1.6-.2.2-.8.2-1-.3zm.5-3.7c.1 0 .2-.1.2-.2.7-.1 1-.9.8-1.6-.2-.8-.9-1.6-1.9-1.5-.9.1-1.3 1.1-1.1 1.9.2.9 1 1.5 2 1.4zm-1-2.5c.5-.3.9.1 1.1.5.1.2.4 1.2-.2 1.1-.2 0-.3 0-.4.1-.7.1-1.2-1.3-.5-1.7zm78.4 5c.5-2.9.7-5.8.7-8.8h0v-.5-.5h0c0-2.9-.2-5.9-.7-8.8-1.8-10.7-7-20.7-14.6-28.5-7.2-7.2-16.9-13-27.4-12.5-10.4-.4-20.2 5.4-27.3 12.6C14.9 28.9 9.8 38.9 8 49.6c-.5 2.9-.7 5.8-.7 8.8h0v.5.5h0c0 2.9.2 5.9.7 8.8 1.8 10.7 7 20.7 14.6 28.5 7.2 7.2 16.9 13.1 27.3 12.6 10.4.4 20.2-5.4 27.3-12.6 7.7-7.8 12.9-17.8 14.7-28.5zm-25.6 36c-5 2.9-10.6 4.6-16.4 4.3-5.8.2-11.4-1.5-16.4-4.3C17.3 95 8 77.1 8 58.9s9.3-36.1 25.5-45.3c5-2.9 10.6-4.6 16.4-4.3 5.8-.2 11.4 1.5 16.4 4.3 16.2 9.2 25.5 27.1 25.5 45.3.1 18.2-9.3 36.1-25.5 45.3zm27.3-45.1c-.1 0-.2.1-.2.2-.3.8-.2 2-.1 2.9 0 .9.2.9 1.1 1.1h.2c.2 0 .4-.1.4-.3.1-1 .3-2.2.1-3.2-.2-.7-.9-.8-1.5-.7zm.7 2.2c0 .5 0 .9-.1 1.4-.1 0-.2-.1-.3-.2-.1-.2 0-.7 0-1 0-.5 0-1.1.1-1.6.5 0 .3 1 .3 1.4zm-.8 2.4c-.7.2-.5 1.3-.5 1.9 0 .4-.1 1 0 1.4s.3.4.7.6h.2c.2.2.5.2.6-.1.2-1 .4-2.2.3-3.2-.1-.7-.8-.7-1.3-.6zm.6.8v.8c0 .5-.1 1.1-.2 1.6-.2-.1-.2-.1-.2-.4v-.8-.9-.3c0-.3 0-.3.1-.1.1 0 .2 0 .3.1.2-.1.2-.1 0 0zm-1 3.3c-.2 0-.4.1-.4.3-.1.1-.1.1-.1.2l-.3 2.2c-.1.6.1.7.6 1.1.1 0 .1.1.2.1.2.1.5.1.5-.2.2-.9.5-1.8.6-2.8.1-.7-.4-.8-1.1-.9zm.2 2.1c-.1.3-.1.6-.2.9 0-.1 0-.1-.1-.3 0-.2.1-.5.1-.8.1-.4.1-.8.2-1.2.1 0 .2 0 .3.1 0 .4-.3 1-.3 1.3zm-1.1 2c-.2 0-.2.1-.3.2-.1 0-.2.1-.3.3l-.5 2.3c-.1.6.3.8.8 1-.1.4.7.4.7 0 .1-.5.1-1 .3-1.5.1-.4.3-.8.3-1.2 0-.7-.4-1.1-1-1.1zm-.1 2.4c0 .2-.1.4-.1.6h-.1c-.2 0-.2-.1-.1-.2 0-.2.1-.4.1-.6l.3-1.4c.4.1 0 1.4-.1 1.6zm-.8 1.7c-.1-.1-.2 0-.3 0-.1-.1-.3-.1-.4 0-.3.3-.5.7-.6 1.1l-.7 1.8c-.1.3.2.5.4.4v.1c.2.2.5.4.8.5.2.2.5.2.6-.1l.3-1.3c.2-.4.5-.8.6-1.3.3-.7-.1-1-.7-1.2zm0 1.2c-.1.3-.3.5-.4.8-.2.4-.3.7-.3 1.1-.1 0-.2-.1-.3-.2s-.1-.1-.2-.1c.1-.4.3-.7.4-1.1s.2-.8.5-1.1c.3.1.4.2.3.6z"/><path d="M89.6 79.8c-.2-.1-.4.1-.4.3-.1 0-.1.1-.2.2l-1.1 2.8c-.1.3.1.4.4.4l.5.5c-.1.4.5.5.7.1.2-.6.5-1.1.7-1.7.2-.5.5-1 .6-1.5.1-.7-.6-.9-1.2-1.1zm.3 1.3c0 .3-.2.6-.3.9l-.6 1.3-.3-.3.9-2.4c.1 0 .2.1.3.1.2.1.2.2 0 .4zm-1.8 3c-.1-.2-.4-.2-.6 0L86 86.4c-.1.2 0 .5.2.5v.1l.6.7.1.1c.1.3.5.4.6.1l1.2-2.7c.3-.7-.2-.9-.6-1.1zm0 .9c0 .2-.3.6-.4.8l-.5 1.2-.4-.4 1.1-1.8s.1 0 .1.1c.3 0 .3.1.1.1z"/><path d="M85.7 87.8c-.1 0-.1.1-.1.1l-1.7 2.6c0 .1-.1.1-.1.2s0 .2.1.3c.2.2.4.5.6.7.1.1.4.1.5 0 .7-.8 1.3-1.7 1.8-2.7v-.1c.5-.3-.3-1-.5-1.3s-.6 0-.6.2zm.5.8l-1.5 2.3-.2-.2 1.6-2.3c0 .1.1.1.1.2zm-2.6 3.5c-.1-.2-.4-.4-.6-.2l-2.7 2.8c-.2.2-.1.4 0 .5 0 .1 0 .2.1.4.2.2.3.4.5.6 0 .3.3.5.6.3l1.1-1.2c.1-.1.1-.2.1-.3l1.3-1.5s0-.1.1-.1c.2-.1.3-.2.2-.4-.2-.5-.4-.8-.7-.9zm-.3.7l-1.4 1.7c-.1.1-.1.2-.1.2-.2.2-.4.4-.6.7-.1-.1-.2-.3-.4-.4l2.3-2.4c.2.1.2.1.2.2h0zm-3.5 3.4c-.1-.1-.3-.1-.4 0l-.1.1c-.6.9-1.3 1.8-2 2.6-.1.1-.1.3 0 .4-.1.1-.2.3-.1.4.1.2.2.4.3.5.1.2.4.2.5.1l2.3-2.4c.1-.1.1-.2.1-.3.2-.1.4-.4.2-.6-.4-.3-.6-.6-.8-.8zm-.1 1.2c-.6.7-1.3 1.4-2 2.1 0 0 0-.1-.1-.1.7-.7 1.3-1.5 1.8-2.3l.3.3c.1-.1.1-.1 0 0zm-3.9 2.3l-3.1 2.7c-.1.1-.1.2-.1.3-.1.1-.1.3 0 .4l.3.3c0 .1.1.3.3.3.2.2.6 0 .6-.3l2.9-2.3c.1-.1.1-.2.1-.3.1-.1.1-.2.1-.3-.1-.4-.3-.7-.5-1-.2 0-.4 0-.6.2zm.4 1l-2.8 2.2-.1-.1 2.8-2.4c0 .1 0 .2.1.3z"/><path d="M72.6 103.8c-.2-.2-.4-.5-.6-.7a.45.45 0 0 0-.5 0l-2.4 1.6c-.1.1-.2.2-.1.4-.2.1-.3.3-.2.5s.2.3.2.5.3.3.5.2l3-1.7c.2-.1.2-.3.1-.5.1 0 .1-.2 0-.3zm-3.1 1.7c0-.1 0-.1-.1-.2l2.2-1.5.3.3-2.4 1.4zm-1.1.2c-.1-.3-.6-.3-.7 0l-2 1.2c-.1.1-.1.1-.1.2-.1 0-.2 0-.2.1-.4.3-.4 1.4.3 1.5.4 0 .9-.4 1.2-.5.6-.3 1.1-.6 1.7-.8.1-.1.2-.2.2-.3.1-.1.2-.2.1-.4-.3-.4-.4-.7-.5-1zm-1.8 1.7c-.2.1-.6.2-.7.4h-.1c0-.1 0-.1.1-.1l.1-.1h.2l1.8-1.1c0 .1.1.2.1.3-.5.1-1 .3-1.5.6zm-2.8.3l-3.3 1.5c-.2.1-.2.4-.1.5v.2c.1.2.1.3.2.5s.3.2.5.1c1-.6 2.1-1 3.2-1.3.1 0 .2-.1.2-.2.1-.1.1-.2.1-.3-.1-.3-.2-.6-.4-1 .1-.3-.2-.2-.4 0zm-2.6 2.1s0-.1 0 0c0-.1 0-.1 0 0l2.7-1.4c0 .1 0 .2.1.2a13.9 13.9 0 0 0-2.8 1.2zm-1.3-.1c-.1-.1-.1-.1-.2-.1h-.2l-2.6.7c-.2.1-.2.2-.2.3-.1 0-.3.1-.2.3v.4c0 .2.2.4.4.3 1-.3 1.9-.5 2.9-.6.2 0 .3-.2.3-.4.1-.1.1-.2.1-.3l-.3-.6zm-2.8 1.2c.7-.3 1.5-.5 2.3-.7 0 .1.1.1.1.2l-2.4.5zm-1.2-.2c0-.4-.6-.4-.7-.2l-2.4.4c-.2 0-.3.2-.2.4-.1.1-.1.1-.1.2 0 .2-.1.4-.1.6s.1.5.3.4l2.9-.3c.3 0 .4-.3.3-.5v-.2-.8zm-2.8 1.1v-.3l2.1-.3v.3c-.7.2-1.4.3-2.1.3zm.9-10.9a1.59 1.59 0 0 0-.7 2c.3.7 1.1 1 1.9.8.1 0 .1 0 .2-.1.6-.5 1-1.5.6-2.3-.4-.7-1.4-.8-2-.4zm1 2c-1 .4-1.5-.9-.7-1.4.3-.2.9-.2 1.1.2.3.4-.1.9-.4 1.2zm5.5-3.3c-.6-.6-1.6-.4-2.2.2s-.4 1.4.2 1.8c.7.5 1.7.2 2.2-.3.1-.1.1-.3 0-.4.3-.5.2-1-.2-1.3zm-.4 1.2c-.1.1-.1.2-.1.2-.2.1-.4.1-.6.1-.5-.1-.9-.5-.5-.9.3-.2.7-.4 1-.2s.4.5.2.8zm3.5-3.6c-.7.3-1.3 1.1-1 1.8.3.8 1.3.9 2 .8.2 0 .3-.2.2-.3.5-.5.8-1.1.6-1.8-.2-.8-1.2-.8-1.8-.5zm.6 1.8c0 .1-.1.1 0 0-.4.1-.8.1-.9-.2-.2-.4.2-.8.5-1 .4-.2 1-.3 1 .3 0 .4-.3.7-.6.9zm2.9-4.5c-.8.3-1.2 1.2-1 2s1.1 1.3 2 1c.2-.1.2-.2.2-.4.5-.5 1-1.3.7-2-.2-.7-1.3-.8-1.9-.6zm.4 2.4c-.9.1-1.2-1.3-.2-1.7.4-.2 1-.1 1 .4s-.4 1-.8 1.3zm3.9-5.5c-.7.2-1.3.9-1.1 1.7s1 .9 1.7.8h.2c.7-.2 1-1 .9-1.7 0-1-1-1-1.7-.8zm.7 1.7c-.3 0-.7.1-.9-.1-.4-.3-.1-.8.3-1 .3-.1 1-.3 1 .2 0 .3-.1.8-.4.9zm1.7-5c-.4.8-.2 1.8.6 2.3s1.8 0 2.1-.8v-.1c.3-.7.2-1.6-.3-2.1-.8-.8-2-.1-2.4.7zm1.9 1.3c-.1.1-.1.2-.1.3-.2.2-.7.3-1 .1-.4-.3-.5-.8-.3-1.2.2-.5.9-1 1.4-.6.3.2.3 1.1 0 1.4zm2.4-6.5c-.7.4-1.2 1.3-.8 2.1.3.8 1.2 1.2 2 1 .1 0 .2-.1.2-.2.6-.5.8-1.5.6-2.2-.2-.9-1.3-1.1-2-.7zm.8 2.4c-.9.1-1.5-1.2-.6-1.8.5-.4 1.2-.2 1.1.5 0 .5-.1 1.1-.5 1.3zm1.8-7.3c-1.4 1.2.1 3.3 1.6 2.7.1 0 .3 0 .4-.1.5-.7.9-2 .1-2.7-.6-.5-1.5-.4-2.1.1zm1.5 2c-1 .5-1.9-.9-1-1.5.3-.2.9-.3 1.2 0 .3.4.1 1.1-.2 1.5zm2.3-7.6c-1-.3-1.9.1-2.2 1.1-.2.8.1 1.8 1 2.1.7.3 1.4 0 1.8-.5.1 0 .3-.1.3-.2.3-1 .3-2.1-.9-2.5zm.4 1.8c-.1 0-.1.1-.1.2-.1.5-.6.9-1.2.7-.5-.2-.7-.8-.5-1.3.2-.7.7-.8 1.3-.6.5.1.5.5.5 1zm-.9-6.4c-.6.8-.6 2 .4 2.5.6.3 1.4.2 1.8-.3.1 0 .1 0 .1-.1.6-.7.6-1.8-.1-2.4-.6-.6-1.7-.4-2.2.3zm2 1.4c-.1 0-.2.1-.2.2-.1.4-.8.4-1.1.3-.6-.3-.4-1.2 0-1.6.3-.3.8-.3 1.1 0 .4.3.4.7.2 1.1zm.2-6.8c-.9-.1-1.6.6-1.9 1.5-.2.7.1 1.5.8 1.6 0 .1.1.1.2.2.9.2 1.7-.5 1.9-1.4.3-.8-.1-1.7-1-1.9zm-.5 2.6c-.1-.1-.2-.2-.4-.1-.6.1-.3-.9-.2-1.1.2-.4.7-.8 1.1-.5.9.3.3 1.7-.5 1.7zm-71.8-4.4c1.8-.6.9-4-.9-3l-.1.1c-1.6.4-.8 3.6 1 2.9zm-.7-2.3c.1 0 .2-.1.3-.2.8-.3 1 1.4.3 1.8-1 .5-1.5-1.5-.6-1.6zm38.2-44l-.1-.1c-.4-1.7-3.6-.8-3 1 .7 1.8 4.1.9 3.1-.9zm-.7.2c0 .1.1.2.2.3.3.8-1.4 1-1.8.3-.6-1 1.5-1.5 1.6-.6zm.6 88c-.4-1.7-3.6-.8-3 1s4 .9 3-.9c.1 0 0 0 0-.1zm-2.2.8c-.5-1 1.5-1.5 1.6-.6 0 .1.1.2.2.3.3.8-1.5 1-1.8.3zm37.1-45.7l-.1.1c-1.7.4-.8 3.6 1 3 1.7-.7.9-4.1-.9-3.1zm.7 2.3c-1 .5-1.5-1.5-.6-1.6.1 0 .2-.1.3-.2.8-.3 1 1.4.3 1.8zM48.7 7c.6-.1 1.1-.3 1.7-.2.3 0 .7.2 1-.1.2-.2.2-.6.2-.9s0-.7-.3-.9c-.3-.3-.8-.2-1.2-.2h-1.7c-.3.1-.4.3-.4.5-.1 0-.2.1-.2.3.2.6 0 1.6.9 1.5zm1.4-1.5h.4c.2 0 .2 0 .3.2 0 .1.1.3.1.4v.1h-.1c-.2 0-.5-.1-.7-.1s-.5 0-.7.1c-.1 0-.7.2-.7.1-.1-.1-.1-.7-.1-.8h1.5zm1.2 105.3c-.3-.3-.8-.2-1.2-.2h-1.7c-.2 0-.3.2-.3.4-.1 0-.2.1-.2.3.1.6 0 1.7.8 1.6.6-.1 1.1-.3 1.7-.2.3 0 .7.2 1-.1.2-.2.2-.6.2-.9-.1-.3-.1-.7-.3-.9zm-.5 1.2c-.2 0-.5-.1-.7-.1s-.5 0-.7.1c-.1 0-.7.2-.7.1-.1-.1-.1-.7-.1-.8h1.5.4c.2 0 .2 0 .3.2 0 0 .1.3 0 .5 0-.1 0 0 0 0z"/></svg>