<?xml version="1.0" encoding="utf-8"?>
<!-- Generator: Adobe Illustrator 25.3.1, SVG Export Plug-In . SVG Version: 6.00 Build 0)  -->
<svg version="1.1" id="Layer_1" xmlns="http://www.w3.org/2000/svg" xmlns:xlink="http://www.w3.org/1999/xlink" x="0px" y="0px"
	 viewBox="0 0 550.8 249.1" style="enable-background:new 0 0 550.8 249.1;" xml:space="preserve">
<style type="text/css">
	.st0{fill:none;}
	.st1{fill:#1E1E1E;}
</style>
<path class="st0" d="M384.6,64.8h-5.7v54.1h5.7c17.8,0,24.1-7.1,24.1-27S402.3,64.8,384.6,64.8z"/>
<g>
	<g>
		<path class="st1" d="M220.3,8v75.8h-87.5h-8v8v18.9v8h8h80.4v69h-80.4h-8v8v45.4H8V8H220.3 M228.3,0H0v249.1h132.8v-53.4h88.4v-85
			h-88.4V91.8h95.5V0L228.3,0z"/>
	</g>
</g>
<g>
	<path class="st1" d="M423.3,8c43.2,0,71.2,6,88.2,18.8C528,39.2,535.3,59,535.3,90.7c0,32.7-7.9,50.9-27.2,63l-5.8,3.6l2.7,6.3
		l33.6,77.4H416.1l-17.8-59.8l-1.7-5.7h-6h-11.7h-8v8v57.5H254.4V8H423.3 M366.9,130.8h8h4h5.7c12.5,0,21.5-3.2,27.5-9.9
		c5.9-6.5,8.6-15.7,8.6-29.1c0-13.5-2.6-22.4-8.5-29c-6.1-6.8-15.1-10-27.6-10h-5.7h-4h-8v8v4v54v4V130.8 M423.3,0H246.4v249.1
		h132.5v-65.5h11.7l19.5,65.5h140.6l-38.4-88.6c21.8-13.6,31-34.2,31-69.8C543.3,24.2,511.3,0,423.3,0L423.3,0z M374.9,122.8v-4v-54
		v-4h4h5.7c10.3,0,17.2,2.4,21.7,7.4c4.4,4.9,6.4,12.2,6.4,23.6c0,22-8.1,31-28.1,31h-5.7H374.9L374.9,122.8z"/>
</g>
</svg>
