<?xml version="1.0" encoding="utf-8"?>
<!-- Generator: Adobe Illustrator 25.3.1, SVG Export Plug-In . SVG Version: 6.00 Build 0)  -->
<svg version="1.1" id="Layer_1" xmlns="http://www.w3.org/2000/svg" xmlns:xlink="http://www.w3.org/1999/xlink" x="0px" y="0px"
	 viewBox="0 0 550.8 249.1" style="enable-background:new 0 0 550.8 249.1;" xml:space="preserve">
<style type="text/css">
	.st0{fill:none;}
	.st1{fill:#1E1E1E;}
</style>
<path class="st0" d="M384.6,64.8h-5.7v54.1h5.7c17.8,0,24.1-7.1,24.1-27S402.3,64.8,384.6,64.8z"/>
<g>
	<path class="st1" d="M224.3,4v83.8h-91.5h-4v4v18.9v4h4h84.4v77h-84.4h-4v4v49.4H4V4H224.3 M228.3,0H0v249.1h132.8v-53.4h88.4v-85
		h-88.4V91.8h95.5V0L228.3,0z"/>
</g>
<g>
	<path class="st1" d="M423.3,4c44.1,0,72.9,6.2,90.6,19.6c8.8,6.7,15.2,15.3,19.3,26.3c4.1,10.9,6.1,24.3,6.1,40.8
		c0,34.3-8.4,53.5-29.1,66.4l-2.9,1.8l1.4,3.2l36,83H413.1l-18.6-62.6l-0.9-2.9h-3h-11.7h-4v4v61.5H250.4V4H423.3 M374.9,122.8h4
		h5.7c20,0,28.1-9,28.1-31c0-11.4-2-18.7-6.4-23.6c-4.5-5-11.4-7.4-21.7-7.4h-5.7h-4v4v54V122.8 M423.3,0H246.4v249.1h132.5v-65.5
		h11.7l19.5,65.5h140.6l-38.4-88.6c21.8-13.6,31-34.2,31-69.8C543.3,24.2,511.3,0,423.3,0L423.3,0z M378.9,118.8v-54h5.7
		c17.8,0,24.1,7.1,24.1,27s-6.4,27-24.1,27H378.9L378.9,118.8z"/>
</g>
</svg>
