<?xml version="1.0" encoding="utf-8"?>
<!-- Generator: Adobe Illustrator 25.3.1, SVG Export Plug-In . SVG Version: 6.00 Build 0)  -->
<svg version="1.1" id="Layer_1" xmlns="http://www.w3.org/2000/svg" xmlns:xlink="http://www.w3.org/1999/xlink" x="0px" y="0px"
	 viewBox="0 0 550.8 249.1" style="enable-background:new 0 0 550.8 249.1;" xml:space="preserve">
<style type="text/css">
	.st0{fill:none;}
	.st1{fill:#1E1E1E;}
</style>
<path class="st0" d="M384.6,64.8h-5.7v54.1h5.7c17.8,0,24.1-7.1,24.1-27S402.3,64.8,384.6,64.8z"/>
<polygon class="st1" points="0,0 0,249.1 132.8,249.1 132.8,195.7 221.2,195.7 221.2,110.7 132.8,110.7 132.8,91.8 228.3,91.8 
	228.3,0 228.3,0 "/>
<path class="st1" d="M543.3,90.7c0-66.5-32-90.7-120-90.7H246.4v249.1h132.5v-65.5h11.7l19.5,65.5h140.6l-38.4-88.6
	C534.1,146.9,543.3,126.3,543.3,90.7z M384.6,118.8h-5.7V64.8h5.7c17.8,0,24.1,7.1,24.1,27S402.3,118.8,384.6,118.8z"/>
</svg>
