<svg xmlns="http://www.w3.org/2000/svg" width="1051.436" height="249.07" viewBox="0 0 1051.436 249.07">
  <defs>
    <style>
      .cls-1 {
        fill: #1e1e1e;
        fill-rule: evenodd;
      }
    </style>
  </defs>
  <path id="free" class="cls-1" d="M303.421,2063.84H75.085v249.05H207.9v-53.37h88.422v-85.03H207.9v-18.85h95.524v-91.8Zm18.1,0v249.05H453.972v-65.46h11.719l19.531,65.46H625.846l-38.352-88.59c21.661-13.52,30.894-34.15,30.894-69.73,0-66.53-31.96-90.73-120.027-90.73H321.516Zm138.138,64.76c17.755,0,24.147,7.11,24.147,27.04s-6.392,27.04-24.147,27.04h-5.682V2128.6h5.682Zm411.559-64.76H637.55v249.05H871.213v-79.34H770.362V2214.7h93.749v-52.66H770.362v-18.86H871.213v-79.34Zm255.307,0H892.861v249.05H1126.52v-79.34H1025.67V2214.7h93.75v-52.66h-93.75v-18.86h100.85v-79.34Z" transform="translate(-75.094 -2063.84)"/>
</svg>
