<?xml version="1.0" encoding="utf-8"?>
<!-- Generator: Adobe Illustrator 25.3.1, SVG Export Plug-In . SVG Version: 6.00 Build 0)  -->
<svg version="1.1" id="Layer_1" xmlns="http://www.w3.org/2000/svg" xmlns:xlink="http://www.w3.org/1999/xlink" x="0px" y="0px"
	 viewBox="0 0 489 249.1" style="enable-background:new 0 0 489 249.1;" xml:space="preserve">
<style type="text/css">
	.st0{fill:#1E1E1E;}
</style>
<polygon class="st0" points="255.3,249.1 489,249.1 489,169.7 388.1,169.7 388.1,150.9 481.9,150.9 481.9,98.2 388.1,98.2 
	388.1,79.3 489,79.3 489,0 255.3,0 "/>
<polygon class="st0" points="489,0 489,0 489,0 "/>
<polygon class="st0" points="233.7,0 233.7,0 233.7,0 "/>
<polygon class="st0" points="0,249.1 233.7,249.1 233.7,169.7 132.8,169.7 132.8,150.9 226.6,150.9 226.6,98.2 132.8,98.2 
	132.8,79.3 233.7,79.3 233.7,0 0,0 "/>
</svg>
