<?xml version="1.0" encoding="utf-8"?>
<!-- Generator: Adobe Illustrator 25.3.1, SVG Export Plug-In . SVG Version: 6.00 Build 0)  -->
<svg version="1.1" id="Layer_1" xmlns="http://www.w3.org/2000/svg" xmlns:xlink="http://www.w3.org/1999/xlink" x="0px" y="0px"
	 viewBox="0 0 489 249.1" style="enable-background:new 0 0 489 249.1;" xml:space="preserve">
<style type="text/css">
	.st0{fill:#1E1E1E;}
</style>
<g>
	<path class="st0" d="M485,4v71.3h-96.9h-4v4v18.9v4h4h89.8v44.7h-89.8h-4v4v18.8v4h4H485v71.4H259.3V4H485 M489,0H255.3v249.1H489
		v-79.4H388.1v-18.8h93.8V98.2h-93.8V79.3H489V0L489,0z"/>
</g>
<path class="st0" d="M489,0L489,0L489,0z"/>
<path class="st0" d="M233.7,0L233.7,0L233.7,0z"/>
<g>
	<path class="st0" d="M229.7,4v71.3h-96.9h-4v4v18.9v4h4h89.8v44.7h-89.8h-4v4v18.8v4h4h96.9v71.4H4V4H229.7 M233.7,0H0v249.1h233.7
		v-79.4H132.8v-18.8h93.8V98.2h-93.8V79.3h100.9V0L233.7,0z"/>
</g>
</svg>
