<svg xmlns="http://www.w3.org/2000/svg" width="1053.186" height="140.47" xmlns:v="https://vecta.io/nano"><path d="M51.655 0C14.514 0 .003 12.66.003 44.91v79.94h57.871V97.8h22.8V55.84H57.006c0-7.11 2.419-9.02 9.674-9.02a58.35 58.35 0 0 1 13.993 1.73V3.47A114.6 114.6 0 0 0 51.655 0zm114.7 13.87c-11.919 0-23.493 6.94-26.257 22.72h-.346l-.518-19.25H89.483v107.51h58.044V86.01c0-12.83 4.664-19.25 16.756-19.25 3.312-.037 6.616.312 9.847 1.04V14.74c-2.547-.602-5.157-.894-7.774-.87zm78.423 0c-46.124 0-67.027 17.69-67.027 57.23s20.9 57.22 67.027 57.22 67.027-17.69 67.027-57.22-20.899-57.23-67.026-57.23zm0 42.83c5.182 0 6.737 3.13 6.737 14.4s-1.555 14.39-6.737 14.39-6.737-3.12-6.737-14.39 1.555-14.4 6.738-14.4zm233.028-42.83c-16.93 0-27.64 5.38-36.105 17.69h-.345c-4.319-12.14-14.166-17.69-30.922-17.69s-27.64 5.55-35.241 17.69h-.346l-1.209-14.22h-54.239v107.51h56.834V58.27a12.12 12.12 0 0 1 5.528-1.57c4.319 0 5.874 2.61 5.874 9.37v58.78h56.834V58.27a9.6 9.6 0 0 1 5.355-1.57c4.492 0 6.047 2.43 6.047 9.37v58.78h56.835V57.22c0-31.38-9.5-43.35-34.9-43.35zm125.231 0a279.26 279.26 0 0 0-49.751 4.34l1.727 48.38c7.256-4.34 20.385-6.94 34.2-6.94 17.275 0 25.049 3.99 25.049 12.83v.35h-.345c-6.738-3.47-17.275-5.55-28.159-5.55-23.839 0-35.413 10.06-35.413 30.87 0 20.29 10.883 30.17 33.168 30.17 15.029 0 26.43-4.51 33.34-13.18h.353l2.246 9.71h54.416a129.71 129.71 0 0 1-1.728-23.75V67.8c.001-40.23-17.619-53.93-69.099-53.93zm6.219 72.66a7.79 7.79 0 0 1 5.01 1.39v14.91a7.79 7.79 0 0 1-5.01 1.39c-4.837 0-6.564-2.08-6.564-8.85s1.731-8.84 6.568-8.84zM745.028 0c-20.212 0-29.713 6.94-29.713 21.5s9.5 21.51 29.713 21.51 29.713-6.94 29.713-21.51S765.243 0 745.032 0zm28.849 44.22c-7.947 3.47-17.448 5.2-28.849 5.2-11.229 0-20.73-1.73-28.849-5.2v39.71c0 3.12-1.382 3.99-4.319 3.99-1.57.015-3.136-.16-4.664-.52v49.24c6.564 2.43 15.72 3.82 26.43 3.82 29.54 0 40.251-9.19 40.251-37.98V44.22zm74.276-30.35c-46.124 0-67.026 17.69-67.026 57.23s20.9 57.22 67.026 57.22 67.027-17.69 67.027-57.22-20.899-57.23-67.023-57.23zm0 42.83c5.183 0 6.737 3.13 6.737 14.4s-1.554 14.39-6.737 14.39-6.737-3.12-6.737-14.39 1.559-14.4 6.741-14.4zM980.472 3.47h-57.7v121.38h42.5l4.66-8.32h.35c9.5 8.5 18.83 11.79 32.65 11.79 33.68 0 50.27-19.42 50.27-58.96 0-36.24-13.82-55.49-40.77-55.49-13.65 0-24.19 4.86-31.62 14.92h-.34V3.47zm5.18 53.23c5.36 0 7.26 3.82 7.26 14.4s-1.9 14.39-7.26 14.39a8.37 8.37 0 0 1-5.18-1.56V58.27a8.31 8.31 0 0 1 5.184-1.57z" fill="#1e1e1e" fill-rule="evenodd"/></svg>