<svg xmlns="http://www.w3.org/2000/svg" width="24.312" height="23.71" xmlns:v="https://vecta.io/nano"><path d="M12.156 0A12.16 12.16 0 0 0 .173 10.215 12.16 12.16 0 0 0 8.319 23.69c.191.072.405.044.571-.075s.262-.311.257-.515l-.016-2.06c-3.377.73-4.09-1.63-4.09-1.63a3.2 3.2 0 0 0-1.348-1.78c-1.1-.76.083-.74.083-.74.781.105 1.468.567 1.86 1.25.332.606.892 1.054 1.556 1.243s1.376.106 1.978-.233c.055-.615.329-1.189.771-1.62-2.7-.31-5.531-1.35-5.531-6.01a4.69 4.69 0 0 1 1.25-3.26c-.37-1.05-.328-2.201.119-3.22 0 0 1.019-.33 3.339 1.25a11.47 11.47 0 0 1 6.079 0c2.318-1.58 3.336-1.25 3.336-1.25a4.38 4.38 0 0 1 .12 3.22 4.68 4.68 0 0 1 1.249 3.26c0 4.67-2.839 5.7-5.544 6a2.88 2.88 0 0 1 .824 2.25l-.015 3.33a.61.61 0 0 0 .835.59A12.16 12.16 0 0 0 12.156 0z" fill="#1e1e1e" fill-rule="evenodd"/></svg>