<?xml version="1.0" encoding="utf-8"?>
<!-- Generator: Adobe Illustrator 25.3.1, SVG Export Plug-In . SVG Version: 6.00 Build 0)  -->
<svg version="1.1" id="intro" xmlns="http://www.w3.org/2000/svg" xmlns:xlink="http://www.w3.org/1999/xlink" x="0px" y="0px"
	 viewBox="0 0 479.8 412.2" style="enable-background:new 0 0 479.8 412.2;" xml:space="preserve">
<style type="text/css">
	.st0{fill-rule:evenodd;clip-rule:evenodd;fill:#1E1E1E;}
</style>
<path id="is_a_front-end_developer_designer." class="st0" d="M3.5,115.6l5.5-0.6v-13.4l-5.5,0.6V115.6L3.5,115.6z M6.3,100.9
	c0.9-0.1,1.8-0.5,2.4-1.1c0.6-0.6,0.9-1.4,0.9-2.2c0-0.7-0.3-1.4-0.9-1.8c-0.7-0.5-1.6-0.6-2.4-0.5c-0.9,0.1-1.7,0.5-2.4,1.1
	C3.3,96.9,3,97.7,3,98.5c0,0.7,0.3,1.5,0.9,1.9C4.6,100.9,5.5,101,6.3,100.9L6.3,100.9z M16.7,114.4c1.3-0.1,2.6-0.5,3.8-1.1
	c0.9-0.4,1.7-1.1,2.3-1.9c0.5-0.7,0.8-1.5,0.8-2.4c0.1-0.9-0.2-1.8-0.9-2.4c-0.6-0.5-1.3-0.8-2-1c-0.9-0.1-1.8-0.2-2.8-0.2
	c-0.5,0-1,0-1.5-0.1c-0.2,0-0.5-0.2-0.5-0.4c0-0.4,0.6-0.7,1.8-0.8c1.3-0.2,2.6,0,3.9,0.5l1.5-3.8c-0.8-0.3-1.6-0.5-2.5-0.5
	c-1-0.1-2-0.1-3,0.1c-1.3,0.1-2.6,0.5-3.7,1c-0.9,0.4-1.7,1.1-2.3,1.9c-0.5,0.7-0.8,1.5-0.8,2.4c-0.1,0.9,0.2,1.8,0.9,2.4
	c0.6,0.5,1.3,0.8,2,1c0.9,0.1,1.9,0.2,2.8,0.2c0.5,0,1,0,1.5,0.1c0.2,0,0.5,0.1,0.5,0.4c0,0.2-0.2,0.4-0.4,0.5
	c-0.4,0.2-0.9,0.3-1.3,0.3c-0.8,0.1-1.6,0.1-2.5,0c-0.8-0.1-1.5-0.3-2.2-0.6l-1.5,3.8c0.9,0.4,1.8,0.6,2.7,0.6
	C14.5,114.5,15.6,114.5,16.7,114.4L16.7,114.4L16.7,114.4z M38.6,98c-1.1,0.1-2.2,0.4-3.2,0.8c-1,0.3-1.9,0.8-2.8,1.4l1.8,3.4
	c0.5-0.4,1-0.7,1.6-1c0.6-0.2,1.2-0.4,1.8-0.5c1.5-0.2,2.3,0.2,2.5,1.3l-2.2,0.3c-1.6,0.1-3.2,0.6-4.6,1.6c-1,0.8-1.6,1.9-1.5,3.2
	c0,0.7,0.2,1.4,0.6,2c0.4,0.6,1,1.1,1.7,1.3c0.9,0.3,1.8,0.4,2.7,0.2c1.6,0,3.1-1,3.8-2.4v1.8l5.1-0.6v-7.2c0-2.2-0.6-3.7-1.9-4.6
	C42.7,98,40.9,97.7,38.6,98L38.6,98L38.6,98z M38.6,108.5c-0.3,0.1-0.7,0-1-0.2c-0.2-0.2-0.4-0.4-0.4-0.7c0-0.7,0.6-1.2,1.7-1.3
	l1.4-0.2v0.9c-0.1,0.4-0.4,0.8-0.7,1C39.3,108.3,38.9,108.4,38.6,108.5L38.6,108.5L38.6,108.5z M61.5,96.3c0-0.4,0.1-0.9,0.4-1.2
	c0.2-0.3,0.6-0.5,1-0.5c0.4,0,0.8,0,1.2,0.2l1.3-4c-0.5-0.2-1-0.3-1.5-0.3c-0.6,0-1.2,0-1.8,0c-1.7,0.1-3.2,0.8-4.4,2
	c-1.1,1.2-1.6,2.7-1.6,4.3v0.1l-1.8,0.2v4l1.8-0.2v8.6l5.5-0.6v-8.6l2.7-0.3v-4L61.5,96.3L61.5,96.3L61.5,96.3z M73.1,95.6v-1.4
	l-5.2,0.6v13.4l5.5-0.6v-5.9c-0.2-1.6,0.9-3,2.5-3.2c0.1,0,0.2,0,0.3,0c0.4,0,0.8-0.1,1.2,0v-4.9C75.8,93.5,74.2,94.3,73.1,95.6
	L73.1,95.6L73.1,95.6z M85.9,106.3c1.4-0.1,2.8-0.6,4-1.4c1.1-0.7,2.1-1.6,2.8-2.8c0.7-1.1,1-2.4,1-3.7c0-1.2-0.3-2.4-1-3.5
	c-0.7-1-1.6-1.7-2.8-2.1c-1.3-0.5-2.7-0.6-4-0.4c-1.4,0.1-2.8,0.6-4,1.3c-1.1,0.7-2.1,1.6-2.8,2.8c-0.7,1.1-1,2.4-1,3.7
	c0,1.2,0.3,2.4,1,3.5c0.7,1,1.6,1.7,2.8,2.1C83.2,106.3,84.6,106.5,85.9,106.3L85.9,106.3L85.9,106.3z M85.9,102
	c-0.6,0.1-1.2-0.1-1.6-0.5c-0.4-0.5-0.7-1.2-0.6-1.9c0-0.7,0.2-1.4,0.6-2c0.4-0.5,0.9-0.8,1.6-0.9c0.6-0.1,1.2,0.1,1.6,0.5
	c0.4,0.5,0.7,1.2,0.6,1.9c0,0.7-0.2,1.4-0.6,2C87.1,101.6,86.6,101.9,85.9,102L85.9,102L85.9,102z M104.7,90.3
	c-0.8,0.1-1.5,0.3-2.2,0.6c-0.7,0.3-1.3,0.8-1.8,1.4V91l-5.2,0.6V105l5.5-0.6V98c-0.1-0.7,0.1-1.5,0.6-2.1c0.4-0.5,0.9-0.8,1.5-0.8
	c1.1-0.1,1.6,0.6,1.6,2.1v6.7l5.5-0.6v-7.6c0-2-0.5-3.4-1.5-4.3C107.6,90.4,106.1,90,104.7,90.3L104.7,90.3L104.7,90.3z M121.1,97.7
	c-0.4,0.3-0.8,0.5-1.2,0.5c-0.3,0.1-0.6,0-0.8-0.2c-0.2-0.2-0.3-0.6-0.3-0.9v-3.4l2.7-0.3v-4l-2.7,0.3v-3.7l-5.5,0.6v3.7l-1.8,0.2v4
	l1.8-0.2v3.4c-0.1,1.5,0.4,2.9,1.5,3.9c1.3,0.8,2.8,1.2,4.3,0.9c1.2-0.1,2.4-0.5,3.4-1.1L121.1,97.7z M123.4,96.7l7.3-0.9v-4.2
	l-7.3,0.9V96.7z M147.5,92.2c0-1.3-0.3-2.5-1-3.6c-0.6-1-1.6-1.7-2.7-2.1c-1.2-0.4-2.5-0.5-3.7-0.4c-1.4,0.1-2.7,0.6-3.9,1.3
	c-1.1,0.7-2,1.6-2.7,2.8c-0.7,1.1-1,2.4-1,3.7c0,1.2,0.3,2.4,1,3.5c0.7,1,1.7,1.8,2.8,2.1c1.4,0.5,2.8,0.6,4.2,0.4
	c2.2-0.1,4.3-1.1,5.8-2.8l-2.9-2.6c-0.4,0.4-0.8,0.7-1.3,0.9c-0.5,0.2-1,0.3-1.5,0.4c-0.6,0.1-1.2,0-1.7-0.2c-0.4-0.2-0.8-0.6-1-1
	l9.3-1.1C147.5,92.7,147.5,92.3,147.5,92.2L147.5,92.2L147.5,92.2z M140.2,89.9c1-0.2,1.9,0.4,2.1,1.4c0,0,0,0.1,0,0.1l-4.3,0.5
	c0.1-0.5,0.3-1,0.7-1.4C139.2,90.2,139.7,90,140.2,89.9L140.2,89.9L140.2,89.9z M158.5,84c-0.8,0.1-1.5,0.3-2.2,0.6
	c-0.7,0.3-1.3,0.8-1.8,1.4v-1.3l-5.2,0.6v13.4l5.5-0.6v-6.3c-0.1-0.7,0.1-1.5,0.6-2.1c0.4-0.5,0.9-0.8,1.5-0.8
	c1.1-0.1,1.6,0.6,1.6,2.1v6.7L164,97v-7.6c0-2-0.5-3.4-1.5-4.3C161.4,84.1,159.9,83.8,158.5,84L158.5,84L158.5,84z M175.9,77.5v5.7
	c-1-0.7-2.2-1-3.4-0.8c-1.2,0.1-2.3,0.6-3.2,1.2c-1,0.7-1.8,1.6-2.3,2.7c-0.6,1.2-0.9,2.4-0.9,3.8c0,1.2,0.3,2.5,0.9,3.6
	c0.5,0.9,1.4,1.7,2.3,2.2c1,0.5,2.1,0.6,3.2,0.5c1.4-0.1,2.7-0.7,3.7-1.8v1.1l5.2-0.6V76.8L175.9,77.5z M173.8,91.8
	c-0.6,0.1-1.2-0.1-1.6-0.5c-0.4-0.5-0.7-1.2-0.6-1.9c0-0.7,0.2-1.4,0.6-2c0.4-0.5,0.9-0.8,1.6-0.9c0.6-0.1,1.2,0.1,1.6,0.5
	c0.4,0.5,0.7,1.2,0.6,1.9c0,0.7-0.2,1.4-0.6,2C175,91.4,174.4,91.7,173.8,91.8L173.8,91.8L173.8,91.8z M200.4,74.6v5.7
	c-1-0.7-2.2-1-3.4-0.8c-1.2,0.1-2.3,0.6-3.2,1.2c-1,0.7-1.8,1.6-2.3,2.7c-0.6,1.2-0.9,2.4-0.9,3.8c0,1.2,0.3,2.5,0.9,3.6
	c0.5,1,1.4,1.7,2.3,2.2c1,0.5,2.1,0.6,3.2,0.5c1.4-0.1,2.7-0.7,3.7-1.8v1.1l5.2-0.6V74L200.4,74.6z M198.3,88.9
	c-0.6,0.1-1.2-0.1-1.6-0.5c-0.4-0.5-0.7-1.2-0.6-1.9c0-0.7,0.2-1.4,0.6-2c0.4-0.5,0.9-0.8,1.6-0.9c0.6-0.1,1.2,0.1,1.6,0.5
	c0.4,0.5,0.7,1.2,0.6,1.9c0,0.7-0.2,1.4-0.6,2C199.5,88.5,199,88.9,198.3,88.9L198.3,88.9L198.3,88.9z M222.6,83.5
	c0-1.3-0.3-2.5-1-3.6c-0.6-1-1.6-1.7-2.7-2.1c-1.2-0.4-2.5-0.5-3.7-0.4c-1.4,0.1-2.7,0.6-3.9,1.3c-1.1,0.7-2,1.6-2.7,2.8
	c-0.7,1.1-1,2.4-1,3.7c0,1.2,0.3,2.4,1,3.5c0.7,1,1.7,1.8,2.8,2.1c1.4,0.5,2.8,0.6,4.2,0.4c2.2-0.1,4.3-1.1,5.8-2.8l-2.9-2.6
	c-0.4,0.4-0.8,0.7-1.3,0.9c-0.5,0.2-1,0.3-1.5,0.4c-0.6,0.1-1.2,0-1.7-0.2c-0.4-0.2-0.8-0.6-1-1l9.3-1.1
	C222.6,84,222.6,83.6,222.6,83.5L222.6,83.5L222.6,83.5z M215.3,81.2c1-0.2,1.9,0.4,2.1,1.4c0,0,0,0.1,0,0.1l-4.3,0.5
	c0.1-0.5,0.3-1,0.7-1.4C214.3,81.4,214.8,81.2,215.3,81.2L215.3,81.2L215.3,81.2z M233.7,75.5l-2.9,7.5l-2.7-6.8l-5.7,0.7l5.4,12.7
	l5.7-0.7l5.4-14L233.7,75.5z M253.6,79.9c0-1.3-0.3-2.5-1-3.6c-0.6-1-1.6-1.7-2.7-2.1c-1.2-0.4-2.5-0.5-3.7-0.4
	c-1.4,0.1-2.7,0.6-3.9,1.3c-1.1,0.7-2,1.6-2.7,2.8c-0.7,1.1-1,2.4-1,3.7c0,1.2,0.3,2.4,1,3.5c0.7,1,1.7,1.8,2.8,2.1
	c1.4,0.5,2.8,0.6,4.2,0.4c2.2-0.1,4.3-1.1,5.8-2.8l-2.9-2.6c-0.4,0.4-0.8,0.7-1.3,0.9c-0.5,0.2-1,0.3-1.5,0.4
	c-0.6,0.1-1.2,0-1.7-0.2c-0.4-0.2-0.8-0.6-1-1l9.3-1.1C253.6,80.4,253.6,80,253.6,79.9L253.6,79.9L253.6,79.9z M246.3,77.6
	c1-0.2,1.9,0.4,2.1,1.4c0,0,0,0.1,0,0.1l-4.3,0.5c0.1-0.5,0.3-1,0.7-1.4C245.3,77.8,245.8,77.6,246.3,77.6L246.3,77.6L246.3,77.6z
	 M255.4,86.4l5.5-0.6V67.6l-5.5,0.6V86.4L255.4,86.4z M270.4,84.9c1.4-0.1,2.8-0.6,4-1.4c1.1-0.7,2.1-1.6,2.8-2.8
	c0.7-1.1,1-2.4,1-3.7c0-1.2-0.3-2.4-1-3.5c-0.7-1-1.6-1.7-2.8-2.1c-1.3-0.5-2.7-0.6-4-0.4c-1.4,0.1-2.8,0.6-4,1.3
	c-1.1,0.7-2.1,1.6-2.8,2.8c-0.7,1.1-1,2.4-1,3.7c0,1.2,0.3,2.4,1,3.5c0.7,1,1.6,1.7,2.8,2.1C267.7,84.9,269,85,270.4,84.9
	L270.4,84.9z M270.4,80.6c-0.6,0.1-1.2-0.1-1.6-0.5c-0.4-0.5-0.7-1.2-0.6-1.9c0-0.7,0.2-1.4,0.6-2c0.4-0.5,0.9-0.8,1.6-0.9
	c0.6-0.1,1.2,0.1,1.6,0.5c0.4,0.5,0.7,1.2,0.6,1.9c0,0.7-0.2,1.4-0.6,2C271.6,80.2,271,80.5,270.4,80.6L270.4,80.6L270.4,80.6z
	 M288.8,68.9c-1.4,0.1-2.7,0.7-3.7,1.8v-1.1l-5.2,0.6v18.1l5.5-0.6V82c1,0.7,2.2,1,3.4,0.8c1.2-0.1,2.3-0.6,3.2-1.2
	c1-0.7,1.8-1.6,2.3-2.7c0.6-1.2,0.9-2.4,0.9-3.8c0-1.2-0.3-2.5-0.9-3.6c-0.5-0.9-1.4-1.7-2.3-2.2C291,68.9,289.9,68.7,288.8,68.9
	L288.8,68.9z M287.5,78.6c-0.6,0.1-1.2-0.1-1.6-0.5c-0.4-0.5-0.7-1.2-0.6-1.9c0-0.7,0.2-1.4,0.6-2c0.4-0.5,0.9-0.8,1.6-0.9
	c0.6-0.1,1.2,0.1,1.6,0.5c0.4,0.5,0.7,1.2,0.6,1.9c0,0.7-0.2,1.4-0.6,2C288.6,78.2,288.1,78.5,287.5,78.6L287.5,78.6L287.5,78.6z
	 M311.2,73.2c0-1.3-0.3-2.5-1-3.6c-0.6-1-1.6-1.7-2.7-2.1c-1.2-0.4-2.5-0.5-3.7-0.4c-1.4,0.1-2.7,0.6-3.9,1.3
	c-1.1,0.7-2,1.6-2.7,2.8c-0.7,1.1-1,2.4-1,3.7c0,1.2,0.3,2.4,1,3.5c0.7,1,1.7,1.8,2.8,2.1c1.4,0.5,2.8,0.6,4.2,0.4
	c2.2-0.1,4.3-1.1,5.8-2.8l-2.9-2.6c-0.4,0.4-0.8,0.7-1.3,0.9c-0.5,0.2-1,0.3-1.5,0.4c-0.6,0.1-1.2,0-1.7-0.2c-0.4-0.2-0.8-0.6-1-1
	l9.3-1.1C311.1,73.7,311.2,73.3,311.2,73.2L311.2,73.2L311.2,73.2z M303.9,70.9c1-0.2,1.9,0.4,2.1,1.4c0,0,0,0.1,0,0.1l-4.3,0.5
	c0.1-0.5,0.3-1,0.7-1.4C302.8,71.1,303.3,70.9,303.9,70.9L303.9,70.9L303.9,70.9z M318.1,67.1v-1.4l-5.2,0.6v13.4l5.5-0.6v-5.9
	c-0.2-1.6,1-3,2.5-3.2c0.1,0,0.2,0,0.3,0c0.4,0,0.8-0.1,1.2,0v-4.9C320.8,65.1,319.2,65.8,318.1,67.1L318.1,67.1L318.1,67.1z
	 M348.4,67.3l-4.4-0.8c-0.1,0.8-0.4,1.6-0.7,2.3l-1.8-1.3c0.9-0.6,1.6-1.3,2.2-2.1c0.5-0.7,0.7-1.5,0.7-2.4c0-0.8-0.2-1.6-0.7-2.2
	c-0.5-0.6-1.2-1.1-2-1.3c-1-0.3-2-0.3-3-0.2c-1.1,0.1-2.2,0.4-3.2,1c-0.9,0.4-1.6,1.1-2.2,1.9c-0.5,0.7-0.8,1.6-0.8,2.5
	c0,1.2,0.6,2.3,1.5,3.1c-1,0.6-1.9,1.5-2.5,2.4c-0.5,0.9-0.8,1.9-0.8,2.9c0,0.9,0.3,1.8,0.9,2.4c0.7,0.7,1.6,1.2,2.6,1.5
	c1.2,0.3,2.4,0.4,3.6,0.2c2.1-0.2,4.1-1,5.7-2.3l1.8,1.3l3-3.7l-1.6-1.2C347.5,70.1,348.1,68.7,348.4,67.3L348.4,67.3L348.4,67.3z
	 M338.8,62.8c0.3-0.1,0.5,0,0.8,0.2c0.2,0.1,0.3,0.4,0.3,0.6c-0.2,0.7-0.7,1.3-1.3,1.6c-0.3-0.2-0.5-0.4-0.7-0.7
	c-0.1-0.2-0.2-0.4-0.2-0.6c0-0.3,0.1-0.5,0.3-0.7C338.2,63,338.5,62.8,338.8,62.8L338.8,62.8L338.8,62.8z M338.3,73
	c-0.5,0.1-1.1,0-1.6-0.2c-0.4-0.2-0.6-0.6-0.6-1c0-0.7,0.4-1.3,1-1.7l3.1,2.3C339.6,72.7,339,72.9,338.3,73L338.3,73L338.3,73z
	 M366.9,55.3v5.7c-1-0.7-2.2-1-3.4-0.8c-1.2,0.1-2.3,0.6-3.2,1.2c-1,0.7-1.8,1.6-2.3,2.7c-0.6,1.2-0.9,2.5-0.9,3.8
	c0,1.2,0.3,2.5,0.9,3.6c0.5,0.9,1.4,1.7,2.3,2.2c1,0.5,2.1,0.6,3.2,0.5c1.4-0.1,2.7-0.7,3.7-1.8v1.1l5.2-0.6V54.6L366.9,55.3z
	 M364.8,69.6c-0.6,0.1-1.2-0.1-1.6-0.5c-0.4-0.5-0.7-1.2-0.6-1.9c0-0.7,0.2-1.4,0.6-2c0.4-0.5,0.9-0.8,1.6-0.9
	c0.6-0.1,1.2,0.1,1.6,0.5c0.4,0.5,0.7,1.2,0.6,1.9c0,0.7-0.2,1.4-0.6,2C366,69.2,365.4,69.5,364.8,69.6L364.8,69.6L364.8,69.6z
	 M389.1,64.1c0-1.3-0.3-2.5-1-3.6c-0.6-1-1.6-1.7-2.7-2.1c-1.2-0.4-2.5-0.5-3.7-0.4c-1.4,0.1-2.7,0.6-3.9,1.3
	c-1.1,0.7-2,1.6-2.7,2.8c-0.7,1.1-1,2.4-1,3.7c0,1.2,0.3,2.4,1,3.5c0.7,1,1.7,1.8,2.8,2.1c1.4,0.5,2.8,0.6,4.2,0.4
	c2.2-0.1,4.3-1.1,5.8-2.8l-2.9-2.6c-0.4,0.4-0.8,0.7-1.3,0.9c-0.5,0.2-1,0.3-1.5,0.4c-0.6,0.1-1.2,0-1.7-0.2c-0.4-0.2-0.8-0.6-1-1
	l9.3-1.1C389,64.6,389.1,64.2,389.1,64.1L389.1,64.1L389.1,64.1z M381.8,61.8c1-0.2,1.9,0.4,2.1,1.4c0,0,0,0.1,0,0.1l-4.3,0.5
	c0.1-0.5,0.3-1,0.7-1.4C380.7,62.1,381.2,61.9,381.8,61.8L381.8,61.8L381.8,61.8z M396,70.2c1.3-0.1,2.6-0.5,3.8-1
	c0.9-0.4,1.7-1.1,2.3-1.9c0.5-0.7,0.8-1.5,0.8-2.4c0.1-0.9-0.2-1.8-0.9-2.4c-0.6-0.5-1.3-0.8-2-1c-0.9-0.1-1.8-0.2-2.8-0.2
	c-0.5,0-1,0-1.5-0.1c-0.2,0-0.5-0.2-0.5-0.4c0-0.4,0.6-0.7,1.8-0.8c1.3-0.2,2.6,0,3.9,0.5l1.5-3.8c-0.8-0.3-1.6-0.5-2.5-0.5
	c-1-0.1-2-0.1-3,0.1c-1.3,0.1-2.6,0.5-3.7,1c-0.9,0.4-1.7,1.1-2.3,1.9c-0.5,0.7-0.8,1.5-0.8,2.4c-0.1,0.9,0.2,1.8,0.9,2.4
	c0.6,0.5,1.3,0.8,2,1c0.9,0.1,1.9,0.2,2.8,0.2c0.5,0,1,0,1.5,0.1c0.2,0,0.4,0.1,0.5,0.4c0,0,0,0,0,0c0,0.2-0.2,0.4-0.4,0.5
	c-0.4,0.2-0.9,0.3-1.3,0.3c-0.8,0.1-1.6,0.1-2.5,0c-0.8-0.1-1.5-0.3-2.2-0.6l-1.5,3.8c0.9,0.4,1.8,0.6,2.7,0.6
	C393.8,70.4,394.9,70.4,396,70.2L396,70.2L396,70.2z M404.6,69l5.5-0.6V55l-5.5,0.6V69L404.6,69z M407.3,54.2
	c0.9-0.1,1.8-0.5,2.4-1.1c0.6-0.6,0.9-1.4,0.9-2.2c0-0.7-0.3-1.4-0.9-1.8c-0.7-0.5-1.6-0.6-2.4-0.5c-0.9,0.1-1.7,0.5-2.4,1.1
	c-0.6,0.5-0.9,1.3-0.9,2.1c0,0.7,0.3,1.5,0.9,1.9C405.6,54.2,406.5,54.4,407.3,54.2L407.3,54.2L407.3,54.2z M422.2,53.6v1.5
	c-0.8-1.1-2.1-1.5-4-1.3c-1.1,0.1-2.2,0.5-3.2,1.2c-1,0.6-1.8,1.5-2.4,2.5c-0.6,1.1-0.9,2.3-0.9,3.5c0,1.2,0.3,2.3,0.9,3.3
	c0.6,0.9,1.4,1.6,2.4,2c1,0.4,2.1,0.6,3.2,0.4c1.4-0.1,2.8-0.8,3.7-1.8v0.2c0,0.8-0.2,1.6-0.8,2.2c-0.7,0.6-1.5,1-2.4,1
	c-0.8,0.1-1.5,0.1-2.3-0.1c-0.7-0.1-1.4-0.4-2-0.7l-1.9,4c0.9,0.5,1.9,0.8,3,0.9c1.2,0.2,2.5,0.1,3.7,0c2.2-0.1,4.4-1.1,6-2.6
	c1.5-1.6,2.2-3.8,2.1-6V53L422.2,53.6z M419.7,62.2c-0.6,0.1-1.2-0.1-1.6-0.4c-0.4-0.4-0.7-0.9-0.7-1.5c0-0.6,0.2-1.2,0.6-1.6
	c0.4-0.4,1-0.7,1.6-0.8c0.6-0.1,1.2,0.1,1.6,0.4c0.4,0.4,0.7,0.9,0.6,1.5c0,0.6-0.2,1.2-0.6,1.6C420.9,61.9,420.3,62.2,419.7,62.2
	L419.7,62.2L419.7,62.2z M439.2,51.4c-0.8,0.1-1.5,0.3-2.2,0.6c-0.7,0.3-1.3,0.8-1.8,1.4v-1.3l-5.2,0.6v13.4l5.5-0.6v-6.3
	c-0.1-0.7,0.1-1.5,0.6-2.1c0.4-0.5,0.9-0.8,1.5-0.8c1.1-0.1,1.6,0.6,1.6,2.1V65l5.5-0.6v-7.6c0-2-0.5-3.4-1.5-4.3
	C442,51.5,440.6,51.1,439.2,51.4L439.2,51.4L439.2,51.4z M461.5,55.7c0-1.3-0.3-2.5-1-3.6c-0.6-1-1.6-1.7-2.7-2.1
	c-1.2-0.4-2.5-0.5-3.7-0.4c-1.4,0.1-2.7,0.6-3.9,1.3c-1.1,0.7-2,1.6-2.7,2.8c-0.7,1.1-1,2.4-1,3.7c0,1.2,0.3,2.4,1,3.5
	c0.7,1,1.7,1.8,2.8,2.1c1.4,0.5,2.8,0.6,4.2,0.4c2.2-0.1,4.3-1.1,5.8-2.8l-2.9-2.6c-0.4,0.4-0.8,0.7-1.3,0.9c-0.5,0.2-1,0.3-1.5,0.4
	c-0.6,0.1-1.2,0-1.7-0.2c-0.4-0.2-0.8-0.6-1-1l9.3-1.1C461.5,56.2,461.5,55.8,461.5,55.7L461.5,55.7L461.5,55.7z M454.2,53.4
	c1-0.2,1.9,0.4,2.1,1.4c0,0,0,0.1,0,0.1l-4.3,0.5c0.1-0.5,0.3-1,0.7-1.4C453.2,53.7,453.7,53.4,454.2,53.4L454.2,53.4L454.2,53.4z
	 M468.5,49.7v-1.4l-5.2,0.6v13.4l5.5-0.6v-5.9c-0.2-1.6,0.9-3,2.5-3.2c0.1,0,0.2,0,0.3,0c0.4,0,0.8-0.1,1.2,0v-4.9
	C471.1,47.6,469.5,48.4,468.5,49.7L468.5,49.7L468.5,49.7z M476.6,60.9c0.9-0.1,1.7-0.5,2.3-1.2c0.6-0.6,0.9-1.5,0.9-2.4
	c0-0.8-0.3-1.6-0.9-2.2c-0.6-0.5-1.5-0.7-2.3-0.6c-0.9,0.1-1.7,0.5-2.3,1.1c-0.6,0.6-0.9,1.5-0.9,2.4c0,0.8,0.3,1.6,0.9,2.2
	C474.9,60.8,475.8,61,476.6,60.9L476.6,60.9L476.6,60.9z"/>
<path id="is_a_highly_creative_self-starter_that_loves_making_projects_th" class="st0" d="M2.6,294.4l5.4-0.6v-13.4l-5.4,0.6
	V294.4L2.6,294.4z M5.3,279.7c0.9-0.1,1.7-0.5,2.4-1.1c0.6-0.6,0.9-1.4,0.9-2.2c0-0.7-0.3-1.4-0.9-1.9c-0.7-0.5-1.5-0.6-2.4-0.5
	c-0.9,0.1-1.7,0.5-2.3,1.1c-0.6,0.6-0.9,1.3-0.9,2.1c0,0.7,0.3,1.5,0.9,1.9C3.6,279.6,4.5,279.8,5.3,279.7L5.3,279.7L5.3,279.7z
	 M15.2,293.2c1.3-0.1,2.5-0.5,3.7-1c0.9-0.4,1.7-1.1,2.3-1.9c0.5-0.7,0.8-1.5,0.8-2.4c0.1-0.9-0.2-1.8-0.8-2.4
	c-0.5-0.5-1.2-0.8-1.9-1c-0.9-0.1-1.8-0.2-2.7-0.2c-0.5,0-1,0-1.5-0.1c-0.2,0-0.5-0.2-0.5-0.4c0-0.4,0.6-0.7,1.8-0.8
	c1.3-0.2,2.6,0,3.8,0.5l1.5-3.8c-0.8-0.3-1.6-0.5-2.4-0.5c-1-0.1-1.9-0.1-2.9,0.1c-1.3,0.1-2.5,0.5-3.6,1c-0.9,0.4-1.7,1.1-2.3,1.9
	c-0.5,0.7-0.8,1.5-0.8,2.4c-0.1,0.9,0.2,1.8,0.8,2.4c0.5,0.5,1.2,0.8,2,1c0.9,0.1,1.8,0.2,2.7,0.2c0.5,0,1,0,1.5,0.1
	c0.2,0,0.4,0.2,0.5,0.4c0,0.2-0.2,0.4-0.4,0.5c-0.4,0.2-0.9,0.3-1.3,0.3c-0.8,0.1-1.6,0.1-2.4,0c-0.7-0.1-1.5-0.3-2.1-0.6l-1.5,3.8
	c0.8,0.4,1.7,0.6,2.6,0.6C13,293.3,14.1,293.3,15.2,293.2L15.2,293.2L15.2,293.2z M42,276.2c-1.1,0.1-2.1,0.4-3.1,0.8
	c-1,0.3-1.9,0.8-2.7,1.4l1.7,3.4c0.5-0.4,1-0.7,1.5-1c0.6-0.2,1.2-0.4,1.8-0.5c1.5-0.2,2.3,0.3,2.4,1.3l-2.2,0.3
	c-1.6,0.1-3.2,0.6-4.5,1.5c-1,0.8-1.5,1.9-1.5,3.2c0,0.7,0.2,1.4,0.6,2c0.4,0.6,1,1.1,1.6,1.3c0.8,0.3,1.7,0.4,2.6,0.2
	c1.6,0,3-1,3.7-2.4v1.8l5-0.6v-7.2c0-2.2-0.6-3.7-1.8-4.6C46,276.3,44.2,276,42,276.2L42,276.2L42,276.2z M41.9,286.8
	c-0.3,0.1-0.7,0-0.9-0.2c-0.2-0.2-0.4-0.4-0.3-0.7c0-0.7,0.5-1.2,1.6-1.3l1.3-0.2v0.9c-0.1,0.4-0.3,0.8-0.7,1
	C42.7,286.6,42.3,286.7,41.9,286.8L41.9,286.8L41.9,286.8z M72.9,272.6c-1.4,0.1-2.7,0.8-3.7,1.7v-5.8l-5.4,0.6v18.1l5.4-0.6v-6.3
	c-0.1-0.7,0.1-1.5,0.6-2.1c0.4-0.5,0.9-0.8,1.5-0.8c1.1-0.1,1.6,0.6,1.6,2.1v6.7l5.4-0.6V278c0-2-0.5-3.4-1.5-4.3
	C75.7,272.8,74.3,272.4,72.9,272.6L72.9,272.6L72.9,272.6z M80.4,285.4l5.4-0.6v-13.4l-5.4,0.6V285.4L80.4,285.4z M83,270.6
	c0.9-0.1,1.7-0.5,2.4-1.1c0.6-0.6,0.9-1.4,0.9-2.2c0-0.7-0.3-1.4-0.9-1.9c-0.7-0.5-1.5-0.6-2.4-0.5c-0.9,0.1-1.7,0.4-2.3,1.1
	c-0.6,0.6-0.9,1.3-0.9,2.1c0,0.7,0.3,1.5,0.9,1.9C81.4,270.6,82.2,270.8,83,270.6L83,270.6L83,270.6z M97.3,270v1.5
	c-0.8-1.1-2.1-1.5-3.9-1.3c-1.1,0.1-2.2,0.5-3.1,1.2c-2,1.3-3.2,3.6-3.1,6c0,1.2,0.3,2.3,0.9,3.3c0.5,0.9,1.3,1.6,2.3,2
	c1,0.4,2,0.6,3.1,0.4c1.4-0.1,2.7-0.8,3.6-1.8v0.2c0,0.8-0.2,1.6-0.7,2.2c-0.6,0.6-1.5,0.9-2.4,1c-0.7,0.1-1.5,0-2.2-0.1
	c-0.7-0.1-1.3-0.4-1.9-0.7l-1.8,4c0.9,0.5,1.9,0.8,2.9,0.9c1.2,0.2,2.4,0.2,3.6,0c2.2-0.1,4.3-1.1,5.9-2.6c1.4-1.6,2.2-3.8,2.1-6
	v-10.7L97.3,270z M94.9,278.7c-0.6,0.1-1.1-0.1-1.6-0.4c-0.4-0.4-0.7-0.9-0.6-1.5c0-0.6,0.2-1.2,0.6-1.6c0.4-0.4,1-0.7,1.6-0.8
	c0.6-0.1,1.1,0.1,1.6,0.4c0.4,0.4,0.7,0.9,0.6,1.5c0,0.6-0.2,1.2-0.6,1.6C96,278.3,95.5,278.6,94.9,278.7L94.9,278.7L94.9,278.7z
	 M113.6,267.9c-1.4,0.1-2.7,0.8-3.7,1.7v-5.8l-5.4,0.6v18.1l5.4-0.6v-6.3c-0.1-0.7,0.1-1.5,0.6-2.1c0.4-0.5,0.9-0.8,1.5-0.8
	c1.1-0.1,1.6,0.6,1.6,2.1v6.7l5.4-0.6v-7.6c0-2-0.5-3.4-1.5-4.3C116.3,268,114.9,267.7,113.6,267.9L113.6,267.9L113.6,267.9z
	 M121,280.6l5.4-0.6v-18.1l-5.4,0.6V280.6L121,280.6z M137.9,265.3l-2.7,7.5l-2.7-6.8l-5.5,0.6l5.5,12.9c-0.3,0.4-0.8,0.7-1.3,0.7
	c-0.3,0-0.7,0-1-0.1c-0.3-0.1-0.6-0.2-0.9-0.4l-1.8,4c0.5,0.3,1.1,0.6,1.7,0.7c0.7,0.1,1.5,0.2,2.2,0.1c1.4-0.1,2.7-0.6,3.7-1.5
	c1.2-1.1,2.1-2.4,2.5-4l5.3-14.3L137.9,265.3z M163.4,275.9c1.5-0.1,2.9-0.7,4.1-1.5c1.1-0.8,1.9-1.9,2.3-3.2l-4.2-1.6
	c-0.3,1.1-1.2,1.8-2.3,2c-0.6,0.1-1.2-0.1-1.6-0.5c-0.5-0.5-0.7-1.2-0.6-1.9c0-0.7,0.2-1.4,0.6-2c0.4-0.5,1-0.8,1.6-0.9
	c1-0.1,2,0.5,2.3,1.5l4.2-2.6c-0.4-1.2-1.2-2.1-2.3-2.6c-1.3-0.6-2.7-0.8-4.1-0.6c-1.4,0.1-2.8,0.6-4,1.3c-1.1,0.7-2.1,1.6-2.7,2.8
	c-0.7,1.1-1,2.4-1,3.7c0,1.2,0.3,2.4,1,3.5c0.7,1,1.6,1.7,2.7,2.1C160.7,276,162,276.1,163.4,275.9L163.4,275.9L163.4,275.9z
	 M175.9,262.3v-1.4l-5.1,0.6v13.4l5.4-0.6v-5.9c-0.2-1.6,0.9-3,2.5-3.2c0.1,0,0.2,0,0.3,0c0.4,0,0.8-0.1,1.2,0v-4.9
	C178.4,260.3,176.9,261.1,175.9,262.3L175.9,262.3L175.9,262.3z M195.1,265.3c0-1.3-0.3-2.5-1-3.6c-0.6-0.9-1.5-1.7-2.6-2.1
	c-1.2-0.4-2.4-0.6-3.6-0.4c-1.3,0.1-2.6,0.6-3.8,1.3c-1.1,0.7-2,1.6-2.6,2.8c-0.6,1.1-1,2.4-1,3.7c0,1.2,0.3,2.4,1,3.5
	c0.7,1,1.6,1.8,2.8,2.2c1.3,0.5,2.7,0.6,4.1,0.4c2.2-0.1,4.2-1.1,5.7-2.8l-2.8-2.6c-0.4,0.4-0.8,0.7-1.3,0.9
	c-0.5,0.2-0.9,0.3-1.4,0.4c-0.6,0.1-1.1,0-1.7-0.2c-0.4-0.2-0.8-0.6-1-1l9-1.1C195,265.8,195.1,265.4,195.1,265.3L195.1,265.3
	L195.1,265.3z M187.9,263c0.5-0.1,1,0,1.4,0.3c0.4,0.3,0.6,0.7,0.7,1.2l-4.2,0.5c0.1-0.5,0.3-1,0.7-1.4
	C186.9,263.3,187.4,263,187.9,263L187.9,263L187.9,263z M202,257.6c-1.1,0.1-2.1,0.4-3.1,0.8c-1,0.3-1.9,0.8-2.7,1.4l1.7,3.4
	c0.5-0.4,1-0.7,1.5-1c0.6-0.2,1.2-0.4,1.8-0.5c1.5-0.2,2.3,0.3,2.4,1.3l-2.2,0.3c-1.6,0.1-3.2,0.6-4.5,1.5c-1,0.8-1.5,1.9-1.5,3.2
	c0,0.7,0.2,1.4,0.6,2c0.4,0.6,1,1.1,1.6,1.3c0.8,0.3,1.7,0.4,2.6,0.2c1.6,0,3-1,3.7-2.4v1.8l5-0.6v-7.2c0-2.2-0.6-3.7-1.8-4.6
	S204.2,257.3,202,257.6L202,257.6L202,257.6z M201.9,268.1c-0.3,0.1-0.7,0-0.9-0.2c-0.2-0.2-0.4-0.4-0.3-0.7c0-0.7,0.5-1.2,1.6-1.3
	l1.3-0.2v0.9c-0.1,0.4-0.3,0.8-0.7,1C202.7,267.9,202.3,268.1,201.9,268.1L201.9,268.1L201.9,268.1z M219.4,264.9
	c-0.3,0.3-0.8,0.5-1.2,0.5c-0.3,0.1-0.6,0-0.8-0.2c-0.2-0.3-0.3-0.6-0.3-0.9v-3.4l2.7-0.3v-4l-2.7,0.3v-3.7l-5.4,0.6v3.7l-1.8,0.2v4
	l1.8-0.2v3.4c-0.1,1.5,0.4,2.9,1.5,3.9c1.2,0.8,2.7,1.2,4.2,0.9c1.2-0.1,2.3-0.5,3.3-1.1L219.4,264.9z M221.8,268.9l5.4-0.6v-13.4
	l-5.4,0.6V268.9L221.8,268.9z M224.5,254.1c0.9-0.1,1.7-0.5,2.4-1.1c0.6-0.6,0.9-1.4,0.9-2.2c0-0.7-0.3-1.4-0.9-1.9
	c-0.7-0.5-1.5-0.6-2.4-0.5c-0.9,0.1-1.7,0.5-2.3,1.1c-0.6,0.6-0.9,1.3-0.9,2.1c0,0.7,0.3,1.5,0.9,1.9
	C222.8,254.1,223.7,254.3,224.5,254.1L224.5,254.1z M238.7,253.6l-2.8,7.5l-2.6-6.9l-5.5,0.6l5.2,12.8l5.6-0.6l5.2-14L238.7,253.6z
	 M257.8,258c0-1.3-0.3-2.5-1-3.6c-0.6-0.9-1.5-1.7-2.6-2.1c-1.2-0.4-2.4-0.6-3.6-0.4c-1.3,0.1-2.6,0.6-3.8,1.3
	c-1.1,0.7-2,1.6-2.6,2.8c-0.6,1.1-1,2.4-1,3.7c0,1.2,0.3,2.4,1,3.5c0.7,1,1.6,1.8,2.8,2.2c1.3,0.5,2.7,0.6,4.1,0.4
	c2.2-0.1,4.2-1.1,5.7-2.8l-2.8-2.6c-0.4,0.4-0.8,0.7-1.3,0.9c-0.5,0.2-0.9,0.3-1.4,0.4c-0.6,0.1-1.1,0-1.7-0.2c-0.4-0.2-0.8-0.6-1-1
	l9-1.1C257.8,258.5,257.8,258.1,257.8,258L257.8,258L257.8,258z M250.7,255.7c0.5-0.1,1,0,1.4,0.3c0.4,0.3,0.6,0.7,0.7,1.2l-4.2,0.5
	c0.1-0.5,0.3-1,0.7-1.4C249.7,255.9,250.2,255.7,250.7,255.7L250.7,255.7L250.7,255.7z M277.2,262.7c1.3-0.1,2.5-0.5,3.7-1
	c0.9-0.4,1.7-1.1,2.3-1.9c0.5-0.7,0.8-1.5,0.8-2.4c0.1-0.9-0.2-1.8-0.8-2.4c-0.5-0.5-1.2-0.8-1.9-1c-0.9-0.1-1.8-0.2-2.7-0.2
	c-0.5,0-1,0-1.5-0.1c-0.2,0-0.5-0.2-0.5-0.4c0-0.4,0.6-0.7,1.8-0.8c1.3-0.2,2.6,0,3.8,0.5l1.5-3.8c-0.8-0.3-1.6-0.5-2.4-0.5
	c-1-0.1-1.9-0.1-2.9,0.1c-1.3,0.1-2.5,0.5-3.6,1c-0.9,0.4-1.7,1.1-2.3,1.9c-0.5,0.7-0.8,1.5-0.8,2.4c-0.1,0.9,0.2,1.8,0.8,2.4
	c0.5,0.5,1.2,0.8,2,1c0.9,0.1,1.8,0.2,2.7,0.2c0.5,0,1,0,1.5,0.1c0.2,0,0.4,0.2,0.5,0.4c0,0.2-0.2,0.4-0.4,0.5
	c-0.4,0.2-0.8,0.3-1.3,0.3c-0.8,0.1-1.6,0.1-2.4,0c-0.7-0.1-1.5-0.3-2.1-0.6l-1.5,3.8c0.8,0.4,1.7,0.6,2.6,0.6
	C275,262.8,276.1,262.8,277.2,262.7L277.2,262.7L277.2,262.7z M299.1,253.2c0-1.3-0.3-2.5-1-3.6c-0.6-0.9-1.5-1.7-2.6-2.1
	c-1.2-0.4-2.4-0.6-3.6-0.4c-1.3,0.1-2.6,0.6-3.8,1.3c-1.1,0.7-2,1.6-2.6,2.8c-0.6,1.1-1,2.4-1,3.7c0,1.2,0.3,2.4,1,3.5
	c0.7,1,1.6,1.8,2.8,2.2c1.3,0.5,2.7,0.6,4.1,0.4c2.2-0.1,4.2-1.1,5.7-2.8l-2.8-2.6c-0.4,0.4-0.8,0.7-1.3,0.9
	c-0.5,0.2-0.9,0.3-1.4,0.4c-0.6,0.1-1.1,0-1.7-0.2c-0.4-0.2-0.8-0.6-1-1l9-1.1C299.1,253.7,299.1,253.3,299.1,253.2L299.1,253.2
	L299.1,253.2z M292,250.9c0.5-0.1,1,0,1.4,0.3c0.4,0.3,0.6,0.7,0.7,1.2l-4.2,0.5c0.1-0.5,0.3-1,0.7-1.4
	C291,251.1,291.5,250.9,292,250.9L292,250.9L292,250.9z M300.6,259.7l5.4-0.6V241l-5.4,0.6V259.7L300.6,259.7z M313.9,245.5
	c0-0.4,0.1-0.9,0.3-1.2c0.2-0.3,0.6-0.5,0.9-0.5c0.4,0,0.8,0,1.2,0.2l1.3-4c-0.5-0.2-0.9-0.3-1.4-0.3c-0.6,0-1.2,0-1.8,0
	c-1.6,0.1-3.2,0.8-4.3,2c-1,1.2-1.6,2.7-1.5,4.3v0.1l-1.8,0.2v4l1.8-0.2v8.6l5.4-0.6v-8.6l2.7-0.3v-4L313.9,245.5L313.9,245.5
	L313.9,245.5z M317.6,252.7l7.1-0.8v-4.2l-7.1,0.8V252.7z M331.9,256.3c1.3-0.1,2.5-0.5,3.7-1c0.9-0.4,1.7-1.1,2.3-1.9
	c0.5-0.7,0.8-1.5,0.8-2.4c0.1-0.9-0.2-1.8-0.8-2.4c-0.5-0.5-1.2-0.8-1.9-1c-0.9-0.1-1.8-0.2-2.7-0.2c-0.5,0-1,0-1.5-0.1
	c-0.2,0-0.5-0.2-0.5-0.4c0-0.4,0.6-0.7,1.8-0.8c1.3-0.2,2.6,0,3.8,0.5l1.5-3.8c-0.8-0.3-1.6-0.5-2.4-0.5c-1-0.1-1.9-0.1-2.9,0.1
	c-1.3,0.1-2.5,0.5-3.6,1c-0.9,0.4-1.7,1.1-2.3,1.9c-0.5,0.7-0.8,1.5-0.8,2.4c-0.1,0.9,0.2,1.8,0.8,2.4c0.5,0.5,1.2,0.8,2,1
	c0.9,0.1,1.8,0.2,2.7,0.2c0.5,0,1,0,1.5,0.1c0.2,0,0.4,0.2,0.5,0.4c0,0.2-0.2,0.4-0.4,0.5c-0.4,0.2-0.8,0.3-1.3,0.3
	c-0.8,0.1-1.6,0.1-2.4,0c-0.7-0.1-1.5-0.3-2.1-0.6l-1.5,3.8c0.8,0.4,1.7,0.6,2.6,0.6C329.7,256.4,330.8,256.4,331.9,256.3
	L331.9,256.3L331.9,256.3z M348.3,249.9c-0.3,0.3-0.8,0.5-1.2,0.5c-0.3,0.1-0.6,0-0.8-0.2c-0.2-0.3-0.3-0.6-0.3-0.9v-3.4l2.7-0.3v-4
	l-2.7,0.3v-3.7l-5.4,0.6v3.7l-1.8,0.2v4l1.8-0.2v3.4c-0.1,1.5,0.4,2.9,1.5,3.9c1.2,0.8,2.7,1.2,4.2,0.9c1.2-0.1,2.3-0.5,3.3-1.1
	L348.3,249.9z M356.5,239.6c-1.1,0.1-2.1,0.4-3.1,0.8c-1,0.3-1.9,0.8-2.7,1.4l1.7,3.4c0.5-0.4,1-0.7,1.5-0.9
	c0.6-0.2,1.2-0.4,1.8-0.5c1.5-0.2,2.3,0.3,2.4,1.3l-2.2,0.3c-1.6,0.1-3.2,0.6-4.5,1.5c-1,0.8-1.5,1.9-1.5,3.2c0,0.7,0.2,1.4,0.6,2
	c0.4,0.6,1,1.1,1.6,1.3c0.8,0.3,1.7,0.4,2.6,0.2c1.6,0,3-1,3.7-2.4v1.8l5-0.6v-7.2c0-2.2-0.6-3.7-1.8-4.6
	C360.5,239.7,358.8,239.3,356.5,239.6L356.5,239.6L356.5,239.6z M356.5,250.1c-0.3,0.1-0.7,0-0.9-0.2c-0.2-0.2-0.4-0.4-0.3-0.7
	c0-0.7,0.5-1.2,1.6-1.3l1.3-0.2v0.9c-0.1,0.4-0.3,0.8-0.7,1C357.2,249.9,356.8,250.1,356.5,250.1L356.5,250.1L356.5,250.1z
	 M370.7,239.6v-1.4l-5.1,0.6v13.4l5.4-0.6v-5.9c-0.2-1.6,0.9-3,2.5-3.2c0.1,0,0.2,0,0.3,0c0.4,0,0.8-0.1,1.2,0v-4.9
	C373.3,237.6,371.7,238.3,370.7,239.6L370.7,239.6L370.7,239.6z M384.9,245.6c-0.3,0.3-0.8,0.5-1.2,0.5c-0.3,0.1-0.6,0-0.8-0.2
	c-0.2-0.3-0.3-0.6-0.3-0.9v-3.4l2.7-0.3v-4l-2.7,0.3v-3.7l-5.4,0.6v3.7l-1.8,0.2v4l1.8-0.2v3.4c-0.1,1.5,0.4,2.9,1.5,3.9
	c1.2,0.8,2.7,1.2,4.2,0.9c1.2-0.1,2.3-0.5,3.3-1.1L384.9,245.6z M400.7,241.3c0-1.3-0.3-2.5-1-3.6c-0.6-0.9-1.5-1.7-2.6-2.1
	c-1.2-0.4-2.4-0.6-3.6-0.4c-1.3,0.1-2.6,0.6-3.8,1.3c-1.1,0.7-2,1.6-2.6,2.8c-0.6,1.1-1,2.4-1,3.7c0,1.2,0.3,2.4,1,3.5
	c0.7,1,1.6,1.8,2.8,2.2c1.3,0.5,2.7,0.6,4.1,0.4c2.2-0.1,4.2-1.1,5.7-2.8l-2.8-2.6c-0.4,0.4-0.8,0.7-1.3,0.9
	c-0.5,0.2-0.9,0.3-1.4,0.4c-0.6,0.1-1.1,0-1.7-0.2c-0.4-0.2-0.8-0.6-1-1l9-1.1C400.7,241.9,400.7,241.4,400.7,241.3L400.7,241.3
	L400.7,241.3z M393.6,239c0.5-0.1,1,0,1.4,0.3c0.4,0.3,0.6,0.7,0.7,1.2l-4.2,0.5c0.1-0.5,0.3-1,0.7-1.4
	C392.6,239.3,393.1,239.1,393.6,239L393.6,239L393.6,239z M407.3,235.4v-1.4l-5.1,0.6v13.4l5.4-0.6v-5.9c-0.2-1.6,0.9-3,2.5-3.2
	c0.1,0,0.2,0,0.3,0c0.4,0,0.8-0.1,1.2,0v-4.9C409.8,233.3,408.3,234.1,407.3,235.4L407.3,235.4L407.3,235.4z M433.9,239.9
	c-0.3,0.3-0.8,0.5-1.2,0.5c-0.3,0.1-0.6,0-0.8-0.2c-0.2-0.3-0.3-0.6-0.3-0.9v-3.4l2.7-0.3v-4l-2.7,0.3v-3.7l-5.4,0.6v3.7l-1.8,0.2v4
	l1.8-0.2v3.4c-0.1,1.5,0.4,2.9,1.5,3.9c1.2,0.8,2.7,1.2,4.2,0.9c1.2-0.1,2.3-0.5,3.3-1.1L433.9,239.9z M445.3,229.2
	c-1.4,0.1-2.7,0.8-3.7,1.7v-5.8l-5.4,0.6v18.1l5.4-0.6V237c-0.1-0.7,0.1-1.5,0.6-2.1c0.4-0.5,0.9-0.8,1.5-0.8
	c1.1-0.1,1.6,0.6,1.6,2.1v6.7l5.4-0.6v-7.6c0-2-0.5-3.4-1.5-4.3C448.1,229.4,446.7,229,445.3,229.2L445.3,229.2L445.3,229.2z
	 M458.6,227.7c-1.1,0.1-2.1,0.4-3.1,0.8c-1,0.3-1.9,0.8-2.7,1.4l1.7,3.4c0.5-0.4,1-0.7,1.5-0.9c0.6-0.2,1.2-0.4,1.8-0.5
	c1.5-0.2,2.3,0.3,2.4,1.3l-2.2,0.3c-1.6,0.1-3.2,0.6-4.5,1.5c-1,0.8-1.5,1.9-1.5,3.2c0,0.7,0.2,1.4,0.6,2c0.4,0.6,1,1.1,1.6,1.3
	c0.8,0.3,1.7,0.4,2.6,0.2c1.6,0,3-1,3.7-2.4v1.8l5-0.6v-7.2c0-2.2-0.6-3.7-1.8-4.6C462.6,227.8,460.8,227.4,458.6,227.7L458.6,227.7
	L458.6,227.7z M458.5,238.2c-0.3,0.1-0.7,0-0.9-0.2c-0.2-0.2-0.4-0.4-0.3-0.7c0-0.7,0.5-1.2,1.6-1.3l1.3-0.2v0.9
	c-0.1,0.4-0.3,0.8-0.7,1C459.3,238,458.9,238.2,458.5,238.2L458.5,238.2L458.5,238.2z M476,235c-0.3,0.3-0.8,0.5-1.2,0.5
	c-0.3,0.1-0.6,0-0.8-0.2c-0.2-0.3-0.3-0.6-0.3-0.9v-3.4l2.7-0.3v-4l-2.7,0.3v-3.7l-5.4,0.6v3.7l-1.8,0.2v4l1.8-0.2v3.4
	c-0.1,1.5,0.4,2.9,1.5,3.9c1.2,0.8,2.7,1.2,4.2,0.9c1.2-0.1,2.3-0.5,3.3-1.1L476,235z M2.6,327.2l5.4-0.6v-18.1L2.6,309V327.2
	L2.6,327.2z M17,325.7c1.4-0.1,2.7-0.6,3.9-1.3c1.1-0.7,2-1.6,2.7-2.8c0.6-1.1,1-2.4,1-3.7c0-1.2-0.3-2.4-1-3.5
	c-0.6-1-1.6-1.7-2.7-2.1c-1.2-0.5-2.6-0.6-3.9-0.4c-1.4,0.1-2.7,0.6-3.9,1.3c-1.1,0.7-2,1.6-2.7,2.8c-0.6,1.1-1,2.4-1,3.7
	c0,1.2,0.3,2.4,1,3.5c0.7,1,1.6,1.7,2.7,2.2C14.4,325.8,15.7,325.9,17,325.7L17,325.7z M17,321.4c-0.6,0.1-1.1-0.1-1.5-0.5
	c-0.4-0.5-0.6-1.2-0.6-1.9c0-0.7,0.2-1.4,0.6-2c0.4-0.5,0.9-0.8,1.5-0.9c0.6-0.1,1.1,0.1,1.5,0.5c0.4,0.5,0.6,1.2,0.6,1.9
	c0,0.7-0.2,1.4-0.6,2C18.2,321.1,17.6,321.4,17,321.4L17,321.4L17,321.4z M35,310l-2.8,7.5l-2.6-6.9l-5.5,0.6l5.2,12.8l5.6-0.6
	l5.2-14L35,310z M54.2,314.5c0-1.3-0.3-2.5-1-3.6c-0.6-0.9-1.5-1.7-2.6-2.1c-1.2-0.4-2.4-0.6-3.6-0.4c-1.3,0.1-2.6,0.6-3.8,1.3
	c-1.1,0.7-2,1.6-2.6,2.8c-0.6,1.1-1,2.4-1,3.7c0,1.2,0.3,2.4,1,3.5c0.7,1,1.6,1.8,2.8,2.2c1.3,0.5,2.7,0.6,4.1,0.4
	c2.2-0.1,4.2-1.1,5.7-2.8l-2.8-2.6c-0.4,0.4-0.8,0.7-1.3,0.9c-0.5,0.2-0.9,0.3-1.4,0.4c-0.6,0.1-1.1,0-1.7-0.2c-0.4-0.2-0.8-0.6-1-1
	l9-1.1C54.2,315,54.2,314.5,54.2,314.5L54.2,314.5L54.2,314.5z M47.1,312.1c0.5-0.1,1,0,1.4,0.3c0.4,0.3,0.6,0.7,0.7,1.2l-4.2,0.5
	c0.1-0.5,0.3-1,0.7-1.4C46.1,312.4,46.6,312.2,47.1,312.1L47.1,312.1L47.1,312.1z M60.7,320.6c1.3-0.1,2.5-0.5,3.7-1
	c0.9-0.4,1.7-1.1,2.3-1.9c0.5-0.7,0.8-1.5,0.8-2.4c0.1-0.9-0.2-1.8-0.8-2.4c-0.5-0.5-1.2-0.8-1.9-1c-0.9-0.1-1.8-0.2-2.7-0.2
	c-0.5,0-1,0-1.5-0.1c-0.2,0-0.5-0.2-0.5-0.4c0-0.4,0.6-0.7,1.8-0.8c1.3-0.2,2.6,0,3.8,0.5l1.5-3.8c-0.8-0.3-1.6-0.5-2.4-0.5
	c-1-0.1-1.9-0.1-2.9,0.1c-1.3,0.1-2.5,0.5-3.6,1c-0.9,0.4-1.7,1.1-2.3,1.9c-0.5,0.7-0.8,1.5-0.8,2.4c-0.1,0.9,0.2,1.8,0.8,2.4
	c0.5,0.5,1.2,0.8,2,1c0.9,0.1,1.8,0.2,2.7,0.2c0.5,0,1,0,1.5,0.1c0.2,0,0.4,0.2,0.5,0.4c0,0,0,0,0,0c0,0.2-0.2,0.4-0.4,0.5
	c-0.4,0.2-0.8,0.3-1.3,0.3c-0.8,0.1-1.6,0.1-2.4,0c-0.7-0.1-1.5-0.3-2.1-0.6l-1.5,3.8c0.8,0.4,1.7,0.6,2.6,0.6
	C58.5,320.8,59.6,320.8,60.7,320.6L60.7,320.6L60.7,320.6z M94.4,302.9c-0.9,0.1-1.7,0.4-2.4,0.8c-0.7,0.4-1.4,1-1.9,1.7
	c-0.4-0.6-1-1.1-1.7-1.3c-0.8-0.3-1.6-0.3-2.4-0.2c-1.4,0.1-2.7,0.8-3.7,1.9v-1.2l-5.1,0.6v13.4l5.4-0.6v-6.5c0-0.7,0.1-1.3,0.5-1.9
	c0.3-0.4,0.7-0.7,1.2-0.7c1-0.1,1.4,0.6,1.5,2.1v6.7l5.4-0.6v-6.5c0-0.7,0.1-1.3,0.5-1.9c0.3-0.4,0.7-0.7,1.2-0.7
	c1-0.1,1.4,0.6,1.4,2.1v6.7l5.4-0.6v-7.6c0-2-0.5-3.4-1.4-4.3C97.1,303,95.7,302.6,94.4,302.9L94.4,302.9L94.4,302.9z M107.4,301.3
	c-1.1,0.1-2.1,0.4-3.1,0.8c-1,0.3-1.9,0.8-2.7,1.4l1.7,3.4c0.5-0.4,1-0.7,1.5-1c0.6-0.2,1.2-0.4,1.8-0.5c1.5-0.2,2.3,0.3,2.4,1.3
	l-2.2,0.3c-1.6,0.1-3.2,0.6-4.5,1.5c-1,0.8-1.5,1.9-1.5,3.2c0,0.7,0.2,1.4,0.6,2c0.4,0.6,1,1.1,1.6,1.3c0.8,0.3,1.7,0.4,2.6,0.2
	c1.6,0,3-1,3.7-2.4v1.8l5-0.6V307c0-2.2-0.6-3.7-1.8-4.6C111.5,301.4,109.7,301.1,107.4,301.3L107.4,301.3L107.4,301.3z
	 M107.4,311.9c-0.3,0.1-0.7,0-0.9-0.2c-0.2-0.2-0.4-0.4-0.3-0.7c0-0.7,0.5-1.2,1.6-1.3l1.3-0.2v0.9c-0.1,0.4-0.3,0.8-0.7,1
	C108.2,311.7,107.8,311.8,107.4,311.9L107.4,311.9L107.4,311.9z M126,312.8l6.5-0.8l-5.8-6.9l5.4-6.4l-6.3,0.7l-3.7,4.3v-8.6
	l-5.4,0.6v18.1l5.4-0.6v-3.2l0.9-1.1L126,312.8z M133.3,311.9l5.4-0.6V298l-5.4,0.6V311.9L133.3,311.9z M136,297.2
	c0.9-0.1,1.7-0.5,2.4-1.1c0.6-0.6,0.9-1.4,0.9-2.2c0-0.7-0.3-1.4-0.9-1.9c-0.7-0.5-1.5-0.6-2.4-0.5c-0.9,0.1-1.7,0.5-2.3,1.1
	c-0.6,0.6-0.9,1.3-0.9,2.1c0,0.7,0.3,1.5,0.9,1.9C134.3,297.2,135.1,297.3,136,297.2L136,297.2L136,297.2z M149.8,296.4
	c-0.8,0.1-1.5,0.3-2.2,0.6c-0.7,0.3-1.3,0.8-1.8,1.4v-1.3l-5.1,0.6v13.4l5.4-0.6v-6.3c-0.1-0.7,0.1-1.5,0.6-2.1
	c0.4-0.5,0.9-0.8,1.5-0.8c1.1-0.1,1.6,0.6,1.6,2.1v6.7l5.4-0.6v-7.6c0-2-0.5-3.4-1.5-4.3C152.6,296.5,151.2,296.2,149.8,296.4
	L149.8,296.4L149.8,296.4z M166.9,294.7v1.5c-0.8-1.1-2.1-1.5-3.8-1.3c-1.1,0.1-2.2,0.5-3.1,1.2c-2,1.3-3.2,3.6-3.1,6
	c0,1.2,0.3,2.3,0.9,3.3c0.5,0.9,1.3,1.6,2.3,2c1,0.4,2,0.6,3.1,0.4c1.4-0.1,2.7-0.8,3.6-1.8v0.2c0,0.8-0.2,1.6-0.7,2.2
	c-0.6,0.6-1.5,0.9-2.4,1c-0.7,0.1-1.5,0-2.2-0.1c-0.7-0.1-1.3-0.4-1.9-0.7l-1.8,4c0.9,0.5,1.9,0.8,2.9,0.9c1.2,0.2,2.4,0.2,3.6,0
	c2.2-0.1,4.3-1.1,5.9-2.6c1.4-1.6,2.2-3.8,2.1-6v-10.7L166.9,294.7z M164.5,303.3c-0.6,0.1-1.1-0.1-1.6-0.4
	c-0.4-0.4-0.7-0.9-0.6-1.5c0-0.6,0.2-1.2,0.6-1.6c0.4-0.4,1-0.7,1.6-0.8c0.6-0.1,1.1,0.1,1.6,0.4c0.4,0.4,0.7,0.9,0.6,1.5
	c0,0.6-0.2,1.2-0.6,1.6C165.6,302.9,165.1,303.2,164.5,303.3L164.5,303.3L164.5,303.3z M191.1,291.6c-1.4,0.1-2.7,0.7-3.6,1.8v-1.1
	l-5.1,0.6V311l5.4-0.6v-5.6c0.9,0.7,2.1,1,3.3,0.8c1.1-0.1,2.2-0.5,3.1-1.2c1-0.7,1.8-1.6,2.3-2.7c0.6-1.2,0.9-2.5,0.8-3.8
	c0-1.2-0.3-2.5-0.8-3.6c-0.5-0.9-1.3-1.7-2.3-2.2C193.3,291.6,192.2,291.5,191.1,291.6L191.1,291.6L191.1,291.6z M189.8,301.3
	c-0.6,0.1-1.1-0.1-1.5-0.5c-0.4-0.5-0.6-1.2-0.6-1.9c0-0.7,0.2-1.4,0.6-2c0.4-0.5,0.9-0.8,1.5-0.9c0.6-0.1,1.1,0.1,1.5,0.5
	c0.4,0.5,0.6,1.2,0.6,1.9c0,0.7-0.2,1.4-0.6,2C191,300.9,190.4,301.2,189.8,301.3L189.8,301.3L189.8,301.3z M203.9,291.8v-1.4
	l-5.1,0.6v13.4l5.4-0.6v-5.9c-0.2-1.6,0.9-3,2.5-3.2c0.1,0,0.2,0,0.3,0c0.4,0,0.8-0.1,1.2,0v-4.9C206.5,289.7,205,290.5,203.9,291.8
	L203.9,291.8L203.9,291.8z M216.2,302.5c1.4-0.1,2.7-0.6,3.9-1.3c1.1-0.7,2-1.6,2.7-2.8c0.6-1.1,1-2.4,1-3.7c0-1.2-0.3-2.4-1-3.5
	c-0.6-1-1.6-1.7-2.7-2.1c-1.2-0.5-2.6-0.6-3.9-0.4c-1.4,0.1-2.7,0.6-3.9,1.3c-1.1,0.7-2,1.6-2.7,2.8c-0.6,1.1-1,2.4-1,3.7
	c0,1.2,0.3,2.4,1,3.5c0.7,1,1.6,1.7,2.7,2.2C213.5,302.6,214.9,302.7,216.2,302.5L216.2,302.5z M216.2,298.2
	c-0.6,0.1-1.1-0.1-1.5-0.5c-0.4-0.5-0.7-1.2-0.6-1.9c0-0.7,0.2-1.4,0.6-2c0.4-0.5,0.9-0.8,1.5-0.9c0.6-0.1,1.1,0.1,1.5,0.5
	c0.4,0.5,0.7,1.2,0.6,1.9c0,0.7-0.2,1.4-0.6,2C217.3,297.8,216.8,298.2,216.2,298.2L216.2,298.2L216.2,298.2z M225.1,306.2
	c3.3-0.2,5.9-3,5.7-6.3v-12.7l-5.4,0.6v12.6c0,0.4-0.1,0.8-0.3,1.2c-0.2,0.3-0.5,0.4-0.8,0.5c-0.4,0.1-0.8,0-1.2-0.2l-1.3,4
	C222.8,306.3,224,306.4,225.1,306.2L225.1,306.2L225.1,306.2z M228.1,286.5c0.9-0.1,1.7-0.5,2.4-1.1c0.6-0.6,0.9-1.4,0.9-2.2
	c0-0.7-0.3-1.4-0.9-1.9c-0.7-0.5-1.5-0.6-2.4-0.5c-0.9,0.1-1.7,0.4-2.3,1.1c-0.6,0.6-0.9,1.3-0.9,2.1c0,0.7,0.3,1.5,0.9,1.9
	C226.4,286.4,227.3,286.6,228.1,286.5L228.1,286.5z M246.7,292c0-1.3-0.3-2.5-1-3.6c-0.6-0.9-1.5-1.7-2.6-2.1
	c-1.2-0.4-2.4-0.6-3.6-0.4c-1.3,0.1-2.6,0.6-3.8,1.3c-1.1,0.7-2,1.6-2.6,2.8c-0.6,1.1-1,2.4-1,3.7c0,1.2,0.3,2.4,1,3.5
	c0.7,1,1.6,1.8,2.8,2.2c1.3,0.5,2.7,0.6,4.1,0.4c2.2-0.1,4.2-1.1,5.7-2.8l-2.8-2.6c-0.4,0.4-0.8,0.7-1.3,0.9
	c-0.5,0.2-0.9,0.3-1.4,0.4c-0.6,0.1-1.1,0-1.7-0.2c-0.4-0.2-0.8-0.6-1-1l9-1.1C246.7,292.5,246.7,292.1,246.7,292L246.7,292
	L246.7,292z M239.6,289.7c0.5-0.1,1,0,1.4,0.3c0.4,0.3,0.6,0.7,0.7,1.2l-4.2,0.5c0.1-0.5,0.3-1,0.7-1.4
	C238.6,290,239.1,289.8,239.6,289.7L239.6,289.7L239.6,289.7z M255.2,298c1.5-0.1,2.9-0.7,4.1-1.5c1.1-0.8,1.9-1.9,2.3-3.2l-4.2-1.6
	c-0.3,1.1-1.2,1.8-2.3,2c-0.6,0.1-1.2-0.1-1.6-0.5c-0.5-0.5-0.7-1.2-0.6-1.9c0-0.7,0.2-1.4,0.6-2c0.4-0.5,1-0.8,1.6-0.9
	c1-0.1,2,0.5,2.3,1.5l4.2-2.6c-0.4-1.2-1.2-2.1-2.3-2.6c-1.3-0.6-2.7-0.8-4.1-0.6c-1.4,0.1-2.8,0.6-4,1.3c-1.1,0.7-2.1,1.6-2.7,2.8
	c-0.7,1.1-1,2.4-1,3.7c0,1.2,0.3,2.4,1,3.5c0.7,1,1.6,1.7,2.7,2.1C252.5,298,253.8,298.2,255.2,298L255.2,298L255.2,298z
	 M271.1,291.6c-0.3,0.3-0.8,0.5-1.2,0.5c-0.3,0.1-0.6,0-0.8-0.2c-0.2-0.3-0.3-0.6-0.3-0.9v-3.4l2.7-0.3v-4l-2.7,0.3v-3.7l-5.4,0.6
	v3.7l-1.8,0.2v4l1.8-0.2v3.4c-0.1,1.5,0.4,2.9,1.5,3.9c1.2,0.8,2.7,1.2,4.2,0.9c1.2-0.1,2.3-0.5,3.3-1.1L271.1,291.6z M278.6,295.2
	c1.3-0.1,2.5-0.5,3.7-1c0.9-0.4,1.7-1.1,2.3-1.9c0.5-0.7,0.8-1.5,0.8-2.4c0.1-0.9-0.2-1.8-0.8-2.4c-0.5-0.5-1.2-0.8-1.9-1
	c-0.9-0.1-1.8-0.2-2.7-0.2c-0.5,0-1,0-1.5-0.1c-0.2,0-0.5-0.2-0.5-0.4c0-0.4,0.6-0.7,1.8-0.8c1.3-0.2,2.6,0,3.8,0.5l1.5-3.8
	c-0.8-0.3-1.6-0.5-2.4-0.5c-1-0.1-1.9-0.1-2.9,0.1c-1.3,0.1-2.5,0.5-3.6,1c-0.9,0.4-1.7,1.1-2.3,1.9c-0.5,0.7-0.8,1.5-0.8,2.4
	c-0.1,0.9,0.2,1.8,0.8,2.4c0.5,0.5,1.2,0.8,2,1c0.9,0.1,1.8,0.2,2.7,0.2c0.5,0,1,0,1.5,0.1c0.2,0,0.4,0.2,0.5,0.4
	c0,0.2-0.2,0.4-0.4,0.5c-0.4,0.2-0.8,0.3-1.3,0.3c-0.8,0.1-1.6,0.1-2.4,0c-0.7-0.1-1.5-0.3-2.1-0.6l-1.5,3.8
	c0.8,0.4,1.7,0.6,2.6,0.6C276.4,295.4,277.5,295.4,278.6,295.2L278.6,295.2L278.6,295.2z M303.3,287.8c-0.3,0.3-0.8,0.5-1.2,0.5
	c-0.3,0.1-0.6,0-0.8-0.2c-0.2-0.3-0.3-0.6-0.3-0.9v-3.4l2.7-0.3v-4l-2.7,0.3V276l-5.4,0.6v3.7l-1.8,0.2v4l1.8-0.2v3.4
	c-0.1,1.5,0.4,2.9,1.5,3.9c1.2,0.8,2.7,1.2,4.2,0.9c1.2-0.1,2.3-0.5,3.3-1.1L303.3,287.8z M314.7,277.2c-1.4,0.1-2.7,0.8-3.7,1.7
	v-5.8l-5.4,0.6v18.1l5.4-0.6v-6.3c-0.1-0.7,0.1-1.5,0.6-2.1c0.4-0.5,0.9-0.8,1.5-0.8c1.1-0.1,1.6,0.6,1.6,2.1v6.7l5.4-0.6v-7.6
	c0-2-0.5-3.4-1.5-4.3C317.5,277.3,316.1,276.9,314.7,277.2L314.7,277.2L314.7,277.2z M327.9,275.6c-1.1,0.1-2.1,0.4-3.1,0.8
	c-1,0.3-1.9,0.8-2.7,1.4l1.7,3.4c0.5-0.4,1-0.7,1.5-1c0.6-0.2,1.2-0.4,1.8-0.5c1.5-0.2,2.3,0.3,2.4,1.3l-2.2,0.3
	c-1.6,0.1-3.2,0.6-4.5,1.5c-1,0.8-1.5,1.9-1.5,3.2c0,0.7,0.2,1.4,0.6,2c0.4,0.6,1,1.1,1.6,1.3c0.8,0.3,1.7,0.4,2.6,0.2
	c1.6,0,3-1,3.7-2.4v1.8l5-0.6v-7.2c0-2.2-0.6-3.7-1.8-4.6C332,275.7,330.2,275.4,327.9,275.6L327.9,275.6L327.9,275.6z M327.9,286.2
	c-0.3,0.1-0.7,0-0.9-0.2c-0.2-0.2-0.4-0.4-0.3-0.7c0-0.7,0.5-1.2,1.6-1.3l1.3-0.2v0.9c-0.1,0.4-0.3,0.8-0.7,1
	C328.7,286,328.3,286.1,327.9,286.2L327.9,286.2L327.9,286.2z M345.4,282.9c-0.3,0.3-0.8,0.5-1.2,0.5c-0.3,0.1-0.6,0-0.8-0.2
	c-0.2-0.3-0.3-0.6-0.3-0.9v-3.4l2.7-0.3v-4l-2.7,0.3v-3.7l-5.4,0.6v3.7l-1.8,0.2v4l1.8-0.2v3.4c-0.1,1.5,0.4,2.9,1.5,3.9
	c1.2,0.8,2.7,1.2,4.2,0.9c1.2-0.1,2.3-0.5,3.3-1.1L345.4,282.9z M369.9,277.7c0-1.3-0.3-2.5-1-3.6c-0.6-0.9-1.5-1.7-2.6-2.1
	c-1.2-0.4-2.4-0.6-3.6-0.4c-1.3,0.1-2.6,0.6-3.8,1.3c-1.1,0.7-2,1.6-2.6,2.8c-0.6,1.1-1,2.4-1,3.7c0,1.2,0.3,2.4,1,3.5
	c0.7,1,1.6,1.8,2.8,2.2c1.3,0.5,2.7,0.6,4.1,0.4c2.2-0.1,4.2-1.1,5.7-2.8l-2.8-2.6c-0.4,0.4-0.8,0.7-1.3,0.9
	c-0.5,0.2-0.9,0.3-1.4,0.4c-0.6,0.1-1.1,0-1.7-0.2c-0.4-0.2-0.8-0.6-1-1l9-1.1C369.9,278.2,369.9,277.8,369.9,277.7L369.9,277.7
	L369.9,277.7z M362.8,275.3c0.5-0.1,1,0,1.4,0.3c0.4,0.3,0.6,0.7,0.7,1.2l-4.2,0.5c0.1-0.5,0.3-1,0.7-1.4
	C361.8,275.6,362.3,275.4,362.8,275.3L362.8,275.3L362.8,275.3z M380.4,269.5c-0.8,0.1-1.5,0.3-2.2,0.6c-0.7,0.3-1.3,0.8-1.8,1.4
	v-1.3l-5.1,0.6v13.4l5.4-0.6v-6.3c-0.1-0.7,0.1-1.5,0.6-2.1c0.4-0.5,0.9-0.8,1.5-0.8c1.1-0.1,1.6,0.6,1.6,2.1v6.7l5.4-0.6v-7.6
	c0-2-0.5-3.4-1.5-4.3C383.2,269.7,381.8,269.3,380.4,269.5L380.4,269.5L380.4,269.5z M397.5,267.8v1.5c-0.8-1.1-2.1-1.5-3.8-1.3
	c-1.1,0.1-2.2,0.5-3.1,1.2c-2,1.3-3.2,3.6-3.1,6c0,1.2,0.3,2.3,0.9,3.3c0.5,0.9,1.3,1.6,2.3,2c1,0.4,2,0.6,3.1,0.4
	c1.4-0.1,2.7-0.8,3.6-1.8v0.2c0,0.8-0.2,1.6-0.7,2.2c-0.6,0.6-1.5,0.9-2.4,1c-0.7,0.1-1.5,0-2.2-0.1c-0.7-0.1-1.3-0.4-1.9-0.7
	l-1.8,4c0.9,0.5,1.9,0.8,2.9,0.9c1.2,0.2,2.4,0.2,3.6,0c2.2-0.1,4.3-1.1,5.9-2.6c1.4-1.6,2.2-3.8,2.1-6v-10.7L397.5,267.8z
	 M395,276.4c-0.6,0.1-1.1-0.1-1.6-0.4c-0.4-0.4-0.7-0.9-0.6-1.5c0-0.6,0.2-1.2,0.6-1.6c0.4-0.4,1-0.7,1.6-0.8
	c0.6-0.1,1.1,0.1,1.6,0.4c0.4,0.4,0.7,0.9,0.6,1.5c0,0.6-0.2,1.2-0.6,1.6C396.2,276.1,395.6,276.3,395,276.4L395,276.4L395,276.4z
	 M410.5,266c-1.1,0.1-2.1,0.4-3.1,0.8c-1,0.3-1.9,0.8-2.7,1.4l1.7,3.4c0.5-0.4,1-0.7,1.5-1c0.6-0.2,1.2-0.4,1.8-0.5
	c1.5-0.2,2.3,0.3,2.4,1.3l-2.2,0.3c-1.6,0.1-3.2,0.6-4.5,1.5c-1,0.8-1.5,1.9-1.5,3.2c0,0.7,0.2,1.4,0.6,2c0.4,0.6,1,1.1,1.6,1.3
	c0.8,0.3,1.7,0.4,2.6,0.2c1.6,0,3-1,3.7-2.4v1.8l5-0.6v-7.2c0-2.2-0.6-3.7-1.8-4.6C414.6,266.1,412.8,265.8,410.5,266L410.5,266
	L410.5,266z M410.5,276.6c-0.3,0.1-0.7,0-0.9-0.2c-0.2-0.2-0.4-0.4-0.3-0.7c0-0.7,0.5-1.2,1.6-1.3l1.3-0.2v0.9
	c-0.1,0.4-0.3,0.8-0.7,1C411.2,276.4,410.9,276.5,410.5,276.6L410.5,276.6L410.5,276.6z M429.3,264.1v1.5c-0.8-1.1-2.1-1.5-3.8-1.3
	c-1.1,0.1-2.2,0.5-3.1,1.2c-2,1.3-3.2,3.6-3.1,6c0,1.2,0.3,2.3,0.9,3.3c0.5,0.9,1.3,1.6,2.3,2c1,0.4,2,0.6,3.1,0.4
	c1.4-0.1,2.7-0.8,3.6-1.8v0.2c0,0.8-0.2,1.6-0.7,2.2c-0.6,0.6-1.5,0.9-2.4,1c-0.7,0.1-1.5,0-2.2-0.1c-0.7-0.1-1.3-0.4-1.9-0.7
	l-1.8,4c0.9,0.5,1.9,0.8,2.9,0.9c1.2,0.2,2.4,0.2,3.6,0c2.2-0.1,4.3-1.1,5.9-2.6c1.4-1.6,2.2-3.8,2.1-6v-10.7L429.3,264.1z
	 M426.9,272.7c-0.6,0.1-1.1-0.1-1.6-0.4c-0.4-0.4-0.7-0.9-0.6-1.5c0-0.6,0.2-1.2,0.6-1.6c0.4-0.4,1-0.7,1.6-0.8
	c0.6-0.1,1.1,0.1,1.6,0.4c0.4,0.4,0.7,0.9,0.6,1.5c0,0.6-0.2,1.2-0.6,1.6C428,272.4,427.5,272.6,426.9,272.7L426.9,272.7
	L426.9,272.7z M450.4,268.3c0-1.3-0.3-2.5-1-3.6c-0.6-0.9-1.5-1.7-2.6-2.1c-1.2-0.4-2.4-0.6-3.6-0.4c-1.3,0.1-2.6,0.6-3.8,1.3
	c-1.1,0.7-2,1.6-2.6,2.8c-0.6,1.1-1,2.4-1,3.7c0,1.2,0.3,2.4,1,3.5c0.7,1,1.6,1.8,2.8,2.2c1.3,0.5,2.7,0.6,4.1,0.4
	c2.2-0.1,4.2-1.1,5.7-2.8l-2.8-2.6c-0.4,0.4-0.8,0.7-1.3,0.9c-0.5,0.2-0.9,0.3-1.4,0.4c-0.6,0.1-1.1,0-1.7-0.2c-0.4-0.2-0.8-0.6-1-1
	l9-1.1C450.4,268.8,450.4,268.4,450.4,268.3L450.4,268.3L450.4,268.3z M443.3,266c0.5-0.1,1,0,1.4,0.3c0.4,0.3,0.6,0.7,0.7,1.2
	l-4.2,0.5c0.1-0.5,0.3-1,0.7-1.4C442.3,266.2,442.8,266,443.3,266L443.3,266L443.3,266z M476.7,263.7l-4.3-0.8
	c-0.1,0.8-0.3,1.6-0.6,2.3l-1.8-1.3c0.9-0.6,1.6-1.3,2.2-2.1c0.5-0.7,0.7-1.5,0.7-2.4c0-0.8-0.2-1.6-0.7-2.2
	c-0.5-0.6-1.2-1.1-1.9-1.3c-0.9-0.3-1.9-0.3-2.9-0.2c-1.1,0.1-2.2,0.4-3.1,1c-0.8,0.4-1.6,1.1-2.1,1.9c-0.5,0.7-0.8,1.6-0.7,2.5
	c0,1.2,0.5,2.3,1.4,3.1c-1,0.6-1.8,1.5-2.4,2.4c-0.5,0.9-0.8,1.9-0.8,2.9c0,0.9,0.3,1.8,0.9,2.4c0.7,0.7,1.5,1.2,2.5,1.5
	c1.2,0.3,2.4,0.4,3.6,0.2c2-0.2,4-1,5.6-2.3l1.8,1.4l2.9-3.7l-1.6-1.2C475.9,266.4,476.4,265.1,476.7,263.7L476.7,263.7L476.7,263.7
	z M467.4,259.2c0.3-0.1,0.5,0,0.7,0.2c0.2,0.1,0.3,0.4,0.3,0.6c-0.2,0.7-0.6,1.3-1.3,1.6c-0.2-0.2-0.5-0.4-0.7-0.7
	c-0.1-0.2-0.2-0.4-0.2-0.6c0-0.3,0.1-0.5,0.3-0.7C466.8,259.3,467.1,259.2,467.4,259.2L467.4,259.2L467.4,259.2z M466.9,269.3
	c-0.5,0.1-1.1,0-1.5-0.2c-0.4-0.2-0.6-0.6-0.6-1c0-0.7,0.4-1.3,0.9-1.7l3,2.3C468.2,269,467.6,269.3,466.9,269.3L466.9,269.3z
	 M11.6,340.7v5.7c-0.9-0.7-2.1-1-3.3-0.8c-1.1,0.1-2.2,0.5-3.1,1.2c-1,0.7-1.8,1.6-2.3,2.7c-0.6,1.2-0.9,2.5-0.8,3.8
	c0,1.2,0.3,2.5,0.8,3.6c0.5,0.9,1.3,1.7,2.3,2.2c1,0.5,2.1,0.6,3.1,0.5c1.4-0.1,2.7-0.7,3.6-1.8v1.1l5.1-0.6v-18.1L11.6,340.7z
	 M9.6,355c-0.6,0.1-1.1-0.1-1.5-0.5c-0.4-0.5-0.6-1.2-0.6-1.9c0-0.7,0.2-1.4,0.6-2c0.4-0.5,0.9-0.8,1.5-0.9c0.6-0.1,1.1,0.1,1.5,0.5
	c0.4,0.5,0.6,1.2,0.6,1.9c0,0.7-0.2,1.4-0.6,2C10.8,354.6,10.2,355,9.6,355L9.6,355L9.6,355z M33,349.7c0-1.3-0.3-2.5-1-3.6
	c-0.6-0.9-1.5-1.7-2.6-2.1c-1.2-0.4-2.4-0.6-3.6-0.4c-1.3,0.1-2.6,0.6-3.8,1.3c-1.1,0.7-2,1.6-2.6,2.8c-0.6,1.1-1,2.4-1,3.7
	c0,1.2,0.3,2.4,1,3.5c0.7,1,1.6,1.8,2.8,2.2c1.3,0.5,2.7,0.6,4.1,0.4c2.2-0.1,4.2-1.1,5.7-2.8l-2.8-2.6c-0.4,0.4-0.8,0.7-1.3,0.9
	c-0.5,0.2-0.9,0.3-1.4,0.4c-0.6,0.1-1.1,0-1.7-0.2c-0.4-0.2-0.8-0.6-1-1l9-1.1C32.9,350.2,33,349.7,33,349.7L33,349.7L33,349.7z
	 M25.9,347.3c0.5-0.1,1,0,1.4,0.3c0.4,0.3,0.6,0.7,0.7,1.2l-4.2,0.5c0.1-0.5,0.3-1,0.7-1.4C24.9,347.6,25.3,347.4,25.9,347.3
	L25.9,347.3L25.9,347.3z M34.4,356.2l5.4-0.6v-18.1l-5.4,0.6V356.2L34.4,356.2z M41.9,355.3l5.4-0.6v-13.4l-5.4,0.6V355.3
	L41.9,355.3z M44.6,340.6c0.9-0.1,1.7-0.5,2.4-1.1c0.6-0.6,0.9-1.4,0.9-2.2c0-0.7-0.3-1.4-0.9-1.9c-0.7-0.5-1.5-0.6-2.4-0.5
	c-0.9,0.1-1.7,0.4-2.3,1.1c-0.6,0.6-0.9,1.3-0.9,2.1c0,0.7,0.3,1.5,0.9,1.9C43,340.5,43.8,340.7,44.6,340.6L44.6,340.6z M58.9,340
	v1.5c-0.8-1.1-2.1-1.5-3.9-1.3c-1.1,0.1-2.2,0.5-3.1,1.2c-2,1.3-3.2,3.6-3.1,6c0,1.2,0.3,2.3,0.9,3.3c0.5,0.9,1.3,1.6,2.3,2
	c1,0.4,2,0.6,3.1,0.4c1.4-0.1,2.7-0.8,3.6-1.8v0.2c0,0.8-0.2,1.6-0.7,2.2c-0.6,0.6-1.5,0.9-2.4,1c-0.7,0.1-1.5,0-2.2-0.1
	c-0.7-0.1-1.3-0.4-1.9-0.7l-1.8,4c0.9,0.5,1.9,0.8,2.9,0.9c1.2,0.2,2.4,0.2,3.6,0c2.2-0.1,4.3-1.1,5.9-2.6c1.4-1.6,2.2-3.8,2.1-6
	v-10.7L58.9,340z M56.4,348.6c-0.6,0.1-1.1-0.1-1.6-0.4c-0.4-0.4-0.7-0.9-0.6-1.5c0-0.6,0.2-1.2,0.6-1.6c0.4-0.4,1-0.7,1.6-0.8
	c0.6-0.1,1.1,0.1,1.6,0.4c0.4,0.4,0.7,0.9,0.6,1.5c0,0.6-0.2,1.2-0.6,1.6C57.6,348.3,57,348.5,56.4,348.6L56.4,348.6L56.4,348.6z
	 M75.1,337.8c-1.4,0.1-2.7,0.8-3.7,1.7v-5.8l-5.4,0.6v18.1l5.4-0.6v-6.3c-0.1-0.7,0.1-1.5,0.6-2.1c0.4-0.5,0.9-0.8,1.5-0.8
	c1.1-0.1,1.6,0.6,1.6,2.1v6.7l5.4-0.6v-7.6c0-2-0.5-3.4-1.5-4.3C77.9,338,76.5,337.6,75.1,337.8L75.1,337.8L75.1,337.8z M90.8,345.3
	c-0.3,0.3-0.8,0.5-1.2,0.5c-0.3,0.1-0.6,0-0.8-0.2c-0.2-0.3-0.3-0.6-0.3-0.9v-3.4l2.7-0.3v-4l-2.7,0.3v-3.7l-5.4,0.6v3.7l-1.8,0.2v4
	l1.8-0.2v3.4c-0.1,1.5,0.4,2.9,1.5,3.9c1.2,0.8,2.7,1.2,4.2,0.9c1.2-0.1,2.3-0.5,3.3-1.1L90.8,345.3z M118.4,333v6.3
	c0.1,0.7-0.1,1.5-0.5,2.1c-0.3,0.4-0.8,0.7-1.3,0.8c-0.5,0.1-1-0.1-1.3-0.4c-0.3-0.6-0.5-1.2-0.4-1.9v-6.4l-5.4,0.6v7.4
	c0,2.1,0.5,3.6,1.5,4.5c1.1,0.9,2.5,1.3,4,1.1c0.7-0.1,1.4-0.3,2-0.6c0.6-0.3,1.2-0.8,1.7-1.3v1.3l5.1-0.6v-13.4L118.4,333z
	 M131,345.2c1.3-0.1,2.5-0.5,3.7-1c0.9-0.4,1.7-1.1,2.3-1.9c0.5-0.7,0.8-1.5,0.8-2.4c0.1-0.9-0.2-1.8-0.8-2.4
	c-0.5-0.5-1.2-0.8-1.9-1c-0.9-0.1-1.8-0.2-2.7-0.2c-0.5,0-1,0-1.5-0.1c-0.2,0-0.5-0.2-0.5-0.4c0-0.4,0.6-0.7,1.8-0.8
	c1.3-0.2,2.6,0,3.8,0.5l1.5-3.8c-0.8-0.3-1.6-0.5-2.4-0.5c-1-0.1-1.9-0.1-2.9,0.1c-1.3,0.1-2.5,0.5-3.6,1c-0.9,0.4-1.7,1.1-2.3,1.9
	c-0.5,0.7-0.8,1.5-0.8,2.4c-0.1,0.9,0.2,1.8,0.8,2.4c0.5,0.5,1.2,0.8,2,1c0.9,0.1,1.8,0.2,2.7,0.2c0.5,0,1,0,1.5,0.1
	c0.2,0,0.4,0.2,0.5,0.4c0,0.2-0.2,0.4-0.4,0.5c-0.4,0.2-0.9,0.3-1.3,0.3c-0.8,0.1-1.6,0.1-2.4,0c-0.7-0.1-1.5-0.3-2.1-0.6l-1.5,3.8
	c0.8,0.4,1.7,0.6,2.6,0.6C128.8,345.3,129.9,345.3,131,345.2L131,345.2L131,345.2z M152.9,335.7c0-1.3-0.3-2.5-1-3.6
	c-0.6-0.9-1.5-1.7-2.6-2.1c-1.2-0.4-2.4-0.6-3.6-0.4c-1.3,0.1-2.6,0.6-3.8,1.3c-1.1,0.7-2,1.6-2.6,2.8c-0.6,1.1-1,2.4-1,3.7
	c0,1.2,0.3,2.4,1,3.5c0.7,1,1.6,1.8,2.8,2.2c1.3,0.5,2.7,0.6,4.1,0.4c2.2-0.1,4.2-1.1,5.7-2.8l-2.8-2.6c-0.4,0.4-0.8,0.7-1.3,0.9
	c-0.5,0.2-0.9,0.3-1.4,0.4c-0.6,0.1-1.1,0-1.7-0.2c-0.4-0.2-0.8-0.6-1-1l9-1.1C152.9,336.2,152.9,335.8,152.9,335.7L152.9,335.7
	L152.9,335.7z M145.8,333.4c0.5-0.1,1,0,1.4,0.3c0.4,0.3,0.6,0.7,0.7,1.2l-4.2,0.5c0.1-0.5,0.3-1,0.7-1.4
	C144.8,333.6,145.3,333.4,145.8,333.4L145.8,333.4L145.8,333.4z M159.5,329.7v-1.4l-5.1,0.6v13.4l5.4-0.6v-5.9
	c-0.2-1.6,0.9-3,2.5-3.2c0.1,0,0.2,0,0.3,0c0.4,0,0.8-0.1,1.2,0v-4.9C162,327.6,160.5,328.4,159.5,329.7L159.5,329.7L159.5,329.7z
	 M170,340.6c1.3-0.1,2.5-0.5,3.7-1c0.9-0.4,1.7-1.1,2.3-1.9c0.5-0.7,0.8-1.5,0.8-2.4c0.1-0.9-0.2-1.8-0.8-2.4
	c-0.5-0.5-1.2-0.8-1.9-1c-0.9-0.1-1.8-0.2-2.7-0.2c-0.5,0-1,0-1.5-0.1c-0.2,0-0.5-0.2-0.5-0.4c0-0.4,0.6-0.7,1.8-0.8
	c1.3-0.2,2.6,0,3.8,0.5l1.5-3.8c-0.8-0.3-1.6-0.5-2.4-0.5c-1-0.1-1.9-0.1-2.9,0.1c-1.3,0.1-2.5,0.5-3.6,1c-0.9,0.4-1.7,1.1-2.3,1.9
	c-0.5,0.7-0.8,1.5-0.8,2.4c-0.1,0.9,0.2,1.8,0.8,2.4c0.5,0.5,1.2,0.8,2,1c0.9,0.1,1.8,0.2,2.7,0.2c0.5,0,1,0,1.5,0.1
	c0.2,0,0.4,0.2,0.5,0.4c0,0.2-0.2,0.4-0.4,0.5c-0.4,0.2-0.9,0.3-1.3,0.3c-0.8,0.1-1.6,0.1-2.4,0c-0.7-0.1-1.5-0.3-2.1-0.6l-1.5,3.8
	c0.8,0.4,1.7,0.6,2.6,0.6C167.8,340.8,168.9,340.8,170,340.6L170,340.6L170,340.6z M180.6,339.4c1.8-0.2,3.2-1.7,3.1-3.5
	c0-0.8-0.3-1.6-0.9-2.2c-0.6-0.5-1.4-0.7-2.2-0.6c-0.9,0.1-1.7,0.5-2.2,1.1c-0.6,0.6-0.9,1.5-0.9,2.4c-0.1,1.5,1,2.7,2.5,2.8
	C180.1,339.5,180.3,339.4,180.6,339.4L180.6,339.4L180.6,339.4z M207.8,336.4c1.5-0.1,2.9-0.6,4.2-1.3c1.1-0.6,2-1.4,2.6-2.4
	c0.6-0.9,0.9-2,0.9-3c0.1-1-0.3-2-1-2.8c-0.6-0.6-1.4-1.1-2.3-1.3c-1.1-0.2-2.1-0.4-3.2-0.5c-0.7,0-1.4-0.1-2.1-0.3
	c-0.4,0-0.6-0.3-0.6-0.7c0-0.7,0.7-1.2,2.2-1.3c1.6-0.2,3.2,0.1,4.6,0.7l1.7-4.4c-0.9-0.4-1.9-0.7-2.9-0.8c-1.1-0.1-2.2-0.1-3.4,0
	c-1.5,0.1-2.9,0.6-4.2,1.3c-1.1,0.6-2,1.4-2.6,2.4c-0.6,0.9-0.9,2-0.9,3c-0.1,1,0.3,2.1,1,2.8c0.6,0.6,1.4,1.1,2.2,1.3
	c1.1,0.3,2.1,0.4,3.2,0.5c0.7,0.1,1.4,0.2,2.2,0.3c0.4,0,0.6,0.4,0.7,0.7c0,0.3-0.2,0.6-0.5,0.8c-0.5,0.2-1.1,0.4-1.7,0.4
	c-0.9,0.1-1.9,0.1-2.8-0.1c-0.9-0.2-1.8-0.4-2.7-0.8l-1.8,4.4c1,0.5,2.1,0.8,3.2,0.9C205.1,336.5,206.4,336.5,207.8,336.4
	L207.8,336.4L207.8,336.4z M225.8,320.3c-1.4,0.1-2.7,0.8-3.7,1.7v-5.8l-5.4,0.6v18.1l5.4-0.6V328c-0.1-0.7,0.1-1.5,0.6-2.1
	c0.4-0.5,0.9-0.8,1.5-0.8c1.1-0.1,1.6,0.6,1.6,2.1v6.7l5.4-0.6v-7.6c0-2-0.5-3.4-1.5-4.3C228.6,320.4,227.2,320,225.8,320.3
	L225.8,320.3L225.8,320.3z M247.3,324.7c0-1.3-0.3-2.5-1-3.6c-0.6-0.9-1.5-1.7-2.6-2.1c-1.2-0.4-2.4-0.6-3.6-0.4
	c-1.3,0.1-2.6,0.6-3.8,1.3c-1.1,0.7-2,1.6-2.6,2.8c-0.6,1.1-1,2.4-1,3.7c0,1.2,0.3,2.4,1,3.5c0.7,1,1.6,1.8,2.8,2.2
	c1.3,0.5,2.7,0.6,4.1,0.4c2.2-0.1,4.2-1.1,5.7-2.8l-2.8-2.6c-0.4,0.4-0.8,0.7-1.3,0.9c-0.5,0.2-0.9,0.3-1.4,0.4
	c-0.6,0.1-1.1,0-1.7-0.2c-0.4-0.2-0.8-0.6-1-1l9-1C247.3,325.2,247.3,324.8,247.3,324.7L247.3,324.7L247.3,324.7z M240.2,322.4
	c0.5-0.1,1,0,1.4,0.3c0.4,0.3,0.6,0.7,0.7,1.2l-4.2,0.5c0.1-0.5,0.3-1,0.7-1.4C239.2,322.6,239.7,322.4,240.2,322.4L240.2,322.4
	L240.2,322.4z M272,328.7c1.5-0.1,2.9-0.7,4.1-1.5c1.1-0.8,1.9-1.9,2.3-3.2l-4.2-1.6c-0.3,1.1-1.2,1.8-2.3,2
	c-0.6,0.1-1.2-0.1-1.6-0.5c-0.5-0.5-0.7-1.2-0.6-1.9c0-0.7,0.2-1.4,0.6-2c0.4-0.5,1-0.8,1.6-0.9c1-0.1,2,0.5,2.3,1.5l4.2-2.6
	c-0.4-1.2-1.2-2.1-2.3-2.6c-1.3-0.6-2.7-0.8-4.1-0.6c-1.4,0.1-2.8,0.6-4,1.3c-1.1,0.7-2.1,1.6-2.7,2.8c-0.7,1.1-1,2.4-1,3.7
	c0,1.2,0.3,2.4,1,3.5c0.7,1,1.6,1.7,2.7,2.1C269.3,328.8,270.7,328.9,272,328.7L272,328.7L272,328.7z M285.5,313.3
	c-1.1,0.1-2.1,0.4-3.1,0.8c-1,0.3-1.9,0.8-2.7,1.4l1.7,3.4c0.5-0.4,1-0.7,1.5-1c0.6-0.2,1.2-0.4,1.8-0.5c1.5-0.2,2.3,0.3,2.4,1.3
	l-2.2,0.3c-1.6,0.1-3.2,0.6-4.5,1.5c-1,0.8-1.5,1.9-1.5,3.2c0,0.7,0.2,1.4,0.6,2c0.4,0.6,1,1.1,1.6,1.3c0.8,0.3,1.7,0.4,2.6,0.2
	c1.6,0,3-1,3.7-2.4v1.8l5-0.6v-7.2c0-2.2-0.6-3.7-1.8-4.6C289.5,313.4,287.7,313.1,285.5,313.3L285.5,313.3L285.5,313.3z
	 M285.4,323.9c-0.3,0.1-0.7,0-0.9-0.2c-0.2-0.2-0.4-0.4-0.3-0.7c0-0.7,0.5-1.2,1.6-1.3l1.3-0.2v0.9c-0.1,0.4-0.3,0.8-0.7,1
	C286.2,323.7,285.8,323.8,285.4,323.9L285.4,323.9L285.4,323.9z M303.9,311.2c-0.8,0.1-1.5,0.3-2.2,0.6c-0.7,0.3-1.3,0.8-1.8,1.4
	v-1.3l-5.1,0.6v13.4l5.4-0.6v-6.3c-0.1-0.7,0.1-1.5,0.6-2.1c0.4-0.5,0.9-0.8,1.5-0.8c1.1-0.1,1.6,0.6,1.6,2.1v6.7l5.4-0.6v-7.6
	c0-2-0.5-3.4-1.5-4.3C306.7,311.3,305.2,310.9,303.9,311.2L303.9,311.2L303.9,311.2z M313.9,305.2c-0.9,0.1-1.7,0.5-2.3,1.1
	c-0.6,0.6-0.9,1.5-0.9,2.4c0,0.6,0.1,1.1,0.4,1.6c0.3,0.4,0.7,0.8,1.1,0.9l-1.2,4.3l3.3-0.4l1.7-3.8c0.3-0.7,0.6-1.3,0.8-2
	c0.1-0.4,0.2-0.9,0.2-1.3c0.1-0.8-0.3-1.6-0.9-2.2C315.6,305.3,314.7,305.1,313.9,305.2L313.9,305.2L313.9,305.2z M327.3,317.8
	c-0.3,0.3-0.8,0.5-1.2,0.5c-0.3,0.1-0.6,0-0.8-0.2c-0.2-0.3-0.3-0.6-0.3-0.9v-3.4l2.7-0.3v-4l-2.7,0.3V306l-5.4,0.6v3.7l-1.8,0.2v4
	l1.8-0.2v3.4c-0.1,1.5,0.4,2.9,1.5,3.9c1.2,0.8,2.7,1.2,4.2,0.9c1.2-0.1,2.3-0.5,3.3-1.1L327.3,317.8z M355.8,300.6v5.7
	c-0.9-0.7-2.1-1-3.3-0.8c-1.1,0.1-2.2,0.5-3.1,1.2c-1,0.7-1.8,1.6-2.3,2.7c-0.6,1.2-0.9,2.5-0.8,3.8c0,1.2,0.3,2.5,0.8,3.6
	c0.5,0.9,1.3,1.7,2.3,2.2c1,0.5,2.1,0.6,3.1,0.5c1.4-0.1,2.7-0.7,3.6-1.8v1.1l5.1-0.6V300L355.8,300.6z M353.7,314.9
	c-0.6,0.1-1.1-0.1-1.5-0.5c-0.4-0.5-0.6-1.2-0.6-1.9c0-0.7,0.2-1.4,0.6-2c0.4-0.5,0.9-0.8,1.5-0.9c0.6-0.1,1.1,0.1,1.5,0.5
	c0.4,0.5,0.6,1.2,0.6,1.9c0,0.7-0.2,1.4-0.6,2C354.9,314.5,354.3,314.8,353.7,314.9L353.7,314.9L353.7,314.9z M368.6,305.3v-1.4
	l-5.1,0.6v13.4l5.4-0.6v-5.9c-0.2-1.6,0.9-3,2.5-3.2c0.1,0,0.2,0,0.3,0c0.4,0,0.8-0.1,1.2,0v-4.9C371.2,303.3,369.6,304,368.6,305.3
	L368.6,305.3L368.6,305.3z M380,302.3c-1.1,0.1-2.1,0.4-3.1,0.8c-1,0.3-1.9,0.8-2.7,1.4l1.7,3.4c0.5-0.4,1-0.7,1.5-0.9
	c0.6-0.2,1.2-0.4,1.8-0.5c1.5-0.2,2.3,0.3,2.4,1.3l-2.2,0.3c-1.6,0.1-3.2,0.6-4.5,1.5c-1,0.8-1.5,1.9-1.5,3.2c0,0.7,0.2,1.4,0.6,2
	c0.4,0.6,1,1.1,1.6,1.3c0.8,0.3,1.7,0.4,2.6,0.2c1.6,0,3-1,3.7-2.4v1.8l5-0.6v-7.2c0-2.2-0.6-3.7-1.8-4.6
	C384.1,302.4,382.3,302,380,302.3L380,302.3L380,302.3z M380,312.8c-0.3,0.1-0.7,0-0.9-0.2c-0.2-0.2-0.4-0.4-0.3-0.7
	c0-0.7,0.5-1.2,1.6-1.3l1.3-0.2v0.9c-0.1,0.4-0.3,0.8-0.7,1C380.7,312.6,380.4,312.8,380,312.8L380,312.8L380,312.8z M406.6,299.5
	l-2.3,7.4L402,300l-4.6,0.5l-2.3,7.3l-2.2-6.8l-5.1,0.6l4.5,12.8l5.2-0.6l2-6.4l2,6l5.2-0.6l4.5-13.9L406.6,299.5z M414.1,305.9
	c-0.9,0.1-1.7,0.5-2.3,1.1c-0.6,0.6-0.9,1.5-0.9,2.4c0,0.6,0.1,1.1,0.4,1.6c0.3,0.4,0.7,0.8,1.1,0.9l-1.2,4.3l3.3-0.4l1.7-3.8
	c0.3-0.7,0.6-1.3,0.8-2c0.1-0.4,0.2-0.9,0.2-1.3c0.1-0.8-0.3-1.6-0.9-2.2C415.7,306,414.9,305.7,414.1,305.9L414.1,305.9
	L414.1,305.9z M443.6,294.9c-1.3,0.1-2.4,0.6-3.3,1.5v-5.7l-5.4,0.6v18.1l5.1-0.6v-1.1c1,0.9,2.3,1.2,3.6,0.9
	c1.1-0.1,2.2-0.5,3.1-1.2c1-0.7,1.8-1.6,2.3-2.7c0.6-1.2,0.9-2.5,0.8-3.8c0-1.2-0.3-2.5-0.8-3.6c-0.5-0.9-1.3-1.7-2.3-2.2
	C445.8,294.9,444.7,294.7,443.6,294.9L443.6,294.9L443.6,294.9z M442.3,304.6c-0.6,0.1-1.1-0.1-1.5-0.5c-0.4-0.5-0.6-1.2-0.6-1.9
	c0-0.7,0.2-1.4,0.6-2c0.4-0.5,0.9-0.8,1.5-0.9c0.6-0.1,1.1,0.1,1.5,0.5c0.4,0.5,0.6,1.2,0.6,1.9c0,0.7-0.2,1.4-0.6,2
	C443.5,304.2,442.9,304.5,442.3,304.6L442.3,304.6L442.3,304.6z M460.2,293.2v6.3c0.1,0.7-0.1,1.5-0.5,2.1c-0.3,0.4-0.8,0.7-1.3,0.8
	c-0.5,0.1-1-0.1-1.3-0.4c-0.3-0.6-0.5-1.2-0.4-1.9v-6.4l-5.4,0.6v7.4c0,2.1,0.5,3.6,1.5,4.5c1.1,0.9,2.5,1.3,4,1.1
	c0.7-0.1,1.4-0.3,2-0.6c0.6-0.3,1.2-0.8,1.7-1.3v1.3l5.1-0.6v-13.4L460.2,293.2z M476,300.4c-0.3,0.3-0.8,0.5-1.2,0.5
	c-0.3,0.1-0.6,0-0.8-0.2c-0.2-0.3-0.3-0.6-0.3-0.9v-3.4l2.7-0.3v-4l-2.7,0.3v-3.7l-5.4,0.6v3.7l-1.8,0.2v4l1.8-0.2v3.4
	c-0.1,1.5,0.4,2.9,1.5,3.9c1.2,0.8,2.7,1.2,4.2,0.9c1.2-0.1,2.3-0.5,3.3-1.1L476,300.4z M11.6,373.5v5.7c-0.9-0.7-2.1-1-3.3-0.8
	c-1.1,0.1-2.2,0.5-3.1,1.2c-1,0.7-1.8,1.6-2.3,2.7c-0.6,1.2-0.9,2.5-0.8,3.8c0,1.2,0.3,2.5,0.8,3.6c0.5,0.9,1.3,1.7,2.3,2.2
	c1,0.5,2.1,0.6,3.1,0.5c1.4-0.1,2.7-0.7,3.6-1.8v1.1L17,391v-18.1L11.6,373.5z M9.6,387.8c-0.6,0.1-1.1-0.1-1.5-0.5
	c-0.4-0.5-0.6-1.2-0.6-1.9c0-0.7,0.2-1.4,0.6-2c0.4-0.5,0.9-0.8,1.5-0.9c0.6-0.1,1.1,0.1,1.5,0.5c0.4,0.5,0.6,1.2,0.6,1.9
	c0,0.7-0.2,1.4-0.6,2C10.8,387.4,10.2,387.7,9.6,387.8L9.6,387.8L9.6,387.8z M26,390.1c1.4-0.1,2.7-0.6,3.9-1.3
	c1.1-0.7,2-1.6,2.7-2.8c0.6-1.1,1-2.4,1-3.7c0-1.2-0.3-2.4-1-3.5c-0.6-1-1.6-1.7-2.7-2.1c-1.2-0.5-2.6-0.6-3.9-0.4
	c-1.4,0.1-2.7,0.6-3.9,1.3c-1.1,0.7-2,1.6-2.7,2.8c-0.6,1.1-1,2.4-1,3.7c0,1.2,0.3,2.4,1,3.5c0.7,1,1.6,1.7,2.7,2.2
	C23.4,390.2,24.7,390.3,26,390.1L26,390.1z M26,385.8c-0.6,0.1-1.1-0.1-1.5-0.5c-0.4-0.5-0.6-1.2-0.6-1.9c0-0.7,0.2-1.4,0.6-2
	c0.4-0.5,0.9-0.8,1.5-0.9c0.6-0.1,1.1,0.1,1.5,0.5c0.4,0.5,0.6,1.2,0.6,1.9c0,0.7-0.2,1.4-0.6,2C27.2,385.5,26.6,385.8,26,385.8
	L26,385.8L26,385.8z M48.8,380.5c0-1.3-0.3-2.5-1-3.6c-0.6-0.9-1.5-1.7-2.6-2.1c-1.2-0.4-2.4-0.6-3.6-0.4c-1.3,0.1-2.6,0.6-3.8,1.3
	c-1.1,0.7-2,1.6-2.6,2.8c-0.6,1.1-1,2.4-1,3.7c0,1.2,0.3,2.4,1,3.5c0.7,1,1.6,1.8,2.8,2.2c1.3,0.5,2.7,0.6,4.1,0.4
	c2.2-0.1,4.2-1.1,5.7-2.8l-2.8-2.6c-0.4,0.4-0.8,0.7-1.3,0.9c-0.5,0.2-0.9,0.3-1.4,0.4c-0.6,0.1-1.1,0-1.7-0.2c-0.4-0.2-0.8-0.6-1-1
	l9-1.1C48.8,381.1,48.9,380.6,48.8,380.5L48.8,380.5L48.8,380.5z M41.7,378.2c0.5-0.1,1,0,1.4,0.3c0.4,0.3,0.6,0.7,0.7,1.2l-4.2,0.5
	c0.1-0.5,0.3-1,0.7-1.4C40.7,378.5,41.2,378.3,41.7,378.2L41.7,378.2L41.7,378.2z M55.4,386.7c1.3-0.1,2.5-0.5,3.7-1
	c0.9-0.4,1.7-1.1,2.3-1.9c0.5-0.7,0.8-1.5,0.8-2.4c0.1-0.9-0.2-1.8-0.8-2.4c-0.5-0.5-1.2-0.8-1.9-1c-0.9-0.1-1.8-0.2-2.7-0.2
	c-0.5,0-1,0-1.5-0.1c-0.2,0-0.5-0.2-0.5-0.4c0-0.4,0.6-0.7,1.8-0.8c1.3-0.2,2.6,0,3.8,0.5l1.5-3.8c-0.8-0.3-1.6-0.5-2.4-0.5
	c-1-0.1-1.9-0.1-2.9,0.1c-1.3,0.1-2.5,0.5-3.6,1c-0.9,0.4-1.7,1.1-2.3,1.9c-0.5,0.7-0.8,1.5-0.8,2.4c-0.1,0.9,0.2,1.8,0.8,2.4
	c0.5,0.5,1.2,0.8,2,1c0.9,0.1,1.8,0.2,2.7,0.2c0.5,0,1,0,1.5,0.1c0.2,0,0.4,0.2,0.5,0.4c0,0.2-0.2,0.4-0.4,0.5
	c-0.4,0.2-0.9,0.3-1.3,0.3c-0.8,0.1-1.6,0.1-2.4,0c-0.7-0.1-1.5-0.3-2.1-0.6l-1.5,3.8c0.8,0.4,1.7,0.6,2.6,0.6
	C53.2,386.9,54.3,386.9,55.4,386.7L55.4,386.7L55.4,386.7z M72.5,370.9c-0.8,0.1-1.5,0.3-2.2,0.6c-0.7,0.3-1.3,0.8-1.8,1.4v-1.3
	l-5.1,0.6v13.4l5.4-0.6v-6.3c-0.1-0.7,0.1-1.5,0.6-2.1c0.4-0.5,0.9-0.8,1.5-0.8c1.1-0.1,1.6,0.6,1.6,2.1v6.7l5.4-0.6v-7.6
	c0-2-0.5-3.4-1.5-4.3C75.3,371,73.9,370.6,72.5,370.9L72.5,370.9L72.5,370.9z M82.4,365c-0.9,0.1-1.7,0.5-2.3,1.1
	c-0.6,0.6-0.9,1.5-0.9,2.4c0,0.6,0.1,1.1,0.4,1.6c0.3,0.4,0.7,0.8,1.1,0.9l-1.2,4.3l3.3-0.4l1.7-3.8c0.3-0.7,0.6-1.3,0.8-2
	c0.1-0.4,0.2-0.9,0.2-1.3c0.1-0.8-0.3-1.6-0.9-2.2C84,365,83.1,364.8,82.4,365L82.4,365L82.4,365z M95.4,377.5
	c-0.3,0.3-0.8,0.5-1.2,0.5c-0.3,0.1-0.6,0-0.8-0.2c-0.2-0.3-0.3-0.6-0.3-0.9v-3.4l2.7-0.3v-4l-2.7,0.3v-3.7l-5.4,0.6v3.7l-1.8,0.2v4
	l1.8-0.2v3.4c-0.1,1.5,0.4,2.9,1.5,3.9c1.2,0.8,2.7,1.2,4.2,0.9c1.2-0.1,2.3-0.5,3.3-1.1L95.4,377.5z M104.7,380.7l5.4-0.6V362
	l-5.4,0.6V380.7L104.7,380.7z M126.1,371.5c0-1.3-0.3-2.5-1-3.6c-0.6-0.9-1.5-1.7-2.6-2.1c-1.2-0.4-2.4-0.5-3.6-0.4
	c-1.3,0.1-2.6,0.6-3.8,1.3c-1.1,0.7-2,1.6-2.6,2.8c-0.6,1.1-1,2.4-1,3.7c0,1.2,0.3,2.4,1,3.5c0.7,1,1.6,1.8,2.8,2.2
	c1.3,0.5,2.7,0.6,4.1,0.4c2.2-0.1,4.2-1.1,5.7-2.8l-2.8-2.6c-0.4,0.4-0.8,0.7-1.3,0.9c-0.5,0.2-0.9,0.3-1.4,0.4
	c-0.6,0.1-1.1,0-1.7-0.2c-0.4-0.2-0.8-0.6-1-1l9-1.1C126.1,372.1,126.1,371.6,126.1,371.5L126.1,371.5L126.1,371.5z M119,369.2
	c0.5-0.1,1,0,1.4,0.3c0.4,0.3,0.6,0.7,0.7,1.2l-4.2,0.5c0.1-0.5,0.3-1,0.7-1.4C118,369.5,118.5,369.3,119,369.2L119,369.2L119,369.2
	z M135.8,372.8c-0.3,0.3-0.8,0.5-1.2,0.5c-0.3,0.1-0.6,0-0.8-0.2c-0.2-0.3-0.3-0.6-0.3-0.9v-3.4l2.7-0.3v-4l-2.7,0.3V361l-5.4,0.6
	v3.7l-1.8,0.2v4l1.8-0.2v3.4c-0.1,1.5,0.4,2.9,1.5,3.9c1.2,0.8,2.7,1.2,4.2,0.9c1.2-0.1,2.3-0.5,3.3-1.1L135.8,372.8z M153.4,370.8
	c-0.3,0.3-0.8,0.5-1.2,0.5c-0.3,0.1-0.6,0-0.8-0.2c-0.2-0.3-0.3-0.6-0.3-0.9v-3.4l2.7-0.3v-4l-2.7,0.3V359l-5.4,0.6v3.7l-1.8,0.2v4
	l1.8-0.2v3.4c-0.1,1.5,0.4,2.9,1.5,3.9c1.2,0.8,2.7,1.2,4.2,0.9c1.2-0.1,2.3-0.5,3.3-1.1L153.4,370.8z M164.8,360.1
	c-1.4,0.1-2.7,0.8-3.7,1.7V356l-5.4,0.6v18.1l5.4-0.6v-6.3c-0.1-0.7,0.1-1.5,0.6-2.1c0.4-0.5,0.9-0.8,1.5-0.8
	c1.1-0.1,1.6,0.6,1.6,2.1v6.7l5.4-0.6v-7.6c0-2-0.5-3.4-1.5-4.3C167.6,360.3,166.2,359.9,164.8,360.1L164.8,360.1L164.8,360.1z
	 M178.1,358.6c-1.1,0.1-2.1,0.4-3.1,0.8c-1,0.3-1.9,0.8-2.7,1.4l1.7,3.4c0.5-0.4,1-0.7,1.5-0.9c0.6-0.2,1.2-0.4,1.8-0.5
	c1.5-0.2,2.3,0.3,2.4,1.3l-2.2,0.3c-1.6,0.1-3.2,0.6-4.5,1.5c-1,0.8-1.5,1.9-1.5,3.2c0,0.7,0.2,1.4,0.6,2c0.4,0.6,1,1.1,1.6,1.3
	c0.8,0.3,1.7,0.4,2.6,0.2c1.6,0,3-1,3.7-2.4v1.8l5-0.6v-7.2c0-2.2-0.6-3.7-1.8-4.6C182.1,358.6,180.4,358.3,178.1,358.6L178.1,358.6
	L178.1,358.6z M178.1,369.1c-0.3,0.1-0.7,0-0.9-0.2c-0.2-0.2-0.4-0.4-0.3-0.7c0-0.7,0.5-1.2,1.6-1.3l1.3-0.2v0.9
	c-0.1,0.4-0.3,0.8-0.7,1C178.8,368.9,178.4,369.1,178.1,369.1L178.1,369.1L178.1,369.1z M195.5,365.9c-0.3,0.3-0.8,0.5-1.2,0.5
	c-0.3,0.1-0.6,0-0.8-0.2c-0.2-0.3-0.3-0.6-0.3-0.9v-3.4l2.7-0.3v-4l-2.7,0.3v-3.7l-5.4,0.6v3.7l-1.8,0.2v4l1.8-0.2v3.4
	c-0.1,1.5,0.4,2.9,1.5,3.9c1.2,0.8,2.7,1.2,4.2,0.9c1.2-0.1,2.3-0.5,3.3-1.1L195.5,365.9z M209.9,368.7c1.3-0.1,2.5-0.5,3.7-1
	c0.9-0.4,1.7-1.1,2.3-1.9c0.5-0.7,0.8-1.5,0.8-2.4c0.1-0.9-0.2-1.8-0.8-2.4c-0.5-0.5-1.2-0.8-1.9-1c-0.9-0.1-1.8-0.2-2.7-0.2
	c-0.5,0-1,0-1.5-0.1c-0.2,0-0.5-0.2-0.5-0.4c0-0.4,0.6-0.7,1.8-0.8c1.3-0.2,2.6,0,3.8,0.5l1.5-3.8c-0.8-0.3-1.6-0.5-2.4-0.5
	c-1-0.1-1.9-0.1-2.9,0.1c-1.3,0.1-2.5,0.5-3.6,1c-0.9,0.4-1.7,1.1-2.3,1.9c-0.5,0.7-0.8,1.5-0.8,2.4c-0.1,0.9,0.2,1.8,0.8,2.4
	c0.5,0.5,1.2,0.8,2,1c0.9,0.1,1.8,0.2,2.7,0.2c0.5,0,1,0,1.5,0.1c0.2,0,0.4,0.2,0.5,0.4c0,0.2-0.2,0.4-0.4,0.5
	c-0.4,0.2-0.9,0.3-1.3,0.3c-0.8,0.1-1.6,0.1-2.4,0c-0.7-0.1-1.5-0.3-2.1-0.6l-1.5,3.8c0.8,0.4,1.7,0.6,2.6,0.6
	C207.7,368.9,208.8,368.8,209.9,368.7L209.9,368.7L209.9,368.7z M226.3,362.3c-0.3,0.3-0.8,0.5-1.2,0.5c-0.3,0.1-0.6,0-0.8-0.2
	c-0.2-0.3-0.3-0.6-0.3-0.9v-3.4l2.7-0.3v-4l-2.7,0.3v-3.7l-5.4,0.6v3.7l-1.8,0.2v4l1.8-0.2v3.4c-0.1,1.5,0.4,2.9,1.5,3.9
	c1.2,0.8,2.7,1.2,4.2,0.9c1.2-0.1,2.3-0.5,3.3-1.1L226.3,362.3z M235.2,365.8c1.4-0.1,2.7-0.6,3.9-1.3c1.1-0.7,2-1.6,2.7-2.8
	c0.6-1.1,1-2.4,1-3.7c0-1.2-0.3-2.4-1-3.5c-0.6-1-1.6-1.7-2.7-2.1c-1.2-0.5-2.6-0.6-3.9-0.4c-1.4,0.1-2.7,0.6-3.9,1.3
	c-1.1,0.7-2,1.6-2.7,2.8c-0.6,1.1-1,2.4-1,3.7c0,1.2,0.3,2.4,1,3.5c0.7,1,1.6,1.7,2.7,2.2C232.5,365.8,233.9,365.9,235.2,365.8
	L235.2,365.8L235.2,365.8z M235.2,361.5c-0.6,0.1-1.1-0.1-1.5-0.5c-0.4-0.5-0.6-1.2-0.6-1.9c0-0.7,0.2-1.4,0.6-2
	c0.4-0.5,0.9-0.8,1.5-0.9c0.6-0.1,1.1,0.1,1.5,0.5c0.4,0.5,0.6,1.2,0.6,1.9c0,0.7-0.2,1.4-0.6,2
	C236.3,361.1,235.8,361.4,235.2,361.5L235.2,361.5L235.2,361.5z M252.9,349.9c-1.4,0.1-2.7,0.7-3.6,1.8v-1.1l-5.1,0.6v18.1l5.4-0.6
	v-5.6c0.9,0.7,2.1,1,3.3,0.8c1.1-0.1,2.2-0.5,3.2-1.2c1-0.7,1.8-1.6,2.3-2.7c0.6-1.2,0.9-2.5,0.8-3.8c0-1.2-0.3-2.5-0.8-3.6
	c-0.5-0.9-1.3-1.7-2.3-2.2C255,349.9,253.9,349.7,252.9,349.9L252.9,349.9L252.9,349.9z M251.6,359.6c-0.6,0.1-1.1-0.1-1.5-0.5
	c-0.4-0.5-0.6-1.2-0.6-1.9c0-0.7,0.2-1.4,0.6-2c0.4-0.5,0.9-0.8,1.5-0.9c0.6-0.1,1.1,0.1,1.5,0.5c0.4,0.5,0.6,1.2,0.6,1.9
	c0,0.7-0.2,1.4-0.6,2C252.7,359.2,252.2,359.5,251.6,359.6L251.6,359.6L251.6,359.6z M276.5,347.1c-1.4,0.1-2.7,0.8-3.7,1.7V343
	l-5.4,0.6v18.1l5.4-0.6v-6.3c-0.1-0.7,0.1-1.5,0.6-2.1c0.4-0.5,0.9-0.8,1.5-0.8c1.1-0.1,1.6,0.6,1.6,2.1v6.7l5.4-0.6v-7.6
	c0-2-0.5-3.4-1.5-4.3C279.3,347.2,277.9,346.9,276.5,347.1L276.5,347.1L276.5,347.1z M298,351.5c0-1.3-0.3-2.5-1-3.6
	c-0.6-0.9-1.5-1.7-2.6-2.1c-1.2-0.4-2.4-0.6-3.6-0.4c-1.3,0.1-2.6,0.6-3.8,1.3c-1.1,0.7-2,1.6-2.6,2.8c-0.6,1.1-1,2.4-1,3.7
	c0,1.2,0.3,2.4,1,3.5c0.7,1,1.6,1.8,2.8,2.2c1.3,0.5,2.7,0.6,4.1,0.4c2.2-0.1,4.2-1.1,5.7-2.8l-2.8-2.6c-0.4,0.4-0.8,0.7-1.3,0.9
	c-0.5,0.2-0.9,0.3-1.4,0.4c-0.6,0.1-1.1,0-1.7-0.2c-0.4-0.2-0.8-0.6-1-1l9-1.1C298,352,298,351.6,298,351.5L298,351.5L298,351.5z
	 M290.9,349.2c0.5-0.1,1,0,1.4,0.3c0.4,0.3,0.6,0.7,0.7,1.2l-4.2,0.5c0.1-0.5,0.3-1,0.7-1.4C289.9,349.5,290.4,349.2,290.9,349.2
	L290.9,349.2L290.9,349.2z M304.6,345.5v-1.4l-5.1,0.6V358l5.4-0.6v-5.9c-0.2-1.6,0.9-3,2.5-3.2c0.1,0,0.2,0,0.3,0
	c0.4,0,0.8-0.1,1.2,0v-4.9C307.1,343.5,305.6,344.3,304.6,345.5L304.6,345.5L304.6,345.5z M312.2,356.8c1.8-0.2,3.2-1.7,3.1-3.5
	c0-0.8-0.3-1.6-0.9-2.2c-0.6-0.5-1.4-0.7-2.2-0.6c-0.9,0.1-1.7,0.5-2.2,1.1c-0.6,0.6-0.9,1.5-0.9,2.4c-0.1,1.5,1,2.7,2.5,2.8
	C311.8,356.8,312,356.8,312.2,356.8L312.2,356.8L312.2,356.8z"/>
<path id="SHE" class="st0" d="M81.4,121.2C23.3,128.1,1,142.5,1.5,172.3C2,199.9,22.1,208.5,68,203c0.1,5.6-5.4,8-19.2,9.6
	c-17.9,2.1-34.8,0.9-43.7-3.1l-1.7,48.5c22.1,0.8,44.2,0,66.1-2.6c57.8-6.8,79.8-21.3,79.3-51.6c-0.5-28.3-20.4-37.4-64.4-32.2
	c-0.1-5.4,5.2-7.8,18.2-9.3c16-1.9,30.9-0.6,38.6,3.3l1.5-46.5C123.2,117.9,102.8,118.6,81.4,121.2z M325.8,95.9l-76.9,9.1l0.7,39.8
	l-15.6,1.8l-0.7-39.8l-76.9,9.1l2.1,125.4l76.9-9.1l-0.7-39.8l15.6-1.8l0.7,39.8l76.9-9.1L325.8,95.9z M476.3,78.1L341,94.1
	l2.1,125.4l135.3-16l-0.7-40l-58.4,6.9l-0.2-9.5l54.3-6.4L473,128l-54.3,6.4l-0.2-9.5L477,118L476.3,78.1L476.3,78.1z"/>
<path id="Brandi_Cameron" class="st0" d="M1.8,51.2v34.1l24.9-2.9C39.4,80.9,43,78.4,43,71.5c0-5-1.9-6.9-7.2-7.2v-0.2
	c4.4-1.6,6-3.9,6-8.6c0-6.9-3.6-8.5-15.8-7.1L1.8,51.2z M20.7,56.9c2.4-0.3,3.3,0.3,3.3,2.4s-0.9,2.9-3.3,3.2L20,62.5V57L20.7,56.9z
	 M20.7,69.6C23.2,69.3,24,70,24,72s-0.9,2.9-3.3,3.2L20,75.2v-5.5L20.7,69.6z M66.4,46.6C62.5,47,59.5,50,59,53.8l-0.1,0l-0.1-5.4
	l-14,1.6v30.2l16.3-1.9V67.5c0-3.6,1.3-5.6,4.7-6c0.9-0.1,1.9-0.1,2.8,0V46.6C67.8,46.5,67.1,46.5,66.4,46.6z M84.3,44.5
	c-4.7,0.5-9.4,1.5-14,2.8l0.5,13.5c2-1.5,5.7-2.6,9.6-3.1c4.9-0.6,7.1,0.3,7.1,2.8v0.1l-0.1,0c-2.6-0.8-5.3-1-7.9-0.6
	c-6.7,0.8-10,4-10,9.8c0,5.7,3.1,8.1,9.3,7.4c4.2-0.5,7.4-2.1,9.4-4.8l0.1,0l0.6,2.7l15.3-1.8c-0.4-2.2-0.5-4.4-0.5-6.6v-9.3
	C103.8,46.1,98.8,42.8,84.3,44.5L84.3,44.5z M86.1,64.7c0.5-0.1,1,0,1.4,0.2v4.2c-0.4,0.3-0.9,0.5-1.4,0.6c-1.4,0.2-1.8-0.4-1.8-2.3
	S84.7,64.8,86.1,64.7L86.1,64.7z M132.5,38.9c-4.8,0.6-7.8,2.4-10,6.1l-0.1,0l-0.3-4l-15.5,1.8v30.2l16.2-1.9V52.5
	c0.4-0.3,1-0.6,1.5-0.6c1.3-0.1,1.7,0.5,1.7,2.4v16.5l16.2-1.9v-19C142.3,41.1,139.6,38.1,132.5,38.9L132.5,38.9z M180.9,30.3
	l-16.3,1.9v5.2l-0.1,0c-1.9-1.3-4.4-1.7-7.6-1.4c-8.6,1-12.8,6.9-12.8,17.8c0,10.4,3.8,15.4,11.5,14.5c3.9-0.3,7.4-2.6,9.2-6l0.1,0
	l0.3,4l16-1.9c-0.4-2.2-0.5-4.4-0.5-6.6L180.9,30.3L180.9,30.3z M163.2,47.3c0.5-0.1,1,0,1.5,0.3v7.2c-0.4,0.3-0.9,0.6-1.5,0.6
	c-1.5,0.2-2-0.8-2-3.8S161.7,47.5,163.2,47.3L163.2,47.3z M200.1,39.5c-2.5,1.3-5.3,2.1-8.1,2.4c-2.7,0.4-5.5,0.2-8.1-0.5v22.6
	l16.2-1.9V39.5L200.1,39.5z M232.3,23.4c-15.1,1.8-21.4,7.7-21.4,20.5s6.3,17.3,21.4,15.5c3.9-0.4,7.7-1.3,11.3-2.7l-0.6-15.2
	c-2.7,1-5.5,1.6-8.3,1.9c-3.5,0.4-4.9,0-4.9-1.8s1.4-2.5,4.9-2.9c2.8-0.3,5.6-0.3,8.3,0l0.6-15.3C239.9,22.9,236.1,22.9,232.3,23.4
	L232.3,23.4z M260,24.1c-4.7,0.5-9.4,1.5-14,2.8l0.5,13.5c2-1.5,5.7-2.6,9.6-3.1c4.9-0.6,7.1,0.3,7.1,2.8v0.1l-0.1,0
	c-2.6-0.8-5.3-1-7.9-0.6c-6.7,0.8-10,4-10,9.8c0,5.7,3.1,8.1,9.3,7.4c4.2-0.5,7.4-2.1,9.4-4.8l0.1,0l0.6,2.7l15.3-1.8
	c-0.4-2.2-0.5-4.4-0.5-6.6v-9.3C279.5,25.6,274.5,22.4,260,24.1L260,24.1z M261.8,44.3c0.5-0.1,1,0,1.4,0.2v4.2
	c-0.4,0.3-0.9,0.5-1.4,0.6c-1.4,0.2-1.8-0.4-1.8-2.3S260.4,44.4,261.8,44.3L261.8,44.3z M326.9,16.3c-4.8,0.6-7.8,2.4-10.2,6.1
	l-0.1,0c-1.2-3.3-4-4.5-8.7-4s-7.8,2.5-9.9,6.1l-0.1,0l-0.3-4l-15.3,1.8v30.2l16-1.9V32.1c0.5-0.3,1-0.5,1.6-0.6
	c1.2-0.1,1.7,0.5,1.7,2.4v16.5l16-1.9V29.8c0.4-0.3,1-0.5,1.5-0.6c1.3-0.1,1.7,0.5,1.7,2.4v16.5l16-1.9v-19
	C336.7,18.5,334,15.4,326.9,16.3L326.9,16.3z M356.8,12.8c-12.6,1.5-18.2,7-18.2,18c0,11.5,6.1,15.5,21,13.8
	c4.1-0.5,8.2-1.3,12.2-2.6l-0.5-13.2c-3,1.1-6,1.9-9.2,2.2c-4.4,0.5-6.2,0.1-6.4-1.7l16.9-2c0.3-1.5,0.5-3,0.4-4.5
	C373,14.7,367.9,11.5,356.8,12.8L356.8,12.8z M357.6,21.3c1.6-0.2,2,0.6,2,3.8l-4.1,0.5C355.6,22.4,356.1,21.5,357.6,21.3
	L357.6,21.3z M396.7,8.2c-3.8,0.4-6.9,3.4-7.4,7.2l-0.1,0L389,10l-14,1.6v30.2l16.3-1.9V29c0-3.6,1.3-5.6,4.7-6
	c0.9-0.1,1.9-0.1,2.8,0V8.1C398.1,8.1,397.4,8.1,396.7,8.2L396.7,8.2z M418.8,5.6c-13,1.5-18.9,7.2-18.9,18.3
	c0,11.1,5.9,15.4,18.9,13.9s18.9-7.2,18.9-18.3S431.8,4.1,418.8,5.6L418.8,5.6z M418.8,17.6c1.5-0.2,1.9,0.7,1.9,3.8
	s-0.4,4.1-1.9,4.3s-1.9-0.7-1.9-3.8S417.3,17.8,418.8,17.6L418.8,17.6z M465.7,0.1c-4.8,0.6-7.8,2.4-10,6.1l-0.1,0l-0.3-4l-15.5,1.8
	v30.2l16.3-1.9V13.7c0.4-0.3,1-0.6,1.5-0.6c1.3-0.1,1.7,0.5,1.7,2.4V32l16.2-1.9v-19C475.5,2.4,472.8-0.7,465.7,0.1L465.7,0.1z"/>
</svg>
