<?xml version="1.0" encoding="utf-8"?>
<!-- Generator: Adobe Illustrator 25.3.1, SVG Export Plug-In . SVG Version: 6.00 Build 0)  -->
<svg version="1.1" id="Group_12_copy_4" xmlns="http://www.w3.org/2000/svg" xmlns:xlink="http://www.w3.org/1999/xlink" x="0px"
	 y="0px" viewBox="0 0 479.8 367.2" style="enable-background:new 0 0 479.8 367.2;" xml:space="preserve">
<style type="text/css">
	.st0{fill-rule:evenodd;clip-rule:evenodd;fill:#1E1E1E;}
</style>
<path id="is_a_front-end_developer_designer." class="st0" d="M3.5,65.5h5.5V52.2H3.5V65.5L3.5,65.5z M6.3,51.1
	c0.9,0,1.7-0.2,2.4-0.8c0.6-0.5,0.9-1.3,0.9-2.1c0-0.8-0.3-1.5-0.9-2c-0.7-0.5-1.5-0.8-2.4-0.8c-0.9,0-1.7,0.2-2.4,0.8
	c-1.1,1-1.2,2.7-0.3,3.8c0.1,0.1,0.2,0.2,0.3,0.3C4.6,50.9,5.4,51.1,6.3,51.1L6.3,51.1L6.3,51.1z M16.7,65.8c1.3,0,2.6-0.2,3.8-0.6
	c0.9-0.3,1.7-0.9,2.3-1.6c0.5-0.6,0.8-1.4,0.8-2.3c0.1-0.9-0.3-1.8-0.9-2.5c-0.5-0.6-1.2-1-2-1.2c-0.9-0.2-1.8-0.4-2.8-0.5
	c-0.5-0.1-1-0.1-1.5-0.3c-0.3,0-0.5-0.2-0.5-0.5c0-0.4,0.6-0.6,1.8-0.6c1.3,0,2.7,0.3,3.9,1l1.5-3.6c-0.8-0.4-1.6-0.7-2.5-0.8
	c-1-0.2-2-0.3-3-0.3c-1.3,0-2.5,0.2-3.7,0.6c-0.9,0.3-1.7,0.9-2.3,1.6c-0.5,0.7-0.8,1.5-0.8,2.3c-0.1,0.9,0.3,1.8,0.9,2.5
	c0.6,0.6,1.2,1,2,1.2c0.9,0.2,1.8,0.4,2.8,0.5c0.5,0,1,0.1,1.5,0.2c0.2,0,0.4,0.2,0.5,0.4c0,0.2-0.2,0.4-0.4,0.5
	C17.7,62,17.3,62,16.8,62c-0.8,0-1.7-0.1-2.5-0.3c-0.8-0.2-1.5-0.5-2.2-0.9l-1.5,3.6c0.8,0.4,1.7,0.8,2.7,1
	C14.4,65.7,15.6,65.8,16.7,65.8L16.7,65.8L16.7,65.8z M38.6,51.9c-1.1,0-2.2,0.1-3.2,0.4c-1,0.2-1.9,0.6-2.8,1.1l1.8,3.6
	c0.5-0.3,1-0.6,1.6-0.8c0.6-0.2,1.2-0.3,1.8-0.3c1.5,0,2.3,0.5,2.5,1.6H38c-1.6-0.1-3.2,0.2-4.6,1c-1,0.7-1.6,1.8-1.5,3
	c0,1.5,0.9,3,2.3,3.6c0.8,0.4,1.8,0.6,2.7,0.6c1.9,0,3.1-0.7,3.8-2v1.8h5.1v-7.2c0.1-1.8-0.5-3.6-1.9-4.9
	C42.4,52.4,40.5,51.8,38.6,51.9L38.6,51.9L38.6,51.9z M38.6,62.5c-0.3,0-0.7-0.1-1-0.3c-0.2-0.2-0.4-0.5-0.4-0.8
	c0-0.7,0.6-1.1,1.7-1.1h1.4v0.9c-0.1,0.4-0.4,0.7-0.7,1C39.3,62.4,38.9,62.5,38.6,62.5L38.6,62.5L38.6,62.5z M61.5,52.9
	c0-0.4,0.1-0.8,0.4-1.2c0.3-0.3,0.6-0.4,1-0.4c0.4,0,0.9,0.1,1.2,0.3l1.3-3.8c-0.5-0.2-1-0.4-1.5-0.5c-0.6-0.1-1.2-0.2-1.8-0.2
	c-1.6-0.1-3.2,0.4-4.4,1.5c-1.1,1.1-1.6,2.6-1.6,4.1v0.1h-1.8v4h1.8v8.6h5.5V57h2.7v-4L61.5,52.9L61.5,52.9L61.5,52.9z M73.1,53.7
	v-1.4h-5.2v13.4h5.5v-5.9c0-1.9,0.9-2.9,2.8-2.9c0.4,0,0.8,0,1.2,0.1V52C75.8,51.9,74.2,52.5,73.1,53.7L73.1,53.7L73.1,53.7z
	 M85.9,65.8c1.4,0,2.8-0.3,4-0.9c1.1-0.5,2.1-1.4,2.8-2.5c1.3-2.2,1.3-5,0-7.2c-0.7-1.1-1.6-1.9-2.8-2.5c-2.5-1.2-5.5-1.2-8,0
	c-1.1,0.5-2.1,1.4-2.8,2.5c-1.3,2.2-1.3,5,0,7.2c0.7,1.1,1.6,1.9,2.8,2.5C83.2,65.5,84.6,65.8,85.9,65.8L85.9,65.8L85.9,65.8z
	 M85.9,61.5c-0.6,0-1.2-0.2-1.6-0.7c-0.4-0.6-0.7-1.2-0.6-1.9c0-0.7,0.2-1.4,0.6-1.9c0.8-0.9,2.1-0.9,3-0.1c0,0,0.1,0.1,0.1,0.1
	c0.4,0.5,0.7,1.2,0.6,1.9c0,0.7-0.2,1.4-0.6,1.9C87.1,61.3,86.5,61.5,85.9,61.5L85.9,61.5L85.9,61.5z M104.7,52
	c-0.8,0-1.5,0.1-2.2,0.4c-0.7,0.3-1.3,0.7-1.8,1.2v-1.3h-5.2v13.4h5.5v-6.3c-0.1-0.7,0.1-1.5,0.6-2c0.4-0.4,0.9-0.7,1.5-0.6
	c1.1,0,1.6,0.8,1.6,2.3v6.7h5.5V58c0.1-1.6-0.4-3.3-1.5-4.5C107.6,52.5,106.2,51.9,104.7,52L104.7,52L104.7,52z M121.1,61.3
	c-0.4,0.2-0.8,0.4-1.2,0.4c-0.3,0-0.6-0.1-0.8-0.3c-0.2-0.3-0.3-0.6-0.3-1V57h2.7v-4h-2.7v-3.7h-5.5V53h-1.8v4h1.8v3.4
	c-0.1,1.5,0.4,3,1.5,4.1c1.2,1,2.8,1.5,4.3,1.4c1.2,0.1,2.3-0.2,3.4-0.7L121.1,61.3z M123.4,60.6h7.3v-4.2h-7.3V60.6z M147.5,58.9
	c0-1.3-0.3-2.6-1-3.7c-0.6-1-1.6-1.8-2.7-2.4c-2.4-1.1-5.2-1.1-7.6,0.1c-1.1,0.6-2,1.4-2.7,2.5c-1.3,2.2-1.3,5,0,7.1
	c0.7,1.1,1.7,1.9,2.8,2.5c1.3,0.6,2.8,0.9,4.2,0.9c2.6,0,4.5-0.7,5.8-2.1l-2.9-2.9c-0.4,0.3-0.8,0.6-1.3,0.8c-0.5,0.2-1,0.2-1.5,0.2
	c-0.6,0-1.2-0.1-1.7-0.4c-0.5-0.3-0.8-0.7-1-1.2h9.3C147.5,59.4,147.5,59,147.5,58.9L147.5,58.9L147.5,58.9z M140.2,55.8
	c0.5,0,1,0.2,1.4,0.5c0.4,0.3,0.6,0.8,0.7,1.3h-4.3c0.1-0.5,0.3-1,0.7-1.3C139.2,55.9,139.7,55.7,140.2,55.8L140.2,55.8L140.2,55.8z
	 M158.5,52c-0.8,0-1.5,0.1-2.2,0.4c-0.7,0.3-1.3,0.7-1.8,1.2v-1.3h-5.2v13.4h5.5v-6.3c-0.1-0.7,0.1-1.5,0.6-2
	c0.4-0.4,0.9-0.7,1.5-0.6c1.1,0,1.6,0.8,1.6,2.3v6.7h5.5V58c0.1-1.6-0.4-3.3-1.5-4.5C161.4,52.5,160,51.9,158.5,52L158.5,52
	L158.5,52z M175.9,47.5v5.7c-0.9-0.8-2.2-1.2-3.4-1.1c-1.1,0-2.2,0.3-3.2,0.8c-1,0.6-1.8,1.4-2.3,2.4c-0.6,1.1-0.9,2.4-0.9,3.7
	c0,1.3,0.3,2.5,0.9,3.7c0.5,1,1.3,1.9,2.3,2.4c1,0.6,2.1,0.9,3.2,0.8c1.4,0.1,2.7-0.4,3.7-1.3v1.1h5.2V47.5L175.9,47.5z M173.8,61.6
	c-0.6,0-1.2-0.2-1.6-0.7c-0.4-0.6-0.7-1.2-0.6-1.9c0-0.7,0.2-1.4,0.6-1.9c0.8-0.9,2.1-0.9,3-0.1c0,0,0.1,0.1,0.1,0.1
	c0.4,0.5,0.7,1.2,0.6,1.9c0,0.7-0.2,1.4-0.6,1.9C175,61.3,174.4,61.6,173.8,61.6L173.8,61.6L173.8,61.6z M200.4,47.5v5.7
	c-0.9-0.8-2.2-1.2-3.4-1.1c-1.1,0-2.2,0.3-3.2,0.8c-1,0.6-1.8,1.4-2.3,2.4c-0.6,1.1-0.9,2.4-0.9,3.7c0,1.3,0.3,2.5,0.9,3.7
	c0.5,1,1.3,1.9,2.3,2.4c1,0.6,2.1,0.9,3.2,0.8c1.4,0.1,2.7-0.4,3.7-1.3v1.1h5.2V47.5L200.4,47.5z M198.3,61.6
	c-0.6,0-1.2-0.2-1.6-0.7c-0.4-0.6-0.7-1.2-0.6-1.9c0-0.7,0.2-1.4,0.6-1.9c0.8-0.9,2.1-0.9,3-0.1c0,0,0.1,0.1,0.1,0.1
	c0.4,0.5,0.7,1.2,0.6,1.9c0,0.7-0.2,1.4-0.6,1.9C199.5,61.3,198.9,61.6,198.3,61.6L198.3,61.6L198.3,61.6z M222.6,59
	c0-1.3-0.3-2.6-1-3.7c-0.6-1-1.6-1.9-2.7-2.4c-2.4-1.1-5.2-1.1-7.6,0.1c-1.1,0.6-2,1.4-2.7,2.5c-1.3,2.2-1.3,5,0,7.1
	c0.7,1.1,1.7,1.9,2.8,2.5c1.3,0.6,2.8,0.9,4.2,0.9c2.6,0,4.5-0.7,5.8-2.1l-2.9-2.9c-0.4,0.3-0.8,0.6-1.3,0.8c-0.5,0.2-1,0.2-1.5,0.2
	c-0.6,0-1.2-0.1-1.7-0.4c-0.5-0.3-0.8-0.7-1-1.2h9.3C222.6,59.5,222.6,59,222.6,59L222.6,59L222.6,59z M215.3,55.8
	c0.5,0,1,0.2,1.4,0.5c0.4,0.3,0.6,0.8,0.7,1.3h-4.3c0.1-0.5,0.3-1,0.7-1.3C214.3,56,214.8,55.8,215.3,55.8L215.3,55.8L215.3,55.8z
	 M233.7,52.3l-2.9,7.2l-2.7-7.2h-5.7l5.4,13.4h5.7l5.4-13.4L233.7,52.3z M253.6,59c0-1.3-0.3-2.6-1-3.7c-0.6-1-1.6-1.9-2.7-2.4
	c-2.4-1.1-5.2-1.1-7.6,0.1c-1.1,0.6-2,1.4-2.7,2.5c-1.3,2.2-1.3,5,0,7.1c0.7,1.1,1.7,1.9,2.8,2.5c1.3,0.6,2.8,0.9,4.2,0.9
	c2.6,0,4.5-0.7,5.8-2.1l-2.9-2.9c-0.4,0.3-0.8,0.6-1.3,0.8c-0.5,0.2-1,0.2-1.5,0.2c-0.6,0-1.2-0.1-1.7-0.4c-0.5-0.3-0.8-0.7-1-1.2
	h9.3C253.6,59.5,253.6,59.1,253.6,59L253.6,59L253.6,59z M246.3,55.8c0.5,0,1,0.2,1.4,0.5c0.4,0.3,0.6,0.8,0.7,1.3h-4.3
	c0.1-0.5,0.3-1,0.7-1.3C245.3,56,245.8,55.8,246.3,55.8L246.3,55.8L246.3,55.8z M255.4,65.7h5.5V47.5h-5.5V65.7L255.4,65.7z
	 M270.4,65.9c1.4,0,2.8-0.3,4-0.9c1.1-0.6,2.1-1.4,2.8-2.5c1.3-2.2,1.3-5,0-7.2c-0.7-1.1-1.6-1.9-2.8-2.5c-2.5-1.2-5.5-1.2-8,0
	c-1.1,0.5-2.1,1.4-2.8,2.5c-1.3,2.2-1.3,5,0,7.2c0.7,1.1,1.6,1.9,2.8,2.5C267.6,65.6,269,65.9,270.4,65.9L270.4,65.9L270.4,65.9z
	 M270.4,61.6c-0.6,0-1.2-0.2-1.6-0.7c-0.4-0.6-0.7-1.2-0.6-1.9c0-0.7,0.2-1.4,0.6-1.9c0.8-0.9,2.1-0.9,3-0.1c0,0,0.1,0.1,0.1,0.1
	c0.4,0.5,0.7,1.2,0.6,1.9c0,0.7-0.2,1.4-0.6,1.9C271.5,61.4,271,61.6,270.4,61.6L270.4,61.6L270.4,61.6z M288.8,52.1
	c-1.4-0.1-2.7,0.4-3.7,1.3v-1.1h-5.2v18.1h5.5v-5.6c0.9,0.8,2.2,1.2,3.4,1.1c1.1,0,2.3-0.3,3.2-0.8c1-0.6,1.8-1.4,2.3-2.4
	c0.6-1.1,0.9-2.4,0.9-3.7c0-1.3-0.3-2.5-0.9-3.7c-0.5-1-1.3-1.9-2.3-2.4C291,52.4,289.9,52.1,288.8,52.1L288.8,52.1L288.8,52.1z
	 M287.5,61.6c-0.6,0-1.2-0.2-1.6-0.7c-0.4-0.5-0.7-1.2-0.6-1.9c0-0.7,0.2-1.4,0.6-1.9c0.8-0.9,2.1-0.9,3-0.2c0.1,0,0.1,0.1,0.2,0.2
	c0.4,0.6,0.7,1.2,0.6,1.9c0,0.7-0.2,1.4-0.6,1.9C288.6,61.4,288.1,61.6,287.5,61.6L287.5,61.6L287.5,61.6z M311.2,59
	c0-1.3-0.3-2.6-1-3.7c-0.6-1-1.6-1.9-2.7-2.4c-2.4-1.1-5.2-1.1-7.6,0.1c-1.1,0.6-2,1.4-2.7,2.5c-1.3,2.2-1.3,4.9,0,7.1
	c0.7,1.1,1.7,1.9,2.8,2.5c1.3,0.6,2.8,0.9,4.2,0.9c2.6,0,4.5-0.7,5.8-2.1l-2.9-2.9c-0.4,0.3-0.8,0.6-1.3,0.8c-0.5,0.2-1,0.2-1.5,0.2
	c-0.6,0-1.2-0.1-1.7-0.4c-0.5-0.3-0.8-0.7-1-1.2h9.3C311.1,59.5,311.2,59.1,311.2,59L311.2,59L311.2,59z M303.9,55.9
	c0.5,0,1,0.2,1.4,0.5c0.4,0.3,0.6,0.8,0.7,1.3h-4.3c0.1-0.5,0.3-1,0.7-1.3C302.8,56,303.3,55.8,303.9,55.9L303.9,55.9L303.9,55.9z
	 M318.1,53.8v-1.4h-5.2v13.4h5.5v-5.9c0-1.9,0.9-2.9,2.8-2.9c0.4,0,0.8,0,1.2,0.1v-4.9C320.8,52,319.3,52.6,318.1,53.8L318.1,53.8
	L318.1,53.8z M348.4,57.5l-4.4-1.3c-0.1,0.8-0.3,1.5-0.7,2.2l-1.8-1.5c0.9-0.5,1.6-1.1,2.2-1.9c0.5-0.7,0.7-1.5,0.7-2.3
	c0-0.8-0.2-1.6-0.7-2.3c-0.5-0.7-1.2-1.2-2-1.5c-0.9-0.4-2-0.5-3-0.5c-1.1,0-2.2,0.2-3.2,0.6c-0.9,0.3-1.6,0.9-2.2,1.6
	c-0.5,0.7-0.8,1.5-0.8,2.4c0,1.2,0.6,2.4,1.5,3.3c-1,0.5-1.9,1.2-2.5,2.1c-0.5,0.8-0.8,1.8-0.8,2.8c0,0.9,0.3,1.8,0.9,2.5
	c0.7,0.8,1.6,1.4,2.6,1.8c1.2,0.4,2.4,0.7,3.6,0.6c2,0,4-0.5,5.7-1.6l1.8,1.6l3-3.3l-1.6-1.4C347.5,60.1,348.1,58.8,348.4,57.5
	L348.4,57.5L348.4,57.5z M338.8,51.9c0.3,0,0.5,0.1,0.8,0.2c0.2,0.2,0.3,0.4,0.3,0.6c-0.2,0.7-0.7,1.2-1.3,1.5
	c-0.3-0.2-0.5-0.5-0.7-0.8c-0.1-0.2-0.2-0.4-0.2-0.6c0-0.3,0.1-0.5,0.3-0.7C338.2,52,338.5,51.9,338.8,51.9L338.8,51.9L338.8,51.9z
	 M338.3,62c-0.6,0-1.1-0.1-1.6-0.4c-0.4-0.2-0.6-0.6-0.6-1.1c0-0.7,0.4-1.3,1-1.6l3.1,2.7C339.6,61.9,339,62,338.3,62L338.3,62
	L338.3,62z M366.9,47.6v5.7c-0.9-0.8-2.2-1.2-3.4-1.1c-1.1,0-2.2,0.3-3.2,0.8c-1,0.6-1.8,1.4-2.3,2.4c-1.2,2.3-1.2,5,0,7.3
	c0.5,1,1.3,1.9,2.3,2.4c1,0.6,2.1,0.9,3.2,0.8c1.4,0.1,2.7-0.4,3.7-1.3v1.1h5.2V47.6L366.9,47.6z M364.8,61.7
	c-0.6,0-1.2-0.2-1.6-0.7c-0.4-0.5-0.7-1.2-0.6-1.9c0-0.7,0.2-1.4,0.6-1.9c0.8-0.9,2.1-0.9,3-0.1c0,0,0.1,0.1,0.1,0.1
	c0.4,0.5,0.7,1.2,0.6,1.9c0,0.7-0.2,1.4-0.6,1.9C366,61.4,365.4,61.7,364.8,61.7L364.8,61.7L364.8,61.7z M389.1,59
	c0-1.3-0.3-2.6-1-3.7c-0.6-1-1.6-1.9-2.7-2.4c-2.4-1.1-5.2-1.1-7.6,0.1c-1.1,0.6-2,1.4-2.7,2.5c-1.3,2.2-1.3,4.9,0,7.1
	c0.7,1.1,1.7,1.9,2.8,2.5c1.3,0.6,2.8,0.9,4.2,0.9c2.6,0,4.5-0.7,5.8-2.1l-2.9-2.9c-0.4,0.3-0.8,0.6-1.3,0.8c-0.5,0.2-1,0.2-1.5,0.2
	c-0.6,0-1.2-0.1-1.7-0.4c-0.5-0.3-0.8-0.7-1-1.2h9.3C389,59.6,389.1,59.1,389.1,59L389.1,59L389.1,59z M381.8,55.9
	c0.5,0,1,0.2,1.4,0.5c0.4,0.3,0.6,0.8,0.7,1.3h-4.3c0.1-0.5,0.3-1,0.7-1.3C380.7,56,381.2,55.9,381.8,55.9L381.8,55.9L381.8,55.9z
	 M396,66c1.3,0,2.6-0.2,3.8-0.6c0.9-0.3,1.7-0.9,2.3-1.6c0.5-0.6,0.8-1.4,0.8-2.3c0.1-0.9-0.3-1.8-0.9-2.5c-0.5-0.6-1.2-1-2-1.2
	c-0.9-0.2-1.8-0.4-2.8-0.5c-0.5-0.1-1-0.1-1.5-0.3c-0.3,0-0.5-0.2-0.5-0.5c0-0.4,0.6-0.6,1.8-0.6c1.3,0,2.7,0.3,3.9,1l1.5-3.6
	c-0.8-0.4-1.6-0.7-2.5-0.8c-1-0.2-2-0.3-3-0.3c-1.3,0-2.5,0.2-3.7,0.6c-0.9,0.3-1.7,0.9-2.3,1.6c-0.5,0.7-0.8,1.5-0.8,2.3
	c-0.1,0.9,0.3,1.8,0.9,2.5c0.6,0.6,1.2,1,2,1.2c0.9,0.2,1.8,0.4,2.8,0.5c0.5,0,1,0.1,1.5,0.2c0.2,0,0.4,0.2,0.5,0.4
	c0,0.2-0.2,0.4-0.4,0.5c-0.4,0.1-0.9,0.2-1.3,0.2c-0.8,0-1.7-0.1-2.5-0.3c-0.8-0.2-1.5-0.5-2.2-0.9l-1.5,3.6c0.8,0.4,1.7,0.8,2.7,1
	C393.8,65.9,394.9,66,396,66L396,66L396,66z M404.6,65.8h5.5V52.4h-5.5V65.8L404.6,65.8z M407.3,51.3c0.9,0,1.7-0.2,2.4-0.8
	c0.6-0.5,0.9-1.3,0.9-2.1c0-0.8-0.3-1.5-0.9-2c-0.7-0.5-1.5-0.8-2.4-0.8c-0.9,0-1.7,0.2-2.4,0.8c-1.1,1-1.2,2.7-0.3,3.8
	c0.1,0.1,0.2,0.2,0.3,0.3C405.6,51.1,406.5,51.4,407.3,51.3L407.3,51.3L407.3,51.3z M422.2,52.4v1.5c-0.9-1.2-2.4-1.9-4-1.8
	c-1.1,0-2.2,0.3-3.2,0.8c-1,0.5-1.8,1.3-2.4,2.3c-0.6,1-0.9,2.2-0.9,3.4c0,1.2,0.3,2.4,0.9,3.4c0.6,1,1.4,1.7,2.4,2.3
	c1,0.5,2.1,0.8,3.2,0.8c1.4,0.1,2.7-0.4,3.7-1.4v0.2c0.1,0.8-0.2,1.5-0.8,2.1c-0.7,0.5-1.6,0.8-2.4,0.7c-0.8,0-1.6-0.1-2.3-0.4
	c-0.7-0.2-1.4-0.5-2-1l-1.9,3.8c0.9,0.6,1.9,1,3,1.2c1.2,0.3,2.5,0.4,3.7,0.4c2.2,0.1,4.3-0.5,6-1.9c1.5-1.5,2.3-3.6,2.1-5.7V52.4
	L422.2,52.4z M419.7,60.7c-0.6,0-1.2-0.2-1.6-0.6c-0.4-0.4-0.7-1-0.7-1.6c0-0.6,0.2-1.1,0.6-1.5c0.5-0.4,1-0.6,1.6-0.6
	c0.6,0,1.2,0.2,1.6,0.6c0.4,0.4,0.7,1,0.6,1.5c0,0.6-0.2,1.2-0.6,1.6C420.9,60.5,420.3,60.8,419.7,60.7L419.7,60.7L419.7,60.7z
	 M439.2,52.2c-0.8,0-1.5,0.1-2.2,0.4c-0.7,0.3-1.3,0.7-1.8,1.2v-1.3h-5.2v13.4h5.5v-6.3c-0.1-0.7,0.1-1.5,0.6-2
	c0.4-0.4,0.9-0.7,1.5-0.6c1.1,0,1.6,0.8,1.6,2.3v6.7h5.5v-7.6c0.1-1.6-0.4-3.3-1.5-4.5C442.1,52.6,440.6,52.1,439.2,52.2L439.2,52.2
	L439.2,52.2z M461.5,59.1c0-1.3-0.3-2.6-1-3.7c-0.6-1-1.6-1.9-2.7-2.4c-2.4-1.1-5.2-1.1-7.6,0.1c-1.1,0.6-2,1.4-2.7,2.5
	c-1.3,2.2-1.3,5,0,7.1c0.7,1.1,1.7,1.9,2.8,2.5c1.3,0.6,2.8,0.9,4.2,0.9c2.6,0,4.5-0.7,5.8-2.1l-2.9-2.9c-0.4,0.3-0.8,0.6-1.3,0.8
	c-0.5,0.2-1,0.2-1.5,0.2c-0.6,0-1.2-0.1-1.7-0.4c-0.5-0.3-0.8-0.7-1-1.2h9.3C461.5,59.6,461.5,59.2,461.5,59.1L461.5,59.1
	L461.5,59.1z M454.2,55.9c0.5,0,1,0.2,1.4,0.5c0.4,0.3,0.6,0.8,0.7,1.3H452c0.1-0.5,0.3-1,0.7-1.3C453.2,56.1,453.7,55.9,454.2,55.9
	L454.2,55.9L454.2,55.9z M468.5,53.9v-1.4h-5.2v13.4h5.5v-5.9c0-1.9,0.9-2.9,2.8-2.9c0.4,0,0.8,0,1.2,0.1v-4.9
	C471.2,52.1,469.6,52.7,468.5,53.9L468.5,53.9L468.5,53.9z M476.6,66c0.9,0,1.7-0.3,2.3-0.9c0.6-0.6,0.9-1.4,0.9-2.3
	c0-0.8-0.3-1.7-0.9-2.3c-1.3-1.2-3.3-1.2-4.6,0c-0.6,0.6-0.9,1.4-0.9,2.3c0,0.9,0.3,1.7,0.9,2.3C474.9,65.7,475.7,66.1,476.6,66
	L476.6,66L476.6,66z"/>
<path id="is_a_highly_creative_self-starter_that_loves_making_projects_th" class="st0" d="M2.6,248.2H8v-13.4H2.6V248.2L2.6,248.2
	z M5.3,233.8c0.9,0,1.7-0.2,2.4-0.8c0.6-0.5,0.9-1.3,0.9-2.1c0-0.8-0.3-1.5-0.9-2c-0.7-0.5-1.5-0.8-2.4-0.8c-0.9,0-1.7,0.2-2.3,0.8
	c-1.1,1-1.2,2.7-0.2,3.8c0.1,0.1,0.1,0.1,0.2,0.2C3.6,233.5,4.5,233.8,5.3,233.8L5.3,233.8L5.3,233.8z M15.2,248.5
	c1.3,0,2.5-0.2,3.7-0.6c0.9-0.3,1.7-0.9,2.3-1.6c0.5-0.7,0.8-1.5,0.8-2.3c0.1-0.9-0.2-1.8-0.8-2.5c-0.5-0.6-1.2-1-1.9-1.2
	c-0.9-0.2-1.8-0.4-2.7-0.5c-0.5-0.1-1-0.1-1.5-0.3c-0.2,0-0.4-0.2-0.5-0.5c0-0.4,0.6-0.6,1.8-0.6c1.3,0,2.6,0.3,3.8,1l1.5-3.6
	c-0.8-0.4-1.6-0.7-2.4-0.8c-1-0.2-1.9-0.3-2.9-0.3c-1.2,0-2.5,0.2-3.6,0.6c-0.9,0.3-1.7,0.9-2.3,1.6c-0.5,0.7-0.8,1.5-0.8,2.3
	c-0.1,0.9,0.2,1.8,0.8,2.5c0.5,0.6,1.2,1,2,1.2c0.9,0.2,1.8,0.4,2.7,0.5c0.5,0,1,0.1,1.5,0.2c0.2,0,0.4,0.2,0.5,0.4
	c0,0.2-0.2,0.4-0.4,0.5c-0.4,0.1-0.9,0.2-1.3,0.2c-0.8,0-1.6-0.1-2.4-0.3c-0.8-0.2-1.5-0.5-2.1-0.9l-1.5,3.6c0.8,0.4,1.7,0.8,2.6,1
	C13,248.3,14.1,248.5,15.2,248.5L15.2,248.5L15.2,248.5z M42,234.6c-1.1,0-2.1,0.1-3.1,0.4c-1,0.2-1.9,0.6-2.7,1.1l1.7,3.6
	c0.5-0.3,1-0.6,1.5-0.8c0.6-0.2,1.2-0.3,1.8-0.3c1.5,0,2.3,0.5,2.4,1.6h-2.2c-1.6-0.1-3.1,0.2-4.5,1c-1,0.7-1.5,1.8-1.5,3
	c0,0.7,0.2,1.5,0.6,2.1c0.4,0.6,1,1.2,1.6,1.5c0.8,0.4,1.7,0.6,2.6,0.5c1.8,0,3.1-0.7,3.7-2v1.8h5V241c0.1-1.8-0.5-3.6-1.8-4.8
	C45.7,235.1,43.8,234.5,42,234.6L42,234.6L42,234.6z M41.9,245.2c-0.3,0-0.7-0.1-0.9-0.3c-0.2-0.2-0.4-0.5-0.3-0.8
	c0-0.7,0.5-1.1,1.6-1.1h1.3v0.9c-0.1,0.4-0.3,0.7-0.7,1C42.7,245,42.3,245.2,41.9,245.2L41.9,245.2L41.9,245.2z M72.9,234.6
	c-1.3,0-2.6,0.4-3.7,1.3v-5.8h-5.4v18.1h5.4V242c-0.1-0.7,0.1-1.4,0.6-2c0.4-0.4,0.9-0.7,1.5-0.6c1.1,0,1.6,0.8,1.6,2.3v6.7h5.4
	v-7.6c0.1-1.6-0.4-3.3-1.5-4.5C75.8,235.1,74.4,234.6,72.9,234.6L72.9,234.6L72.9,234.6z M80.4,248.2h5.4v-13.4h-5.4V248.2
	L80.4,248.2z M83,233.8c0.9,0,1.7-0.2,2.4-0.8c0.6-0.5,0.9-1.3,0.9-2.1c0-0.8-0.3-1.5-0.9-2c-0.7-0.5-1.5-0.8-2.4-0.8
	c-0.9,0-1.7,0.2-2.3,0.8c-1.1,1-1.2,2.7-0.2,3.8c0.1,0.1,0.1,0.1,0.2,0.2C81.4,233.6,82.2,233.9,83,233.8L83,233.8L83,233.8z
	 M97.3,234.9v1.5c-0.9-1.2-2.3-1.9-3.9-1.8c-1.1,0-2.2,0.3-3.1,0.8c-1,0.5-1.8,1.3-2.3,2.3c-1.1,2.1-1.1,4.6,0,6.8
	c0.5,1,1.3,1.7,2.3,2.3c0.9,0.5,2,0.8,3.1,0.8c1.3,0.1,2.7-0.4,3.6-1.4v0.2c0.1,0.8-0.2,1.5-0.7,2.1c-0.7,0.5-1.5,0.8-2.4,0.7
	c-0.8,0-1.5-0.1-2.2-0.4c-0.7-0.2-1.3-0.5-1.9-1l-1.8,3.8c0.9,0.6,1.9,1,2.9,1.2c1.2,0.3,2.4,0.4,3.6,0.4c2.1,0.1,4.2-0.5,5.9-1.9
	c1.4-1.3,2.1-3.2,2.1-5.7v-10.7L97.3,234.9L97.3,234.9z M94.9,243.2c-0.6,0-1.2-0.2-1.6-0.6c-0.4-0.4-0.7-1-0.6-1.6
	c0-0.6,0.2-1.1,0.6-1.5c0.4-0.4,1-0.6,1.6-0.6c0.6,0,1.2,0.2,1.6,0.6c0.4,0.4,0.7,1,0.6,1.5c0,0.6-0.2,1.1-0.6,1.6
	C96,243,95.4,243.2,94.9,243.2L94.9,243.2L94.9,243.2z M113.6,234.6c-1.3,0-2.6,0.4-3.7,1.3v-5.8h-5.4v18.1h5.4V242
	c-0.1-0.7,0.1-1.4,0.6-2c0.4-0.4,0.9-0.7,1.5-0.6c1.1,0,1.6,0.8,1.6,2.3v6.7h5.4v-7.6c0.1-1.6-0.4-3.3-1.5-4.5
	C116.4,235.1,115,234.6,113.6,234.6L113.6,234.6L113.6,234.6z M121,248.3h5.4v-18.1H121V248.3L121,248.3z M137.9,234.9l-2.7,7.2
	l-2.7-7.2h-5.5l5.5,13.5c-0.3,0.4-0.8,0.6-1.3,0.5c-0.3,0-0.7-0.1-1-0.2c-0.3-0.1-0.6-0.3-0.9-0.5l-1.8,3.8c0.5,0.4,1.1,0.7,1.7,0.9
	c0.7,0.2,1.5,0.3,2.2,0.3c1.3,0,2.6-0.3,3.7-1c1.2-0.9,2.1-2.2,2.5-3.7l5.3-13.6L137.9,234.9z M163.4,248.5c1.4,0,2.8-0.3,4.1-1
	c1.1-0.7,1.9-1.7,2.3-2.9l-4.2-2.1c-0.3,1-1.2,1.7-2.3,1.8c-0.6,0-1.2-0.2-1.6-0.7c-0.5-0.5-0.7-1.2-0.6-2c0-0.7,0.2-1.4,0.6-1.9
	c0.4-0.4,1-0.7,1.6-0.7c1.1,0,2,0.7,2.3,1.8l4.2-2.1c-0.4-1.2-1.2-2.2-2.3-2.9c-1.2-0.7-2.6-1.1-4.1-1.1c-1.4,0-2.7,0.3-4,0.9
	c-1.1,0.5-2.1,1.4-2.7,2.5c-1.3,2.2-1.3,5,0,7.2c0.7,1.1,1.6,1.9,2.7,2.5C160.6,248.2,162,248.5,163.4,248.5L163.4,248.5
	L163.4,248.5z M175.9,236.4v-1.4h-5.1v13.4h5.4v-5.9c0-1.9,0.9-2.9,2.8-2.9c0.4,0,0.8,0,1.2,0.1v-4.9
	C178.5,234.6,176.9,235.2,175.9,236.4L175.9,236.4L175.9,236.4z M195.1,241.6c0-1.3-0.3-2.6-1-3.7c-0.6-1-1.5-1.8-2.6-2.4
	c-2.3-1.1-5.1-1.1-7.4,0.1c-1.1,0.6-2,1.4-2.6,2.5c-1.3,2.2-1.3,4.9,0,7.1c0.7,1.1,1.6,1.9,2.8,2.5c1.3,0.6,2.7,0.9,4.1,0.9
	c2.1,0.2,4.2-0.6,5.7-2.1l-2.8-2.9c-0.4,0.3-0.8,0.6-1.3,0.8c-0.5,0.2-0.9,0.2-1.4,0.2c-0.6,0-1.2-0.1-1.7-0.4
	c-0.4-0.3-0.8-0.7-1-1.2h9C195,242.1,195.1,241.7,195.1,241.6L195.1,241.6L195.1,241.6z M188,238.4c0.5,0,1,0.2,1.4,0.5
	c0.4,0.3,0.6,0.8,0.7,1.3h-4.2c0.1-0.5,0.3-1,0.7-1.3C187,238.6,187.4,238.4,188,238.4L188,238.4L188,238.4z M202,234.7
	c-1.1,0-2.1,0.1-3.1,0.4c-1,0.2-1.9,0.6-2.7,1.1l1.7,3.6c0.5-0.3,1-0.6,1.5-0.8c0.6-0.2,1.2-0.3,1.8-0.3c1.5,0,2.3,0.5,2.4,1.6h-2.2
	c-1.6-0.1-3.1,0.2-4.5,1c-1,0.7-1.5,1.8-1.5,3c0,0.7,0.2,1.5,0.6,2.1c0.4,0.6,1,1.2,1.6,1.5c0.8,0.4,1.7,0.6,2.6,0.5
	c1.8,0,3.1-0.7,3.7-2v1.8h5v-7.2c0.1-1.8-0.5-3.6-1.8-4.8C205.7,235.1,203.8,234.5,202,234.7L202,234.7L202,234.7z M201.9,245.2
	c-0.3,0-0.7-0.1-0.9-0.3c-0.2-0.2-0.4-0.5-0.3-0.8c0-0.7,0.5-1.1,1.6-1.1h1.3v0.9c-0.1,0.4-0.3,0.7-0.7,1
	C202.7,245.1,202.3,245.2,201.9,245.2L201.9,245.2L201.9,245.2z M219.4,244c-0.4,0.2-0.8,0.4-1.2,0.4c-0.3,0-0.6-0.1-0.8-0.3
	c-0.2-0.3-0.3-0.6-0.3-1v-3.4h2.7v-4h-2.7v-3.7h-5.4v3.7h-1.8v4h1.8v3.4c-0.1,1.5,0.4,3,1.5,4.1c1.2,1,2.7,1.5,4.2,1.4
	c1.1,0.1,2.3-0.2,3.3-0.7L219.4,244z M221.8,248.3h5.4v-13.4h-5.4V248.3L221.8,248.3z M224.5,233.9c0.9,0,1.7-0.2,2.4-0.8
	c0.6-0.5,0.9-1.3,0.9-2.1c0-0.8-0.3-1.5-0.9-2c-0.7-0.5-1.5-0.8-2.4-0.8c-0.9,0-1.7,0.2-2.3,0.8c-1.1,1-1.2,2.7-0.2,3.8
	c0.1,0.1,0.1,0.1,0.2,0.2C222.8,233.6,223.6,233.9,224.5,233.9L224.5,233.9z M238.7,234.9l-2.8,7.2l-2.6-7.2h-5.5l5.2,13.4h5.6
	l5.2-13.4L238.7,234.9z M257.8,241.6c0-1.3-0.3-2.6-1-3.7c-0.6-1-1.5-1.8-2.6-2.4c-2.3-1.1-5.1-1.1-7.4,0.1c-1.1,0.6-2,1.4-2.6,2.5
	c-1.3,2.2-1.3,4.9,0,7.1c0.7,1.1,1.6,1.9,2.8,2.5c1.3,0.6,2.7,0.9,4.1,0.9c2.1,0.2,4.2-0.6,5.7-2.1l-2.8-2.9
	c-0.4,0.3-0.8,0.6-1.3,0.8c-0.5,0.2-0.9,0.2-1.4,0.2c-0.6,0-1.2-0.1-1.7-0.4c-0.4-0.3-0.8-0.7-1-1.2h9
	C257.8,242.1,257.8,241.7,257.8,241.6L257.8,241.6L257.8,241.6z M250.7,238.5c0.5,0,1,0.2,1.4,0.5c0.4,0.3,0.6,0.8,0.7,1.3h-4.2
	c0.1-0.5,0.3-1,0.7-1.3C249.7,238.6,250.2,238.4,250.7,238.5L250.7,238.5L250.7,238.5z M277.2,248.6c1.3,0,2.5-0.2,3.7-0.6
	c0.9-0.3,1.7-0.9,2.3-1.6c0.5-0.7,0.8-1.5,0.8-2.3c0.1-0.9-0.2-1.8-0.8-2.5c-0.5-0.6-1.2-1-1.9-1.2c-0.9-0.2-1.8-0.4-2.7-0.5
	c-0.5-0.1-1-0.1-1.5-0.3c-0.2,0-0.4-0.2-0.5-0.5c0-0.4,0.6-0.6,1.8-0.6c1.3,0,2.6,0.3,3.8,1l1.5-3.6c-0.8-0.4-1.6-0.7-2.4-0.8
	c-1-0.2-1.9-0.3-2.9-0.3c-1.2,0-2.5,0.2-3.6,0.6c-0.9,0.3-1.7,0.9-2.3,1.6c-0.5,0.7-0.8,1.5-0.8,2.3c-0.1,0.9,0.2,1.8,0.8,2.5
	c0.5,0.6,1.2,1,2,1.2c0.9,0.2,1.8,0.4,2.7,0.5c0.5,0.1,1,0.1,1.5,0.2c0.2,0,0.4,0.2,0.5,0.4c0,0.2-0.2,0.4-0.4,0.5
	c-0.4,0.1-0.9,0.2-1.3,0.2c-0.8,0-1.6-0.1-2.4-0.3c-0.8-0.2-1.5-0.5-2.1-0.9l-1.5,3.6c0.8,0.4,1.7,0.8,2.6,1
	C275,248.4,276.1,248.5,277.2,248.6L277.2,248.6L277.2,248.6z M299.1,241.6c0-1.3-0.3-2.6-1-3.7c-0.6-1-1.5-1.8-2.6-2.4
	c-2.3-1.1-5.1-1.1-7.4,0.1c-1.1,0.6-2,1.4-2.6,2.5c-1.3,2.2-1.3,4.9,0,7.1c0.7,1.1,1.6,1.9,2.8,2.5c1.3,0.6,2.7,0.9,4.1,0.9
	c2.1,0.2,4.2-0.6,5.7-2.1l-2.8-2.9c-0.4,0.3-0.8,0.6-1.3,0.8c-0.5,0.2-0.9,0.2-1.4,0.2c-0.6,0-1.2-0.1-1.7-0.4
	c-0.4-0.3-0.8-0.7-1-1.2h9C299.1,242.1,299.1,241.7,299.1,241.6L299.1,241.6L299.1,241.6z M292,238.5c0.5,0,1,0.2,1.4,0.5
	c0.4,0.3,0.6,0.8,0.7,1.3h-4.2c0.1-0.5,0.3-1,0.7-1.3C291,238.6,291.5,238.5,292,238.5L292,238.5L292,238.5z M300.6,248.3h5.4v-18.1
	h-5.4V248.3L300.6,248.3z M313.9,235.7c0-0.4,0.1-0.8,0.3-1.2c0.2-0.3,0.6-0.4,0.9-0.4c0.4,0,0.8,0.1,1.2,0.3l1.3-3.8
	c-0.4-0.2-0.9-0.4-1.4-0.5c-0.6-0.1-1.2-0.2-1.8-0.2c-1.6-0.1-3.1,0.5-4.3,1.5c-1.1,1.1-1.6,2.6-1.5,4.1v0.1h-1.8v4h1.8v8.6h5.4
	v-8.6h2.7v-4L313.9,235.7L313.9,235.7L313.9,235.7z M317.6,243.3h7.1v-4.2h-7.1V243.3z M331.9,248.6c1.3,0,2.5-0.2,3.7-0.6
	c0.9-0.3,1.7-0.9,2.3-1.6c0.5-0.7,0.8-1.5,0.8-2.3c0.1-0.9-0.2-1.8-0.8-2.5c-0.5-0.6-1.2-1-1.9-1.2c-0.9-0.2-1.8-0.4-2.7-0.5
	c-0.5,0-1-0.1-1.5-0.3c-0.2,0-0.4-0.2-0.5-0.5c0-0.4,0.6-0.6,1.8-0.6c1.3,0,2.6,0.3,3.8,1l1.5-3.6c-0.8-0.4-1.6-0.7-2.4-0.8
	c-1-0.2-1.9-0.3-2.9-0.3c-1.2,0-2.5,0.2-3.6,0.6c-0.9,0.3-1.7,0.9-2.3,1.6c-0.5,0.7-0.8,1.5-0.8,2.3c-0.1,0.9,0.2,1.8,0.8,2.5
	c0.5,0.6,1.2,1,2,1.2c0.9,0.2,1.8,0.4,2.7,0.5c0.5,0,1,0.1,1.5,0.2c0.2,0,0.4,0.2,0.5,0.4c0,0.2-0.2,0.4-0.4,0.5
	c-0.4,0.1-0.9,0.2-1.3,0.2c-0.8,0-1.6-0.1-2.4-0.3c-0.8-0.2-1.5-0.5-2.1-0.9l-1.5,3.6c0.8,0.4,1.7,0.8,2.6,1
	C329.6,248.4,330.7,248.6,331.9,248.6L331.9,248.6L331.9,248.6z M348.3,244c-0.4,0.2-0.8,0.4-1.2,0.4c-0.3,0-0.6-0.1-0.8-0.3
	c-0.2-0.3-0.3-0.6-0.3-1v-3.4h2.7v-4h-2.7V232h-5.4v3.7h-1.8v4h1.8v3.4c-0.1,1.5,0.4,3,1.5,4.1c1.2,1,2.7,1.5,4.2,1.4
	c1.1,0.1,2.3-0.2,3.3-0.7L348.3,244z M356.5,234.7c-1.1,0-2.1,0.1-3.1,0.4c-1,0.2-1.9,0.6-2.7,1.1l1.7,3.6c0.5-0.3,1-0.6,1.5-0.8
	c0.6-0.2,1.2-0.3,1.8-0.3c1.5,0,2.3,0.5,2.4,1.6H356c-1.6-0.1-3.1,0.2-4.5,1c-1,0.7-1.5,1.8-1.5,3c0,0.7,0.2,1.5,0.6,2.1
	c0.4,0.6,1,1.2,1.6,1.5c0.8,0.4,1.7,0.6,2.6,0.5c1.8,0,3.1-0.7,3.7-2v1.8h5v-7.2c0.1-1.8-0.5-3.6-1.8-4.8
	C360.2,235.2,358.4,234.6,356.5,234.7L356.5,234.7L356.5,234.7z M356.5,245.3c-0.3,0-0.7-0.1-0.9-0.3c-0.2-0.2-0.4-0.5-0.3-0.8
	c0-0.7,0.5-1.1,1.6-1.1h1.3v0.9c-0.1,0.4-0.3,0.7-0.7,1C357.2,245.2,356.8,245.3,356.5,245.3L356.5,245.3L356.5,245.3z M370.7,236.4
	V235h-5.1v13.4h5.4v-5.9c0-1.9,0.9-2.9,2.8-2.9c0.4,0,0.8,0,1.2,0.1v-4.9C373.3,234.6,371.8,235.2,370.7,236.4L370.7,236.4
	L370.7,236.4z M384.9,244c-0.4,0.2-0.8,0.4-1.2,0.4c-0.3,0-0.6-0.1-0.8-0.3c-0.2-0.3-0.3-0.6-0.3-1v-3.4h2.7v-4h-2.7V232h-5.4v3.7
	h-1.8v4h1.8v3.4c-0.1,1.5,0.4,3,1.5,4.1c1.2,1,2.7,1.5,4.2,1.4c1.1,0.1,2.3-0.2,3.3-0.7L384.9,244z M400.7,241.7
	c0-1.3-0.3-2.6-1-3.7c-0.6-1-1.5-1.8-2.6-2.4c-2.3-1.1-5.1-1.1-7.4,0.1c-1.1,0.6-2,1.4-2.6,2.5c-1.3,2.2-1.3,4.9,0,7.1
	c0.7,1.1,1.6,1.9,2.8,2.5c1.3,0.6,2.7,0.9,4.1,0.9c2.1,0.2,4.2-0.6,5.7-2.1l-2.8-2.9c-0.4,0.3-0.8,0.6-1.3,0.8
	c-0.5,0.2-0.9,0.2-1.4,0.2c-0.6,0-1.2-0.1-1.7-0.4c-0.4-0.3-0.8-0.7-1-1.2h9C400.7,242.2,400.7,241.7,400.7,241.7L400.7,241.7
	L400.7,241.7z M393.6,238.5c0.5,0,1,0.2,1.4,0.5c0.4,0.3,0.6,0.8,0.7,1.3h-4.2c0.1-0.5,0.3-1,0.7-1.3
	C392.6,238.7,393.1,238.5,393.6,238.5L393.6,238.5L393.6,238.5z M407.3,236.4V235h-5.1v13.4h5.4v-5.9c0-1.9,0.9-2.9,2.8-2.9
	c0.4,0,0.8,0,1.2,0.1v-4.9C409.9,234.6,408.4,235.3,407.3,236.4L407.3,236.4L407.3,236.4z M433.9,244.1c-0.4,0.2-0.8,0.4-1.2,0.4
	c-0.3,0-0.6-0.1-0.8-0.3c-0.2-0.3-0.3-0.6-0.3-1v-3.4h2.7v-4h-2.7V232h-5.4v3.7h-1.8v4h1.8v3.4c-0.1,1.5,0.4,3,1.5,4.1
	c1.2,1,2.7,1.5,4.2,1.4c1.1,0.1,2.3-0.2,3.3-0.7L433.9,244.1z M445.3,234.8c-1.3,0-2.6,0.4-3.7,1.3v-5.8h-5.4v18.1h5.4v-6.3
	c-0.1-0.7,0.1-1.4,0.6-2c0.4-0.4,0.9-0.7,1.5-0.6c1.1,0,1.6,0.8,1.6,2.3v6.7h5.4v-7.6c0.1-1.6-0.4-3.3-1.5-4.5
	C448.2,235.2,446.8,234.7,445.3,234.8L445.3,234.8L445.3,234.8z M458.6,234.8c-1.1,0-2.1,0.1-3.1,0.4c-1,0.2-1.9,0.6-2.7,1.1
	l1.7,3.6c0.5-0.3,1-0.6,1.5-0.8c0.6-0.2,1.2-0.3,1.8-0.3c1.5,0,2.3,0.5,2.4,1.6H458c-1.6-0.1-3.1,0.2-4.5,1c-1,0.7-1.5,1.8-1.5,3
	c0,0.7,0.2,1.5,0.6,2.1c0.4,0.6,1,1.2,1.6,1.5c0.8,0.4,1.7,0.6,2.6,0.5c1.8,0,3.1-0.7,3.7-2v1.8h5v-7.2c0.1-1.8-0.5-3.6-1.8-4.8
	C462.3,235.2,460.4,234.6,458.6,234.8L458.6,234.8L458.6,234.8z M458.5,245.3c-0.3,0-0.7-0.1-0.9-0.3c-0.2-0.2-0.4-0.5-0.3-0.8
	c0-0.7,0.5-1.1,1.6-1.1h1.3v0.9c-0.1,0.4-0.3,0.7-0.7,1C459.3,245.2,458.9,245.3,458.5,245.3L458.5,245.3L458.5,245.3z M476,244.1
	c-0.4,0.2-0.8,0.4-1.2,0.4c-0.3,0-0.6-0.1-0.8-0.3c-0.2-0.3-0.3-0.6-0.3-1v-3.4h2.7v-4h-2.7V232h-5.4v3.7h-1.8v4h1.8v3.4
	c-0.1,1.5,0.4,3,1.5,4.1c1.2,1,2.7,1.5,4.2,1.4c1.1,0.1,2.3-0.2,3.3-0.7L476,244.1z M2.6,281H8v-18.1H2.6V281L2.6,281z M17,281.2
	c1.4,0,2.7-0.3,3.9-0.9c1.1-0.6,2-1.4,2.7-2.5c1.3-2.2,1.3-4.9,0-7.2c-0.6-1.1-1.6-1.9-2.7-2.5c-2.5-1.2-5.3-1.2-7.8,0
	c-3.4,1.8-4.7,5.9-2.9,9.3c0.1,0.1,0.1,0.2,0.2,0.3c0.7,1.1,1.6,1.9,2.7,2.5C14.3,280.9,15.6,281.2,17,281.2L17,281.2L17,281.2z
	 M17,276.9c-0.6,0-1.1-0.2-1.5-0.7c-0.4-0.6-0.6-1.2-0.6-1.9c0-0.7,0.2-1.4,0.6-1.9c0.7-0.8,2-0.9,2.9-0.2c0.1,0.1,0.1,0.1,0.2,0.2
	c0.4,0.5,0.6,1.2,0.6,1.9c0,0.7-0.2,1.4-0.6,1.9C18.1,276.7,17.6,276.9,17,276.9L17,276.9L17,276.9z M35,267.6l-2.8,7.2l-2.6-7.2
	h-5.5l5.2,13.4h5.6l5.2-13.4L35,267.6z M54.2,274.3c0-1.3-0.3-2.6-1-3.7c-0.6-1-1.5-1.8-2.6-2.4c-2.3-1.1-5.1-1.1-7.4,0.1
	c-1.1,0.6-2,1.4-2.6,2.5c-1.3,2.2-1.3,4.9,0,7.1c0.7,1.1,1.6,1.9,2.8,2.5c1.3,0.6,2.7,0.9,4.1,0.9c2.1,0.2,4.2-0.6,5.7-2.1l-2.8-2.9
	c-0.4,0.3-0.8,0.6-1.3,0.8c-0.5,0.2-0.9,0.2-1.4,0.2c-0.6,0-1.2-0.1-1.7-0.4c-0.4-0.3-0.8-0.7-1-1.2h9
	C54.2,274.8,54.2,274.4,54.2,274.3L54.2,274.3L54.2,274.3z M47.1,271.1c0.5,0,1,0.2,1.4,0.5c0.4,0.3,0.6,0.8,0.7,1.3H45
	c0.1-0.5,0.3-1,0.7-1.3C46.1,271.3,46.6,271.1,47.1,271.1L47.1,271.1L47.1,271.1z M60.7,281.2c1.3,0,2.5-0.2,3.7-0.6
	c0.9-0.3,1.7-0.9,2.3-1.6c0.5-0.7,0.8-1.5,0.8-2.3c0.1-0.9-0.2-1.8-0.8-2.5c-0.5-0.6-1.2-1-1.9-1.2c-0.9-0.2-1.8-0.4-2.7-0.5
	c-0.5,0-1-0.1-1.5-0.3c-0.2,0-0.4-0.2-0.5-0.5c0-0.4,0.6-0.6,1.8-0.6c1.3,0,2.6,0.3,3.8,1l1.5-3.6c-0.8-0.4-1.6-0.7-2.4-0.8
	c-1-0.2-1.9-0.3-2.9-0.3c-1.2,0-2.5,0.2-3.6,0.6c-0.9,0.3-1.7,0.9-2.3,1.6c-0.5,0.7-0.8,1.5-0.8,2.3c-0.1,0.9,0.2,1.8,0.8,2.5
	c0.5,0.6,1.2,1,2,1.2c0.9,0.2,1.8,0.4,2.7,0.5c0.5,0,1,0.1,1.5,0.2c0.2,0,0.4,0.2,0.5,0.4c0,0.2-0.2,0.4-0.4,0.5
	c-0.4,0.1-0.9,0.2-1.3,0.2c-0.8,0-1.6-0.1-2.4-0.3c-0.8-0.2-1.5-0.5-2.1-0.9l-1.5,3.6c0.8,0.4,1.7,0.8,2.6,1
	C58.5,281.1,59.6,281.2,60.7,281.2L60.7,281.2L60.7,281.2z M94.4,267.4c-0.8,0-1.7,0.2-2.4,0.5c-0.7,0.3-1.4,0.9-1.9,1.5
	c-0.4-0.7-1-1.2-1.7-1.5c-0.7-0.3-1.5-0.5-2.4-0.5c-1.4,0-2.7,0.5-3.7,1.5v-1.2h-5.1V281h5.4v-6.5c-0.1-0.7,0.1-1.3,0.5-1.9
	c0.3-0.4,0.7-0.6,1.2-0.6c1,0,1.4,0.8,1.5,2.3v6.7H91v-6.5c-0.1-0.7,0.1-1.3,0.5-1.9c0.3-0.4,0.7-0.6,1.2-0.6c1,0,1.4,0.8,1.4,2.3
	v6.7h5.4v-7.6c0.1-1.6-0.4-3.2-1.4-4.5C97.1,267.9,95.8,267.3,94.4,267.4L94.4,267.4L94.4,267.4z M107.4,267.4
	c-1.1,0-2.1,0.1-3.1,0.4c-1,0.2-1.9,0.6-2.7,1.1l1.7,3.6c0.5-0.3,1-0.6,1.5-0.8c0.6-0.2,1.2-0.3,1.8-0.3c1.5,0,2.3,0.5,2.4,1.6h-2.2
	c-1.6-0.1-3.1,0.2-4.5,1c-1,0.7-1.5,1.8-1.5,3c0,0.7,0.2,1.5,0.6,2.1c0.4,0.6,1,1.2,1.6,1.5c0.8,0.4,1.7,0.6,2.6,0.6
	c1.8,0,3.1-0.7,3.7-2v1.8h5v-7.2c0.1-1.8-0.5-3.6-1.8-4.8C111.2,267.8,109.3,267.2,107.4,267.4L107.4,267.4L107.4,267.4z
	 M107.4,277.9c-0.3,0-0.7-0.1-0.9-0.3c-0.2-0.2-0.4-0.5-0.3-0.8c0-0.7,0.5-1.1,1.6-1.1h1.3v0.9c-0.1,0.4-0.3,0.7-0.7,1
	C108.1,277.8,107.8,277.9,107.4,277.9L107.4,277.9z M126,281h6.5l-5.8-7.6l5.4-5.8h-6.3l-3.7,3.9v-8.6h-5.4V281h5.4v-3.2l0.9-1
	L126,281z M133.3,281h5.4v-13.4h-5.4V281L133.3,281z M136,266.5c0.9,0,1.7-0.2,2.4-0.8c0.6-0.5,0.9-1.3,0.9-2.1c0-0.8-0.3-1.5-0.9-2
	c-0.7-0.5-1.5-0.8-2.4-0.8c-0.9,0-1.7,0.2-2.3,0.8c-1.1,1-1.2,2.7-0.2,3.8c0.1,0.1,0.1,0.1,0.2,0.2
	C134.3,266.3,135.1,266.6,136,266.5L136,266.5L136,266.5z M149.8,267.4c-0.7,0-1.5,0.1-2.2,0.4c-0.7,0.3-1.3,0.7-1.8,1.2v-1.3h-5.1
	V281h5.4v-6.3c-0.1-0.7,0.1-1.4,0.6-2c0.4-0.4,0.9-0.7,1.5-0.6c1.1,0,1.6,0.8,1.6,2.3v6.7h5.4v-7.6c0.1-1.6-0.4-3.3-1.5-4.5
	C152.7,267.9,151.3,267.3,149.8,267.4L149.8,267.4L149.8,267.4z M166.9,267.6v1.5c-0.9-1.2-2.3-1.9-3.8-1.8c-1.1,0-2.2,0.3-3.1,0.8
	c-1,0.5-1.8,1.3-2.3,2.3c-0.6,1-0.9,2.2-0.9,3.4c0,1.2,0.3,2.4,0.9,3.4c0.5,1,1.3,1.7,2.3,2.3c0.9,0.5,2,0.8,3.1,0.8
	c1.3,0.1,2.7-0.4,3.6-1.4v0.2c0.1,0.8-0.2,1.5-0.7,2.1c-0.7,0.5-1.5,0.8-2.4,0.7c-0.8,0-1.5-0.1-2.2-0.4c-0.7-0.2-1.3-0.5-1.9-1
	l-1.8,3.8c0.9,0.6,1.9,1,2.9,1.2c1.2,0.3,2.4,0.4,3.6,0.4c2.1,0.1,4.2-0.5,5.9-1.9c1.4-1.3,2.1-3.2,2.1-5.7v-10.7L166.9,267.6
	L166.9,267.6z M164.5,276c-0.6,0-1.2-0.2-1.6-0.6c-0.9-0.9-0.9-2.2,0-3.1c0.4-0.4,1-0.6,1.6-0.6c0.6,0,1.2,0.2,1.6,0.6
	c0.4,0.4,0.7,1,0.6,1.5c0,0.6-0.2,1.1-0.6,1.6C165.6,275.8,165,276,164.5,276L164.5,276L164.5,276z M191.1,267.4
	c-1.3-0.1-2.6,0.4-3.6,1.3v-1.1h-5.1v18.1h5.4v-5.6c0.9,0.8,2.1,1.2,3.3,1.1c1.1,0,2.2-0.3,3.1-0.8c1-0.6,1.8-1.4,2.3-2.4
	c0.6-1.1,0.9-2.4,0.8-3.7c0-1.3-0.3-2.5-0.8-3.7c-0.5-1-1.3-1.9-2.3-2.4C193.3,267.7,192.2,267.4,191.1,267.4L191.1,267.4
	L191.1,267.4z M189.8,276.9c-0.6,0-1.1-0.2-1.5-0.7c-0.4-0.5-0.6-1.2-0.6-1.9c0-0.7,0.2-1.4,0.6-1.9c0.7-0.8,2-0.9,2.8-0.2
	c0.1,0.1,0.1,0.1,0.2,0.2c0.4,0.6,0.6,1.2,0.6,1.9c0,0.7-0.2,1.4-0.6,1.9C191,276.7,190.4,277,189.8,276.9L189.8,276.9L189.8,276.9z
	 M204,269.1v-1.4h-5.1V281h5.4v-5.9c0-1.9,0.9-2.9,2.8-2.9c0.4,0,0.8,0,1.2,0.1v-4.9C206.6,267.3,205,267.9,204,269.1L204,269.1z
	 M216.2,281.3c1.4,0,2.7-0.3,3.9-0.9c1.1-0.6,2-1.4,2.7-2.5c1.3-2.2,1.3-4.9,0-7.2c-0.6-1.1-1.6-1.9-2.7-2.5c-2.5-1.2-5.3-1.2-7.8,0
	c-3.4,1.8-4.7,5.9-2.9,9.3c0.1,0.1,0.1,0.2,0.2,0.3c0.7,1.1,1.6,1.9,2.7,2.5C213.5,281,214.8,281.3,216.2,281.3L216.2,281.3
	L216.2,281.3z M216.2,277c-0.6,0-1.1-0.2-1.5-0.7c-0.4-0.6-0.6-1.2-0.6-1.9c0-0.7,0.2-1.4,0.6-1.9c0.7-0.8,2-0.9,2.9-0.2
	c0.1,0.1,0.1,0.1,0.2,0.2c0.4,0.5,0.6,1.2,0.6,1.9c0,0.7-0.2,1.4-0.6,1.9C217.3,276.7,216.8,277,216.2,277L216.2,277L216.2,277z
	 M225.1,286c2.9,0.3,5.4-1.9,5.7-4.8c0-0.3,0-0.6,0-0.9v-12.7h-5.4v12.6c0,0.4-0.1,0.8-0.3,1.2c-0.2,0.2-0.5,0.4-0.8,0.4
	c-0.4,0-0.8-0.1-1.2-0.3l-1.3,3.8C222.8,285.8,223.9,286.1,225.1,286L225.1,286L225.1,286z M228.1,266.6c0.9,0,1.7-0.2,2.4-0.8
	c0.6-0.5,0.9-1.3,0.9-2.1c0-0.8-0.3-1.5-0.9-2c-0.7-0.5-1.5-0.8-2.4-0.8c-0.9,0-1.7,0.2-2.3,0.8c-1.1,1-1.2,2.7-0.2,3.8
	c0.1,0.1,0.1,0.1,0.2,0.2C226.4,266.3,227.2,266.6,228.1,266.6L228.1,266.6z M246.7,274.3c0-1.3-0.3-2.6-1-3.7
	c-0.6-1-1.5-1.8-2.6-2.4c-2.3-1.1-5.1-1.1-7.4,0.1c-1.1,0.6-2,1.4-2.6,2.5c-1.3,2.2-1.3,4.9,0,7.1c0.7,1.1,1.6,1.9,2.8,2.5
	c1.3,0.6,2.7,0.9,4.1,0.9c2.1,0.2,4.2-0.6,5.7-2.1l-2.8-2.9c-0.4,0.3-0.8,0.6-1.3,0.8c-0.5,0.2-0.9,0.2-1.4,0.2
	c-0.6,0-1.2-0.1-1.7-0.4c-0.4-0.3-0.8-0.7-1-1.2h9C246.7,274.8,246.7,274.4,246.7,274.3L246.7,274.3L246.7,274.3z M239.6,271.2
	c0.5,0,1,0.2,1.4,0.5c0.4,0.3,0.6,0.8,0.7,1.3h-4.2c0.1-0.5,0.3-1,0.7-1.3C238.6,271.3,239.1,271.2,239.6,271.2L239.6,271.2
	L239.6,271.2z M255.2,281.3c1.4,0,2.8-0.3,4.1-1c1.1-0.7,1.9-1.7,2.3-2.9l-4.2-2.1c-0.3,1-1.2,1.7-2.3,1.8c-0.6,0-1.2-0.2-1.6-0.7
	c-0.5-0.5-0.7-1.2-0.6-2c0-0.7,0.2-1.4,0.6-1.9c0.4-0.4,1-0.7,1.6-0.7c1.1,0,2,0.7,2.3,1.8l4.2-2.1c-0.4-1.2-1.2-2.2-2.3-2.9
	c-1.2-0.7-2.6-1.1-4.1-1.1c-1.4,0-2.7,0.3-4,0.9c-1.1,0.5-2.1,1.4-2.7,2.5c-0.7,1.1-1,2.3-1,3.6c0,2.6,1.4,4.9,3.7,6.1
	C252.4,281,253.8,281.3,255.2,281.3L255.2,281.3L255.2,281.3z M271.1,276.7c-0.4,0.2-0.8,0.4-1.2,0.4c-0.3,0-0.6-0.1-0.8-0.3
	c-0.2-0.3-0.3-0.6-0.3-1v-3.4h2.7v-4h-2.7v-3.7h-5.4v3.7h-1.8v4h1.8v3.4c-0.1,1.5,0.4,3,1.5,4.1c1.2,1,2.7,1.5,4.2,1.4
	c1.1,0.1,2.3-0.2,3.3-0.7L271.1,276.7z M278.6,281.3c1.3,0,2.5-0.2,3.7-0.6c0.9-0.3,1.7-0.9,2.3-1.6c0.5-0.7,0.8-1.5,0.8-2.3
	c0.1-0.9-0.2-1.8-0.8-2.5c-0.5-0.6-1.2-1-1.9-1.2c-0.9-0.2-1.8-0.4-2.7-0.5c-0.5,0-1-0.1-1.5-0.3c-0.2,0-0.4-0.2-0.5-0.5
	c0-0.4,0.6-0.6,1.8-0.6c1.3,0,2.6,0.3,3.8,1l1.5-3.6c-0.8-0.4-1.6-0.7-2.4-0.8c-1-0.2-1.9-0.3-2.9-0.3c-1.2,0-2.5,0.2-3.6,0.6
	c-0.9,0.3-1.7,0.9-2.3,1.6c-0.5,0.7-0.8,1.5-0.8,2.3c-0.1,0.9,0.2,1.8,0.8,2.5c0.5,0.6,1.2,1,2,1.2c0.9,0.2,1.8,0.4,2.7,0.5
	c0.5,0,1,0.1,1.5,0.2c0.2,0,0.4,0.2,0.5,0.4c0,0.2-0.2,0.4-0.4,0.5c-0.4,0.1-0.9,0.2-1.3,0.2c-0.8,0-1.6-0.1-2.4-0.3
	c-0.8-0.2-1.5-0.5-2.1-0.9l-1.5,3.6c0.8,0.4,1.7,0.8,2.6,1C276.4,281.2,277.5,281.3,278.6,281.3L278.6,281.3L278.6,281.3z
	 M303.3,276.7c-0.4,0.2-0.8,0.4-1.2,0.4c-0.3,0-0.6-0.1-0.8-0.3c-0.2-0.3-0.3-0.6-0.3-1v-3.4h2.7v-4H301v-3.7h-5.4v3.7h-1.8v4h1.8
	v3.4c-0.1,1.5,0.4,3,1.5,4.1c1.2,1,2.7,1.5,4.2,1.4c1.1,0.1,2.3-0.2,3.3-0.7L303.3,276.7z M314.7,267.4c-1.3,0-2.6,0.4-3.7,1.3v-5.8
	h-5.4V281h5.4v-6.3c-0.1-0.7,0.1-1.4,0.6-2c0.4-0.4,0.9-0.7,1.5-0.6c1.1,0,1.6,0.8,1.6,2.3v6.7h5.4v-7.6c0.1-1.6-0.4-3.3-1.5-4.5
	C317.6,267.9,316.2,267.4,314.7,267.4L314.7,267.4L314.7,267.4z M328,267.4c-1.1,0-2.1,0.1-3.1,0.4c-1,0.2-1.9,0.6-2.7,1.1l1.7,3.6
	c0.5-0.3,1-0.6,1.5-0.8c0.6-0.2,1.2-0.3,1.8-0.3c1.5,0,2.3,0.5,2.4,1.6h-2.2c-1.6-0.1-3.1,0.2-4.5,1c-1,0.7-1.5,1.8-1.5,3
	c0,0.7,0.2,1.5,0.6,2.1c0.4,0.6,1,1.2,1.6,1.5c0.8,0.4,1.7,0.6,2.6,0.5c1.8,0,3.1-0.7,3.7-2v1.8h5v-7.2c0.1-1.8-0.5-3.6-1.8-4.8
	C331.7,267.9,329.8,267.3,328,267.4L328,267.4L328,267.4z M327.9,278c-0.3,0-0.7-0.1-0.9-0.3c-0.2-0.2-0.4-0.5-0.3-0.8
	c0-0.7,0.5-1.1,1.6-1.1h1.3v0.9c-0.1,0.4-0.3,0.7-0.7,1C328.6,277.9,328.3,278,327.9,278L327.9,278L327.9,278z M345.4,276.8
	c-0.4,0.2-0.8,0.4-1.2,0.4c-0.3,0-0.6-0.1-0.8-0.3c-0.2-0.3-0.3-0.6-0.3-1v-3.4h2.7v-4H343v-3.7h-5.4v3.7h-1.8v4h1.8v3.4
	c-0.1,1.5,0.4,3,1.5,4.1c1.2,1,2.7,1.5,4.2,1.4c1.1,0.1,2.3-0.2,3.3-0.7L345.4,276.8z M369.9,274.4c0-1.3-0.3-2.6-1-3.7
	c-0.6-1-1.5-1.8-2.6-2.4c-2.3-1.1-5.1-1.1-7.4,0.1c-1.1,0.6-2,1.4-2.6,2.5c-1.3,2.2-1.3,4.9,0,7.1c0.7,1.1,1.6,1.9,2.8,2.5
	c1.3,0.6,2.7,0.9,4.1,0.9c2.1,0.2,4.2-0.6,5.7-2.1l-2.8-2.9c-0.4,0.3-0.8,0.6-1.3,0.8c-0.5,0.2-0.9,0.2-1.4,0.2
	c-0.6,0-1.2-0.1-1.7-0.4c-0.4-0.3-0.8-0.7-1-1.2h9C369.9,274.9,369.9,274.5,369.9,274.4L369.9,274.4L369.9,274.4z M362.8,271.2
	c0.5,0,1,0.2,1.4,0.5c0.4,0.3,0.6,0.8,0.7,1.3h-4.2c0.1-0.5,0.3-1,0.7-1.3C361.8,271.4,362.3,271.2,362.8,271.2L362.8,271.2
	L362.8,271.2z M380.4,267.5c-0.7,0-1.5,0.1-2.2,0.4c-0.7,0.3-1.3,0.7-1.8,1.2v-1.3h-5.1v13.4h5.4v-6.3c-0.1-0.7,0.1-1.4,0.6-2
	c0.4-0.4,0.9-0.7,1.5-0.6c1.1,0,1.6,0.8,1.6,2.3v6.7h5.4v-7.6c0.1-1.6-0.4-3.3-1.5-4.5C383.2,267.9,381.8,267.4,380.4,267.5
	L380.4,267.5L380.4,267.5z M397.5,267.7v1.5c-0.9-1.2-2.3-1.9-3.8-1.8c-1.1,0-2.2,0.3-3.1,0.8c-1,0.5-1.8,1.3-2.3,2.3
	c-0.6,1-0.9,2.2-0.9,3.4c0,1.2,0.3,2.4,0.9,3.4c0.5,1,1.3,1.7,2.3,2.3c0.9,0.5,2,0.8,3.1,0.8c1.3,0.1,2.7-0.4,3.6-1.4v0.2
	c0.1,0.8-0.2,1.5-0.7,2.1c-0.7,0.5-1.5,0.8-2.4,0.7c-0.8,0-1.5-0.1-2.2-0.4c-0.7-0.2-1.3-0.5-1.9-1l-1.8,3.8c0.9,0.6,1.9,1,2.9,1.2
	c1.2,0.3,2.4,0.4,3.6,0.4c2.1,0.1,4.2-0.5,5.9-1.9c1.4-1.3,2.1-3.2,2.1-5.7v-10.7L397.5,267.7L397.5,267.7z M395,276
	c-0.6,0-1.2-0.2-1.6-0.6c-0.4-0.4-0.7-1-0.6-1.6c0-0.6,0.2-1.1,0.6-1.5c0.4-0.4,1-0.6,1.6-0.6c0.6,0,1.2,0.2,1.6,0.6
	c0.4,0.4,0.7,1,0.6,1.5c0,0.6-0.2,1.1-0.6,1.6C396.2,275.8,395.6,276.1,395,276L395,276L395,276z M410.5,267.5
	c-1.1,0-2.1,0.1-3.1,0.4c-1,0.2-1.9,0.6-2.7,1.1l1.7,3.6c0.5-0.3,1-0.6,1.5-0.8c0.6-0.2,1.2-0.3,1.8-0.3c1.5,0,2.3,0.5,2.4,1.6H410
	c-1.6-0.1-3.1,0.2-4.5,1c-1,0.7-1.5,1.8-1.5,3c0,0.7,0.2,1.5,0.6,2.1c0.4,0.6,1,1.2,1.6,1.5c0.8,0.4,1.7,0.6,2.6,0.6
	c1.8,0,3.1-0.7,3.7-2v1.8h5v-7.2c0.1-1.8-0.5-3.6-1.8-4.8C414.3,267.9,412.4,267.3,410.5,267.5L410.5,267.5L410.5,267.5z M410.5,278
	c-0.3,0-0.7-0.1-0.9-0.3c-0.2-0.2-0.4-0.5-0.3-0.8c0-0.7,0.5-1.1,1.6-1.1h1.3v0.9c-0.1,0.4-0.3,0.7-0.7,1
	C411.2,277.9,410.9,278,410.5,278L410.5,278L410.5,278z M429.3,267.7v1.5c-0.9-1.2-2.3-1.9-3.8-1.8c-1.1,0-2.2,0.3-3.1,0.8
	c-1,0.5-1.8,1.3-2.3,2.3c-0.6,1-0.9,2.2-0.9,3.4c0,1.2,0.3,2.4,0.9,3.4c0.5,1,1.3,1.7,2.3,2.3c0.9,0.5,2,0.8,3.1,0.8
	c1.3,0.1,2.7-0.4,3.6-1.4v0.2c0.1,0.8-0.2,1.5-0.7,2.1c-0.7,0.5-1.5,0.8-2.4,0.7c-0.8,0-1.5-0.1-2.2-0.4c-0.7-0.2-1.3-0.5-1.9-1
	l-1.8,3.8c0.9,0.6,1.9,1,2.9,1.2c1.2,0.3,2.4,0.4,3.6,0.4c2.1,0.1,4.2-0.5,5.9-1.9c1.4-1.3,2.1-3.2,2.1-5.7v-10.7L429.3,267.7z
	 M426.9,276c-0.6,0-1.2-0.2-1.6-0.6c-0.9-0.9-0.9-2.2,0-3.1c0.4-0.4,1-0.6,1.6-0.6c0.6,0,1.2,0.2,1.6,0.6c0.4,0.4,0.7,1,0.6,1.5
	c0,0.6-0.2,1.1-0.6,1.6C428,275.8,427.5,276.1,426.9,276L426.9,276L426.9,276z M450.4,274.4c0-1.3-0.3-2.6-1-3.7
	c-0.6-1-1.5-1.8-2.6-2.4c-2.3-1.1-5.1-1.1-7.4,0.1c-1.1,0.6-2,1.4-2.6,2.5c-1.3,2.2-1.3,4.9,0,7.1c0.7,1.1,1.6,1.9,2.8,2.5
	c1.3,0.6,2.7,0.9,4.1,0.9c2.1,0.2,4.2-0.6,5.7-2.1l-2.8-2.9c-0.4,0.3-0.8,0.6-1.3,0.8c-0.5,0.2-0.9,0.2-1.4,0.2
	c-0.6,0-1.2-0.1-1.7-0.4c-0.4-0.3-0.8-0.7-1-1.2h9C450.4,274.9,450.4,274.5,450.4,274.4L450.4,274.4L450.4,274.4z M443.3,271.2
	c0.5,0,1,0.2,1.4,0.5c0.4,0.3,0.6,0.8,0.7,1.3h-4.2c0.1-0.5,0.3-1,0.7-1.3C442.3,271.4,442.8,271.2,443.3,271.2L443.3,271.2
	L443.3,271.2z M476.7,272.8l-4.3-1.3c-0.1,0.8-0.3,1.5-0.6,2.2l-1.8-1.5c0.9-0.5,1.6-1.1,2.2-1.9c0.5-0.7,0.7-1.5,0.7-2.3
	c0-0.8-0.2-1.6-0.7-2.3c-0.5-0.7-1.2-1.2-1.9-1.5c-0.9-0.4-1.9-0.5-2.9-0.5c-1.1,0-2.1,0.2-3.1,0.6c-0.8,0.3-1.6,0.9-2.1,1.6
	c-0.5,0.7-0.8,1.5-0.7,2.4c0,1.2,0.5,2.4,1.4,3.3c-1,0.5-1.8,1.2-2.4,2.1c-0.5,0.8-0.8,1.8-0.8,2.8c0,0.9,0.3,1.8,0.9,2.5
	c0.7,0.8,1.5,1.4,2.5,1.8c1.1,0.4,2.3,0.7,3.6,0.6c2,0,3.9-0.5,5.6-1.6l1.8,1.6l2.9-3.3l-1.6-1.4
	C475.9,275.5,476.4,274.2,476.7,272.8L476.7,272.8L476.7,272.8z M467.4,267.3c0.3,0,0.5,0.1,0.7,0.2c0.2,0.2,0.3,0.4,0.3,0.6
	c-0.2,0.7-0.6,1.2-1.3,1.5c-0.2-0.2-0.5-0.5-0.7-0.8c-0.1-0.2-0.2-0.4-0.2-0.6c0-0.3,0.1-0.5,0.3-0.7
	C466.8,267.3,467.1,267.2,467.4,267.3L467.4,267.3L467.4,267.3z M466.9,277.4c-0.5,0-1.1-0.1-1.5-0.4c-0.4-0.2-0.6-0.6-0.6-1.1
	c0-0.7,0.4-1.3,0.9-1.6l3,2.7C468.2,277.2,467.6,277.4,466.9,277.4L466.9,277.4z M11.6,295.6v5.7c-0.9-0.8-2.1-1.2-3.3-1.1
	c-1.1,0-2.2,0.3-3.1,0.8c-1,0.6-1.8,1.4-2.3,2.4c-1.1,2.3-1.1,5,0,7.3c0.5,1,1.3,1.9,2.3,2.4c1,0.6,2,0.9,3.1,0.8
	c1.3,0.1,2.6-0.4,3.6-1.3v1.1H17v-18.1L11.6,295.6L11.6,295.6z M9.6,309.6c-0.6,0-1.1-0.2-1.5-0.7c-0.4-0.6-0.6-1.2-0.6-1.9
	c0-0.7,0.2-1.4,0.6-1.9c0.7-0.8,2-0.9,2.9-0.2c0.1,0.1,0.1,0.1,0.2,0.2c0.4,0.5,0.6,1.2,0.6,1.9c0,0.7-0.2,1.4-0.6,1.9
	C10.8,309.4,10.2,309.6,9.6,309.6L9.6,309.6L9.6,309.6z M33,307c0-1.3-0.3-2.6-1-3.7c-0.6-1-1.5-1.8-2.6-2.4
	c-2.3-1.1-5.1-1.1-7.4,0.1c-1.1,0.6-2,1.4-2.6,2.5c-1.3,2.2-1.3,4.9,0,7.1c0.7,1.1,1.6,1.9,2.8,2.5c1.3,0.6,2.7,0.9,4.1,0.9
	c2.1,0.2,4.2-0.6,5.7-2.1l-2.8-2.9c-0.4,0.3-0.8,0.6-1.3,0.8c-0.5,0.2-0.9,0.2-1.4,0.2c-0.6,0-1.2-0.1-1.7-0.4
	c-0.4-0.3-0.8-0.7-1-1.2h9C32.9,307.5,33,307.1,33,307L33,307L33,307z M25.9,303.8c0.5,0,1,0.2,1.4,0.5c0.4,0.3,0.6,0.8,0.7,1.3
	h-4.2c0.1-0.5,0.3-1,0.7-1.3C24.9,304,25.4,303.8,25.9,303.8L25.9,303.8L25.9,303.8z M34.4,313.7h5.4v-18.1h-5.4V313.7L34.4,313.7z
	 M41.9,313.7h5.4v-13.4h-5.4V313.7L41.9,313.7z M44.6,299.3c0.9,0,1.7-0.2,2.4-0.8c0.6-0.5,0.9-1.3,0.9-2.1c0-0.8-0.3-1.5-0.9-2
	c-0.7-0.5-1.5-0.8-2.4-0.8c-0.9,0-1.7,0.2-2.3,0.8c-1.1,1-1.2,2.7-0.2,3.8c0.1,0.1,0.1,0.1,0.2,0.2C42.9,299,43.8,299.3,44.6,299.3
	L44.6,299.3z M58.8,300.3v1.5c-0.9-1.2-2.3-1.9-3.9-1.8c-1.1,0-2.2,0.3-3.1,0.8c-1,0.5-1.8,1.3-2.3,2.3c-0.6,1-0.9,2.2-0.9,3.4
	c0,1.2,0.3,2.4,0.9,3.4c0.5,1,1.3,1.7,2.3,2.3c0.9,0.5,2,0.8,3.1,0.8c1.3,0.1,2.7-0.4,3.6-1.4v0.2c0.1,0.8-0.2,1.5-0.7,2.1
	c-0.7,0.5-1.5,0.8-2.4,0.7c-0.8,0-1.5-0.1-2.2-0.4c-0.7-0.2-1.3-0.5-1.9-1l-1.8,3.8c0.9,0.6,1.9,1,2.9,1.2c1.2,0.3,2.4,0.4,3.6,0.4
	c2.1,0.1,4.2-0.5,5.9-1.9c1.4-1.3,2.1-3.2,2.1-5.7v-10.7L58.8,300.3L58.8,300.3z M56.4,308.7c-0.6,0-1.2-0.2-1.6-0.6
	c-0.9-0.9-0.9-2.2,0-3.1c0.4-0.4,1-0.6,1.6-0.6c0.6,0,1.2,0.2,1.6,0.6c0.4,0.4,0.7,1,0.6,1.5c0,0.6-0.2,1.1-0.6,1.6
	C57.6,308.5,57,308.7,56.4,308.7L56.4,308.7L56.4,308.7z M75.1,300.1c-1.3,0-2.6,0.4-3.7,1.3v-5.8h-5.4v18.1h5.4v-6.3
	c-0.1-0.7,0.1-1.4,0.6-2c0.4-0.4,0.9-0.7,1.5-0.6c1.1,0,1.6,0.8,1.6,2.3v6.7h5.4v-7.6c0.1-1.6-0.4-3.3-1.5-4.5
	C78,300.6,76.6,300,75.1,300.1L75.1,300.1L75.1,300.1z M90.8,309.4c-0.4,0.2-0.8,0.4-1.2,0.4c-0.3,0-0.6-0.1-0.8-0.3
	c-0.2-0.3-0.3-0.6-0.3-1v-3.4h2.7v-4h-2.7v-3.7h-5.4v3.7h-1.8v4h1.8v3.4c-0.1,1.5,0.4,3,1.5,4.1c1.2,1,2.7,1.5,4.2,1.4
	c1.1,0.1,2.3-0.2,3.3-0.7L90.8,309.4z M118.4,300.4v6.3c0.1,0.7-0.1,1.4-0.5,2c-0.3,0.4-0.8,0.7-1.3,0.6c-0.5,0-1-0.2-1.3-0.6
	c-0.3-0.6-0.5-1.3-0.4-2v-6.4h-5.4v7.4c-0.1,1.7,0.4,3.4,1.5,4.7c1,1.1,2.5,1.6,4,1.6c0.7,0,1.4-0.1,2-0.4c0.6-0.3,1.2-0.6,1.7-1.1
	v1.3h5.1v-13.4L118.4,300.4z M131,314c1.3,0,2.5-0.2,3.7-0.6c0.9-0.3,1.7-0.9,2.3-1.6c0.5-0.7,0.8-1.5,0.8-2.3
	c0.1-0.9-0.2-1.8-0.8-2.5c-0.5-0.6-1.2-1-1.9-1.2c-0.9-0.2-1.8-0.4-2.7-0.5c-0.5,0-1-0.1-1.5-0.3c-0.2,0-0.4-0.2-0.5-0.5
	c0-0.4,0.6-0.6,1.8-0.6c1.3,0,2.6,0.3,3.8,1l1.5-3.6c-0.8-0.4-1.6-0.7-2.4-0.8c-1-0.2-1.9-0.3-2.9-0.3c-1.2,0-2.5,0.2-3.6,0.6
	c-0.9,0.3-1.7,0.9-2.3,1.6c-0.5,0.7-0.8,1.5-0.8,2.3c-0.1,0.9,0.2,1.8,0.8,2.5c0.5,0.6,1.2,1,2,1.2c0.9,0.2,1.8,0.4,2.7,0.5
	c0.5,0.1,1,0.1,1.5,0.2c0.2,0,0.4,0.2,0.5,0.4c0,0.2-0.2,0.4-0.4,0.5c-0.4,0.1-0.9,0.2-1.3,0.2c-0.8,0-1.6-0.1-2.4-0.3
	c-0.8-0.2-1.5-0.5-2.1-0.9l-1.5,3.6c0.8,0.4,1.7,0.8,2.6,1C128.7,313.8,129.8,314,131,314L131,314L131,314z M152.9,307
	c0-1.3-0.3-2.6-1-3.7c-0.6-1-1.5-1.8-2.6-2.4c-2.3-1.1-5.1-1.1-7.4,0.1c-1.1,0.6-2,1.4-2.6,2.5c-1.3,2.2-1.3,4.9,0,7.1
	c0.7,1.1,1.6,1.9,2.8,2.5c1.3,0.6,2.7,0.9,4.1,0.9c2.1,0.2,4.2-0.6,5.7-2.1l-2.8-2.9c-0.4,0.3-0.8,0.6-1.3,0.8
	c-0.5,0.2-0.9,0.2-1.4,0.2c-0.6,0-1.2-0.1-1.7-0.4c-0.4-0.3-0.8-0.7-1-1.2h9C152.9,307.5,152.9,307.1,152.9,307L152.9,307L152.9,307
	z M145.8,303.9c0.5,0,1,0.2,1.4,0.5c0.4,0.3,0.6,0.8,0.7,1.3h-4.2c0.1-0.5,0.3-1,0.7-1.3C144.8,304,145.3,303.9,145.8,303.9
	L145.8,303.9L145.8,303.9z M159.5,301.8v-1.4h-5.1v13.4h5.4v-5.9c0-1.9,0.9-2.9,2.8-2.9c0.4,0,0.8,0,1.2,0.1v-4.9
	C162.1,300,160.5,300.6,159.5,301.8L159.5,301.8L159.5,301.8z M170,314c1.3,0,2.5-0.2,3.7-0.6c0.9-0.3,1.7-0.9,2.3-1.6
	c0.5-0.7,0.8-1.5,0.8-2.3c0.1-0.9-0.2-1.8-0.8-2.5c-0.5-0.6-1.2-1-1.9-1.2c-0.9-0.2-1.8-0.4-2.7-0.5c-0.5,0-1-0.1-1.5-0.3
	c-0.2,0-0.4-0.2-0.5-0.5c0-0.4,0.6-0.6,1.8-0.6c1.3,0,2.6,0.3,3.8,1l1.5-3.6c-0.8-0.4-1.6-0.7-2.4-0.8c-1-0.2-1.9-0.3-2.9-0.3
	c-1.2,0-2.5,0.2-3.6,0.6c-0.9,0.3-1.7,0.9-2.3,1.6c-0.5,0.7-0.8,1.5-0.8,2.3c-0.1,0.9,0.2,1.8,0.8,2.5c0.5,0.6,1.2,1,2,1.2
	c0.9,0.2,1.8,0.4,2.7,0.5c0.5,0.1,1,0.1,1.5,0.2c0.2,0,0.4,0.2,0.5,0.4c0,0.2-0.2,0.4-0.4,0.5c-0.4,0.1-0.9,0.2-1.3,0.2
	c-0.8,0-1.6-0.1-2.4-0.3c-0.8-0.2-1.5-0.5-2.1-0.9l-1.5,3.6c0.8,0.4,1.7,0.8,2.6,1C167.8,313.8,168.9,314,170,314L170,314L170,314z
	 M180.6,314c0.8,0,1.7-0.3,2.2-0.9c0.6-0.6,0.9-1.4,0.9-2.3c0-0.8-0.3-1.7-0.9-2.3c-1.3-1.2-3.2-1.2-4.5,0c-0.6,0.6-0.9,1.4-0.9,2.3
	c0,0.9,0.3,1.7,0.9,2.3C178.9,313.7,179.7,314,180.6,314L180.6,314L180.6,314z M207.8,314.1c1.5,0,2.9-0.2,4.2-0.8
	c1.1-0.4,2-1.1,2.6-2.1c0.6-0.9,0.9-1.9,0.9-2.9c0.1-1.1-0.3-2.1-1-2.9c-0.6-0.7-1.4-1.2-2.3-1.6c-1-0.4-2.1-0.6-3.2-0.8
	c-0.7-0.1-1.4-0.3-2.1-0.5c-0.4-0.1-0.6-0.4-0.6-0.8c0-0.7,0.7-1.1,2.2-1.1c1.6,0,3.2,0.5,4.6,1.3l1.7-4.2c-0.9-0.5-1.9-0.9-2.9-1.1
	c-1.1-0.3-2.2-0.4-3.4-0.4c-1.5,0-2.9,0.2-4.2,0.8c-1.1,0.4-2,1.1-2.6,2.1c-0.6,0.9-0.9,1.9-0.9,2.9c-0.1,1.1,0.3,2.1,1,2.9
	c0.6,0.7,1.4,1.2,2.2,1.6c1,0.4,2.1,0.7,3.2,0.9c0.7,0.1,1.5,0.3,2.2,0.6c0.4,0.1,0.6,0.4,0.7,0.8c0,0.3-0.2,0.6-0.5,0.7
	c-0.5,0.2-1.1,0.3-1.7,0.2c-1,0-1.9-0.2-2.8-0.4c-0.9-0.3-1.8-0.6-2.7-1.1l-1.8,4.2c1,0.6,2.1,1,3.2,1.3
	C205.1,314,206.4,314.1,207.8,314.1L207.8,314.1L207.8,314.1z M225.8,300.1c-1.3,0-2.6,0.4-3.7,1.3v-5.8h-5.4v18.1h5.4v-6.3
	c-0.1-0.7,0.1-1.4,0.6-2c0.4-0.4,0.9-0.7,1.5-0.6c1.1,0,1.6,0.8,1.6,2.3v6.7h5.4v-7.6c0.1-1.6-0.4-3.3-1.5-4.5
	C228.6,300.6,227.2,300.1,225.8,300.1L225.8,300.1L225.8,300.1z M247.3,307.1c0-1.3-0.3-2.6-1-3.7c-0.6-1-1.5-1.8-2.6-2.4
	c-2.3-1.1-5.1-1.1-7.4,0.1c-1.1,0.6-2,1.4-2.6,2.5c-1.3,2.2-1.3,4.9,0,7.1c0.7,1.1,1.6,1.9,2.8,2.5c1.3,0.6,2.7,0.9,4.1,0.9
	c2.1,0.2,4.2-0.6,5.7-2.1l-2.8-2.9c-0.4,0.3-0.8,0.6-1.3,0.8c-0.5,0.2-0.9,0.2-1.4,0.2c-0.6,0-1.2-0.1-1.7-0.4
	c-0.4-0.3-0.8-0.7-1-1.2h9C247.3,307.6,247.3,307.1,247.3,307.1L247.3,307.1L247.3,307.1z M240.2,303.9c0.5,0,1,0.2,1.4,0.5
	c0.4,0.3,0.6,0.8,0.7,1.3h-4.2c0.1-0.5,0.3-1,0.7-1.3C239.2,304.1,239.7,303.9,240.2,303.9L240.2,303.9L240.2,303.9z M272,314
	c1.4,0,2.8-0.3,4.1-1c1.1-0.7,1.9-1.7,2.3-2.9l-4.2-2.1c-0.3,1-1.2,1.7-2.3,1.8c-0.6,0-1.2-0.2-1.6-0.7c-0.5-0.5-0.7-1.2-0.6-2
	c0-0.7,0.2-1.4,0.6-1.9c0.4-0.4,1-0.7,1.6-0.7c1.1,0,2,0.7,2.3,1.8l4.2-2.1c-0.4-1.2-1.2-2.2-2.3-2.9c-1.2-0.7-2.6-1.1-4.1-1.1
	c-1.4,0-2.7,0.3-4,0.9c-1.1,0.5-2.1,1.4-2.7,2.5c-2,3.2-1,7.3,2.1,9.3c0.2,0.1,0.4,0.2,0.6,0.3C269.3,313.7,270.6,314,272,314
	L272,314L272,314z M285.5,300.2c-1.1,0-2.1,0.1-3.1,0.4c-1,0.2-1.9,0.6-2.7,1.1l1.7,3.6c0.5-0.3,1-0.6,1.5-0.8
	c0.6-0.2,1.2-0.3,1.8-0.3c1.5,0,2.3,0.5,2.4,1.6h-2.2c-1.6-0.1-3.1,0.2-4.5,1c-1,0.7-1.5,1.8-1.5,3c0,0.7,0.2,1.5,0.6,2.1
	c0.4,0.6,1,1.2,1.6,1.5c0.8,0.4,1.7,0.6,2.6,0.6c1.8,0,3.1-0.7,3.7-2v1.8h5v-7.2c0.1-1.8-0.5-3.6-1.8-4.8
	C289.2,300.6,287.3,300,285.5,300.2L285.5,300.2L285.5,300.2z M285.4,310.7c-0.3,0-0.7-0.1-0.9-0.3c-0.2-0.2-0.4-0.5-0.3-0.8
	c0-0.7,0.5-1.1,1.6-1.1h1.3v0.9c-0.1,0.4-0.3,0.7-0.7,1C286.2,310.6,285.8,310.7,285.4,310.7L285.4,310.7z M303.8,300.2
	c-0.7,0-1.5,0.1-2.2,0.4c-0.7,0.3-1.3,0.7-1.8,1.2v-1.3h-5.1v13.4h5.4v-6.3c-0.1-0.7,0.1-1.4,0.6-2c0.4-0.4,0.9-0.7,1.5-0.6
	c1.1,0,1.6,0.8,1.6,2.3v6.7h5.4v-7.6c0.1-1.6-0.4-3.3-1.5-4.5C306.7,300.6,305.3,300.1,303.8,300.2L303.8,300.2L303.8,300.2z
	 M313.9,295.4c-0.8,0-1.7,0.3-2.3,0.9c-0.6,0.6-0.9,1.4-0.9,2.3c0,0.6,0.1,1.1,0.4,1.6c0.3,0.5,0.7,0.8,1.1,1.1l-1.2,4.1h3.3
	l1.7-3.6c0.3-0.6,0.6-1.3,0.8-1.9c0.1-0.4,0.2-0.8,0.2-1.3c0-0.8-0.3-1.7-0.9-2.3C315.6,295.7,314.8,295.4,313.9,295.4L313.9,295.4
	L313.9,295.4z M327.3,309.5c-0.4,0.2-0.8,0.4-1.2,0.4c-0.3,0-0.6-0.1-0.8-0.3c-0.2-0.3-0.3-0.6-0.3-1v-3.4h2.7v-4h-2.7v-3.7h-5.4
	v3.7h-1.8v4h1.8v3.4c-0.1,1.5,0.4,3,1.5,4.1c1.2,1,2.7,1.5,4.2,1.4c1.1,0.1,2.3-0.2,3.3-0.7L327.3,309.5z M355.7,295.7v5.7
	c-0.9-0.8-2.1-1.2-3.3-1.1c-1.1,0-2.2,0.3-3.1,0.8c-1,0.6-1.8,1.4-2.3,2.4c-1.1,2.3-1.1,5,0,7.3c0.5,1,1.3,1.9,2.3,2.4
	c1,0.6,2,0.9,3.1,0.8c1.3,0.1,2.6-0.4,3.6-1.3v1.1h5.1v-18.1L355.7,295.7L355.7,295.7z M353.7,309.7c-0.6,0-1.1-0.2-1.5-0.7
	c-0.4-0.6-0.6-1.2-0.6-1.9c0-0.7,0.2-1.4,0.6-1.9c0.7-0.8,2-0.9,2.9-0.2c0.1,0.1,0.1,0.1,0.2,0.2c0.4,0.5,0.6,1.2,0.6,1.9
	c0,0.7-0.2,1.4-0.6,1.9C354.9,309.5,354.3,309.7,353.7,309.7L353.7,309.7L353.7,309.7z M368.6,301.9v-1.4h-5.1v13.4h5.4v-5.9
	c0-1.9,0.9-2.9,2.8-2.9c0.4,0,0.8,0,1.2,0.1v-4.9C371.2,300.1,369.7,300.7,368.6,301.9L368.6,301.9L368.6,301.9z M380,300.2
	c-1.1,0-2.1,0.1-3.1,0.4c-1,0.2-1.9,0.6-2.7,1.1l1.7,3.6c0.5-0.3,1-0.6,1.5-0.8c0.6-0.2,1.2-0.3,1.8-0.3c1.5,0,2.3,0.5,2.4,1.6h-2.2
	c-1.6-0.1-3.1,0.2-4.5,1c-1,0.7-1.5,1.8-1.5,3c0,0.7,0.2,1.5,0.6,2.1c0.4,0.6,1,1.2,1.6,1.5c0.8,0.4,1.7,0.6,2.6,0.6
	c1.8,0,3.1-0.7,3.7-2v1.8h5v-7.2c0.1-1.8-0.5-3.6-1.8-4.8C383.8,300.6,381.9,300.1,380,300.2L380,300.2L380,300.2z M380,310.7
	c-0.3,0-0.7-0.1-0.9-0.3c-0.2-0.2-0.4-0.5-0.3-0.8c0-0.7,0.5-1.1,1.6-1.1h1.3v0.9c-0.1,0.4-0.3,0.7-0.7,1
	C380.7,310.6,380.4,310.7,380,310.7L380,310.7z M406.6,300.4l-2.3,7.1l-2.3-7.1h-4.6l-2.3,7.1l-2.2-7.1h-5.1l4.5,13.4h5.2l2-6.2
	l2,6.2h5.2l4.5-13.4L406.6,300.4L406.6,300.4z M414.1,307.7c-0.8,0-1.7,0.3-2.3,0.9c-0.6,0.6-0.9,1.4-0.9,2.3c0,0.6,0.1,1.1,0.4,1.6
	c0.3,0.5,0.7,0.8,1.1,1.1l-1.2,4.1h3.3l1.7-3.6c0.3-0.6,0.6-1.3,0.8-1.9c0.1-0.4,0.2-0.8,0.2-1.3c0-0.8-0.3-1.7-0.9-2.3
	C415.7,308,414.9,307.7,414.1,307.7L414.1,307.7L414.1,307.7z M443.6,300.2c-1.2-0.1-2.4,0.3-3.3,1.1v-5.7h-5.4v18.1h5.1v-1.1
	c0.9,1,2.2,1.5,3.6,1.3c1.1,0,2.2-0.3,3.1-0.8c1-0.6,1.8-1.4,2.3-2.4c1.1-2.3,1.1-5,0-7.3c-0.5-1-1.3-1.8-2.3-2.4
	C445.8,300.5,444.7,300.2,443.6,300.2L443.6,300.2L443.6,300.2z M442.3,309.8c-0.6,0-1.1-0.2-1.5-0.7c-0.4-0.6-0.6-1.2-0.6-1.9
	c0-0.7,0.2-1.4,0.6-1.9c0.7-0.8,2-0.9,2.9-0.2c0.1,0.1,0.1,0.1,0.2,0.2c0.4,0.5,0.6,1.2,0.6,1.9c0,0.7-0.2,1.4-0.6,1.9
	C443.5,309.5,442.9,309.8,442.3,309.8L442.3,309.8L442.3,309.8z M460.2,300.5v6.3c0.1,0.7-0.1,1.4-0.5,2c-0.3,0.4-0.8,0.7-1.3,0.6
	c-0.5,0-1-0.2-1.3-0.6c-0.3-0.6-0.5-1.3-0.4-2v-6.4h-5.4v7.4c-0.1,1.7,0.4,3.4,1.5,4.7c1,1.1,2.5,1.6,4,1.6c0.7,0,1.4-0.1,2-0.4
	c0.6-0.3,1.2-0.6,1.7-1.1v1.3h5.1v-13.4L460.2,300.5z M476,309.5c-0.4,0.2-0.8,0.4-1.2,0.4c-0.3,0-0.6-0.1-0.8-0.3
	c-0.2-0.3-0.3-0.6-0.3-1v-3.4h2.7v-4h-2.7v-3.7h-5.4v3.7h-1.8v4h1.8v3.4c-0.1,1.5,0.4,3,1.5,4.1c1.2,1,2.7,1.5,4.2,1.4
	c1.1,0.1,2.3-0.2,3.3-0.7L476,309.5z M11.6,328.3v5.7c-0.9-0.8-2.1-1.2-3.3-1.1c-1.1,0-2.2,0.3-3.1,0.8c-1,0.6-1.8,1.4-2.3,2.4
	c-1.1,2.3-1.1,5,0,7.3c0.5,1,1.3,1.9,2.3,2.4c1,0.6,2,0.9,3.1,0.8c1.3,0.1,2.6-0.4,3.6-1.3v1.1H17v-18.1H11.6z M9.6,342.4
	c-0.6,0-1.1-0.2-1.5-0.7c-0.4-0.6-0.6-1.2-0.6-1.9c0-0.7,0.2-1.4,0.6-1.9c0.7-0.8,2-0.9,2.9-0.2c0.1,0.1,0.1,0.1,0.2,0.2
	c0.4,0.5,0.6,1.2,0.6,1.9c0,0.7-0.2,1.4-0.6,1.9C10.8,342.1,10.2,342.4,9.6,342.4L9.6,342.4L9.6,342.4z M26,346.7
	c1.4,0,2.7-0.3,3.9-0.9c1.1-0.6,2-1.4,2.7-2.5c1.3-2.2,1.3-4.9,0-7.2c-0.6-1.1-1.6-1.9-2.7-2.5c-2.5-1.2-5.3-1.2-7.8,0
	c-3.4,1.8-4.7,5.9-2.9,9.3c0.1,0.1,0.1,0.2,0.2,0.3c0.7,1.1,1.6,1.9,2.7,2.5C23.3,346.4,24.7,346.7,26,346.7L26,346.7L26,346.7z
	 M26,342.4c-0.6,0-1.1-0.2-1.5-0.7c-0.4-0.6-0.6-1.2-0.6-1.9c0-0.7,0.2-1.4,0.6-1.9c0.7-0.8,2-0.9,2.9-0.2c0.1,0.1,0.1,0.1,0.2,0.2
	c0.4,0.5,0.6,1.2,0.6,1.9c0,0.7-0.2,1.4-0.6,1.9C27.2,342.1,26.6,342.4,26,342.4L26,342.4L26,342.4z M48.8,339.7
	c0-1.3-0.3-2.6-1-3.7c-0.6-1-1.5-1.8-2.6-2.4c-2.3-1.1-5.1-1.1-7.4,0.1c-1.1,0.6-2,1.4-2.6,2.5c-1.3,2.2-1.3,4.9,0,7.1
	c0.7,1.1,1.6,1.9,2.8,2.5c1.3,0.6,2.7,0.9,4.1,0.9c2.1,0.2,4.2-0.6,5.7-2.1l-2.8-2.9c-0.4,0.3-0.8,0.6-1.3,0.8
	c-0.5,0.2-0.9,0.2-1.4,0.2c-0.6,0-1.2-0.1-1.7-0.4c-0.4-0.3-0.8-0.7-1-1.2h9C48.8,340.2,48.9,339.8,48.8,339.7L48.8,339.7
	L48.8,339.7z M41.7,336.6c0.5,0,1,0.2,1.4,0.5c0.4,0.3,0.6,0.8,0.7,1.3h-4.2c0.1-0.5,0.3-1,0.7-1.3
	C40.8,336.7,41.2,336.6,41.7,336.6L41.7,336.6L41.7,336.6z M55.4,346.7c1.3,0,2.5-0.2,3.7-0.6c0.9-0.3,1.7-0.9,2.3-1.6
	c0.5-0.7,0.8-1.5,0.8-2.3c0.1-0.9-0.2-1.8-0.8-2.5c-0.5-0.6-1.2-1-1.9-1.2c-0.9-0.2-1.8-0.4-2.7-0.5c-0.5,0-1-0.1-1.5-0.3
	c-0.2,0-0.4-0.2-0.5-0.5c0-0.4,0.6-0.6,1.8-0.6c1.3,0,2.6,0.3,3.8,1l1.5-3.6c-0.8-0.4-1.6-0.7-2.4-0.8c-1-0.2-1.9-0.3-2.9-0.3
	c-1.2,0-2.5,0.2-3.6,0.6c-0.9,0.3-1.7,0.9-2.3,1.6c-0.5,0.7-0.8,1.5-0.8,2.3c-0.1,0.9,0.2,1.8,0.8,2.5c0.5,0.6,1.2,1,2,1.2
	c0.9,0.2,1.8,0.4,2.7,0.5c0.5,0.1,1,0.1,1.5,0.2c0.2,0,0.4,0.2,0.5,0.4c0,0.2-0.2,0.4-0.4,0.5c-0.4,0.1-0.9,0.2-1.3,0.2
	c-0.8,0-1.6-0.1-2.4-0.3c-0.8-0.2-1.5-0.5-2.1-0.9l-1.5,3.6c0.8,0.4,1.7,0.8,2.6,1C53.2,346.6,54.3,346.7,55.4,346.7L55.4,346.7
	L55.4,346.7z M72.5,332.8c-0.7,0-1.5,0.1-2.2,0.4c-0.7,0.3-1.3,0.7-1.8,1.2v-1.3h-5.1v13.4h5.4v-6.3c-0.1-0.7,0.1-1.4,0.6-2
	c0.4-0.4,0.9-0.7,1.5-0.6c1.1,0,1.6,0.8,1.6,2.3v6.7h5.4v-7.6c0.1-1.6-0.4-3.3-1.5-4.5C75.4,333.3,74,332.8,72.5,332.8L72.5,332.8
	L72.5,332.8z M82.4,328.1c-0.8,0-1.7,0.3-2.3,0.9c-0.6,0.6-0.9,1.4-0.9,2.3c0,0.6,0.1,1.1,0.4,1.6c0.3,0.5,0.7,0.8,1.1,1.1l-1.2,4.1
	h3.3l1.7-3.6c0.3-0.6,0.6-1.3,0.8-1.9c0.1-0.4,0.2-0.8,0.2-1.3c0-0.8-0.3-1.7-0.9-2.3C84,328.3,83.2,328,82.4,328.1L82.4,328.1
	L82.4,328.1z M95.4,342.1c-0.4,0.2-0.8,0.4-1.2,0.4c-0.3,0-0.6-0.1-0.8-0.3c-0.2-0.3-0.3-0.6-0.3-1v-3.4h2.7v-4h-2.7v-3.7h-5.4v3.7
	H86v4h1.8v3.4c-0.1,1.5,0.4,3,1.5,4.1c1.2,1,2.7,1.5,4.2,1.4c1.1,0.1,2.3-0.2,3.3-0.7L95.4,342.1z M104.7,346.4h5.4v-18.1h-5.4
	V346.4L104.7,346.4z M126.1,339.8c0-1.3-0.3-2.6-1-3.7c-0.6-1-1.5-1.8-2.6-2.4c-2.3-1.1-5.1-1.1-7.4,0.1c-1.1,0.6-2,1.4-2.6,2.5
	c-1.3,2.2-1.3,4.9,0,7.1c0.7,1.1,1.6,1.9,2.8,2.5c1.3,0.6,2.7,0.9,4.1,0.9c2.1,0.2,4.2-0.6,5.7-2.1l-2.8-2.9
	c-0.4,0.3-0.8,0.6-1.3,0.8c-0.5,0.2-0.9,0.2-1.4,0.2c-0.6,0-1.2-0.1-1.7-0.4c-0.4-0.3-0.8-0.7-1-1.2h9
	C126.1,340.3,126.1,339.8,126.1,339.8L126.1,339.8L126.1,339.8z M119,336.6c0.5,0,1,0.2,1.4,0.5c0.4,0.3,0.6,0.8,0.7,1.3h-4.2
	c0.1-0.5,0.3-1,0.7-1.3C118,336.8,118.5,336.6,119,336.6L119,336.6L119,336.6z M135.8,342.2c-0.4,0.2-0.8,0.4-1.2,0.4
	c-0.3,0-0.6-0.1-0.8-0.3c-0.2-0.3-0.3-0.6-0.3-1v-3.4h2.7v-4h-2.7v-3.7h-5.4v3.7h-1.8v4h1.8v3.4c-0.1,1.5,0.4,3,1.5,4.1
	c1.2,1,2.7,1.5,4.2,1.4c1.1,0.1,2.3-0.2,3.3-0.7L135.8,342.2z M153.4,342.2c-0.4,0.2-0.8,0.4-1.2,0.4c-0.3,0-0.6-0.1-0.8-0.3
	c-0.2-0.3-0.3-0.6-0.3-1v-3.4h2.7v-4h-2.7v-3.7h-5.4v3.7h-1.8v4h1.8v3.4c-0.1,1.5,0.4,3,1.5,4.1c1.2,1,2.7,1.5,4.2,1.4
	c1.1,0.1,2.3-0.2,3.3-0.7L153.4,342.2z M164.8,332.9c-1.3,0-2.6,0.4-3.7,1.3v-5.8h-5.4v18.1h5.4v-6.3c-0.1-0.7,0.1-1.4,0.6-2
	c0.4-0.4,0.9-0.7,1.5-0.6c1.1,0,1.6,0.8,1.6,2.3v6.7h5.4v-7.6c0.1-1.6-0.4-3.3-1.5-4.5C167.7,333.3,166.3,332.8,164.8,332.9
	L164.8,332.9L164.8,332.9z M178.1,332.9c-1.1,0-2.1,0.1-3.1,0.4c-1,0.2-1.9,0.6-2.7,1.1l1.7,3.6c0.5-0.3,1-0.6,1.5-0.8
	c0.6-0.2,1.2-0.3,1.8-0.3c1.5,0,2.3,0.5,2.4,1.6h-2.2c-1.6-0.1-3.1,0.2-4.5,1c-1,0.7-1.5,1.8-1.5,3c0,0.7,0.2,1.5,0.6,2.1
	c0.4,0.6,1,1.2,1.6,1.5c0.8,0.4,1.7,0.6,2.6,0.6c1.8,0,3.1-0.7,3.7-2v1.8h5v-7.2c0.1-1.8-0.5-3.6-1.8-4.8
	C181.8,333.3,180,332.7,178.1,332.9L178.1,332.9L178.1,332.9z M178.1,343.4c-0.3,0-0.7-0.1-0.9-0.3c-0.2-0.2-0.4-0.5-0.3-0.8
	c0-0.7,0.5-1.1,1.6-1.1h1.3v0.9c-0.1,0.4-0.3,0.7-0.7,1C178.8,343.3,178.4,343.4,178.1,343.4L178.1,343.4L178.1,343.4z M195.5,342.2
	c-0.4,0.2-0.8,0.4-1.2,0.4c-0.3,0-0.6-0.1-0.8-0.3c-0.2-0.3-0.3-0.6-0.3-1v-3.4h2.7v-4h-2.7v-3.7h-5.4v3.7H186v4h1.8v3.4
	c-0.1,1.5,0.4,3,1.5,4.1c1.2,1,2.7,1.5,4.2,1.4c1.1,0.1,2.3-0.2,3.3-0.7L195.5,342.2z M209.9,346.7c1.3,0,2.5-0.2,3.7-0.6
	c0.9-0.3,1.7-0.9,2.3-1.6c0.5-0.7,0.8-1.5,0.8-2.3c0.1-0.9-0.2-1.8-0.8-2.5c-0.5-0.6-1.2-1-1.9-1.2c-0.9-0.2-1.8-0.4-2.7-0.5
	c-0.5-0.1-1-0.1-1.5-0.3c-0.2,0-0.4-0.2-0.5-0.5c0-0.4,0.6-0.6,1.8-0.6c1.3,0,2.6,0.3,3.8,1l1.5-3.6c-0.8-0.4-1.6-0.7-2.4-0.8
	c-1-0.2-1.9-0.3-2.9-0.3c-1.2,0-2.5,0.2-3.6,0.6c-0.9,0.3-1.7,0.9-2.3,1.6c-0.5,0.7-0.8,1.5-0.8,2.3c-0.1,0.9,0.2,1.8,0.8,2.5
	c0.5,0.6,1.2,1,2,1.2c0.9,0.2,1.8,0.4,2.7,0.5c0.5,0.1,1,0.1,1.5,0.2c0.2,0,0.4,0.2,0.5,0.4c0,0.2-0.2,0.4-0.4,0.5
	c-0.4,0.1-0.9,0.2-1.3,0.2c-0.8,0-1.6-0.1-2.4-0.3c-0.8-0.2-1.5-0.5-2.1-0.9l-1.5,3.6c0.8,0.4,1.7,0.8,2.6,1
	C207.7,346.6,208.8,346.7,209.9,346.7L209.9,346.7L209.9,346.7z M226.3,342.2c-0.4,0.2-0.8,0.4-1.2,0.4c-0.3,0-0.6-0.1-0.8-0.3
	c-0.2-0.3-0.3-0.6-0.3-1v-3.4h2.7v-4h-2.7v-3.7h-5.4v3.7h-1.8v4h1.8v3.4c-0.1,1.5,0.4,3,1.5,4.1c1.2,1,2.7,1.5,4.2,1.4
	c1.1,0.1,2.3-0.2,3.3-0.7L226.3,342.2z M235.2,346.7c1.4,0,2.7-0.3,3.9-0.9c1.1-0.6,2-1.4,2.7-2.5c1.3-2.2,1.3-4.9,0-7.2
	c-0.6-1.1-1.6-1.9-2.7-2.5c-2.5-1.2-5.3-1.2-7.8,0c-3.4,1.8-4.7,5.9-2.9,9.3c0.1,0.1,0.1,0.2,0.2,0.3c0.7,1.1,1.6,1.9,2.7,2.5
	C232.5,346.4,233.8,346.7,235.2,346.7L235.2,346.7L235.2,346.7z M235.2,342.4c-0.6,0-1.1-0.2-1.5-0.7c-0.4-0.6-0.6-1.2-0.6-1.9
	c0-0.7,0.2-1.4,0.6-1.9c0.7-0.8,2-0.9,2.9-0.2c0.1,0.1,0.1,0.1,0.2,0.2c0.4,0.5,0.6,1.2,0.6,1.9c0,0.7-0.2,1.4-0.6,1.9
	C236.3,342.2,235.8,342.4,235.2,342.4L235.2,342.4z M252.9,332.9c-1.3-0.1-2.6,0.4-3.6,1.3v-1.1h-5.1v18.1h5.4v-5.6
	c0.9,0.8,2.1,1.2,3.3,1.1c1.1,0,2.2-0.3,3.1-0.8c1-0.6,1.8-1.4,2.3-2.4c1.1-2.3,1.1-5,0-7.3c-0.5-1-1.3-1.9-2.3-2.4
	C255.1,333.2,254,332.9,252.9,332.9L252.9,332.9L252.9,332.9z M251.6,342.4c-0.6,0-1.1-0.2-1.5-0.7c-0.4-0.5-0.6-1.2-0.6-1.9
	c0-0.7,0.2-1.4,0.6-1.9c0.7-0.8,2-0.9,2.8-0.2c0.1,0.1,0.1,0.1,0.2,0.2c0.4,0.6,0.6,1.2,0.6,1.9c0,0.7-0.2,1.4-0.6,1.9
	C252.7,342.2,252.2,342.4,251.6,342.4L251.6,342.4L251.6,342.4z M276.5,332.9c-1.3,0-2.6,0.4-3.7,1.3v-5.8h-5.4v18.1h5.4v-6.3
	c-0.1-0.7,0.1-1.4,0.6-2c0.4-0.4,0.9-0.7,1.5-0.6c1.1,0,1.6,0.8,1.6,2.3v6.7h5.4v-7.6c0.1-1.6-0.4-3.3-1.5-4.5
	C279.3,333.4,277.9,332.8,276.5,332.9L276.5,332.9z M298,339.8c0-1.3-0.3-2.6-1-3.7c-0.6-1-1.5-1.8-2.6-2.4
	c-2.3-1.1-5.1-1.1-7.4,0.1c-1.1,0.6-2,1.4-2.6,2.5c-1.3,2.2-1.3,4.9,0,7.1c0.7,1.1,1.6,1.9,2.8,2.5c1.3,0.6,2.7,0.9,4.1,0.9
	c2.1,0.2,4.2-0.6,5.7-2.1l-2.8-2.9c-0.4,0.3-0.8,0.6-1.3,0.8c-0.5,0.2-0.9,0.2-1.4,0.2c-0.6,0-1.2-0.1-1.7-0.4
	c-0.4-0.3-0.8-0.7-1-1.2h9C298,340.3,298,339.9,298,339.8L298,339.8L298,339.8z M290.9,336.7c0.5,0,1,0.2,1.4,0.5
	c0.4,0.3,0.6,0.8,0.7,1.3h-4.2c0.1-0.5,0.3-1,0.7-1.3C289.9,336.8,290.4,336.6,290.9,336.7L290.9,336.7L290.9,336.7z M304.6,334.6
	v-1.4h-5.1v13.4h5.4v-5.9c0-1.9,0.9-2.9,2.8-2.9c0.4,0,0.8,0,1.2,0.1v-4.9C307.2,332.8,305.6,333.4,304.6,334.6L304.6,334.6
	L304.6,334.6z M312.2,346.8c0.8,0,1.7-0.3,2.2-0.9c0.6-0.6,0.9-1.4,0.9-2.3c0-0.8-0.3-1.7-0.9-2.3c-1.3-1.2-3.2-1.2-4.5,0
	c-0.6,0.6-0.9,1.4-0.9,2.3c0,0.9,0.3,1.7,0.9,2.3C310.6,346.5,311.4,346.8,312.2,346.8L312.2,346.8L312.2,346.8z"/>
<path id="SHE" class="st0" d="M80.7,78.6C22.4,78.6,0,90.9,0,122c0,28.8,20,40.2,65.9,40.2c0,5.8-5.6,7.7-19.4,7.7
	c-17.9,0-34.8-3.4-43.7-8.6l-2.5,50.3c21.8,3.6,43.9,5.4,66.1,5.5c57.9,0,80.1-12.3,80.1-43.9c0-29.5-19.8-41.5-63.9-41.5
	c0-5.6,5.4-7.5,18.3-7.5c16.1,0,30.9,3.2,38.5,8.2l2.3-48.2C121.8,80.3,101.3,78.5,80.7,78.6z M325.5,82.5l-77,0V124l-15.7,0V82.4
	l-77,0v130.9l77,0v-41.5l15.7,0v41.5l77,0V82.5z M476.3,82.6l-135.5-0.1v130.9l135.5,0.1v-41.7l-58.5,0v-9.9l54.4,0v-27.7l-54.4,0
	v-9.9l58.5,0L476.3,82.6L476.3,82.6z"/>
<path id="Brandi_Cameron" class="st0" d="M1.8,0.9v34.1l24.9,0C39.4,35,43,33,43,26c0-5-1.9-7.1-7.2-8.1v-0.2c4.4-1.1,6-3.2,6-7.9
	c0-6.9-3.6-9-15.8-9L1.8,0.9z M20.7,8.8c2.4,0,3.3,0.7,3.3,2.8s-0.9,2.8-3.3,2.8H20V8.8L20.7,8.8L20.7,8.8z M20.7,21.5
	c2.4,0,3.3,0.7,3.3,2.8s-0.9,2.8-3.3,2.8H20v-5.5L20.7,21.5L20.7,21.5z M66.4,3.8c-3.7-0.1-7,2.7-7.4,6.4h-0.1l-0.1-5.4l-14,0V35
	l16.3,0V24.1c0-3.6,1.3-5.4,4.7-5.4c0.9,0,1.9,0.1,2.8,0.3V4.1C67.8,3.9,67.1,3.8,66.4,3.8L66.4,3.8z M84.3,3.8
	c-4.7,0-9.4,0.4-14,1.2l0.5,13.6c2-1.2,5.7-1.9,9.6-1.9c4.9,0,7.1,1.1,7.1,3.6v0.1h-0.1c-2.5-1.1-5.2-1.6-7.9-1.6
	c-6.7,0-10,2.8-10,8.7c0,5.7,3.1,8.5,9.3,8.5c4.2,0,7.4-1.3,9.4-3.7h0.1l0.6,2.7l15.3,0c-0.4-2.2-0.5-4.4-0.5-6.7V19
	C103.8,7.7,98.8,3.8,84.3,3.8L84.3,3.8z M86.1,24.2c0.5,0,1,0.1,1.4,0.4v4.2c-0.4,0.3-0.9,0.4-1.4,0.4c-1.4,0-1.8-0.6-1.8-2.5
	S84.7,24.2,86.1,24.2L86.1,24.2z M132.5,3.8c-4.8,0-7.8,1.5-10,5h-0.1l-0.3-4l-15.5,0V35l16.2,0V16.3c0.4-0.3,1-0.4,1.5-0.4
	c1.3,0,1.7,0.7,1.7,2.6V35l16.2,0V16C142.3,7.2,139.6,3.8,132.5,3.8L132.5,3.8z M180.9,0.9l-16.3,0v5.2h-0.1
	c-2.2-1.6-4.9-2.4-7.6-2.2c-8.6,0-12.8,5.4-12.8,16.3c0,10.4,3.8,15.8,11.5,15.8c4.2,0,7.2-1.6,9.2-5h0.1l0.3,4l16,0
	c-0.4-2.2-0.5-4.4-0.5-6.7L180.9,0.9L180.9,0.9z M163.2,15.9c0.5,0,1,0.1,1.5,0.4v7.2c-0.4,0.3-0.9,0.5-1.5,0.4c-1.5,0-2-1.1-2-4
	S161.7,15.9,163.2,15.9L163.2,15.9z M200.1,12.4c-2.6,1-5.3,1.5-8.1,1.5c-2.8,0.1-5.5-0.4-8.1-1.5V35l16.2,0V12.4L200.1,12.4z
	 M232.3,0c-15.1,0-21.4,5.2-21.4,18s6.3,18,21.4,18c3.8,0,7.6-0.4,11.3-1.4l-0.6-15.2c-2.7,0.6-5.5,1-8.3,1c-3.5,0-4.9-0.6-4.9-2.3
	s1.4-2.3,4.9-2.3c2.8,0,5.6,0.3,8.3,1l0.6-15.2C240,0.5,236.2,0,232.3,0L232.3,0z M260,3.9c-4.7,0-9.4,0.4-14,1.2l0.5,13.6
	c2-1.2,5.7-1.9,9.6-1.9c4.9,0,7.1,1.1,7.1,3.6v0.1h-0.1c-2.5-1.1-5.2-1.6-7.9-1.6c-6.7,0-10,2.8-10,8.7c0,5.7,3.1,8.5,9.3,8.5
	c4.2,0,7.4-1.3,9.4-3.7h0.1l0.6,2.7l15.3,0c-0.4-2.2-0.5-4.4-0.5-6.7v-9.3C279.5,7.8,274.5,3.9,260,3.9L260,3.9z M261.8,24.3
	c0.5,0,1,0.1,1.4,0.4v4.2c-0.4,0.3-0.9,0.4-1.4,0.4c-1.4,0-1.8-0.6-1.8-2.5S260.4,24.3,261.8,24.3L261.8,24.3z M326.9,3.9
	c-4.8,0-7.8,1.5-10.2,5h-0.1c-1.2-3.4-4-5-8.7-5s-7.8,1.6-9.9,5h-0.1l-0.3-4l-15.3,0v30.2l16,0V16.4c0.5-0.3,1-0.4,1.6-0.4
	c1.2,0,1.7,0.7,1.7,2.6v16.5l16,0V16.4c0.4-0.3,1-0.4,1.5-0.4c1.3,0,1.7,0.7,1.7,2.6v16.5l16,0v-19C336.7,7.3,334,4,326.9,3.9
	L326.9,3.9z M356.8,4c-12.6,0-18.2,4.9-18.2,15.9c0,11.5,6.1,16.3,21,16.3c4.1,0,8.2-0.4,12.2-1.2l-0.5-13.2c-3,0.8-6.1,1.2-9.2,1.2
	c-4.4,0-6.2-0.6-6.4-2.5l16.9,0c0.3-1.5,0.5-3,0.4-4.5C373,7.7,367.9,4,356.8,4L356.8,4z M357.6,12.5c1.6,0,2,0.9,2,4h-4.1
	C355.6,13.4,356.1,12.5,357.6,12.5L357.6,12.5z M396.7,4c-3.7-0.1-7,2.7-7.4,6.4h-0.1L389,5l-14,0v30.2l16.3,0V24.2
	c0-3.6,1.3-5.4,4.7-5.4c0.9,0,1.9,0.1,2.8,0.3V4.2C398.2,4.1,397.4,4,396.7,4L396.7,4z M418.8,4c-13,0-18.9,5-18.9,16.1
	s5.9,16.1,18.9,16.1s18.9-5,18.9-16.1S431.8,4,418.8,4L418.8,4z M418.8,16c1.5,0,1.9,0.9,1.9,4s-0.4,4-1.9,4s-1.9-0.9-1.9-4
	S417.3,16,418.8,16L418.8,16z M465.7,4c-4.8,0-7.8,1.5-10,5h-0.1l-0.3-4l-15.5,0v30.2l16.3,0V16.5c0.4-0.3,1-0.4,1.5-0.4
	c1.3,0,1.7,0.7,1.7,2.6v16.5l16.2,0v-19C475.5,7.4,472.8,4,465.7,4L465.7,4z"/>
</svg>
