<?xml version="1.0" encoding="utf-8"?>
<!-- Generator: Adobe Illustrator 25.3.1, SVG Export Plug-In . SVG Version: 6.00 Build 0)  -->
<svg version="1.1" id="Layer_1" xmlns="http://www.w3.org/2000/svg" xmlns:xlink="http://www.w3.org/1999/xlink" x="0px" y="0px"
	 viewBox="0 0 116.3 21.1" style="enable-background:new 0 0 116.3 21.1;" xml:space="preserve">
<style type="text/css">
	.st0{fill:#1E1E1E;}
</style>
<g>
	<g>
		<path class="st0" d="M19.9,10.6v-0.1c2.6-0.6,3.5-1.9,3.5-4.6c0-4-2.1-5.2-9.3-5.2H0v19.9h14.6c7.4,0,9.6-1.2,9.6-5.2
			C24.2,12.4,23.1,11.1,19.9,10.6z M11.1,15.9h-0.5v-3.2h0.5c1.4,0,1.9,0.4,1.9,1.6C13.1,15.5,12.5,15.9,11.1,15.9z M11.1,8.5h-0.5
			V5.2h0.5c1.4,0,1.9,0.4,1.9,1.6S12.5,8.5,11.1,8.5z M33.5,6L33.5,6l-0.1-3.2h-8.2v17.7h9.6v-6.4c0-2.1,0.8-3.2,2.8-3.2
			c0.3,0,1.1,0,1.6,0.2V2.4c-0.4-0.1-1-0.1-1.3-0.1C35.9,2.3,34,3.4,33.5,6z M59.8,11.1c0-6.6-2.9-8.9-11.4-8.9
			c-2.8,0-5.8,0.3-8.2,0.7l0.3,8c1.2-0.7,3.4-1.1,5.6-1.1c2.8,0,4.1,0.7,4.1,2.1V12h-0.1c-1.1-0.6-2.8-0.9-4.6-0.9
			c-3.9,0-5.8,1.7-5.8,5.1c0,3.3,1.8,5,5.5,5c2.5,0,4.4-0.7,5.5-2.2h0.1l0.4,1.6h9c-0.2-1.2-0.3-2.2-0.3-3.9V11.1z M50.2,16.9
			c-0.2,0.2-0.5,0.2-0.8,0.2c-0.8,0-1.1-0.3-1.1-1.5c0-1.1,0.3-1.5,1.1-1.5c0.3,0,0.6,0.1,0.8,0.2V16.9z M76.6,2.3
			c-2.8,0-4.6,0.9-5.8,2.9h-0.1l-0.2-2.3h-9.1v17.7h9.5V9.6c0.3-0.2,0.6-0.3,0.9-0.3c0.7,0,1,0.4,1,1.5v9.7h9.5V9.4
			C82.3,4.2,80.7,2.3,76.6,2.3z M105,0.6h-9.5v3h-0.1c-1.1-0.9-2.6-1.3-4.4-1.3c-5,0-7.5,3.2-7.5,9.5c0,6.1,2.3,9.3,6.8,9.3
			c2.5,0,4.2-0.9,5.4-2.9h0.1l0.2,2.3h9.4c-0.2-1.2-0.3-2.2-0.3-3.9V0.6z M95.4,13.8C95.2,14,94.9,14,94.6,14
			c-0.9,0-1.2-0.6-1.2-2.4c0-1.7,0.3-2.4,1.2-2.4c0.3,0,0.6,0.1,0.9,0.3V13.8z M111.4,8.1c-1.9,0-3.4-0.3-4.8-0.9v13.3h9.5V7.3
			C114.8,7.8,113.3,8.1,111.4,8.1z"/>
	</g>
</g>
</svg>
