<svg xmlns="http://www.w3.org/2000/svg" viewBox="0 0 480 124.8" fill-rule="evenodd" fill="#1e1e1e" xmlns:v="https://vecta.io/nano"><path d="M0 2.4v82.3h60.2c30.7 0 39.5-4.8 39.5-21.5 0-12-4.6-17.2-17.5-19.5v-.6c10.6-2.6 14.6-7.8 14.6-19.1 0-16.7-8.7-21.6-38.2-21.6H0zm45.9 19.1c5.9 0 8 1.8 8 6.7s-2.1 6.7-8 6.7H44V21.5h1.9zm0 30.7c5.9 0 8 1.8 8 6.7s-2.1 6.7-8 6.7H44V52.2h1.9 0zM156.2 9.4c-8.1 0-16 4.7-17.9 15.4h-.2l-.4-13.1h-33.9v72.9h39.5V58.3c0-8.7 3.2-13.1 11.4-13.1 2.3 0 4.5.2 6.7.7V10c-1.6-.4-3.4-.6-5.2-.6h0zm43.4 0c-11.4 0-22.7 1-33.9 2.9l1.2 32.8c4.9-2.9 13.9-4.7 23.3-4.7 11.8 0 17.1 2.7 17.1 8.7v.2h-.3c-4.6-2.4-11.8-3.8-19.2-3.8-16.2 0-24.1 6.8-24.1 20.9 0 13.8 7.4 20.5 22.6 20.5 10.2 0 18-3.1 22.7-8.9h.2l1.5 6.6h37c-.9-5.3-1.3-10.7-1.2-16.1V46c.2-27.3-11.8-36.6-46.9-36.6h0zm4.2 49.3c1.2-.1 2.4.2 3.4.9v10.1c-1 .7-2.2 1-3.4.9-3.3 0-4.5-1.4-4.5-6s1.2-5.9 4.5-5.9h0zM316 9.4c-11.5 0-18.9 3.6-24.1 12h-.2l-.8-9.6h-37.5v72.9h39.3V39.5c1.1-.7 2.4-1.1 3.6-1.1 3.1 0 4.1 1.6 4.1 6.4v39.9h39.3V38.8c0-21.3-6.5-29.4-23.7-29.4h0zm117.2-7h-39.3v12.5h-.2c-4.7-3.6-10.7-5.4-18.3-5.4-20.7 0-30.9 13.1-30.9 39.4 0 25.2 9.3 38.2 27.9 38.2 10.1 0 17.5-3.9 22.3-12h.2l.8 9.6h38.7c-.9-5.3-1.3-10.7-1.2-16.1V2.4h0zm-42.8 36.1c1.3 0 2.5.3 3.5 1.1V57c-1 .7-2.3 1.1-3.5 1.1-3.6 0-4.9-2.6-4.9-9.8s1.2-9.8 4.9-9.8h0zm89-8.5c-5.4 2.4-11.9 3.5-19.6 3.5-7.6 0-14.1-1.2-19.6-3.5v54.7h39.3V30h-.1zM6.7 99c-3.8 0-5.6 1.3-5.6 4s1.8 4 5.6 4 5.6-1.3 5.6-4-1.8-4-5.6-4zm5.4 8.4c-1.7.7-3.6 1-5.5 1s-3.7-.3-5.5-1v15.2H12l.1-15.2h0zm12.9-5.7c-8.5 0-11.5 1.8-11.5 7.2 0 3.9 3.1 5.8 9.5 5.8 0 .8-.9 1.1-2.9 1.1-2.1.1-4.2-.4-6.1-1.4l-.3 8c3 .5 6.1.8 9.2.8 8.5 0 11.5-1.8 11.5-7.2 0-4.1-3-6.1-9.2-6.1 0-.8.8-1 2.8-1 1.9-.1 3.7.3 5.4 1.3l.3-7.7c-2.9-.6-5.8-.8-8.7-.8h0zm25.8 0c-3.2 0-6.3.3-9.4.8l.3 9.1c2-.9 4.2-1.4 6.5-1.3 3.3 0 4.7.8 4.7 2.4v.1h-.1c-1.7-.7-3.5-1.1-5.3-1-4.5 0-6.7 1.9-6.7 5.8 0 3.8 2.1 5.7 6.3 5.7 2.8 0 5-.8 6.3-2.5h.1l.4 1.8h10.3c-.2-1.5-.4-3-.3-4.5v-6.3c-.1-7.6-3.4-10.1-13.1-10.1h0zm1.1 13.6c.3 0 .7.1.9.3v2.8c-.3.2-.6.3-.9.3-.9 0-1.2-.4-1.2-1.7s.3-1.7 1.2-1.7h0zm40.8-15.6h-21v22.8h12.2v-4.9H92v-7.8h-8.1v-1.7h8.8v-8.4h0zm16.1 2c-2.5-.1-4.7 1.8-5 4.3h-.1l-.1-3.6h-9.4v20.2h11v-7.3c0-2.4.9-3.6 3.2-3.6.6 0 1.2.1 1.9.2v-10c-.6-.2-1.1-.3-1.5-.2zm14.8 0c-8.7 0-12.7 3.3-12.7 10.8s3.9 10.8 12.7 10.8 12.7-3.3 12.7-10.8-4-10.8-12.7-10.8zm0 8c1 0 1.3.6 1.3 2.7s-.3 2.7-1.3 2.7-1.3-.6-1.3-2.7.3-2.7 1.3-2.7h0zm31.5-8c-3.2 0-5.3 1-6.7 3.3h-.1l-.2-2.7h-10.4v20.2h10.9V110a1.93 1.93 0 0 1 1-.3c.8 0 1.1.5 1.1 1.8v11.1h10.9v-12.7c0-6-1.8-8.2-6.5-8.2h0zm19.2-2h-10.9v15c0 6.1 2.6 8.5 9.8 8.5 1.7 0 3.5-.2 5.2-.7V113c-.8.3-1.6.5-2.4.5-1.2 0-1.6-.4-1.6-1.3v-2h4v-7.9h-4l-.1-2.6h0zm15.9 8.4h-10.5v7.2h10.5v-7.2h0zm13.2-6.4c-8.5 0-12.2 3.3-12.2 10.6 0 7.7 4.1 10.9 14.1 10.9 2.7 0 5.5-.3 8.2-.8l-.3-8.9c-2 .5-4.1.8-6.2.8-3 0-4.1-.4-4.3-1.7H214c.2-1 .3-2 .3-3 0-5.4-3.4-7.9-10.9-7.9h0zm.6 5.7c1 0 1.3.6 1.4 2.7h-2.7c-.1-2.1.2-2.7 1.3-2.7h0zm29-5.7c-3.2 0-5.3 1-6.7 3.3h-.1l-.2-2.7h-10.4v20.2h10.9V110a1.93 1.93 0 0 1 1-.3c.8 0 1.1.5 1.1 1.8v11.1h10.9v-12.7c.1-6-1.7-8.2-6.5-8.2zm32.6-2h-10.9v3.5h-.1c-1.5-1.1-3.3-1.6-5.1-1.5-5.7 0-8.6 3.6-8.6 10.9 0 7 2.6 10.6 7.7 10.6 2.5.2 4.9-1.1 6.2-3.3h.1l.2 2.7h10.7c-.2-1.5-.4-3-.3-4.5V99.7h.1zm-11.9 10a1.93 1.93 0 0 1 1 .3v4.8a1.69 1.69 0 0 1-1 .3c-1 0-1.4-.7-1.4-2.7s.4-2.7 1.4-2.7h0zm19.9-10v22.8h13.1c10.8 0 14.6-2.9 14.6-11.4s-3.8-11.4-14.6-11.4h-13.1 0zm12.7 7.9c1.7 0 2.2.8 2.2 3.6s-.5 3.6-2.2 3.6h-.5v-7.1l.5-.1h0zm27.9-5.9c-8.5 0-12.2 3.3-12.2 10.6 0 7.7 4.1 10.9 14.1 10.9 2.7 0 5.5-.3 8.2-.8l-.3-8.9c-2 .5-4.1.8-6.2.8-3 0-4.1-.4-4.3-1.7h11.3c.2-1 .3-2 .3-3 0-5.4-3.4-7.9-10.9-7.9h0zm.5 5.7c1 0 1.3.6 1.4 2.7h-2.7c0-2.1.3-2.7 1.3-2.7h0zm35.3-5.1h-11.3l-.8 12.3h-.8l-.8-12.3h-11.4l3.9 20.2h17.3l3.9-20.2zm12-.6c-8.5 0-12.2 3.3-12.2 10.6 0 7.7 4.1 10.9 14.1 10.9 2.7 0 5.5-.3 8.2-.8l-.3-8.9c-2 .5-4.1.8-6.2.8-3 0-4.1-.4-4.3-1.7h11.3c.2-1 .3-2 .3-3-.1-5.4-3.5-7.9-10.9-7.9h0zm.5 5.7c1 0 1.3.6 1.4 2.7h-2.7c0-2.1.3-2.7 1.3-2.7h0zm22.6-7.7h-10.9v22.8h10.9V99.7h0zm14.1 2c-8.7 0-12.7 3.3-12.7 10.8s3.9 10.8 12.7 10.8 12.7-3.3 12.7-10.8-4-10.8-12.7-10.8h0zm0 8c1 0 1.3.6 1.3 2.7s-.3 2.7-1.3 2.7-1.3-.6-1.3-2.7.3-2.7 1.3-2.7h0zm31-8c-2.5-.2-4.9 1.1-6.2 3.3h0l-.2-2.7h-10.4v22.5h10.9v-3.1h.1c1.5 1.1 3.3 1.6 5.1 1.5 5.7 0 8.6-3.6 8.6-10.9-.1-7-2.7-10.6-7.9-10.6h0zm-5 8c1 0 1.4.7 1.4 2.7s-.4 2.7-1.4 2.7a1.93 1.93 0 0 1-1-.3V110a1.69 1.69 0 0 1 1-.3h0zm25.7-8c-8.5 0-12.2 3.3-12.2 10.6 0 7.7 4.1 10.9 14.1 10.9 2.7 0 5.5-.3 8.2-.8l-.3-8.9c-2 .5-4.1.8-6.2.8-3 0-4.1-.4-4.3-1.7h11.3c.2-1 .3-2 .3-3 0-5.4-3.5-7.9-10.9-7.9h0zm.5 5.7c1 0 1.3.6 1.4 2.7H450c.1-2.1.4-2.7 1.4-2.7h0zm26.2-5.7c-2.5-.1-4.7 1.8-5 4.3h-.1l-.1-3.6H463v20.2h11v-7.3c0-2.4.9-3.6 3.2-3.6.6 0 1.2.1 1.9.2v-10c-.5-.2-1-.3-1.5-.2h0z"/></svg>