<svg xmlns="http://www.w3.org/2000/svg" viewBox="0 0 480 220.4" fill-rule="evenodd" fill="#1e1e1e" xmlns:v="https://vecta.io/nano"><path d="M0 2.4v82.3h60.2c30.7 0 39.5-4.8 39.5-21.5 0-12-4.6-17.2-17.5-19.5v-.6c10.6-2.6 14.6-7.8 14.6-19.1 0-16.7-8.7-21.6-38.2-21.6H0zm45.9 19.1c5.9 0 8 1.8 8 6.7s-2.1 6.7-8 6.7H44V21.5h1.9zm0 30.7c5.9 0 8 1.8 8 6.7s-2.1 6.7-8 6.7H44V52.2h1.9 0zM156.2 9.4c-8.1 0-16 4.7-17.9 15.4h-.2l-.4-13.1h-33.9v72.9h39.5V58.3c0-8.7 3.2-13.1 11.4-13.1 2.3 0 4.5.2 6.7.7V10c-1.6-.4-3.4-.6-5.2-.6h0zm43.4 0c-11.4 0-22.7 1-33.9 2.9l1.2 32.8c4.9-2.9 13.9-4.7 23.3-4.7 11.8 0 17.1 2.7 17.1 8.7v.2h-.3c-4.6-2.4-11.8-3.8-19.2-3.8-16.2 0-24.1 6.8-24.1 20.9 0 13.8 7.4 20.5 22.6 20.5 10.2 0 18-3.1 22.7-8.9h.2l1.5 6.6h37c-.9-5.3-1.3-10.7-1.2-16.1V46c.2-27.3-11.8-36.6-46.9-36.6h0zm4.2 49.3c1.2-.1 2.4.2 3.4.9v10.1c-1 .7-2.2 1-3.4.9-3.3 0-4.5-1.4-4.5-6s1.2-5.9 4.5-5.9h0zM316 9.4c-11.5 0-18.9 3.6-24.1 12h-.2l-.8-9.6h-37.5v72.9h39.3V39.5c1.1-.7 2.4-1.1 3.6-1.1 3.1 0 4.1 1.6 4.1 6.4v39.9h39.3V38.8c0-21.3-6.5-29.4-23.7-29.4h0zm117.2-7h-39.3v12.5h-.2c-4.7-3.6-10.7-5.4-18.3-5.4-20.7 0-30.9 13.1-30.9 39.4 0 25.2 9.3 38.2 27.9 38.2 10.1 0 17.5-3.9 22.3-12h.2l.8 9.6h38.7c-.9-5.3-1.3-10.7-1.2-16.1V2.4h0zm-42.8 36.1c1.3 0 2.5.3 3.5 1.1V57c-1 .7-2.3 1.1-3.5 1.1-3.6 0-4.9-2.6-4.9-9.8s1.2-9.8 4.9-9.8h0zm89-8.5c-5.4 2.4-11.9 3.5-19.6 3.5-7.6 0-14.1-1.2-19.6-3.5v54.7h39.3l-.1-54.7h0zM11.2 101c-6.9 0-10.1 2.3-10.1 7.2s3.3 7.2 10.1 7.2 10.1-2.3 10.1-7.2-3.2-7.2-10.1-7.2zm9.8 15.2c-3.1 1.3-6.5 1.8-9.9 1.8s-6.7-.5-9.9-1.8v27.4h19.7l.1-27.4h0zm23.3-10.3c-15.3 0-20.8 3.3-20.8 13 0 7 5.6 10.5 17.2 10.5 0 1.4-1.6 2-5.2 2-3.8.2-7.6-.7-11-2.5l-.5 14.4c5.4.9 11 1.4 16.6 1.4 15.3 0 20.8-3.3 20.8-13 0-7.4-5.4-11-16.6-11 0-1.4 1.4-1.8 5.1-1.8 3.4-.2 6.7.5 9.8 2.3l.5-13.9c-5.5-1.1-10.7-1.4-15.9-1.4h0zm46.5 0c-5.8 0-11.4.5-17 1.4l.5 16.4c3.6-1.6 7.6-2.5 11.7-2.3 6 0 8.5 1.4 8.5 4.3v.2h-.2c-3.1-1.3-6.3-2-9.6-1.8-8.1 0-12.1 3.4-12.1 10.5 0 6.9 3.8 10.3 11.4 10.3 5.1 0 9-1.4 11.4-4.5h.2l.7 3.3H115c-.4-2.7-.7-5.4-.5-8.1v-11.4c-.2-13.8-6.1-18.3-23.7-18.3h0zm2 24.5c.5 0 1.3.2 1.6.5v5.1c-.5.4-1.1.5-1.6.5-1.6 0-2.2-.7-2.2-3.1.1-2.2.6-3 2.2-3h0zm73.7-28.1h-37.9v41.2h22v-8.8h14.6v-14.1h-14.6v-3.1h15.9v-15.2h0zm29.1 3.6c-4.5-.2-8.5 3.3-9 7.8h-.2l-.2-6.5h-17v36.5h19.9v-13.2c0-4.3 1.6-6.5 5.8-6.5 1.1 0 2.2.2 3.4.4v-18.1c-1.1-.4-2-.6-2.7-.4zm26.7 0c-15.7 0-22.9 6-22.9 19.5s7 19.5 22.9 19.5 22.9-6 22.9-19.5-7.2-19.5-22.9-19.5zm0 14.4c1.8 0 2.3 1.1 2.3 4.9s-.5 4.9-2.3 4.9-2.3-1.1-2.3-4.9.5-4.9 2.3-4.9h0zm56.9-14.4c-5.8 0-9.6 1.8-12.1 6h-.2l-.4-4.9h-18.8v36.5h19.7v-22.6c.5-.4 1.3-.5 1.8-.5 1.4 0 2 .9 2 3.3v20h19.7v-22.9c0-11-3.2-14.9-11.7-14.9h0zm34.7-3.6h-19.7v27.1c0 11 4.7 15.3 17.7 15.3 3.1 0 6.3-.4 9.4-1.3v-17.2c-1.4.5-2.9.9-4.3.9-2.2 0-2.9-.7-2.9-2.3v-3.6h7.2V107H314l-.1-4.7h0zm28.7 15.1h-19v13h19v-13h0zm23.8-11.5c-15.3 0-22 6-22 19.1 0 13.9 7.4 19.7 25.5 19.7 4.9 0 9.9-.5 14.8-1.4l-.5-16.1c-3.6.9-7.4 1.4-11.2 1.4-5.4 0-7.4-.7-7.8-3.1h20.4c.4-1.8.5-3.6.5-5.4 0-9.7-6.1-14.2-19.7-14.2h0zm1.1 10.3c1.8 0 2.3 1.1 2.5 4.9h-4.9c-.1-3.8.4-4.9 2.4-4.9h0zm52.4-10.3c-5.8 0-9.6 1.8-12.1 6h-.2l-.4-4.9h-18.8v36.5h19.7v-22.6c.5-.4 1.3-.5 1.8-.5 1.4 0 2 .9 2 3.3v20h19.7v-22.9c.2-11-3.1-14.9-11.7-14.9zm58.8-3.6H459v6.3h-.2a14.03 14.03 0 0 0-9.2-2.7c-10.3 0-15.5 6.5-15.5 19.7 0 12.6 4.7 19.1 13.9 19.1 4.5.4 8.8-2 11.2-6h.2l.4 4.9h19.3c-.4-2.7-.7-5.4-.5-8.1v-33.2h.1zm-21.5 18c.5 0 1.3.2 1.8.5v8.7c-.5.4-1.1.5-1.8.5-1.8 0-2.5-1.3-2.5-4.9 0-3.5.7-4.8 2.5-4.8h0zM1.1 162v53h30.5c25.1 0 34-6.7 34-26.5s-8.8-26.5-34-26.5H1.1h0zm29.5 18.4c4 0 5.1 1.9 5.1 8.4s-1.2 8.4-5.1 8.4h-1.2v-16.5l1.2-.3h0zm64.9-13.7c-19.8 0-28.4 7.7-28.4 24.7 0 17.9 9.5 25.4 32.8 25.4 6.3 0 12.8-.7 19.1-1.9l-.7-20.7c-4.7 1.2-9.5 1.9-14.4 1.9-7 0-9.5-.9-10-4h26.3c.5-2.3.7-4.7.7-7 0-12.6-7.9-18.4-25.4-18.4h0zm1.2 13.2c2.3 0 3 1.4 3.3 6.3h-6.3c0-4.9.7-6.3 3-6.3h0zm82.1-11.8h-26.3l-1.9 28.6h-1.9l-1.9-28.6h-26.5l9.1 47h40.2l9.2-47zm27.9-1.4c-19.8 0-28.4 7.7-28.4 24.7 0 17.9 9.5 25.4 32.8 25.4 6.3 0 12.8-.7 19.1-1.9l-.7-20.7c-4.7 1.2-9.5 1.9-14.4 1.9-7 0-9.5-.9-10-4h26.3c.5-2.3.7-4.7.7-7-.3-12.6-8.2-18.4-25.4-18.4h0zm1.2 13.2c2.3 0 3 1.4 3.3 6.3h-6.3c0-4.9.7-6.3 3-6.3h0zm52.6-17.9h-25.4v53h25.4v-53h0zm32.7 4.7c-20.2 0-29.5 7.7-29.5 25.1s9.1 25.1 29.5 25.1c20.5 0 29.5-7.7 29.5-25.1s-9.2-25.1-29.5-25.1h0zm0 18.6c2.3 0 3 1.4 3 6.3s-.7 6.3-3 6.3-3-1.4-3-6.3.7-6.3 3-6.3h0zm72.2-18.6c-5.8-.5-11.4 2.6-14.4 7.7h0l-.5-6.3h-24.2v52.3h25.4v-7.2h.2c3.5 2.6 7.7 3.7 11.9 3.5 13.3 0 20-8.4 20-25.4-.3-16.3-6.3-24.6-18.4-24.6h0zm-11.7 18.6c2.3 0 3.3 1.6 3.3 6.3s-.9 6.3-3.3 6.3c-.7 0-1.6-.2-2.3-.7V186c.7-.5 1.4-.7 2.3-.7h0zm59.8-18.6c-19.8 0-28.4 7.7-28.4 24.7 0 17.9 9.5 25.4 32.8 25.4 6.3 0 12.8-.7 19.1-1.9l-.7-20.7c-4.7 1.2-9.5 1.9-14.4 1.9-7 0-9.5-.9-10-4h26.3c.5-2.3.7-4.7.7-7 0-12.6-8.2-18.4-25.4-18.4h0zm1.2 13.2c2.3 0 3 1.4 3.3 6.3h-6.5c.1-4.9.8-6.3 3.2-6.3h0zm60.9-13.2c-5.8-.2-10.9 4.2-11.6 10h-.2l-.2-8.4h-21.9v47h25.6v-17c0-5.6 2.1-8.4 7.4-8.4 1.4 0 2.8.2 4.4.5v-23.3c-1.2-.4-2.3-.7-3.5-.4h0z"/></svg>