<?xml version="1.0" encoding="utf-8"?>
<!-- Generator: Adobe Illustrator 25.3.1, SVG Export Plug-In . SVG Version: 6.00 Build 0)  -->
<svg version="1.1" id="Group_12_copy_4" xmlns="http://www.w3.org/2000/svg" xmlns:xlink="http://www.w3.org/1999/xlink" x="0px"
	 y="0px" viewBox="0 0 478 117.8" style="enable-background:new 0 0 478 117.8;" xml:space="preserve">
<style type="text/css">
	.st0{fill-rule:evenodd;clip-rule:evenodd;fill:#1E1E1E;}
	.st1{fill:#1E1E1E;}
</style>
<path id="Brandi_Cameron" class="st0" d="M0,0.2v82.2h60c30.6,0,39.3-4.8,39.3-21.7c0-12.1-4.6-17.1-17.4-19.5v-0.5
	c10.6-2.7,14.5-7.7,14.5-19C96.4,5.1,87.7,0,58.3,0L0,0.2z M45.6,19.3c5.8,0,8,1.7,8,6.7s-2.2,6.7-8,6.7h-1.7V19.3H45.6L45.6,19.3z
	 M45.6,49.9c5.8,0,8,1.7,8,6.7s-2.2,6.7-8,6.7h-1.7V50.1L45.6,49.9L45.6,49.9z M155.7,7.2c-8.9-0.2-16.9,6.5-17.8,15.4h-0.2l-0.2-13
	h-33.7v72.8h39.3V56.2c0-8.7,3.1-13,11.3-13c2.2,0,4.6,0.2,6.7,0.7V8C159.1,7.5,157.4,7.2,155.7,7.2L155.7,7.2z M198.9,7.2
	c-11.3,0-22.7,1-33.7,2.9l1.2,32.8c4.8-2.9,13.7-4.6,23.1-4.6c11.8,0,17.1,2.7,17.1,8.7v0.2h-0.2c-6-2.7-12.5-3.9-19-3.9
	c-16.2,0-24.1,6.7-24.1,21c0,13.7,7.5,20.5,22.4,20.5c10.1,0,17.8-3.1,22.7-8.9h0.2l1.4,6.5h36.9c-1-5.3-1.2-10.6-1.2-16.2V43.9
	C245.9,16.6,233.8,7.2,198.9,7.2L198.9,7.2z M203.2,56.4c1.2,0,2.4,0.2,3.4,1v10.1c-1,0.7-2.2,1-3.4,1c-3.4,0-4.3-1.4-4.3-6
	S199.8,56.4,203.2,56.4L203.2,56.4z M315.1,7.2c-11.6,0-18.8,3.6-24.1,12.1h-0.2L290,9.6h-37.4v72.8h39v-45c1-0.7,2.4-1,3.6-1
	c3.1,0,4.1,1.7,4.1,6.3v39.8h39V36.6C338.7,15.4,332.2,7.2,315.1,7.2L315.1,7.2z M431.7,0.2h-39.3v12.5h-0.2
	c-5.3-3.9-11.8-5.8-18.3-5.3c-20.7,0-30.9,13-30.9,39.3c0,25.1,9.2,38.1,27.7,38.1c10.1,0,17.4-3.9,22.2-12.1h0.2l0.7,9.6h38.6
	c-1-5.3-1.2-10.6-1.2-16.2L431.7,0.2L431.7,0.2z M389.1,36.4c1.2,0,2.4,0.2,3.6,1v17.4c-1,0.7-2.2,1.2-3.6,1c-3.6,0-4.8-2.7-4.8-9.6
	S385.4,36.4,389.1,36.4L389.1,36.4z M478,28c-6.3,2.4-12.8,3.6-19.5,3.6c-6.7,0.2-13.3-1-19.5-3.6v54.5h39V28L478,28z"/>
<g>
	<g>
		<path class="st1" d="M0.2,100.3v15.2h10.9v-15.2c-1.5,0.7-3.3,1-5.5,1C3.5,101.3,1.7,101,0.2,100.3z M5.6,92c-3.8,0-5.6,1.3-5.6,4
			c0,2.7,1.8,4,5.6,4c3.8,0,5.6-1.3,5.6-4C11.2,93.3,9.4,92,5.6,92z M24.1,102.9c0-0.8,0.8-1,2.8-1c2.3,0,4.3,0.5,5.4,1.3l0.3-7.7
			c-2.9-0.6-5.8-0.8-8.6-0.8c-8.5,0-11.5,1.8-11.5,7.2c0,3.9,3.1,5.8,9.5,5.8c0,0.8-0.9,1.1-2.9,1.1c-2.5,0-4.9-0.6-6.1-1.4l-0.3,8
			c3.5,0.6,6.6,0.8,9.2,0.8c8.5,0,11.5-1.8,11.5-7.2C33.3,104.9,30.2,102.9,24.1,102.9z M62.7,104.8c0-7.6-3.3-10.1-13.1-10.1
			c-3.3,0-6.6,0.3-9.4,0.8l0.3,9.1c1.4-0.8,3.9-1.3,6.5-1.3c3.3,0,4.7,0.8,4.7,2.4v0.1h-0.1c-1.3-0.7-3.3-1-5.3-1
			c-4.5,0-6.7,1.9-6.7,5.8c0,3.8,2.1,5.7,6.3,5.7c2.8,0,5-0.8,6.3-2.5h0.1l0.4,1.8h10.3c-0.2-1.3-0.3-2.5-0.3-4.5V104.8z
			 M51.8,111.4c-0.3,0.2-0.6,0.3-0.9,0.3c-0.9,0-1.2-0.4-1.2-1.7s0.3-1.7,1.2-1.7c0.4,0,0.7,0.1,0.9,0.3V111.4z M70.6,115.5h12.2
			v-4.9h8.1v-7.8h-8.1v-1.7h8.8v-8.4h-21V115.5z M102.7,98.9L102.7,98.9l-0.2-3.6h-9.4v20.2h11v-7.3c0-2.4,0.9-3.6,3.2-3.6
			c0.4,0,1.3,0,1.9,0.2v-10c-0.5-0.1-1.1-0.2-1.5-0.2C105.4,94.6,103.2,95.9,102.7,98.9z M122.5,94.6c-8.7,0-12.7,3.3-12.7,10.8
			c0,7.4,3.9,10.8,12.7,10.8c8.7,0,12.7-3.3,12.7-10.8C135.2,98,131.2,94.6,122.5,94.6z M122.5,108.1c-1,0-1.3-0.6-1.3-2.7
			c0-2.1,0.3-2.7,1.3-2.7s1.3,0.6,1.3,2.7C123.8,107.5,123.5,108.1,122.5,108.1z M154,94.6c-3.2,0-5.3,1-6.7,3.3h-0.1l-0.2-2.7
			h-10.4v20.2h10.9V103c0.3-0.2,0.7-0.3,1-0.3c0.8,0,1.1,0.5,1.1,1.8v11.1h10.9v-12.7C160.6,96.9,158.8,94.6,154,94.6z M173.2,92.7
			h-10.9v15c0,6.1,2.6,8.5,9.8,8.5c1.9,0,3.1-0.2,5.2-0.7v-9.5c-0.8,0.3-1.6,0.5-2.4,0.5c-1.2,0-1.6-0.4-1.6-1.3v-2h4v-7.9h-4V92.7z
			 M178.6,108.4h10.5v-7.2h-10.5V108.4z M202.3,94.6c-8.5,0-12.2,3.3-12.2,10.6c0,7.7,4.1,10.9,14.1,10.9c3,0,5.7-0.3,8.2-0.8
			l-0.3-8.9c-2.2,0.6-3.9,0.8-6.2,0.8c-3,0-4.1-0.4-4.3-1.7h11.3c0.2-0.5,0.3-2,0.3-3C213.2,97.2,209.8,94.6,202.3,94.6z
			 M201.5,103.1c0-2.1,0.3-2.7,1.4-2.7c1,0,1.3,0.6,1.4,2.7H201.5z M232,94.6c-3.2,0-5.3,1-6.7,3.3h-0.1l-0.2-2.7h-10.4v20.2h10.9
			V103c0.3-0.2,0.7-0.3,1-0.3c0.8,0,1.1,0.5,1.1,1.8v11.1h10.9v-12.7C238.5,96.9,236.7,94.6,232,94.6z M264.5,92.7h-10.9v3.5h-0.1
			c-1.3-1-3-1.5-5.1-1.5c-5.7,0-8.6,3.6-8.6,10.9c0,7,2.6,10.6,7.7,10.6c2.8,0,4.9-1.1,6.2-3.3h0.1l0.2,2.7h10.7
			c-0.2-1.3-0.3-2.5-0.3-4.5V92.7z M253.6,107.8c-0.3,0.2-0.6,0.3-1,0.3c-1,0-1.4-0.7-1.4-2.7s0.4-2.7,1.4-2.7c0.4,0,0.7,0.1,1,0.3
			V107.8z M285.6,92.7h-13.1v22.8h13.1c10.8,0,14.6-2.9,14.6-11.4S296.4,92.7,285.6,92.7z M285.2,107.7h-0.5v-7.1h0.5
			c1.7,0,2.2,0.8,2.2,3.6S286.9,107.7,285.2,107.7z M313.1,94.6c-8.5,0-12.2,3.3-12.2,10.6c0,7.7,4.1,10.9,14.1,10.9
			c3,0,5.7-0.3,8.2-0.8l-0.3-8.9c-2.2,0.6-3.9,0.8-6.2,0.8c-3,0-4.1-0.4-4.3-1.7h11.3c0.2-0.5,0.3-2,0.3-3
			C324,97.2,320.6,94.6,313.1,94.6z M312.3,103.1c0-2.1,0.3-2.7,1.4-2.7c1,0,1.3,0.6,1.4,2.7H312.3z M337.6,95.3l-0.8,12.3H336
			l-0.8-12.3h-11.4l3.9,20.2H345l3.9-20.2H337.6z M360.9,94.6c-8.5,0-12.2,3.3-12.2,10.6c0,7.7,4.1,10.9,14.1,10.9
			c3,0,5.7-0.3,8.2-0.8l-0.3-8.9c-2.2,0.6-3.9,0.8-6.2,0.8c-3,0-4.1-0.4-4.3-1.7h11.3c0.2-0.5,0.3-2,0.3-3
			C371.8,97.2,368.3,94.6,360.9,94.6z M360,103.1c0-2.1,0.3-2.7,1.4-2.7c1,0,1.3,0.6,1.4,2.7H360z M373.1,115.5H384V92.7h-10.9
			V115.5z M398.1,94.6c-8.7,0-12.7,3.3-12.7,10.8c0,7.4,3.9,10.8,12.7,10.8c8.7,0,12.7-3.3,12.7-10.8
			C410.8,98,406.8,94.6,398.1,94.6z M398.1,108.1c-1,0-1.3-0.6-1.3-2.7c0-2.1,0.3-2.7,1.3-2.7c1,0,1.3,0.6,1.3,2.7
			C399.4,107.5,399.1,108.1,398.1,108.1z M429.1,94.6c-2.8,0-4.9,1.1-6.2,3.3h-0.1l-0.2-2.7h-10.4v22.5h10.9v-3.1h0.1
			c1.3,1,3,1.5,5.1,1.5c5.7,0,8.6-3.6,8.6-10.9C436.9,98.3,434.3,94.6,429.1,94.6z M424.1,108.1c-0.4,0-0.7-0.1-1-0.3V103
			c0.3-0.2,0.6-0.3,1-0.3c1,0,1.4,0.7,1.4,2.7S425.1,108.1,424.1,108.1z M449.8,94.6c-8.5,0-12.2,3.3-12.2,10.6
			c0,7.7,4.1,10.9,14.1,10.9c3,0,5.7-0.3,8.2-0.8l-0.3-8.9c-2.2,0.6-3.9,0.8-6.2,0.8c-3,0-4.1-0.4-4.3-1.7h11.3c0.2-0.5,0.3-2,0.3-3
			C460.7,97.2,457.2,94.6,449.8,94.6z M448.9,103.1c0-2.1,0.3-2.7,1.4-2.7c1,0,1.3,0.6,1.4,2.7H448.9z M476.5,94.6
			c-2.3,0-4.4,1.3-5,4.3h-0.1l-0.1-3.6H462v20.2h11v-7.3c0-2.4,0.9-3.6,3.2-3.6c0.4,0,1.3,0,1.9,0.2v-10
			C477.5,94.7,476.9,94.6,476.5,94.6z"/>
	</g>
</g>
</svg>
