<svg xmlns="http://www.w3.org/2000/svg" width="16.188" height="16.5" xmlns:v="https://vecta.io/nano"><path d="M7.325 10.22a1.08 1.08 0 0 1-.761-.32c-.426-.423-.43-1.111-.01-1.54L14.186.59a1.09 1.09 0 0 1 1.532-.01c.425.428.429 1.117.009 1.55L8.096 9.89a1.07 1.07 0 0 1-.771.33zm7.773-3.43a1.09 1.09 0 0 1-1.083-1.09V2.19h-3.521a1.09 1.09 0 1 1 0-2.18h4.6a1.09 1.09 0 0 1 1.084 1.09v4.6a1.09 1.09 0 0 1-1.084 1.09zm-1.827 9.7H1.094A1.09 1.09 0 0 1 .01 15.4V3.15a1.09 1.09 0 0 1 1.084-1.09h6.328a1.09 1.09 0 0 1 0 2.18H2.177v10.07h10.015V9.04c-.012-.395.192-.765.532-.966s.763-.201 1.103 0 .544.571.532.966v6.36c.001.289-.113.566-.317.77a1.06 1.06 0 0 1-.771.32z" fill="#1e1e1e" fill-rule="evenodd"/></svg>