<svg xmlns="http://www.w3.org/2000/svg" width="425" height="425" viewBox="0 0 425 425">
  <defs>
    <style>
      .cls-1 {
        fill: #fec11d;
        fill-rule: evenodd;
      }
    </style>
  </defs>
  <path id="rays" class="cls-1" d="M933.214,3495q-6.848,0-13.6.42l13.849,211.73h-0.036l-41.4-208.12a207.9,207.9,0,0,0-26.846,7.19l68.215,200.96h-0.036L839.5,3516.88a214.187,214.187,0,0,0-24.049,13.92l117.871,176.42a0.034,0.034,0,0,0-.036.03l-139.9-159.52a209.751,209.751,0,0,0-19.657,19.66l159.523,139.9a0.031,0.031,0,0,1-.035.03l-176.453-117.9a215.262,215.262,0,0,0-13.919,24.08l190.336,93.86v0.03l-200.962-68.21a211.907,211.907,0,0,0-7.154,26.85l208.081,41.4v0.03l-211.694-13.88a220.641,220.641,0,0,0-.035,27.8l211.729-13.84v0.03l-208.116,41.4a206.13,206.13,0,0,0,7.189,26.85l200.962-68.21v0.03l-190.3,93.86a213.926,213.926,0,0,0,13.92,24.05l176.417-117.87a0.031,0.031,0,0,0,.035.03l-159.523,139.9a214.678,214.678,0,0,0,19.657,19.66l139.9-159.52a0.033,0.033,0,0,1,.035.03L815.416,3884.23a214.726,214.726,0,0,0,24.085,13.92l93.857-190.33h0.036l-68.215,200.96a211.036,211.036,0,0,0,26.847,7.15l41.4-208.08h0.036l-13.884,211.69q7.146,0.465,14.2.46,6.846,0,13.6-.42l-13.849-211.73h0.036l41.4,208.12a207.845,207.845,0,0,0,26.845-7.19l-68.214-200.96h0.036l93.858,190.3a215.005,215.005,0,0,0,24.05-13.92L933.677,3707.78a0.033,0.033,0,0,0,.035-0.03l139.9,159.52a214.584,214.584,0,0,0,19.66-19.66l-159.522-139.9a0.031,0.031,0,0,1,.035-0.03l176.457,117.9a217.146,217.146,0,0,0,13.92-24.08l-190.341-93.86v-0.03l200.961,68.21a212.43,212.43,0,0,0,7.16-26.85l-208.086-41.4v-0.03l211.7,13.84a220.441,220.441,0,0,0,.03-27.8l-211.726,13.88v-0.03l208.116-41.4a205.974,205.974,0,0,0-7.19-26.85l-200.961,68.21v-0.03l190.3-93.86a213.467,213.467,0,0,0-13.92-24.05L933.783,3707.32a0.031,0.031,0,0,0-.035-0.03l159.522-139.9a214.584,214.584,0,0,0-19.66-19.66l-139.9,159.52a0.033,0.033,0,0,1-.035-0.03l117.9-176.45a214.035,214.035,0,0,0-24.08-13.92l-93.858,190.33h-0.036l68.214-200.96a212.687,212.687,0,0,0-26.845-7.15l-41.4,208.08h-0.036l13.884-211.69q-7.146-.465-14.2-0.46" transform="translate(-721 -3495)"/>
</svg>
