<svg xmlns="http://www.w3.org/2000/svg" width="1051.436" height="279.28" xmlns:v="https://vecta.io/nano"><path d="M171.965 23.29c-26.663 0-52.554 15.52-58.736 50.81h-.773l-1.16-43.05H.006v240.49h129.839v-86.89c0-28.7 10.433-43.05 37.483-43.05 4.637 0 15.457.38 22.026 2.32V25.23c-5.41-1.55-13.138-1.94-17.389-1.94zm316.083 7.76H358.982V180a21.7 21.7 0 0 1-11.979 3.49c-10.047 0-13.525-5.43-13.525-20.95V31.05H204.412v151.27c0 70.21 21.253 96.98 78.058 96.98 35.937 0 60.668-10.86 78.83-39.57h.773l2.705 31.81h123.27V31.05zm153.393-7.76c-100.47 0-135.635 21.72-135.635 85.34 0 46.93 37.1 69.43 112.45 69.43 0 10.08-10.434 13.19-34.779 13.19-29.754 0-57.963-6.6-72.261-16.68l-3.864 95.03c41.734 6.59 77.671 9.7 108.585 9.7 100.471 0 135.635-21.73 135.635-85.34 0-49.26-35.937-72.92-108.972-72.92 0-8.92 8.888-12.41 33.233-12.41 27.436 0 51.394 6.2 63.374 15.51l3.864-91.15a545 545 0 0 0-101.63-9.7zM896.853.02H767.787v271.52h129.066V122.59c2.705-2.33 6.956-3.49 11.979-3.49 10.047 0 13.525 5.43 13.525 20.94v131.5h129.069V120.26c0-69.82-21.26-96.97-76.9-96.97-36.33 0-59.125 11.64-76.9 39.57h-.773V.02z" fill="#1e1e1e" fill-rule="evenodd"/></svg>