<?xml version="1.0" encoding="utf-8"?>
<!-- Generator: Adobe Illustrator 25.3.1, SVG Export Plug-In . SVG Version: 6.00 Build 0)  -->
<svg version="1.1" id="Layer_1" xmlns="http://www.w3.org/2000/svg" xmlns:xlink="http://www.w3.org/1999/xlink" x="0px" y="0px"
	 viewBox="0 0 43 791" style="enable-background:new 0 0 43 791;" xml:space="preserve">
<style type="text/css">
	.st0{fill:#1E1E1E;}
</style>
<g>
	<rect class="st0" width="43" height="9"/>
</g>
<g>
	<rect y="34" class="st0" width="43" height="9"/>
</g>
<g>
	<rect y="68" class="st0" width="43" height="9"/>
</g>
<g>
	<rect y="102" class="st0" width="43" height="9"/>
</g>
<g>
	<rect y="136" class="st0" width="43" height="9"/>
</g>
<g>
	<rect y="170" class="st0" width="43" height="9"/>
</g>
<g>
	<rect y="204" class="st0" width="43" height="9"/>
</g>
<g>
	<rect y="238" class="st0" width="43" height="9"/>
</g>
<g>
	<rect y="272" class="st0" width="43" height="9"/>
</g>
<g>
	<rect y="306" class="st0" width="43" height="9"/>
</g>
<g>
	<rect y="340" class="st0" width="43" height="9"/>
</g>
<g>
	<rect y="374" class="st0" width="43" height="9"/>
</g>
<g>
	<rect y="408" class="st0" width="43" height="9"/>
</g>
<g>
	<rect y="442" class="st0" width="43" height="9"/>
</g>
<g>
	<rect y="476" class="st0" width="43" height="9"/>
</g>
<g>
	<rect y="510" class="st0" width="43" height="9"/>
</g>
<g>
	<rect y="544" class="st0" width="43" height="9"/>
</g>
<g>
	<rect y="578" class="st0" width="43" height="9"/>
</g>
<g>
	<rect y="612" class="st0" width="43" height="9"/>
</g>
<g>
	<rect y="646" class="st0" width="43" height="9"/>
</g>
<g>
	<rect y="680" class="st0" width="43" height="9"/>
</g>
<g>
	<rect y="714" class="st0" width="43" height="9"/>
</g>
<g>
	<rect y="748" class="st0" width="43" height="9"/>
</g>
<g>
	<rect y="782" class="st0" width="43" height="9"/>
</g>
</svg>
