<svg xmlns="http://www.w3.org/2000/svg" width="1053.219" height="348.37" xmlns:v="https://vecta.io/nano"><path d="M317.776 0H.012v133.54h68.575v205.15h180.614V133.54h68.575V0zm181.563 0h-161.3v338.69h161.3v-185.8c3.381-2.9 8.693-4.35 14.971-4.35 12.556 0 16.9 6.77 16.9 26.13v164.02h161.3v-188.7c0-87.09-26.561-120.96-96.1-120.96-45.395 0-73.887 14.52-96.1 49.35h-.971V0zm393.08 29.03c-125.078 0-180.614 48.38-180.614 157.73 0 114.19 60.848 161.6 208.623 161.6 44.911 0 84.991-4.35 120.731-12.09l-4.83-131.61c-32.84 8.23-57.47 11.62-91.27 11.62-43.948 0-61.333-5.81-63.748-24.68h167.578c2.41-7.74 4.34-29.03 4.34-44.51 0-80.8-50.7-118.06-160.81-118.06zm7.727 85.16c15.453 0 19.8 8.7 20.282 39.67h-40.565c.483-30.97 4.829-39.67 20.283-39.67z" fill="#1e1e1e" fill-rule="evenodd"/></svg>