<svg xmlns="http://www.w3.org/2000/svg" width="119.068" height="21.076" viewBox="0 0 481.279 85.188">
  <defs>
    <style>
      .cls-1 {
        fill: #1e1e1e;
        fill-rule: evenodd;
      }
    </style>
  </defs>
  <path id="title" class="cls-1" d="M590.168,263.164c-6.946,0-10.211,2.375-10.211,7.362s3.265,7.361,10.211,7.361,10.211-2.374,10.211-7.361S597.114,263.164,590.168,263.164Zm9.914,15.139a24.676,24.676,0,0,1-9.914,1.781,25.075,25.075,0,0,1-9.914-1.781v27.605h19.828V278.3Zm23.451-10.389c-15.435,0-20.837,3.324-20.837,13.06,0,7.184,5.7,10.627,17.275,10.627,0,1.543-1.6,2.018-5.343,2.018-4.571,0-8.905-1.009-11.1-2.553l-0.594,14.545a108.5,108.5,0,0,0,16.682,1.484c15.435,0,20.837-3.324,20.837-13.06,0-7.54-5.521-11.161-16.741-11.161,0-1.365,1.365-1.9,5.106-1.9,4.214,0,7.895.95,9.736,2.375l0.593-13.951A84.127,84.127,0,0,0,623.533,267.914Zm46.782,0a96.486,96.486,0,0,0-17.1,1.484l0.593,16.563c2.494-1.484,7.006-2.375,11.755-2.375,5.936,0,8.608,1.366,8.608,4.393V288.1h-0.119a22.616,22.616,0,0,0-9.677-1.9c-8.192,0-12.17,3.444-12.17,10.568,0,6.945,3.741,10.329,11.4,10.329,5.165,0,9.083-1.543,11.457-4.512h0.119l0.772,3.325h18.7a44.326,44.326,0,0,1-.594-8.133v-11.4C694.061,272.6,688.006,267.914,670.315,267.914Zm2.137,24.874a2.685,2.685,0,0,1,1.722.475v5.105a2.679,2.679,0,0,1-1.722.475c-1.662,0-2.256-.712-2.256-3.027S670.79,292.788,672.452,292.788Zm74.091-28.436H708.371v41.556h22.2V297h14.782V282.815H730.574v-3.147h15.969V264.352Zm29.21,3.562a8.818,8.818,0,0,0-9.024,7.777H766.61l-0.178-6.59h-17.1v36.807h19.947v-13.3c0-4.393,1.6-6.59,5.758-6.59a14.578,14.578,0,0,1,3.384.357V268.211A11.106,11.106,0,0,0,775.753,267.914Zm26.953,0c-15.851,0-23.034,6.055-23.034,19.591s7.183,19.59,23.034,19.59,23.034-6.055,23.034-19.59S818.557,267.914,802.706,267.914Zm0,14.663c1.781,0,2.315,1.069,2.315,4.928s-0.534,4.927-2.315,4.927-2.315-1.069-2.315-4.927S800.925,282.577,802.706,282.577ZM860,267.914c-5.818,0-9.558,1.84-12.17,6.055h-0.119l-0.415-4.868H828.354v36.807h19.828v-22.8a3.338,3.338,0,0,1,1.841-.534c1.543,0,2.077.831,2.077,3.206v20.125h19.829V282.755C871.929,272.01,868.663,267.914,860,267.914Zm34.969-3.562H875.136v27.367c0,11.161,4.809,15.376,17.751,15.376a35.358,35.358,0,0,0,9.38-1.187V288.692a11.906,11.906,0,0,1-4.334.831c-2.256,0-2.968-.653-2.968-2.375v-3.68h7.3V269.1h-7.3v-4.749Zm28.913,15.376H904.762v13.179h19.116V279.728Zm42.447-15.376H927.263v41.556h39.062V292.669h-16.86v-3.146h15.673v-8.786H949.465V277.59h16.86V264.352Zm35.025,3.562c-5.815,0-9.555,1.84-12.167,6.055h-0.118l-0.416-4.868H969.711v36.807h19.828v-22.8a3.338,3.338,0,0,1,1.841-.534c1.543,0,2.078.831,2.078,3.206v20.125h19.832V282.755C1013.29,272.01,1010.02,267.914,1001.35,267.914Zm59.13-3.562h-19.82v6.293h-0.12c-2.38-1.841-5.41-2.731-9.26-2.731-10.45,0-15.62,6.589-15.62,19.887,0,12.7,4.69,19.294,14.07,19.294,5.11,0,8.85-1.959,11.28-6.055h0.12l0.42,4.868h19.53a43.822,43.822,0,0,1-.6-8.133V264.352Zm-21.61,18.225a2.908,2.908,0,0,1,1.79.534V291.9a2.908,2.908,0,0,1-1.79.534c-1.84,0-2.49-1.306-2.49-4.927S1037.03,282.577,1038.87,282.577ZM579.8,319.313v25.735h14.78c12.169,0,16.4-3.308,16.4-12.867s-4.228-12.868-16.4-12.868H579.8Zm14.339,8.86c1.948,0,2.5.883,2.5,4.008s-0.552,4.007-2.5,4.007h-0.589v-8.015h0.589Zm31.427-6.654c-9.522,0-13.75,3.676-13.75,11.985,0,8.677,4.632,12.28,15.882,12.28a43.451,43.451,0,0,0,9.191-.919l-0.367-10a26.106,26.106,0,0,1-6.949.882c-3.345,0-4.669-.441-4.853-1.875h12.758a15.882,15.882,0,0,0,.33-3.382C637.8,324.35,633.944,321.519,625.562,321.519Zm0.588,6.471c1.176,0,1.507.661,1.544,3.014h-3.088C624.643,328.651,624.973,327.99,626.15,327.99Zm39.664-5.736H653.13l-0.882,13.9h-0.956l-0.882-13.9H637.542l4.375,22.794h19.522Zm13.524-.735c-9.522,0-13.75,3.676-13.75,11.985,0,8.677,4.632,12.28,15.883,12.28a43.458,43.458,0,0,0,9.191-.919l-0.368-10a26.1,26.1,0,0,1-6.948.882c-3.346,0-4.67-.441-4.853-1.875H691.25a15.807,15.807,0,0,0,.331-3.382C691.581,324.35,687.721,321.519,679.338,321.519Zm0.588,6.471c1.177,0,1.508.661,1.545,3.014h-3.089C678.419,328.651,678.75,327.99,679.926,327.99Zm25.436-8.677H693.083v25.735h12.279V319.313Zm15.88,2.206c-9.817,0-14.265,3.75-14.265,12.132s4.448,12.133,14.265,12.133,14.265-3.75,14.265-12.133S731.058,321.519,721.242,321.519Zm0,9.081c1.1,0,1.434.662,1.434,3.051s-0.331,3.052-1.434,3.052-1.434-.662-1.434-3.052S720.139,330.6,721.242,330.6Zm34.92-9.081a7.5,7.5,0,0,0-6.985,3.75H749.1l-0.257-3.015H737.118v25.368H749.4v-3.529h0.074a9.135,9.135,0,0,0,5.772,1.691c6.434,0,9.633-4.081,9.633-12.316C764.876,325.6,761.971,321.519,756.162,321.519ZM750.5,330.6c1.14,0,1.545.809,1.545,3.051s-0.4,3.052-1.545,3.052a1.786,1.786,0,0,1-1.1-.331v-5.441A1.786,1.786,0,0,1,750.5,330.6Zm28.928-9.081c-9.522,0-13.75,3.676-13.75,11.985,0,8.677,4.633,12.28,15.883,12.28a43.458,43.458,0,0,0,9.191-.919l-0.368-10a26.1,26.1,0,0,1-6.948.882c-3.346,0-4.669-.441-4.853-1.875H791.34a15.807,15.807,0,0,0,.331-3.382C791.671,324.35,787.811,321.519,779.428,321.519Zm0.589,6.471c1.176,0,1.507.661,1.544,3.014h-3.088C778.509,328.651,778.84,327.99,780.017,327.99Zm29.517-6.471a5.462,5.462,0,0,0-5.589,4.816h-0.073l-0.11-4.081H793.173v22.794h12.353v-8.235c0-2.72.993-4.081,3.566-4.081a9.024,9.024,0,0,1,2.1.221V321.7A6.9,6.9,0,0,0,809.534,321.519ZM851.7,335.2a13.425,13.425,0,0,1-2.757.625,14.739,14.739,0,0,0,1.323-6.507h-7.5a5.22,5.22,0,0,0,2.316-4.669c0-4.044-2.72-6.066-7.9-6.066-6.14,0-9.007,2.831-9.154,9.044-6.508,1.176-9.706,4.007-9.706,9.375,0,5.956,3.97,8.787,12.242,8.787a21.669,21.669,0,0,0,8.272-1.361,16.772,16.772,0,0,0,7.133,1.361,24.785,24.785,0,0,0,6.1-.736Zm-15.551-9.228c0-1.875.33-2.5,1.25-2.5a1.1,1.1,0,0,1,1.25,1.14c0,0.956-.772,1.544-2.5,1.949v-0.589Zm3.97,5.478a6.355,6.355,0,0,1-.625,2.684,7.949,7.949,0,0,1-2.353-3.014c1.287-.221,2.133-0.405,2.941-0.625A5.465,5.465,0,0,1,840.116,331.445Zm-12.39,4.339a3.3,3.3,0,0,1,.956-2.427A18.347,18.347,0,0,0,831,338.541C828.793,338.431,827.726,337.548,827.726,335.784Zm32.823-16.471v25.735h14.779c12.169,0,16.4-3.308,16.4-12.867s-4.228-12.868-16.4-12.868H860.549Zm14.338,8.86c1.949,0,2.5.883,2.5,4.008s-0.551,4.007-2.5,4.007H874.3v-8.015h0.588Zm31.427-6.654c-9.522,0-13.75,3.676-13.75,11.985,0,8.677,4.632,12.28,15.883,12.28a43.458,43.458,0,0,0,9.191-.919l-0.368-10a26.1,26.1,0,0,1-6.948.882c-3.346,0-4.67-.441-4.853-1.875h12.757a15.807,15.807,0,0,0,.331-3.382C918.557,324.35,914.7,321.519,906.314,321.519Zm0.588,6.471c1.177,0,1.508.661,1.545,3.014h-3.089C905.4,328.651,905.726,327.99,906.9,327.99Zm25.326-6.471c-9.559,0-12.9,2.059-12.9,8.088,0,4.449,3.529,6.581,10.7,6.581,0,0.956-.993,1.25-3.309,1.25-2.831,0-5.514-.625-6.875-1.581l-0.367,9.008a67.161,67.161,0,0,0,10.331.919c9.558,0,12.9-2.059,12.9-8.089,0-4.669-3.419-6.911-10.368-6.911,0-.846.846-1.177,3.162-1.177,2.61,0,4.89.588,6.03,1.471l0.367-8.64A52.088,52.088,0,0,0,932.228,321.519Zm18.083-2.941c-4.3,0-6.323,1.47-6.323,4.559s2.022,4.558,6.323,4.558,6.324-1.47,6.324-4.558S954.613,318.578,950.311,318.578Zm6.14,9.375a15.282,15.282,0,0,1-6.14,1.1,15.532,15.532,0,0,1-6.14-1.1v17.1h12.28v-17.1Zm28.306-5.7h-9.963l-0.4,1.287a13,13,0,0,0-7.353-2.022c-5.845,0-9.117,2.9-9.117,8.456,0,5.147,2.794,7.9,8.419,7.9,2.978,0,5.037-.772,6.029-2.242h0.074v0.11c0,2.757-1.177,3.676-4.853,3.676a18.956,18.956,0,0,1-8.493-1.764l0.331,9.559a37.994,37.994,0,0,0,9.89,1.139c11.728,0,15.441-2.831,15.441-11.875V322.254Zm-13.419,6.508a1.79,1.79,0,0,1,1.1.33v3.162a1.235,1.235,0,0,1-1.14.625c-0.956,0-1.324-.551-1.324-2.1C969.977,329.313,970.308,328.762,971.338,328.762Zm35.252-7.243c-3.6,0-5.92,1.14-7.537,3.75h-0.074l-0.257-3.015H986.994v22.794h12.28V330.931a2.057,2.057,0,0,1,1.136-.331c0.96,0,1.29.515,1.29,1.985v12.463h12.28V330.71C1013.98,324.056,1011.96,321.519,1006.59,321.519Zm22.6,0c-9.52,0-13.75,3.676-13.75,11.985,0,8.677,4.64,12.28,15.89,12.28a43.434,43.434,0,0,0,9.19-.919l-0.37-10a26.134,26.134,0,0,1-6.95.882c-3.34,0-4.67-.441-4.85-1.875h12.76a16.082,16.082,0,0,0,.33-3.382C1041.44,324.35,1037.58,321.519,1029.19,321.519Zm0.59,6.471c1.18,0,1.51.661,1.55,3.014h-3.09C1028.27,328.651,1028.61,327.99,1029.78,327.99Zm29.52-6.471a5.462,5.462,0,0,0-5.59,4.816h-0.07l-0.11-4.081h-10.59v22.794h12.35v-8.235c0-2.72.99-4.081,3.57-4.081a8.961,8.961,0,0,1,2.09.221V321.7A6.865,6.865,0,0,0,1059.3,321.519Z" transform="translate(-579.781 -263.156)"/>
</svg>
