<svg xmlns="http://www.w3.org/2000/svg" width="1059.69" height="109.19" viewBox="0 0 1059.69 109.19">
  <defs>
    <style>
      .cls-1 {
        fill: #1e1e1e;
        fill-rule: evenodd;
      }
    </style>
  </defs>
  <path id="well_done_is" data-name="well done is" class="cls-1" d="M245.82,1953.96H196.6l-3.526,55.79H189.55l-3.526-55.79H132.692l-3.526,55.79H125.64l-3.526-55.79h-50.1l14.4,91.5H154.73l3.673-52.83h2.057l3.673,52.83h67.289Zm54.351-2.95c-38.052,0-54.947,14.76-54.947,48.11,0,34.83,18.512,49.29,63.469,49.29a172.924,172.924,0,0,0,36.729-3.69l-1.469-40.14a103.828,103.828,0,0,1-27.767,3.54c-13.37,0-18.659-1.77-19.394-7.52h50.981c0.735-2.37,1.322-8.86,1.322-13.58C349.1,1962.38,333.669,1951.01,300.171,1951.01Zm2.351,25.97c4.7,0,6.024,2.66,6.171,12.11H296.352C296.5,1979.64,297.821,1976.98,302.522,1976.98Zm101.663-34.82H355.114v103.3h49.071v-103.3Zm58.764,0H413.878v103.3h49.071v-103.3Zm143.828,0H557.706v15.64h-0.294c-5.876-4.57-13.369-6.79-22.919-6.79-25.858,0-38.64,16.38-38.64,49.44,0,31.58,11.607,47.96,34.82,47.96,12.635,0,21.891-4.87,27.915-15.05h0.293l1.029,12.1h48.336a110.655,110.655,0,0,1-1.469-20.22v-83.08Zm-53.478,45.3a7.087,7.087,0,0,1,4.407,1.33v21.84a7.087,7.087,0,0,1-4.407,1.33c-4.555,0-6.171-3.25-6.171-12.25S548.744,1987.46,553.3,1987.46Zm116.206-36.45c-39.227,0-57,15.05-57,48.7s17.778,48.7,57.005,48.7,57-15.05,57-48.7S708.732,1951.01,669.505,1951.01Zm0,36.45c4.408,0,5.73,2.66,5.73,12.25s-1.322,12.25-5.73,12.25-5.73-2.66-5.73-12.25S665.1,1987.46,669.505,1987.46Zm141.77-36.45c-14.4,0-23.654,4.58-30.118,15.05h-0.294l-1.029-12.1H732.967v91.5h49.071v-56.67a8.186,8.186,0,0,1,4.555-1.33c3.819,0,5.142,2.07,5.142,7.97v50.03h49.071V1987.9C840.806,1961.2,832.725,1951.01,811.275,1951.01Zm90.349,0c-38.052,0-54.948,14.76-54.948,48.11,0,34.83,18.512,49.29,63.469,49.29a172.917,172.917,0,0,0,36.729-3.69l-1.469-40.14a103.828,103.828,0,0,1-27.767,3.54c-13.37,0-18.659-1.77-19.394-7.52h50.981c0.735-2.37,1.322-8.86,1.322-13.58C950.547,1962.38,935.121,1951.01,901.624,1951.01Zm2.35,25.97c4.7,0,6.024,2.66,6.171,12.11H897.8C897.951,1979.64,899.273,1976.98,903.974,1976.98Zm103.276-37.77c-17.189,0-25.269,5.9-25.269,18.3s8.08,18.29,25.269,18.29,25.27-5.9,25.27-18.29S1024.44,1939.21,1007.25,1939.21Zm24.54,37.63c-6.76,2.95-14.84,4.42-24.54,4.42-9.549,0-17.629-1.47-24.534-4.42v68.62h49.074v-68.62Zm58.03-25.83c-38.2,0-51.57,8.27-51.57,32.47,0,17.85,14.1,26.41,42.75,26.41,0,3.84-3.97,5.02-13.22,5.02-11.31,0-22.04-2.51-27.48-6.35l-1.46,36.16a267.055,267.055,0,0,0,41.28,3.69c38.2,0,51.57-8.27,51.57-32.47,0-18.74-13.67-27.74-41.43-27.74,0-3.39,3.38-4.72,12.63-4.72,10.43,0,19.54,2.36,24.1,5.9l1.47-34.68A207.283,207.283,0,0,0,1089.82,1951.01Z" transform="translate(-72 -1939.22)"/>
</svg>
