<svg xmlns="http://www.w3.org/2000/svg" width="1059.69" height="109.19" xmlns:v="https://vecta.io/nano"><path d="M173.82 14.74H124.6l-3.526 55.79h-3.524l-3.526-55.79H60.692l-3.526 55.79H53.64l-3.526-55.79H.014l14.4 91.5H82.73l3.673-52.83h2.057l3.673 52.83h67.289zm54.351-2.95c-38.052 0-54.947 14.76-54.947 48.11 0 34.83 18.512 49.29 63.469 49.29 12.34.084 24.653-1.153 36.729-3.69l-1.469-40.14a103.83 103.83 0 0 1-27.767 3.54c-13.37 0-18.659-1.77-19.394-7.52h50.981c.735-2.37 1.322-8.86 1.322-13.58.005-24.64-15.426-36.01-48.924-36.01zm2.351 25.97c4.7 0 6.024 2.66 6.171 12.11h-12.341c.148-9.45 1.469-12.11 6.17-12.11zM332.185 2.94h-49.071v103.3h49.071V2.94zm58.764 0h-49.071v103.3h49.071V2.94zm143.828 0h-49.071v15.64h-.294c-5.876-4.57-13.369-6.79-22.919-6.79-25.858 0-38.64 16.38-38.64 49.44 0 31.58 11.607 47.96 34.82 47.96 12.635 0 21.891-4.87 27.915-15.05h.293l1.029 12.1h48.336c-1.107-6.681-1.599-13.449-1.469-20.22V2.94zm-53.478 45.3c1.576-.059 3.127.409 4.407 1.33v21.84c-1.28.921-2.831 1.389-4.407 1.33-4.555 0-6.171-3.25-6.171-12.25s1.616-12.25 6.172-12.25zm116.206-36.45c-39.227 0-57 15.05-57 48.7s17.778 48.7 57.005 48.7 57-15.05 57-48.7-17.778-48.7-57.005-48.7zm0 36.45c4.408 0 5.73 2.66 5.73 12.25s-1.322 12.25-5.73 12.25-5.73-2.66-5.73-12.25 1.325-12.25 5.73-12.25zm141.77-36.45c-14.4 0-23.654 4.58-30.118 15.05h-.294l-1.029-12.1h-46.867v91.5h49.071V49.57c1.354-.883 2.939-1.346 4.555-1.33 3.819 0 5.142 2.07 5.142 7.97v50.03h49.071V48.68c0-26.7-8.081-36.89-29.531-36.89zm90.349 0c-38.052 0-54.948 14.76-54.948 48.11 0 34.83 18.512 49.29 63.469 49.29 12.34.084 24.653-1.153 36.729-3.69l-1.469-40.14a103.83 103.83 0 0 1-27.767 3.54c-13.37 0-18.659-1.77-19.394-7.52h50.981c.735-2.37 1.322-8.86 1.322-13.58 0-24.64-15.426-36.01-48.923-36.01zm2.35 25.97c4.7 0 6.024 2.66 6.171 12.11H825.8c.151-9.45 1.473-12.11 6.174-12.11zM935.25-.01c-17.189 0-25.269 5.9-25.269 18.3s8.08 18.29 25.269 18.29 25.27-5.9 25.27-18.29-8.08-18.3-25.27-18.3zm24.54 37.63c-6.76 2.95-14.84 4.42-24.54 4.42-9.549 0-17.629-1.47-24.534-4.42v68.62h49.074V37.62zm58.03-25.83c-38.2 0-51.57 8.27-51.57 32.47 0 17.85 14.1 26.41 42.75 26.41 0 3.84-3.97 5.02-13.22 5.02-11.31 0-22.04-2.51-27.48-6.35l-1.46 36.16c13.644 2.297 27.445 3.531 41.28 3.69 38.2 0 51.57-8.27 51.57-32.47 0-18.74-13.67-27.74-41.43-27.74 0-3.39 3.38-4.72 12.63-4.72 10.43 0 19.54 2.36 24.1 5.9l1.47-34.68c-12.736-2.436-25.673-3.671-38.64-3.69z" fill="#1e1e1e" fill-rule="evenodd"/></svg>